g Computer moniter
v -0.000260673463 0.000111174581 -0.000779479102
v -0.000261351175 0.000136080387 -0.000748044811
v -0.000289150164 0.00013829887 -0.000785430078
v -0.000338447077 0.000143613812 -0.000806258002
v -0.000315525511 0.000141481753 -0.000769606209
v -0.000354304299 0.000121632809 -0.000788597157
v -0.000338447077 0.000143613812 -0.000806258002
v -0.000354304299 0.000121632809 -0.000788597157
v -0.000375785225 0.000123773803 -0.000825800002
v -0.000261728768 7.94404696E-05 -0.000813283899
v -0.000225191703 8.0013866E-05 -0.000822815869
v -0.000250982033 6.49166104E-05 -0.000838111911
v -0.000261728768 7.94404696E-05 -0.000813283899
v -0.000250982033 6.49166104E-05 -0.000838111911
v -0.000288369658 6.43193707E-05 -0.000828022661
v -0.000237625529 7.57336602E-05 -0.00075166818
v -0.000266280171 7.7874065E-05 -0.000787242025
v -0.00029403239 6.26873953E-05 -0.00080045819
v -0.00131722167 -0.000266389834 -0.000594172161
v -0.00158147386 -0.000366184104 -0.000594172161
v -0.00158147386 -0.000417907839 -0.000594172161
v -0.00131722167 -0.000318112958 -0.000594172161
v -0.00105296925 -0.000169709921 -0.000594172161
v -0.00105296925 -0.000221433045 -0.000594172161
v -0.000788716949 -8.28468765E-05 -0.000594172161
v -0.000788716949 -0.000134570597 -0.000594172161
v -0.000524464529 -1.25032657E-05 -0.000594172161
v -0.000524464529 -6.42269806E-05 -0.000594172161
v -0.000260212109 3.4618377E-05 -0.000594172161
v -0.000260212109 -1.71053398E-05 -0.000594172161
v 4.04000275E-06 5.1814317E-05 -0.000594172161
v 4.04030061E-06 9.05990589E-08 -0.000594172161
v 0.00026829241 3.46177803E-05 -0.000594172161
v 0.00026829241 -1.71059364E-05 -0.000594172161
v 0.000532544858 -1.25032657E-05 -0.000594172161
v 0.000532544858 -6.42269806E-05 -0.000594172161
v 0.000796797278 -8.28468765E-05 -0.000594172161
v 0.000796797278 -0.000134570597 -0.000594172161
v 0.00106104941 -0.000169709921 -0.000594172161
v 0.00106104941 -0.000221433627 -0.000594172161
v 0.00132530148 -0.000266389834 -0.000594172161
v 0.00132530148 -0.000318113569 -0.000594172161
v 0.0015895539 -0.000366184715 -0.000594172161
v 0.0015895539 -0.000417908421 -0.000594172161
v -0.00131722167 -0.000266389834 0.00102334225
v -0.00158147386 -0.000417907839 0.00102334225
v -0.00158147386 -0.000366184104 0.00102334225
v -0.00131722167 -0.000318112958 0.00102334225
v -0.00105296925 -0.000169709921 0.00102334225
v -0.00105296925 -0.000221433045 0.00102334225
v -0.000788716949 -8.28468765E-05 0.00102334225
v -0.000788716949 -0.000134570597 0.00102334225
v -0.000524464529 -1.25032657E-05 0.00102334225
v -0.000524464529 -6.42269806E-05 0.00102334225
v -0.000260212109 3.4618377E-05 0.00102334225
v -0.000260212109 -1.71053398E-05 0.00102334225
v 4.04000275E-06 5.1814317E-05 0.00102334225
v 4.04030061E-06 9.05990589E-08 0.00102334225
v 0.00026829241 3.46177803E-05 0.00102334225
v 0.00026829241 -1.71059364E-05 0.00102334225
v 0.000532544858 -1.25032657E-05 0.00102334225
v 0.000532544858 -6.42269806E-05 0.00102334225
v 0.000796797278 -8.28468765E-05 0.00102334225
v 0.000796797278 -0.000134570597 0.00102334225
v 0.00106104941 -0.000169709921 0.00102334225
v 0.00106104941 -0.000221433627 0.00102334225
v 0.00132530148 -0.000266389834 0.00102334225
v 0.00132530148 -0.000318113569 0.00102334225
v 0.0015895539 -0.000366184715 0.00102334225
v 0.0015895539 -0.000417908421 0.00102334225
v -0.00158147386 -0.000366184104 -0.000594172161
v -0.00158147386 -0.000366184104 0.00102334225
v -0.00158147386 -0.000417907839 0.00102334225
v -0.00158147386 -0.000417907839 -0.000594172161
v 0.0015895539 -0.000417908421 -0.000594172161
v 0.0015895539 -0.000417908421 0.00102334225
v 0.0015895539 -0.000366184715 0.00102334225
v 0.0015895539 -0.000366184715 -0.000594172161
v -0.00131722167 -0.000266389834 -0.000594172161
v -0.00158147386 -0.000366184104 0.00102334225
v -0.00158147386 -0.000366184104 -0.000594172161
v -0.00131722167 -0.000266389834 0.00102334225
v -0.00105296925 -0.000169709921 -0.000594172161
v -0.00105296925 -0.000169709921 0.00102334225
v -0.000788716949 -8.28468765E-05 -0.000594172161
v -0.000788716949 -8.28468765E-05 0.00102334225
v -0.000524464529 -1.25032657E-05 -0.000594172161
v -0.000524464529 -1.25032657E-05 0.00102334225
v -0.000260212109 3.4618377E-05 -0.000594172161
v -0.000260212109 3.4618377E-05 0.00102334225
v 4.04000275E-06 5.1814317E-05 -0.000594172161
v 4.04000275E-06 5.1814317E-05 0.00102334225
v 0.00026829241 3.46177803E-05 -0.000594172161
v 0.00026829241 3.46177803E-05 0.00102334225
v 0.000532544858 -1.25032657E-05 -0.000594172161
v 0.000532544858 -1.25032657E-05 0.00102334225
v 0.000796797278 -8.28468765E-05 -0.000594172161
v 0.000796797278 -8.28468765E-05 0.00102334225
v 0.00106104941 -0.000169709921 -0.000594172161
v 0.00106104941 -0.000169709921 0.00102334225
v 0.00132530148 -0.000266389834 -0.000594172161
v 0.00132530148 -0.000266389834 0.00102334225
v 0.0015895539 -0.000366184715 -0.000594172161
v 0.0015895539 -0.000366184715 0.00102334225
v -0.000186540783 -0.000443301193 -0.000928925234
v -0.00027102232 -0.00039021729 -0.000928925234
v -0.00027102232 -0.00039021729 -0.000857395818
v -0.000341574254 -0.000319665676 -0.000857395818
v -0.000341574254 -0.000319665676 -0.000928925234
v -0.000394657545 -0.000235183834 -0.000857395818
v -0.000394657545 -0.000235183834 -0.000928925234
v -0.000186540783 -0.000443301193 -0.000928925234
v -0.00027102232 -0.00039021729 -0.000857395818
v -0.000186540783 -0.000443301193 -0.000857395818
v -9.23648477E-05 -0.00047625482 -0.000928925234
v -9.23648477E-05 -0.00047625482 -0.000857395818
v 6.78330662E-06 -0.000487425918 -0.000928925234
v 6.78330662E-06 -0.000487425918 -0.000857395818
v 0.000105930565 -0.00047625482 -0.000928925234
v 0.000105930565 -0.00047625482 -0.000857395818
v 0.000200106791 -0.000443301193 -0.000928925234
v 0.000200106791 -0.000443301193 -0.000857395818
v 0.000284588925 -0.00039021729 -0.000928925234
v 0.000284588925 -0.00039021729 -0.000857395818
v 0.000355140248 -0.000319666258 -0.000928925234
v 0.000284588925 -0.00039021729 -0.000928925234
v 0.000284588925 -0.00039021729 -0.000857395818
v 0.000355140248 -0.000319666258 -0.000857395818
v 0.000408223859 -0.000235183834 -0.000928925234
v 0.000408223859 -0.000235183834 -0.000857395818
v 0.000441177486 -0.000141007898 -0.000928925234
v 0.000441177486 -0.000141007898 -0.000857395818
v 0.000452348875 -4.18603413E-05 -0.000928925234
v 0.000452348875 -4.18603413E-05 -0.000857395818
v 0.000441177486 5.72872159E-05 -0.000928925234
v 0.000441177486 5.72872159E-05 -0.000928925234
v 0.000452348875 -4.18603413E-05 -0.000857395818
v 0.000441177486 5.72872159E-05 -0.000857395818
v 0.000408223859 0.000151463144 -0.000928925234
v 0.000408223859 0.000151463144 -0.000857395818
v 0.000355140568 0.000235944986 -0.000928925234
v 0.000355140568 0.000235944986 -0.000857395818
v 0.000284588925 0.0003064966 -0.000928925234
v 0.000355140568 0.000235944986 -0.000928925234
v 0.000355140568 0.000235944986 -0.000857395818
v 0.000284588925 0.0003064966 -0.000857395818
v 0.000200107097 0.000359580503 -0.000928925234
v 0.000200107097 0.000359580503 -0.000857395818
v 0.000105930863 0.00039253413 -0.000928925234
v 0.000105930863 0.00039253413 -0.000857395818
v 6.78330662E-06 0.000403705228 -0.000928925234
v 0.000105930863 0.00039253413 -0.000928925234
v 0.000105930863 0.00039253413 -0.000857395818
v 6.78330662E-06 0.000403705228 -0.000857395818
v -9.23645493E-05 0.00039253413 -0.000928925234
v -9.23645493E-05 0.00039253413 -0.000857395818
v -0.000186540477 0.000359580503 -0.000928925234
v -0.000186540477 0.000359580503 -0.000857395818
v -0.00027102232 0.000306497212 -0.000928925234
v -0.000186540477 0.000359580503 -0.000928925234
v -0.000186540477 0.000359580503 -0.000857395818
v -0.00027102232 0.000306497212 -0.000857395818
v -0.000341574254 0.000235944986 -0.000928925234
v -0.000341574254 0.000235944986 -0.000857395818
v -0.000394657545 0.000151463741 -0.000928925234
v -0.000394657545 0.000151463741 -0.000857395818
v -0.000427611172 5.72872159E-05 -0.000928925234
v -0.000427611172 5.72872159E-05 -0.000857395818
v -0.000438782561 -4.18603413E-05 -0.000928925234
v -0.000427611172 5.72872159E-05 -0.000928925234
v -0.000427611172 5.72872159E-05 -0.000857395818
v -0.000438782561 -4.18603413E-05 -0.000857395818
v -0.000427611172 -0.000141007898 -0.000928925234
v -0.000427611172 -0.000141007898 -0.000857395818
v -0.000394657545 -0.000235183834 -0.000928925234
v -0.000394657545 -0.000235183834 -0.000857395818
v -0.000261351175 0.000136080387 -0.000748044811
v -5.90708842E-05 9.89985419E-05 -0.000552675105
v -5.85329508E-05 0.000123745194 -0.000515305379
v -0.000231846861 0.000109059809 -0.000744465564
v -0.000260673463 0.000111174581 -0.000779479102
v 6.66135529E-05 0.000123745194 -0.000515305379
v 6.71514863E-05 9.89985419E-05 -0.000552675105
v 0.000239927162 0.000109059809 -0.000744465564
v 0.000269431475 0.000136079791 -0.000748045102
v 0.000297231658 0.000138298274 -0.00078543066
v 0.000268753764 0.000111174581 -0.000779479102
v 6.55743497E-05 0.000101812482 -0.00041992843
v 6.64687177E-05 0.00012494206 -0.000460849697
v 0.000323606131 0.000141481753 -0.000769606209
v 0.000362384308 0.000121632809 -0.000788597157
v 0.000383865525 0.000123773221 -0.000825800002
v 0.000346526504 0.000143613812 -0.000806257711
v 6.53177485E-05 6.80148587E-05 -0.000418591779
v 6.55743497E-05 0.000101812482 -0.00041992843
v 0.000362384308 0.000121632809 -0.000788597157
v 0.00036825327 8.8350178E-05 -0.000796695356
v 0.000389583089 9.04941553E-05 -0.000834010832
v 0.000383865525 0.000123773221 -0.000825800002
v 6.62383391E-05 4.33838359E-05 -0.000458309631
v 6.53177485E-05 6.80148587E-05 -0.000418591779
v 0.00036825327 8.8350178E-05 -0.000796695356
v 0.000338498648 6.11561554E-05 -0.00078953593
v 0.000360737729 6.32834417E-05 -0.000826269679
v 0.000389583089 9.04941553E-05 -0.000834010832
v 6.71514863E-05 9.89985419E-05 -0.000552675105
v 6.68087596E-05 6.52211893E-05 -0.000551793259
v 0.000245706149 7.57330636E-05 -0.00075166818
v 0.000239927162 0.000109059809 -0.000744465564
v 0.000268753764 0.000111174581 -0.000779479102
v 0.000274360471 7.78734684E-05 -0.000787242025
v -0.000354304299 0.000121632809 -0.000788597157
v -0.000315525511 0.000141481753 -0.000769606209
v -5.83884103E-05 0.00012494206 -0.000460849697
v -5.74940423E-05 0.000101812482 -0.00041992843
v -0.00036017297 8.83507673E-05 -0.000796695356
v -0.000354304299 0.000121632809 -0.000788597157
v -5.74940423E-05 0.000101812482 -0.00041992843
v -5.72374447E-05 6.80148587E-05 -0.000418591779
v -0.000330418348 6.11567448E-05 -0.00078953593
v -5.72374447E-05 6.80148587E-05 -0.000418591779
v -5.81580389E-05 4.33838359E-05 -0.000458309631
v -0.00036017297 8.83507673E-05 -0.000796695356
v -0.000381502497 9.04941553E-05 -0.000834010832
v -0.000352656236 6.32834417E-05 -0.000826269388
v 0.000335604243 0.000125913619 -0.000863003137
v 0.000298538507 0.000145745871 -0.000842909503
v -0.000290457887 0.000145745871 -0.000842909503
v -0.000327523943 0.000125914215 -0.000863003137
v -0.000225191703 8.0013866E-05 -0.000822815869
v -0.000261728768 7.94404696E-05 -0.000813283899
v -0.000256313971 0.000112723108 -0.000805110903
v -0.000219936963 0.000113289949 -0.000814492989
v 0.000228017263 0.000113289949 -0.000814492989
v 0.000233272018 8.0013866E-05 -0.000822815869
v 0.000269809068 7.94404696E-05 -0.000813283899
v 0.000264394272 0.000112723108 -0.000805110903
v -0.000261728768 7.94404696E-05 -0.000813283899
v -0.000266280171 7.7874065E-05 -0.000787242025
v -0.000260673463 0.000111174581 -0.000779479102
v -0.000256313971 0.000112723108 -0.000805110903
v -0.000266280171 7.7874065E-05 -0.000787242025
v -0.000231846861 0.000109059809 -0.000744465564
v -0.000260673463 0.000111174581 -0.000779479102
v -0.000237625529 7.57336602E-05 -0.00075166818
v -5.87284558E-05 6.52211893E-05 -0.000551793259
v -5.90708842E-05 9.89985419E-05 -0.000552675105
v -0.000219936963 0.000113289949 -0.000814492989
v -0.000256313971 0.000112723108 -0.000805110903
v -0.000283796195 0.0001399225 -0.000812798098
v -0.000246724172 0.000140516757 -0.000822815869
v 0.000254804472 0.000140516757 -0.000822815869
v 0.000228017263 0.000113289949 -0.000814492989
v 0.000264394272 0.000112723108 -0.000805110903
v 0.000291877979 0.0001399225 -0.000812798738
v -0.000256313971 0.000112723108 -0.000805110903
v -0.000260673463 0.000111174581 -0.000779479102
v -0.000289150164 0.00013829887 -0.000785430078
v -0.000283796195 0.0001399225 -0.000812798098
v -0.000290457887 0.000145745871 -0.000842909503
v -0.000329271541 0.000145174854 -0.000833089056
v -0.000365983229 0.000125340215 -0.000853034551
v -0.000327523943 0.000125914215 -0.000863003137
v -0.000329271541 0.000145174854 -0.000833089056
v -0.000338447077 0.000143613812 -0.000806258002
v -0.000375785225 0.000123773803 -0.000825800002
v -0.000365983229 0.000125340215 -0.000853034551
v -0.000327523943 0.000125914215 -0.000863003137
v -0.000365983229 0.000125340215 -0.000853034551
v -0.000371655216 9.20641396E-05 -0.000861327338
v -0.000333269534 9.26381326E-05 -0.000871326018
v 0.000341349834 9.26381326E-05 -0.000871326018
v 0.000335604243 0.000125913619 -0.000863003137
v 0.000374063529 0.000125340215 -0.000853034551
v 0.000379735808 9.2063543E-05 -0.000861327338
v -0.000365983229 0.000125340215 -0.000853034551
v -0.000375785225 0.000123773803 -0.000825800002
v -0.000381502497 9.04941553E-05 -0.000834010832
v -0.000371655216 9.20641396E-05 -0.000861327338
v -0.000375785225 0.000123773803 -0.000825800002
v -0.000354304299 0.000121632809 -0.000788597157
v -0.00036017297 8.83507673E-05 -0.000796695356
v -0.000381502497 9.04941553E-05 -0.000834010832
v -0.000333269534 9.26381326E-05 -0.000871326018
v -0.000371655216 9.20641396E-05 -0.000861327338
v -0.000343231251 6.48409114E-05 -0.00085316028
v -0.00030466824 6.54113246E-05 -0.000863003137
v 0.000312748831 6.54107353E-05 -0.000863003137
v 0.000341349834 9.26381326E-05 -0.000871326018
v 0.000379735808 9.2063543E-05 -0.000861327338
v 0.000351313036 6.48409114E-05 -0.00085316092
v -0.000371655216 9.20641396E-05 -0.000861327338
v -0.000381502497 9.04941553E-05 -0.000834010832
v -0.000352656236 6.32834417E-05 -0.000826269388
v -0.000343231251 6.48409114E-05 -0.00085316028
v 0.000274360471 7.78734684E-05 -0.000787242025
v 0.000269809068 7.94404696E-05 -0.000813283899
v 0.000264394272 0.000112723108 -0.000805110903
v 0.000268753764 0.000111174581 -0.000779479102
v 0.000268753764 0.000111174581 -0.000779479102
v 0.000264394272 0.000112723108 -0.000805110903
v 0.000291877979 0.0001399225 -0.000812798738
v 0.000297231658 0.000138298274 -0.00078543066
v 0.000346526504 0.000143613812 -0.000806257711
v 0.000337350968 0.000145174257 -0.000833088416
v 0.000374063529 0.000125340215 -0.000853034551
v 0.000383865525 0.000123773221 -0.000825800002
v 0.000337350968 0.000145174257 -0.000833088416
v 0.000298538507 0.000145745871 -0.000842909503
v 0.000335604243 0.000125913619 -0.000863003137
v 0.000374063529 0.000125340215 -0.000853034551
v 0.000383865525 0.000123773221 -0.000825800002
v 0.000374063529 0.000125340215 -0.000853034551
v 0.000379735808 9.2063543E-05 -0.000861327338
v 0.000389583089 9.04941553E-05 -0.000834010832
v 0.000389583089 9.04941553E-05 -0.000834010832
v 0.000379735808 9.2063543E-05 -0.000861327338
v 0.000351313036 6.48409114E-05 -0.00085316092
v 0.000360737729 6.32834417E-05 -0.000826269679
v -5.87284558E-05 6.52211893E-05 -0.000551793259
v 6.68087596E-05 6.52211893E-05 -0.000551793259
v 6.71514863E-05 9.89985419E-05 -0.000552675105
v -5.90708842E-05 9.89985419E-05 -0.000552675105
v -5.90708842E-05 9.89985419E-05 -0.000552675105
v 6.71514863E-05 9.89985419E-05 -0.000552675105
v 6.66135529E-05 0.000123745194 -0.000515305379
v -5.85329508E-05 0.000123745194 -0.000515305379
v -5.83884103E-05 0.00012494206 -0.000460849697
v 6.64687177E-05 0.00012494206 -0.000460849697
v 6.55743497E-05 0.000101812482 -0.00041992843
v -5.74940423E-05 0.000101812482 -0.00041992843
v -5.74940423E-05 0.000101812482 -0.00041992843
v 6.55743497E-05 0.000101812482 -0.00041992843
v 6.53177485E-05 6.80148587E-05 -0.000418591779
v -5.72374447E-05 6.80148587E-05 -0.000418591779
v -5.72374447E-05 6.80148587E-05 -0.000418591779
v 6.53177485E-05 6.80148587E-05 -0.000418591779
v 6.62383391E-05 4.33838359E-05 -0.000458309631
v -5.81580389E-05 4.33838359E-05 -0.000458309631
v 6.68087596E-05 6.52211893E-05 -0.000551793259
v 6.65461994E-05 4.77069589E-05 -0.000522492221
v 0.000274532445 6.04581837E-05 -0.000762804411
v 0.000245706149 7.57330636E-05 -0.00075166818
v 0.000274360471 7.78734684E-05 -0.000787242025
v 0.00030211269 6.26873953E-05 -0.00080045819
v 6.68087596E-05 6.52211893E-05 -0.000551793259
v -5.87284558E-05 6.52211893E-05 -0.000551793259
v -5.84658956E-05 4.77069589E-05 -0.000522492221
v 6.65461994E-05 4.77069589E-05 -0.000522492221
v -0.000237625529 7.57336602E-05 -0.00075166818
v -5.84658956E-05 4.77069589E-05 -0.000522492221
v -5.87284558E-05 6.52211893E-05 -0.000551793259
v -0.000266452116 6.04581837E-05 -0.000762804411
v -0.00029403239 6.26873953E-05 -0.00080045819
v 0.000269809068 7.94404696E-05 -0.000813283899
v 0.000274360471 7.78734684E-05 -0.000787242025
v 0.00030211269 6.26873953E-05 -0.00080045819
v 0.000296450249 6.43193707E-05 -0.000828022661
v 0.000233272018 8.0013866E-05 -0.000822815869
v 0.000269809068 7.94404696E-05 -0.000813283899
v 0.000296450249 6.43193707E-05 -0.000828022661
v 0.000259062654 6.49166104E-05 -0.000838111911
v -0.000266280171 7.7874065E-05 -0.000787242025
v -0.000261728768 7.94404696E-05 -0.000813283899
v -0.000288369658 6.43193707E-05 -0.000828022661
v -0.00029403239 6.26873953E-05 -0.00080045819
v 0.000233272018 8.0013866E-05 -0.000822815869
v 0.000259062654 6.49166104E-05 -0.000838111911
v -0.000250982033 6.49166104E-05 -0.000838111911
v -0.000225191703 8.0013866E-05 -0.000822815869
v 0.000267151278 6.01816173E-05 -0.000842909794
v -0.00030466824 6.54113246E-05 -0.000863003137
v -0.000259070977 6.01822139E-05 -0.000842909794
v -0.000296725339 5.95772253E-05 -0.000828373712
v 0.000312748831 6.54107353E-05 -0.000863003137
v -0.000343231251 6.48409114E-05 -0.00085316028
v 0.000351313036 6.48409114E-05 -0.00085316092
v -0.000302736444 5.79243897E-05 -0.000800332113
v 0.00030480593 5.95772253E-05 -0.000828373712
v -0.000352656236 6.32834417E-05 -0.000826269388
v 0.000360737729 6.32834417E-05 -0.000826269679
v 0.000310816744 5.79243897E-05 -0.000800332113
v -0.000275492959 5.56671621E-05 -0.000766297278
v -0.000330418348 6.11567448E-05 -0.00078953593
v 0.000338498648 6.11561554E-05 -0.00078953593
v 0.00028357355 5.56671621E-05 -0.000766297278
v -5.81580389E-05 4.33838359E-05 -0.000458309631
v -5.83836409E-05 4.22137964E-05 -0.000513302104
v 6.64636464E-05 4.22137964E-05 -0.000513302104
v 6.62383391E-05 4.33838359E-05 -0.000458309631
v 0.000298538507 0.000145745871 -0.000842909503
v 0.000254804472 0.000140516757 -0.000822815869
v -0.000246724172 0.000140516757 -0.000822815869
v 0.000291877979 0.0001399225 -0.000812798738
v -0.000290457887 0.000145745871 -0.000842909503
v 0.000337350968 0.000145174257 -0.000833088416
v -0.000329271541 0.000145174854 -0.000833089056
v 0.000297231658 0.000138298274 -0.00078543066
v -0.000283796195 0.0001399225 -0.000812798098
v 0.000346526504 0.000143613812 -0.000806257711
v -0.000338447077 0.000143613812 -0.000806258002
v -0.000289150164 0.00013829887 -0.000785430078
v 0.000269431475 0.000136079791 -0.000748045102
v 0.000323606131 0.000141481753 -0.000769606209
v -0.000315525511 0.000141481753 -0.000769606209
v -0.000261351175 0.000136080387 -0.000748044811
v 6.64687177E-05 0.00012494206 -0.000460849697
v 6.66135529E-05 0.000123745194 -0.000515305379
v -5.85329508E-05 0.000123745194 -0.000515305379
v -5.83884103E-05 0.00012494206 -0.000460849697
v -9.23648477E-05 -0.00047625482 -0.000857395818
v -0.000156770649 -0.000381483434 -0.000857395818
v -7.70971164E-05 -0.000409362896 -0.000857395818
v -0.000186540783 -0.000443301193 -0.000857395818
v 6.78330662E-06 -0.000487425918 -0.000857395818
v -0.000228243458 -0.000336574303 -0.000857395818
v 6.78330662E-06 -0.000418813812 -0.000857395818
v -0.00027102232 -0.00039021729 -0.000857395818
v 0.000105930565 -0.00047625482 -0.000857395818
v -0.000287930947 -0.000276886829 -0.000857395818
v 9.06631321E-05 -0.000409362896 -0.000857395818
v -0.000341574254 -0.000319665676 -0.000857395818
v 0.000200106791 -0.000443301193 -0.000857395818
v -0.000332840078 -0.000205414297 -0.000857395818
v 0.000170336963 -0.000381484017 -0.000857395818
v -0.000394657545 -0.000235183834 -0.000857395818
v 0.000284588925 -0.00039021729 -0.000857395818
v -0.000360719248 -0.000125740175 -0.000857395818
v 0.000241809787 -0.000336574303 -0.000857395818
v -0.000427611172 -0.000141007898 -0.000857395818
v 0.000355140248 -0.000319666258 -0.000857395818
v -0.000370170455 -4.18603413E-05 -0.000857395818
v 0.00030149697 -0.000276886829 -0.000857395818
v -0.000438782561 -4.18603413E-05 -0.000857395818
v 0.000408223859 -0.000235183834 -0.000857395818
v -0.000360718957 4.20200813E-05 -0.000857395818
v 0.000346406392 -0.000205414297 -0.000857395818
v -0.000427611172 5.72872159E-05 -0.000857395818
v 0.000441177486 -0.000141007898 -0.000857395818
v -0.000332840078 0.000121693607 -0.000857395818
v 0.000374285562 -0.000125740757 -0.000857395818
v -0.000394657545 0.000151463741 -0.000857395818
v 0.000452348875 -4.18603413E-05 -0.000857395818
v -0.000287930947 0.000193166139 -0.000857395818
v 0.000383736769 -4.18603413E-05 -0.000857395818
v -0.000341574254 0.000235944986 -0.000857395818
v 0.000441177486 5.72872159E-05 -0.000857395818
v -0.000228243458 0.000252853613 -0.000857395818
v 0.000374285562 4.20194847E-05 -0.000857395818
v -0.00027102232 0.000306497212 -0.000857395818
v 0.000408223859 0.000151463144 -0.000857395818
v -0.000156770649 0.000297762745 -0.000857395818
v 0.000346406392 0.000121693607 -0.000857395818
v -0.000186540477 0.000359580503 -0.000857395818
v 0.000355140568 0.000235944986 -0.000857395818
v -7.70968181E-05 0.000325642235 -0.000857395818
v 0.000301497261 0.000193166139 -0.000857395818
v -9.23645493E-05 0.00039253413 -0.000857395818
v 0.000284588925 0.0003064966 -0.000857395818
v 6.78330662E-06 0.000335093122 -0.000857395818
v 0.000241809787 0.000252853613 -0.000857395818
v 6.78330662E-06 0.000403705228 -0.000857395818
v 0.000200107097 0.000359580503 -0.000857395818
v 9.06634305E-05 0.000325642235 -0.000857395818
v 0.000170337255 0.000297762745 -0.000857395818
v 0.000105930863 0.00039253413 -0.000857395818
v -9.23648477E-05 -0.00047625482 -0.000928925234
v -7.21880788E-05 -0.000387855165 -0.000978155993
v -0.000147198734 -0.000361607061 -0.000978155993
v -0.000186540783 -0.000443301193 -0.000928925234
v 6.78330662E-06 -0.000487425918 -0.000928925234
v -0.000214488799 -0.0003193265 -0.000978155993
v 6.78330662E-06 -0.000396752934 -0.000978155993
v -0.00027102232 -0.00039021729 -0.000928925234
v 0.000105930565 -0.00047625482 -0.000928925234
v -0.000270682853 -0.000263132446 -0.000978155993
v 8.57543928E-05 -0.000387855165 -0.000978155993
v -0.000341574254 -0.000319665676 -0.000928925234
v 0.000200106791 -0.000443301193 -0.000928925234
v -0.000312963704 -0.000195842382 -0.000978155993
v 0.000160765048 -0.000361607672 -0.000978155993
v -0.000394657545 -0.000235183834 -0.000928925234
v 0.000284588925 -0.00039021729 -0.000928925234
v -0.000339211227 -0.00012083113 -0.000978155993
v 0.000228055113 -0.0003193265 -0.000978155993
v -0.000427611172 -0.000141007898 -0.000928925234
v 0.000355140248 -0.000319666258 -0.000928925234
v -0.000348109606 -4.18603413E-05 -0.000978155993
v 0.000284249167 -0.000263132446 -0.000978155993
v -0.000438782561 -4.18603413E-05 -0.000928925234
v 0.000408223859 -0.000235183834 -0.000928925234
v -0.000339211227 3.71110436E-05 -0.000978155993
v 0.000326530338 -0.000195842382 -0.000978155993
v -0.000427611172 5.72872159E-05 -0.000928925234
v 0.000441177486 -0.000141007898 -0.000928925234
v -0.000312963704 0.000112121699 -0.000978155993
v 0.000352777832 -0.000120831726 -0.000978155993
v -0.000394657545 0.000151463741 -0.000928925234
v 0.000452348875 -4.18603413E-05 -0.000928925234
v -0.000270682853 0.000179411771 -0.000978155993
v 0.0003616756 -4.18603413E-05 -0.000978155993
v -0.000341574254 0.000235944986 -0.000928925234
v 0.000441177486 5.72872159E-05 -0.000928925234
v -0.000214488799 0.000235605825 -0.000978155993
v 0.000352777832 3.7110447E-05 -0.000978155993
v -0.00027102232 0.000306497212 -0.000928925234
v 0.000408223859 0.000151463144 -0.000928925234
v -0.000147198734 0.000277886371 -0.000978155993
v 0.000326530338 0.000112121699 -0.000978155993
v -0.000186540477 0.000359580503 -0.000928925234
v 0.000355140568 0.000235944986 -0.000928925234
v -7.21877805E-05 0.000304134475 -0.000978155993
v 0.000284249167 0.000179411174 -0.000978155993
v -9.23645493E-05 0.00039253413 -0.000928925234
v 0.000284588925 0.0003064966 -0.000928925234
v 6.78330662E-06 0.000313032273 -0.000978155993
v 0.000228055113 0.000235605825 -0.000978155993
v 6.78330662E-06 0.000403705228 -0.000928925234
v 0.000200107097 0.000359580503 -0.000928925234
v 8.57543928E-05 0.000304134475 -0.000978155993
v 0.000160765339 0.000277886371 -0.000978155993
v 0.000105930863 0.00039253413 -0.000928925234
v 0.00132530148 -0.000318113569 -0.000594172161
v 0.0015895539 -0.000417908421 0.00102334225
v 0.0015895539 -0.000417908421 -0.000594172161
v 0.00132530148 -0.000318113569 0.00102334225
v 0.00106104941 -0.000221433627 -0.000594172161
v 0.00106104941 -0.000221433627 0.00102334225
v 0.000796797278 -0.000134570597 -0.000594172161
v 0.000796797278 -0.000134570597 0.00102334225
v 0.000532544858 -6.42269806E-05 -0.000594172161
v 0.000532544858 -6.42269806E-05 0.00102334225
v 0.00026829241 -1.71059364E-05 -0.000594172161
v 0.00026829241 -1.71059364E-05 0.00102334225
v 4.04030061E-06 9.05990589E-08 -0.000594172161
v 4.04030061E-06 9.05990589E-08 0.00102334225
v -0.000260212109 -1.71053398E-05 -0.000594172161
v -0.000260212109 -1.71053398E-05 0.00102334225
v -0.000524464529 -6.42269806E-05 -0.000594172161
v -0.000524464529 -6.42269806E-05 0.00102334225
v -0.000788716949 -0.000134570597 -0.000594172161
v -0.000788716949 -0.000134570597 0.00102334225
v -0.00105296925 -0.000221433045 -0.000594172161
v -0.00105296925 -0.000221433045 0.00102334225
v -0.00131722167 -0.000318112958 -0.000594172161
v -0.00131722167 -0.000318112958 0.00102334225
v -0.00158147386 -0.000417907839 -0.000594172161
v -0.00158147386 -0.000417907839 0.00102334225
v 0.000228055113 -0.0003193265 -0.000978155993
v 0.00030149697 -0.000276886829 -0.000857395818
v 0.000241809787 -0.000336574303 -0.000857395818
v -0.000259070977 6.01822139E-05 -0.000842909794
v -0.000288369658 6.43193707E-05 -0.000828022661
v -0.000259070977 6.01822139E-05 -0.000842909794
v -0.000296725339 5.95772253E-05 -0.000828373712
v 0.00030480593 5.95772253E-05 -0.000828373712
v 0.000259062654 6.49166104E-05 -0.000838111911
v 0.00030480593 5.95772253E-05 -0.000828373712
v 0.000267151278 6.01816173E-05 -0.000842909794
v -0.000312963704 -0.000195842382 -0.000978155993
v -0.000270682853 -0.000263132446 -0.000978155993
v -0.000287930947 -0.000276886829 -0.000857395818
v -0.000332840078 -0.000205414297 -0.000857395818
v -0.000339211227 -0.00012083113 -0.000978155993
v -0.000360719248 -0.000125740175 -0.000857395818
v -0.000348109606 -4.18603413E-05 -0.000978155993
v -0.000370170455 -4.18603413E-05 -0.000857395818
v -0.000339211227 3.71110436E-05 -0.000978155993
v -0.000360718957 4.20200813E-05 -0.000857395818
v -0.000270682853 -0.000263132446 -0.000978155993
v -0.000228243458 -0.000336574303 -0.000857395818
v -0.000287930947 -0.000276886829 -0.000857395818
v -0.000214488799 -0.0003193265 -0.000978155993
v -0.000156770649 -0.000381483434 -0.000857395818
v -0.000147198734 -0.000361607061 -0.000978155993
v -7.70971164E-05 -0.000409362896 -0.000857395818
v -7.21880788E-05 -0.000387855165 -0.000978155993
v -7.21880788E-05 -0.000387855165 -0.000978155993
v 6.78330662E-06 -0.000418813812 -0.000857395818
v -7.70971164E-05 -0.000409362896 -0.000857395818
v 6.78330662E-06 -0.000396752934 -0.000978155993
v 9.06631321E-05 -0.000409362896 -0.000857395818
v 8.57543928E-05 -0.000387855165 -0.000978155993
v 0.000170336963 -0.000381484017 -0.000857395818
v 0.000160765048 -0.000361607672 -0.000978155993
v 0.000241809787 -0.000336574303 -0.000857395818
v 0.000228055113 -0.0003193265 -0.000978155993
v 0.000228055113 -0.0003193265 -0.000978155993
v 0.000284249167 -0.000263132446 -0.000978155993
v 0.00030149697 -0.000276886829 -0.000857395818
v 0.000346406392 -0.000205414297 -0.000857395818
v 0.000326530338 -0.000195842382 -0.000978155993
v 0.000374285562 -0.000125740757 -0.000857395818
v 0.000352777832 -0.000120831726 -0.000978155993
v 0.000383736769 -4.18603413E-05 -0.000857395818
v 0.0003616756 -4.18603413E-05 -0.000978155993
v 0.000374285562 4.20194847E-05 -0.000857395818
v 0.000352777832 3.7110447E-05 -0.000978155993
v 0.000346406392 0.000121693607 -0.000857395818
v 0.000326530338 0.000112121699 -0.000978155993
v 0.000326530338 0.000112121699 -0.000978155993
v 0.000301497261 0.000193166139 -0.000857395818
v 0.000346406392 0.000121693607 -0.000857395818
v 0.000284249167 0.000179411174 -0.000978155993
v 0.000241809787 0.000252853613 -0.000857395818
v 0.000228055113 0.000235605825 -0.000978155993
v 0.000228055113 0.000235605825 -0.000978155993
v 0.000170337255 0.000297762745 -0.000857395818
v 0.000241809787 0.000252853613 -0.000857395818
v 0.000160765339 0.000277886371 -0.000978155993
v 9.06634305E-05 0.000325642235 -0.000857395818
v 8.57543928E-05 0.000304134475 -0.000978155993
v 6.78330662E-06 0.000335093122 -0.000857395818
v 6.78330662E-06 0.000313032273 -0.000978155993
v -7.70968181E-05 0.000325642235 -0.000857395818
v -7.21877805E-05 0.000304134475 -0.000978155993
v -0.000156770649 0.000297762745 -0.000857395818
v -0.000147198734 0.000277886371 -0.000978155993
v -0.000228243458 0.000252853613 -0.000857395818
v -0.000214488799 0.000235605825 -0.000978155993
v -0.000214488799 0.000235605825 -0.000978155993
v -0.000287930947 0.000193166139 -0.000857395818
v -0.000228243458 0.000252853613 -0.000857395818
v -0.000270682853 0.000179411771 -0.000978155993
v -0.000332840078 0.000121693607 -0.000857395818
v -0.000312963704 0.000112121699 -0.000978155993
v -0.000360718957 4.20200813E-05 -0.000857395818
v -0.000339211227 3.71110436E-05 -0.000978155993
v -0.000438782561 -4.18603413E-05 -0.000928925234
v -0.000363256637 -0.00012631953 -0.000969526765
v -0.000372772804 -4.18603413E-05 -0.000969526765
v -0.000427611172 -0.000141007898 -0.000928925234
v -0.000335184915 -0.000206543205 -0.000969526765
v -0.000394657545 -0.000235183834 -0.000928925234
v -0.000289965858 -0.000278509251 -0.000969526765
v -0.000341574254 -0.000319665676 -0.000928925234
v -0.000229865909 -0.000338609214 -0.000969526765
v -0.00027102232 -0.00039021729 -0.000928925234
v -0.000157900155 -0.000383828272 -0.000969526765
v -0.000186540783 -0.000443301193 -0.000928925234
v -7.76761735E-05 -0.000411899673 -0.000969526765
v -9.23648477E-05 -0.00047625482 -0.000928925234
v 6.78330662E-06 -0.00042141616 -0.000969526765
v 6.78330662E-06 -0.000487425918 -0.000928925234
v 9.12421892E-05 -0.000411899673 -0.000969526765
v 0.000105930565 -0.00047625482 -0.000928925234
v 0.000171466163 -0.000383828272 -0.000969526765
v 0.000200106791 -0.000443301193 -0.000928925234
v 0.000243432514 -0.000338609214 -0.000969526765
v 0.000284588925 -0.00039021729 -0.000928925234
v 0.00030353188 -0.000278509862 -0.000969526765
v 0.000355140248 -0.000319666258 -0.000928925234
v 0.000348751229 -0.000206543205 -0.000969526765
v 0.000408223859 -0.000235183834 -0.000928925234
v 0.000376822631 -0.00012631953 -0.000969526765
v 0.000441177486 -0.000141007898 -0.000928925234
v 0.000386339118 -4.18603413E-05 -0.000969526765
v 0.000452348875 -4.18603413E-05 -0.000928925234
v 0.000376822951 4.25988437E-05 -0.000969526765
v 0.000441177486 5.72872159E-05 -0.000928925234
v 0.000348751229 0.000122822516 -0.000969526765
v 0.000408223859 0.000151463144 -0.000928925234
v 0.00030353188 0.000194789172 -0.000969526765
v 0.000355140568 0.000235944986 -0.000928925234
v 0.000243432514 0.000254888524 -0.000969526765
v 0.000284588925 0.0003064966 -0.000928925234
v 0.000171466469 0.000300107582 -0.000969526765
v 0.000200107097 0.000359580503 -0.000928925234
v 9.12421892E-05 0.000328179594 -0.000969526765
v 0.000105930863 0.00039253413 -0.000928925234
v 6.78330662E-06 0.000337696081 -0.000969526765
v 6.78330662E-06 0.000403705228 -0.000928925234
v -7.76758752E-05 0.000328179594 -0.000969526765
v -9.23645493E-05 0.00039253413 -0.000928925234
v -0.000157900155 0.000300107582 -0.000969526765
v -0.000186540477 0.000359580503 -0.000928925234
v -0.000229865909 0.000254888524 -0.000969526765
v -0.00027102232 0.000306497212 -0.000928925234
v -0.000289965858 0.000194789172 -0.000969526765
v -0.000341574254 0.000235944986 -0.000928925234
v -0.000335184915 0.000122823112 -0.000969526765
v -0.000394657545 0.000151463741 -0.000928925234
v -0.000394657545 0.000151463741 -0.000928925234
v -0.000363256317 4.25988437E-05 -0.000969526765
v -0.000335184915 0.000122823112 -0.000969526765
v -0.000427611172 5.72872159E-05 -0.000928925234
v -0.000372772804 -4.18603413E-05 -0.000969526765
v -0.000438782561 -4.18603413E-05 -0.000928925234
v 0.000267151278 6.01816173E-05 -0.000842909794
v -0.000259070977 6.01822139E-05 -0.000842909794
v -0.000266452116 6.04581837E-05 -0.000762804411
v -0.000302736444 5.79243897E-05 -0.000800332113
v -0.000275492959 5.56671621E-05 -0.000766297278
v -0.000296725339 5.95772253E-05 -0.000828373712
v 0.000310816744 5.79243897E-05 -0.000800332113
v 0.00030480593 5.95772253E-05 -0.000828373712
v 0.00028357355 5.56671621E-05 -0.000766297278
v 0.00028357355 5.56671621E-05 -0.000766297278
v 6.64636464E-05 4.22137964E-05 -0.000513302104
v -0.000275492959 5.56671621E-05 -0.000766297278
v -5.83836409E-05 4.22137964E-05 -0.000513302104
v -5.83836409E-05 4.22137964E-05 -0.000513302104
v 6.64636464E-05 4.22137964E-05 -0.000513302104
vt 0.604980469 0.773925781
vt 0.611328125 0.772460938
vt 0.603027344 0.766113281
vt 0.870605469 0.906738281
vt 0.876464844 0.909667969
vt 0.875976562 0.90234375
vt 0.870605469 0.906738281
vt 0.875976562 0.90234375
vt 0.869628906 0.899414062
vt 0.214477539 0.89453125
vt 0.212280273 0.886230469
vt 0.208984375 0.891601562
vt 0.214477539 0.89453125
vt 0.208984375 0.891601562
vt 0.211181641 0.899902344
vt 0.794921875 0.897460938
vt 0.794921875 0.888671875
vt 0.791503906 0.881347656
vt 0.93359375 0.661621094
vt 0.956054688 0.721679688
vt 0.967285156 0.721679688
vt 0.9453125 0.662109375
vt 0.912597656 0.6015625
vt 0.923828125 0.602050781
vt 0.893066406 0.541992188
vt 0.904785156 0.541992188
vt 0.877441406 0.481933594
vt 0.889160156 0.481933594
vt 0.8671875 0.422119141
vt 0.878417969 0.422119141
vt 0.86328125 0.362304688
vt 0.875 0.362304688
vt 0.8671875 0.302490234
vt 0.878417969 0.302734375
vt 0.877441406 0.243041992
vt 0.889160156 0.243164062
vt 0.893066406 0.18347168
vt 0.904785156 0.18359375
vt 0.912597656 0.123962402
vt 0.923828125 0.124084473
vt 0.93359375 0.0645141602
vt 0.9453125 0.0646362305
vt 0.956054688 0.00503158569
vt 0.967285156 0.00516891479
vt 0.782714844 0.688964844
vt 0.749023438 0.750976562
vt 0.760742188 0.750976562
vt 0.771484375 0.688964844
vt 0.804199219 0.626464844
vt 0.79296875 0.626464844
vt 0.823242188 0.564453125
vt 0.812011719 0.564453125
vt 0.838867188 0.502441406
vt 0.827636719 0.502441406
vt 0.849609375 0.440185547
vt 0.837890625 0.440185547
vt 0.853515625 0.377929688
vt 0.841796875 0.377929688
vt 0.849609375 0.315917969
vt 0.837890625 0.315917969
vt 0.838867188 0.253662109
vt 0.827636719 0.253662109
vt 0.823242188 0.19152832
vt 0.812011719 0.19152832
vt 0.804199219 0.129394531
vt 0.79296875 0.129394531
vt 0.782714844 0.067199707
vt 0.771484375 0.067199707
vt 0.760742188 0.00503158569
vt 0.749023438 0.00503158569
vt 0.0170135498 0.235107422
vt 0.0170135498 0.727050781
vt 0.0170135498 0.727050781
vt 0.0170135498 0.235107422
vt 0.981445312 0.235107422
vt 0.981445312 0.727050781
vt 0.981445312 0.727050781
vt 0.981445312 0.235107422
vt 0.0974121094 0.235107422
vt 0.0170135498 0.727050781
vt 0.0170135498 0.235107422
vt 0.0974121094 0.727050781
vt 0.177734375 0.235107422
vt 0.177734375 0.727050781
vt 0.258056641 0.235107422
vt 0.258056641 0.727050781
vt 0.338623047 0.235107422
vt 0.338623047 0.727050781
vt 0.418945312 0.235107422
vt 0.418945312 0.727050781
vt 0.499267578 0.235107422
vt 0.499267578 0.727050781
vt 0.579589844 0.235107422
vt 0.579589844 0.727050781
vt 0.66015625 0.235107422
vt 0.66015625 0.727050781
vt 0.740234375 0.235107422
vt 0.740234375 0.727050781
vt 0.820800781 0.235107422
vt 0.820800781 0.727050781
vt 0.901367188 0.235107422
vt 0.901367188 0.727050781
vt 0.981445312 0.235107422
vt 0.981445312 0.727050781
vt 0.843261719 0.818847656
vt 0.843261719 0.796875
vt 0.827148438 0.796875
vt 0.827636719 0.77734375
vt 0.843261719 0.77734375
vt 0.827636719 0.761230469
vt 0.843261719 0.761230469
vt 0.843261719 0.818847656
vt 0.827148438 0.796875
vt 0.827148438 0.818847656
vt 0.843261719 0.841796875
vt 0.827148438 0.841796875
vt 0.843261719 0.865234375
vt 0.827148438 0.865234375
vt 0.843261719 0.887695312
vt 0.827148438 0.887695312
vt 0.843261719 0.907714844
vt 0.827636719 0.907714844
vt 0.843261719 0.924804688
vt 0.827636719 0.924804688
vt 0.3671875 0.769042969
vt 0.364746094 0.75
vt 0.349121094 0.750488281
vt 0.3515625 0.769042969
vt 0.368896484 0.790039062
vt 0.353271484 0.790527344
vt 0.369873047 0.813476562
vt 0.354248047 0.813476562
vt 0.369873047 0.836914062
vt 0.354248047 0.836914062
vt 0.368896484 0.859375
vt 0.368896484 0.859375
vt 0.354248047 0.836914062
vt 0.353271484 0.859375
vt 0.3671875 0.880371094
vt 0.3515625 0.880371094
vt 0.364746094 0.8984375
vt 0.349121094 0.8984375
vt 0.978027344 0.883789062
vt 0.979003906 0.903808594
vt 0.995117188 0.903808594
vt 0.994140625 0.883789062
vt 0.977539062 0.861816406
vt 0.993652344 0.861816406
vt 0.977539062 0.838378906
vt 0.993164062 0.838378906
vt 0.977539062 0.814941406
vt 0.977539062 0.838378906
vt 0.993164062 0.838378906
vt 0.993652344 0.814941406
vt 0.978027344 0.79296875
vt 0.994140625 0.79296875
vt 0.979003906 0.772949219
vt 0.995117188 0.772949219
vt 0.883300781 0.749511719
vt 0.886230469 0.731933594
vt 0.87109375 0.731933594
vt 0.867675781 0.749023438
vt 0.880859375 0.76953125
vt 0.865234375 0.76953125
vt 0.879394531 0.791992188
vt 0.863769531 0.791992188
vt 0.87890625 0.815429688
vt 0.86328125 0.815429688
vt 0.879394531 0.838867188
vt 0.87890625 0.815429688
vt 0.86328125 0.815429688
vt 0.863769531 0.838378906
vt 0.880859375 0.860351562
vt 0.865234375 0.860351562
vt 0.883300781 0.879882812
vt 0.867675781 0.879882812
vt 0.611328125 0.772460938
vt 0.655273438 0.819824219
vt 0.663085938 0.818847656
vt 0.612792969 0.780761719
vt 0.604980469 0.773925781
vt 0.711425781 0.963378906
vt 0.71875 0.955566406
vt 0.717773438 0.90234375
vt 0.710449219 0.8984375
vt 0.7109375 0.888671875
vt 0.717285156 0.892578125
vt 0.684570312 0.84765625
vt 0.674804688 0.847167969
vt 0.606445312 0.906738281
vt 0.602539062 0.916503906
vt 0.594238281 0.921386719
vt 0.598144531 0.912109375
vt 0.940429688 0.877441406
vt 0.933105469 0.878417969
vt 0.932128906 0.977539062
vt 0.939453125 0.978515625
vt 0.939941406 0.98828125
vt 0.932128906 0.986816406
vt 0.946777344 0.885742188
vt 0.940429688 0.877441406
vt 0.939453125 0.978515625
vt 0.945800781 0.975097656
vt 0.946289062 0.984375
vt 0.939941406 0.98828125
vt 0.71875 0.955566406
vt 0.725585938 0.95703125
vt 0.724609375 0.901367188
vt 0.717773438 0.90234375
vt 0.717285156 0.892578125
vt 0.724609375 0.891601562
vt 0.602539062 0.751953125
vt 0.606445312 0.759765625
vt 0.674804688 0.818359375
vt 0.684570312 0.819824219
vt 0.958496094 0.83203125
vt 0.965820312 0.831054688
vt 0.964355469 0.761230469
vt 0.95703125 0.760742188
vt 0.219726562 0.909667969
vt 0.302001953 0.847167969
vt 0.293212891 0.846191406
vt 0.218139648 0.917480469
vt 0.209838867 0.922851562
vt 0.211547852 0.914550781
vt 0.914550781 0.891601562
vt 0.918945312 0.884765625
vt 0.918945312 0.751464844
vt 0.914550781 0.741699219
vt 0.942382812 0.745605469
vt 0.942382812 0.737304688
vt 0.935058594 0.73828125
vt 0.935058594 0.747070312
vt 0.935058594 0.852539062
vt 0.942382812 0.853515625
vt 0.942382812 0.862304688
vt 0.935058594 0.860839844
vt 0.694335938 0.891601562
vt 0.700195312 0.890625
vt 0.700195312 0.882324219
vt 0.694335938 0.883300781
vt 0.794921875 0.888671875
vt 0.802246094 0.898925781
vt 0.802734375 0.890136719
vt 0.794921875 0.897460938
vt 0.793457031 0.951171875
vt 0.80078125 0.950683594
vt 0.935058594 0.747070312
vt 0.935058594 0.73828125
vt 0.929199219 0.731933594
vt 0.929199219 0.740722656
vt 0.929199219 0.858886719
vt 0.935058594 0.852539062
vt 0.935058594 0.860839844
vt 0.929199219 0.8671875
vt 0.599121094 0.774902344
vt 0.604980469 0.773925781
vt 0.603027344 0.766113281
vt 0.597167969 0.767578125
vt 0.590332031 0.765625
vt 0.592285156 0.756835938
vt 0.588378906 0.749511719
vt 0.5859375 0.758300781
vt 0.592285156 0.756835938
vt 0.598144531 0.754394531
vt 0.594238281 0.747070312
vt 0.588378906 0.749511719
vt 0.914550781 0.741699219
vt 0.914550781 0.733886719
vt 0.907226562 0.731933594
vt 0.907714844 0.739746094
vt 0.907714844 0.892578125
vt 0.914550781 0.891601562
vt 0.914550781 0.901367188
vt 0.907226562 0.901855469
vt 0.86328125 0.897949219
vt 0.869628906 0.899414062
vt 0.870117188 0.891113281
vt 0.863769531 0.890136719
vt 0.869628906 0.899414062
vt 0.875976562 0.90234375
vt 0.876464844 0.894042969
vt 0.870117188 0.891113281
vt 0.907714844 0.739746094
vt 0.907226562 0.731933594
vt 0.901367188 0.738769531
vt 0.901367188 0.747070312
vt 0.901367188 0.886230469
vt 0.907714844 0.892578125
vt 0.907226562 0.901855469
vt 0.901367188 0.895996094
vt 0.203735352 0.920410156
vt 0.209838867 0.922851562
vt 0.211547852 0.914550781
vt 0.205688477 0.912597656
vt 0.724609375 0.891601562
vt 0.725585938 0.886230469
vt 0.71875 0.88671875
vt 0.717285156 0.892578125
vt 0.717285156 0.892578125
vt 0.71875 0.88671875
vt 0.711914062 0.882324219
vt 0.7109375 0.888671875
vt 0.598144531 0.912109375
vt 0.592285156 0.909667969
vt 0.588378906 0.919433594
vt 0.594238281 0.921386719
vt 0.592285156 0.909667969
vt 0.590332031 0.900878906
vt 0.5859375 0.910644531
vt 0.588378906 0.919433594
vt 0.932128906 0.986816406
vt 0.933105469 0.992675781
vt 0.940429688 0.994140625
vt 0.939941406 0.98828125
vt 0.939941406 0.98828125
vt 0.940429688 0.994140625
vt 0.946777344 0.990234375
vt 0.946289062 0.984375
vt 0.793457031 0.951171875
vt 0.794921875 0.979492188
vt 0.802734375 0.979003906
vt 0.80078125 0.950683594
vt 0.655273438 0.819824219
vt 0.655273438 0.849121094
vt 0.663085938 0.84765625
vt 0.663085938 0.818847656
vt 0.674804688 0.818359375
vt 0.674804688 0.847167969
vt 0.684570312 0.84765625
vt 0.684570312 0.819824219
vt 0.964355469 0.761230469
vt 0.965820312 0.732421875
vt 0.958496094 0.731933594
vt 0.95703125 0.760742188
vt 0.302001953 0.847167969
vt 0.302001953 0.818847656
vt 0.293212891 0.817382812
vt 0.293212891 0.846191406
vt 0.272460938 0.818359375
vt 0.278808594 0.817382812
vt 0.225708008 0.770019531
vt 0.228149414 0.77734375
vt 0.220214844 0.770996094
vt 0.217285156 0.763671875
vt 0.272460938 0.818359375
vt 0.272460938 0.847167969
vt 0.278808594 0.846191406
vt 0.278808594 0.817382812
vt 0.794921875 0.897460938
vt 0.789550781 0.953125
vt 0.793457031 0.951171875
vt 0.791015625 0.890136719
vt 0.791503906 0.881347656
vt 0.214477539 0.771972656
vt 0.220214844 0.770996094
vt 0.217285156 0.763671875
vt 0.211181641 0.765136719
vt 0.212280273 0.780273438
vt 0.214477539 0.771972656
vt 0.211181641 0.765136719
vt 0.208984375 0.773925781
vt 0.220214844 0.895507812
vt 0.214477539 0.89453125
vt 0.211181641 0.899902344
vt 0.217285156 0.901367188
vt 0.942382812 0.853515625
vt 0.945800781 0.859863281
vt 0.945800781 0.739746094
vt 0.942382812 0.745605469
vt 0.207885742 0.771484375
vt 0.203491211 0.903808594
vt 0.207885742 0.893066406
vt 0.211181641 0.901855469
vt 0.203491211 0.761230469
vt 0.205688477 0.912597656
vt 0.205688477 0.752441406
vt 0.217407227 0.902832031
vt 0.211181641 0.763183594
vt 0.211547852 0.914550781
vt 0.211547852 0.75
vt 0.217407227 0.76171875
vt 0.224853516 0.896484375
vt 0.219726562 0.909667969
vt 0.219726562 0.755371094
vt 0.224853516 0.767578125
vt 0.293212891 0.846191406
vt 0.281005859 0.846191406
vt 0.281005859 0.817382812
vt 0.293212891 0.817382812
vt 0.590332031 0.900878906
vt 0.594726562 0.891113281
vt 0.594726562 0.775878906
vt 0.597167969 0.899414062
vt 0.590332031 0.765625
vt 0.592285156 0.909667969
vt 0.592285156 0.756835938
vt 0.603027344 0.900878906
vt 0.597167969 0.767578125
vt 0.598144531 0.912109375
vt 0.598144531 0.754394531
vt 0.603027344 0.766113281
vt 0.611328125 0.89453125
vt 0.606445312 0.906738281
vt 0.606445312 0.759765625
vt 0.611328125 0.772460938
vt 0.674804688 0.847167969
vt 0.663085938 0.84765625
vt 0.663085938 0.818847656
vt 0.674804688 0.818359375
vt 0.571289062 0.816894531
vt 0.548828125 0.804199219
vt 0.556640625 0.821777344
vt 0.561523438 0.795410156
vt 0.576171875 0.839355469
vt 0.537109375 0.788574219
vt 0.561035156 0.841308594
vt 0.547851562 0.77734375
vt 0.576171875 0.862792969
vt 0.522460938 0.776367188
vt 0.561035156 0.861328125
vt 0.530273438 0.762695312
vt 0.571289062 0.885742188
vt 0.505371094 0.767578125
vt 0.556640625 0.880371094
vt 0.510742188 0.752441406
vt 0.561523438 0.907226562
vt 0.487304688 0.763183594
vt 0.548828125 0.8984375
vt 0.489013672 0.747070312
vt 0.547851562 0.925292969
vt 0.46875 0.763183594
vt 0.537109375 0.9140625
vt 0.467041016 0.747070312
vt 0.530273438 0.939941406
vt 0.450439453 0.767578125
vt 0.522460938 0.926269531
vt 0.4453125 0.752441406
vt 0.510742188 0.950195312
vt 0.43359375 0.776367188
vt 0.505371094 0.935058594
vt 0.425537109 0.762695312
vt 0.489013672 0.955566406
vt 0.418945312 0.788574219
vt 0.487304688 0.939453125
vt 0.408203125 0.77734375
vt 0.467041016 0.955566406
vt 0.407226562 0.804199219
vt 0.46875 0.939453125
vt 0.39453125 0.795410156
vt 0.4453125 0.950195312
vt 0.399169922 0.821777344
vt 0.450439453 0.935058594
vt 0.384765625 0.816894531
vt 0.425537109 0.939941406
vt 0.395019531 0.841308594
vt 0.43359375 0.926269531
vt 0.379882812 0.839355469
vt 0.408203125 0.925292969
vt 0.395019531 0.861328125
vt 0.418945312 0.9140625
vt 0.379882812 0.862792969
vt 0.39453125 0.907226562
vt 0.399169922 0.880371094
vt 0.407226562 0.8984375
vt 0.384765625 0.885742188
vt 0.109802246 0.75
vt 0.110717773 0.771484375
vt 0.127197266 0.775878906
vt 0.130493164 0.755371094
vt 0.0886230469 0.750488281
vt 0.142456055 0.783691406
vt 0.0938110352 0.771484375
vt 0.149658203 0.765625
vt 0.0679321289 0.755371094
vt 0.155639648 0.795410156
vt 0.077331543 0.775878906
vt 0.166259766 0.780273438
vt 0.0487976074 0.765625
vt 0.166137695 0.810058594
vt 0.0621032715 0.783691406
vt 0.179443359 0.798339844
vt 0.0321960449 0.780273438
vt 0.173461914 0.826660156
vt 0.0488891602 0.795410156
vt 0.188720703 0.819824219
vt 0.0189666748 0.798828125
vt 0.177246094 0.844726562
vt 0.0383300781 0.810058594
vt 0.193359375 0.842285156
vt 0.00975799561 0.819824219
vt 0.177246094 0.863769531
vt 0.0310058594 0.827148438
vt 0.193359375 0.865722656
vt 0.00503158569 0.842773438
vt 0.173461914 0.881835938
vt 0.0272521973 0.845214844
vt 0.188720703 0.888671875
vt 0.00503158569 0.866210938
vt 0.166137695 0.898925781
vt 0.0272521973 0.864257812
vt 0.179443359 0.91015625
vt 0.00975799561 0.889160156
vt 0.155639648 0.913574219
vt 0.0310058594 0.882324219
vt 0.166259766 0.928222656
vt 0.0189666748 0.91015625
vt 0.142456055 0.925292969
vt 0.0383300781 0.898925781
vt 0.149658203 0.942871094
vt 0.0321960449 0.928710938
vt 0.127197266 0.933105469
vt 0.0488891602 0.913574219
vt 0.130493164 0.953125
vt 0.0487976074 0.943359375
vt 0.110717773 0.9375
vt 0.0621032715 0.925292969
vt 0.109802246 0.958496094
vt 0.0679321289 0.953613281
vt 0.0938110352 0.9375
vt 0.077331543 0.933105469
vt 0.0886230469 0.958496094
vt 0.901367188 0.235107422
vt 0.981445312 0.727050781
vt 0.981445312 0.235107422
vt 0.901367188 0.727050781
vt 0.820800781 0.235107422
vt 0.820800781 0.727050781
vt 0.740234375 0.235107422
vt 0.740234375 0.727050781
vt 0.66015625 0.235107422
vt 0.66015625 0.727050781
vt 0.579589844 0.235107422
vt 0.579589844 0.727050781
vt 0.499267578 0.235107422
vt 0.499267578 0.727050781
vt 0.418945312 0.235107422
vt 0.418945312 0.727050781
vt 0.338623047 0.235107422
vt 0.338623047 0.727050781
vt 0.258056641 0.235107422
vt 0.258056641 0.727050781
vt 0.177734375 0.235107422
vt 0.177734375 0.727050781
vt 0.0974121094 0.235107422
vt 0.0974121094 0.727050781
vt 0.0170135498 0.235107422
vt 0.0170135498 0.727050781
vt 0.791503906 0.763671875
vt 0.814941406 0.778320312
vt 0.816894531 0.761230469
vt 0.207885742 0.893066406
vt 0.211181641 0.899902344
vt 0.207885742 0.893066406
vt 0.211181641 0.901855469
vt 0.211181641 0.763183594
vt 0.208984375 0.773925781
vt 0.211181641 0.763183594
vt 0.207885742 0.771484375
vt 0.723632812 0.765136719
vt 0.725585938 0.750976562
vt 0.698730469 0.747070312
vt 0.696777344 0.762207031
vt 0.722167969 0.781738281
vt 0.6953125 0.780273438
vt 0.721679688 0.799804688
vt 0.694335938 0.799316406
vt 0.721679688 0.818359375
vt 0.694335938 0.819335938
vt 0.778320312 0.882324219
vt 0.750488281 0.869140625
vt 0.750976562 0.885742188
vt 0.77734375 0.866210938
vt 0.749511719 0.850097656
vt 0.776855469 0.848632812
vt 0.749023438 0.830566406
vt 0.776367188 0.830078125
vt 0.776367188 0.830078125
vt 0.749023438 0.811035156
vt 0.749023438 0.830566406
vt 0.776367188 0.811523438
vt 0.749511719 0.791992188
vt 0.776855469 0.793945312
vt 0.750488281 0.775390625
vt 0.77734375 0.778320312
vt 0.750976562 0.761230469
vt 0.778320312 0.764648438
vt 0.791503906 0.763671875
vt 0.789550781 0.780273438
vt 0.814941406 0.778320312
vt 0.813964844 0.797363281
vt 0.788574219 0.797851562
vt 0.813476562 0.816894531
vt 0.788085938 0.81640625
vt 0.813964844 0.836425781
vt 0.788574219 0.834960938
vt 0.814941406 0.854980469
vt 0.789550781 0.852539062
vt 0.816894531 0.871582031
vt 0.791503906 0.867675781
vt 0.312255859 0.754394531
vt 0.338867188 0.763671875
vt 0.338867188 0.75
vt 0.312255859 0.767089844
vt 0.338867188 0.780273438
vt 0.312011719 0.782714844
vt 0.312011719 0.782714844
vt 0.338623047 0.798828125
vt 0.338867188 0.780273438
vt 0.312011719 0.800292969
vt 0.338623047 0.818847656
vt 0.312011719 0.818847656
vt 0.338623047 0.838378906
vt 0.312011719 0.837402344
vt 0.338867188 0.857421875
vt 0.312011719 0.85546875
vt 0.338867188 0.874511719
vt 0.312255859 0.87109375
vt 0.338867188 0.888671875
vt 0.312255859 0.884765625
vt 0.725585938 0.868652344
vt 0.696777344 0.856933594
vt 0.698730469 0.872558594
vt 0.723632812 0.854003906
vt 0.6953125 0.838378906
vt 0.722167969 0.836914062
vt 0.694335938 0.819335938
vt 0.721679688 0.818359375
vt 0.193359375 0.842285156
vt 0.177978516 0.824707031
vt 0.182006836 0.844238281
vt 0.188720703 0.819824219
vt 0.170043945 0.806640625
vt 0.179443359 0.798339844
vt 0.158813477 0.791015625
vt 0.166259766 0.780273438
vt 0.14465332 0.778808594
vt 0.149658203 0.765625
vt 0.128417969 0.770019531
vt 0.130493164 0.755371094
vt 0.110778809 0.765625
vt 0.109802246 0.75
vt 0.0927124023 0.765625
vt 0.0886230469 0.750488281
vt 0.0750732422 0.770507812
vt 0.0679321289 0.755371094
vt 0.0587768555 0.778808594
vt 0.0487976074 0.765625
vt 0.0446472168 0.791503906
vt 0.0321960449 0.780273438
vt 0.0333557129 0.807128906
vt 0.0189666748 0.798828125
vt 0.0255279541 0.825195312
vt 0.00975799561 0.819824219
vt 0.0214996338 0.844726562
vt 0.00503158569 0.842773438
vt 0.0214996338 0.864746094
vt 0.00503158569 0.866210938
vt 0.0255279541 0.884277344
vt 0.00975799561 0.889160156
vt 0.0333557129 0.90234375
vt 0.0189666748 0.91015625
vt 0.0446472168 0.91796875
vt 0.0321960449 0.928710938
vt 0.0587768555 0.930175781
vt 0.0487976074 0.943359375
vt 0.0750732422 0.938964844
vt 0.0679321289 0.953613281
vt 0.0927124023 0.943359375
vt 0.0886230469 0.958496094
vt 0.110778809 0.943359375
vt 0.109802246 0.958496094
vt 0.128417969 0.938476562
vt 0.130493164 0.953125
vt 0.14465332 0.930175781
vt 0.149658203 0.942871094
vt 0.158813477 0.917480469
vt 0.166259766 0.928222656
vt 0.170043945 0.901855469
vt 0.179443359 0.91015625
vt 0.177978516 0.883789062
vt 0.188720703 0.888671875
vt 0.879394531 0.791992188
vt 0.890625 0.814941406
vt 0.891113281 0.794921875
vt 0.87890625 0.815429688
vt 0.891113281 0.834472656
vt 0.879394531 0.838867188
vt 0.946777344 0.861328125
vt 0.946777344 0.737792969
vt 0.225708008 0.89453125
vt 0.217407227 0.902832031
vt 0.224853516 0.896484375
vt 0.211181641 0.901855469
vt 0.217407227 0.76171875
vt 0.211181641 0.763183594
vt 0.224853516 0.767578125
vt 0.224853516 0.767578125
vt 0.281005859 0.817382812
vt 0.790039062 0.888183594
vt 0.788085938 0.953613281
vt 0.281005859 0.846191406
vt 0.281005859 0.817382812
vn 0.643554688 0.606933594 -0.466796875
vn 0.626464844 0.619140625 -0.473144531
vn 0.643554688 0.606933594 -0.466796875
vn -0.572753906 0.723144531 0.385986328
vn -0.5390625 0.710449219 0.451904297
vn -0.563964844 0.720214844 0.404052734
vn -0.572753906 0.723144531 0.385986328
vn -0.563964844 0.720214844 0.404052734
vn -0.572753906 0.723144531 0.385986328
vn 0.158691406 -0.820800781 0.548828125
vn 0.0423278809 -0.745117188 0.665527344
vn 0.089050293 -0.759765625 0.644042969
vn 0.158691406 -0.820800781 0.548828125
vn 0.089050293 -0.759765625 0.644042969
vn 0.206665039 -0.757324219 0.619140625
vn 0.521972656 -0.703125 -0.482910156
vn 0.566894531 -0.672851562 -0.475341797
vn 0.508789062 -0.84375 -0.172119141
vn -0 0 -1
vn -0 0 -1
vn -0 0 -1
vn -0 0 -1
vn -0 0 -1
vn -0 0 -1
vn -0 0 -1
vn -0 0 -1
vn -0 0 -1
vn -0 0 -1
vn -0 0 -1
vn -0 0 -1
vn -0 0 -1
vn -0 0 -1
vn -0 0 -1
vn 1.1920929E-07 0 -1
vn -0 0 -1
vn -0 0 -1
vn -1.1920929E-07 0 -1
vn -0 0 -1
vn -0 0 -1
vn -0 0 -1
vn -0 0 -1
vn -0 0 -1
vn -0 0 -1
vn -0 0 -1
vn 3.57627869E-07 0 1
vn 8.34465027E-07 0 1
vn 8.34465027E-07 0 1
vn 5.36441803E-07 0 1
vn -0 0 1
vn -0 0 1
vn -0 0 1
vn -0 0 1
vn -0 0 1
vn -0 0 1
vn -0 0 1
vn -0 0 1
vn 1.78813934E-07 0 1
vn 1.78813934E-07 0 1
vn -0 0 1
vn -1.1920929E-07 0 1
vn -2.38418579E-07 0 1
vn -1.78813934E-07 0 1
vn -0 0 1
vn -0 0 1
vn -0 0 1
vn -0 0 1
vn -3.57627869E-07 0 1
vn -5.36441803E-07 0 1
vn -8.34465027E-07 0 1
vn -8.34465027E-07 0 1
vn -1 0 0
vn -1 0 0
vn -1 0 0
vn -1 0 0
vn 1 0 0
vn 1 0 0
vn 1 0 0
vn 1 0 0
vn -0.348388672 0.9375 0
vn -0.353271484 0.935546875 0
vn -0.353271484 0.935546875 0
vn -0.348388672 0.9375 0
vn -0.327880859 0.944824219 0
vn -0.327880859 0.944824219 0
vn -0.284912109 0.958496094 0
vn -0.284912109 0.958496094 0
vn -0.216552734 0.976074219 0
vn -0.216552734 0.976074219 0
vn -0.120422363 0.992675781 0
vn -0.120422363 0.992675781 0
vn 1.07288361E-06 1 0
vn 1.07288361E-06 1 0
vn 0.120422363 0.992675781 0
vn 0.120422363 0.992675781 0
vn 0.216552734 0.976074219 0
vn 0.216552734 0.976074219 0
vn 0.284912109 0.958496094 0
vn 0.284912109 0.958496094 0
vn 0.327880859 0.944824219 0
vn 0.327880859 0.944824219 0
vn 0.348388672 0.9375 0
vn 0.348388672 0.9375 0
vn 0.353271484 0.935546875 0
vn 0.353271484 0.935546875 0
vn -0.433837891 -0.900878906 0
vn -0.623535156 -0.781738281 0
vn -0.623535156 -0.781738281 0
vn -0.781738281 -0.623535156 0
vn -0.781738281 -0.623535156 0
vn -0.900878906 -0.433837891 0
vn -0.900878906 -0.433837891 0
vn -0.433837891 -0.900878906 0
vn -0.623535156 -0.781738281 0
vn -0.433837891 -0.900878906 0
vn -0.22253418 -0.975097656 0
vn -0.22253418 -0.975097656 0
vn 4.76837158E-07 -1 0
vn 4.76837158E-07 -1 0
vn 0.22253418 -0.975097656 0
vn 0.22253418 -0.975097656 0
vn 0.433837891 -0.900878906 0
vn 0.433837891 -0.900878906 0
vn 0.623535156 -0.781738281 0
vn 0.623535156 -0.781738281 0
vn 0.781738281 -0.623535156 0
vn 0.623535156 -0.781738281 0
vn 0.623535156 -0.781738281 0
vn 0.781738281 -0.623535156 0
vn 0.900878906 -0.433837891 0
vn 0.900878906 -0.433837891 0
vn 0.975097656 -0.22253418 0
vn 0.975097656 -0.22253418 0
vn 1 0 0
vn 1 0 0
vn 0.975097656 0.22253418 0
vn 0.975097656 0.22253418 0
vn 1 0 0
vn 0.975097656 0.22253418 0
vn 0.900878906 0.433837891 0
vn 0.900878906 0.433837891 0
vn 0.781738281 0.623535156 0
vn 0.781738281 0.623535156 0
vn 0.623535156 0.781738281 0
vn 0.781738281 0.623535156 0
vn 0.781738281 0.623535156 0
vn 0.623535156 0.781738281 0
vn 0.433837891 0.900878906 0
vn 0.433837891 0.900878906 0
vn 0.22253418 0.975097656 0
vn 0.22253418 0.975097656 0
vn 1.78813934E-07 1 0
vn 0.22253418 0.975097656 0
vn 0.22253418 0.975097656 0
vn 1.78813934E-07 1 0
vn -0.22253418 0.975097656 0
vn -0.22253418 0.975097656 0
vn -0.433837891 0.900878906 0
vn -0.433837891 0.900878906 0
vn -0.623535156 0.781738281 0
vn -0.433837891 0.900878906 0
vn -0.433837891 0.900878906 0
vn -0.623535156 0.781738281 0
vn -0.781738281 0.623535156 0
vn -0.781738281 0.623535156 0
vn -0.900878906 0.433837891 0
vn -0.900878906 0.433837891 0
vn -0.975097656 0.22253418 0
vn -0.975097656 0.22253418 0
vn -1 0 0
vn -0.975097656 0.22253418 0
vn -0.975097656 0.22253418 0
vn -1 0 0
vn -0.975097656 -0.22253418 0
vn -0.975097656 -0.22253418 0
vn -0.900878906 -0.433837891 0
vn -0.900878906 -0.433837891 0
vn 0.626464844 0.619140625 -0.473144531
vn 0.587890625 0.646484375 -0.486083984
vn 0.587890625 0.646484375 -0.486083984
vn 0.60546875 0.634765625 -0.48046875
vn 0.643554688 0.606933594 -0.466796875
vn -0.587890625 0.646484375 -0.486083984
vn -0.587890625 0.646484375 -0.486083984
vn -0.60546875 0.634765625 -0.48046875
vn -0.626464844 0.619140625 -0.473144531
vn -0.643554688 0.606933594 -0.466796875
vn -0.643554688 0.606933594 -0.466796875
vn 0.528808594 0.706542969 0.470458984
vn 0.528808594 0.706542969 0.470458984
vn 0.5390625 0.710449219 0.451904297
vn 0.563964844 0.720214844 0.404052734
vn 0.572753906 0.723144531 0.385986328
vn 0.572753906 0.723144531 0.385986328
vn 0.779785156 0.00210380554 0.626464844
vn 0.779785156 0.00210380554 0.626464844
vn 0.818359375 0.0132675171 0.57421875
vn 0.83203125 0.0173797607 0.554199219
vn 0.866210938 0.0284423828 0.499267578
vn 0.866210938 0.0284423828 0.499267578
vn 0.616210938 -0.635253906 0.465576172
vn 0.616210938 -0.635253906 0.465576172
vn 0.663085938 -0.635742188 0.395019531
vn 0.637207031 -0.636230469 0.435546875
vn 0.681640625 -0.634277344 0.364501953
vn 0.681640625 -0.634277344 0.364501953
vn -0.744140625 0.00263786316 -0.66796875
vn -0.744140625 0.00263786316 -0.66796875
vn -0.762207031 0.00639724731 -0.646972656
vn -0.7578125 0.0054473877 -0.65234375
vn -0.775878906 0.0092010498 -0.630859375
vn -0.775878906 0.0092010498 -0.630859375
vn -0.563964844 0.720214844 0.404052734
vn -0.5390625 0.710449219 0.451904297
vn -0.528808594 0.706542969 0.470458984
vn -0.528808594 0.706542969 0.470458984
vn -0.83203125 0.0173797607 0.554199219
vn -0.818359375 0.0132598877 0.57421875
vn -0.779785156 0.00210189819 0.626464844
vn -0.779785156 0.00210189819 0.626464844
vn -0.637207031 -0.636230469 0.435546875
vn -0.616210938 -0.635253906 0.465576172
vn -0.616210938 -0.635253906 0.465576172
vn -0.663085938 -0.635742188 0.395019531
vn -0.681640625 -0.634277344 0.364501953
vn -0.681640625 -0.634277344 0.364501953
vn 0.118286133 0.806152344 -0.580078125
vn 0.0380859375 0.745117188 -0.666015625
vn -0.0380859375 0.745117188 -0.666015625
vn -0.118286133 0.806152344 -0.580078125
vn 0.133911133 -0.259521484 0.956542969
vn 0.245727539 -0.270019531 0.931152344
vn 0.245727539 -0.270019531 0.931152344
vn 0.114013672 -0.257324219 0.959472656
vn -0.114013672 -0.257324219 0.959472656
vn -0.133911133 -0.259521484 0.956542969
vn -0.245727539 -0.270019531 0.931152344
vn -0.245727539 -0.270019531 0.931152344
vn 0.967773438 -0.197387695 0.155029297
vn 0.967773438 -0.197387695 0.155029297
vn 0.967773438 -0.197387695 0.155029297
vn 0.967773438 -0.197387695 0.155029297
vn 0.775878906 0.0092086792 -0.630859375
vn 0.7578125 0.00545120239 -0.65234375
vn 0.775878906 0.0092086792 -0.630859375
vn 0.762207031 0.00640106201 -0.646972656
vn 0.744140625 0.00263977051 -0.66796875
vn 0.744140625 0.00263977051 -0.66796875
vn 0.0628662109 0.345947266 0.936035156
vn 0.218505859 0.469482422 0.85546875
vn 0.218505859 0.469482422 0.85546875
vn 0.161010742 0.425537109 0.890625
vn -0.161010742 0.425537109 0.890625
vn -0.0628662109 0.345947266 0.936035156
vn -0.218505859 0.469482422 0.85546875
vn -0.218505859 0.469482422 0.85546875
vn 0.666015625 0.727539062 0.165527344
vn 0.666015625 0.727539062 0.165527344
vn 0.666015625 0.727539062 0.165527344
vn 0.666015625 0.727539062 0.165527344
vn -0.0380859375 0.745117188 -0.666015625
vn -0.150878906 0.827148438 -0.541503906
vn -0.150878906 0.827148438 -0.541503906
vn -0.118286133 0.806152344 -0.580078125
vn -0.428710938 0.897949219 -0.0985107422
vn -0.428710938 0.897949219 -0.0985107422
vn -0.428710938 0.897949219 -0.0985107422
vn -0.428710938 0.897949219 -0.0985107422
vn -0.112976074 0.259033203 -0.958984375
vn -0.245727539 0.274169922 -0.9296875
vn -0.245727539 0.274169922 -0.9296875
vn -0.135009766 0.261962891 -0.955566406
vn 0.135009766 0.261962891 -0.955566406
vn 0.112976074 0.259033203 -0.958984375
vn 0.245727539 0.274169922 -0.9296875
vn 0.245727539 0.274169922 -0.9296875
vn -0.918457031 0.235839844 -0.317382812
vn -0.918457031 0.235839844 -0.317382812
vn -0.918457031 0.235839844 -0.317382812
vn -0.918457031 0.235839844 -0.317382812
vn -0.866210938 0.0284423828 0.499267578
vn -0.818359375 0.0132598877 0.57421875
vn -0.83203125 0.0173797607 0.554199219
vn -0.866210938 0.0284423828 0.499267578
vn -0.158813477 -0.435302734 -0.886230469
vn -0.212280273 -0.480224609 -0.851074219
vn -0.212280273 -0.480224609 -0.851074219
vn -0.0589294434 -0.347167969 -0.936035156
vn 0.0589294434 -0.347167969 -0.936035156
vn 0.158813477 -0.435302734 -0.886230469
vn 0.212280273 -0.480224609 -0.851074219
vn 0.212280273 -0.480224609 -0.851074219
vn -0.625 -0.734863281 -0.264404297
vn -0.625 -0.734863281 -0.264404297
vn -0.625 -0.734863281 -0.264404297
vn -0.625 -0.734863281 -0.264404297
vn -0.967773438 -0.197387695 0.155029297
vn -0.967773438 -0.197387695 0.155029297
vn -0.967773438 -0.197387695 0.155029297
vn -0.967773438 -0.197387695 0.155029297
vn -0.666015625 0.727539062 0.165527344
vn -0.666015625 0.727539062 0.165527344
vn -0.666015625 0.727539062 0.165527344
vn -0.666015625 0.727539062 0.165527344
vn 0.428710938 0.897949219 -0.0985107422
vn 0.428710938 0.897949219 -0.0985107422
vn 0.428710938 0.897949219 -0.0985107422
vn 0.428710938 0.897949219 -0.0985107422
vn 0.150878906 0.827148438 -0.541503906
vn 0.0380859375 0.745117188 -0.666015625
vn 0.118286133 0.806152344 -0.580078125
vn 0.150878906 0.827148438 -0.541503906
vn 0.918457031 0.235839844 -0.317382812
vn 0.918457031 0.235839844 -0.317382812
vn 0.918457031 0.235839844 -0.317382812
vn 0.918457031 0.235839844 -0.317382812
vn 0.625 -0.734863281 -0.264404297
vn 0.625 -0.734863281 -0.264404297
vn 0.625 -0.734863281 -0.264404297
vn 0.625 -0.734863281 -0.264404297
vn -0 -0.0260925293 -0.999511719
vn -0 -0.0260925293 -0.999511719
vn -0 -0.0260925293 -0.999511719
vn -0 -0.0260925293 -0.999511719
vn -0 0.833984375 -0.552246094
vn -0 0.833984375 -0.552246094
vn -0 0.833984375 -0.552246094
vn -0 0.833984375 -0.552246094
vn -0 0.870605469 0.491943359
vn -0 0.870605469 0.491943359
vn -0 0.870605469 0.491943359
vn -0 0.870605469 0.491943359
vn -0 0.0395202637 0.999023438
vn -0 0.0395202637 0.999023438
vn -0 0.0395202637 0.999023438
vn -0 0.0395202637 0.999023438
vn -0 -0.849609375 0.526855469
vn -0 -0.849609375 0.526855469
vn -0 -0.849609375 0.526855469
vn -0 -0.849609375 0.526855469
vn -0.508789062 -0.711425781 -0.484619141
vn -0.51171875 -0.711914062 -0.480957031
vn -0.530761719 -0.703613281 -0.472167969
vn -0.521972656 -0.703125 -0.482910156
vn -0.566894531 -0.672851562 -0.475341797
vn -0.508789062 -0.84375 -0.172119141
vn -0 -0.858398438 -0.513183594
vn -0 -0.858398438 -0.513183594
vn -0 -0.858398438 -0.513183594
vn -0 -0.858398438 -0.513183594
vn 0.521972656 -0.703125 -0.482910156
vn 0.51171875 -0.711914062 -0.480957031
vn 0.508789062 -0.711425781 -0.484619141
vn 0.530761719 -0.703613281 -0.472167969
vn 0.508789062 -0.84375 -0.172119141
vn -0.471679688 -0.880859375 0.0372924805
vn -0.471679688 -0.880859375 0.0372924805
vn -0.508789062 -0.84375 -0.172119141
vn -0.478759766 -0.876953125 0.0440368652
vn -0.0422973633 -0.745117188 0.665527344
vn -0.158691406 -0.820800781 0.548828125
vn -0.206665039 -0.757324219 0.619140625
vn -0.089050293 -0.759765625 0.644042969
vn 0.471679688 -0.880859375 0.037322998
vn 0.471679688 -0.880859375 0.037322998
vn 0.478759766 -0.876953125 0.0440368652
vn 0.508789062 -0.84375 -0.172119141
vn -0.0422973633 -0.745117188 0.665527344
vn -0.089050293 -0.759765625 0.644042969
vn 0.089050293 -0.759765625 0.644042969
vn 0.0423278809 -0.745117188 0.665527344
vn 0.00798797607 -0.973144531 -0.230957031
vn -0.030166626 -0.984863281 -0.172119141
vn -0.00798797607 -0.973144531 -0.230957031
vn -0.0504150391 -0.991210938 -0.122070312
vn 0.030166626 -0.984863281 -0.172119141
vn -0.0573120117 -0.992675781 -0.10546875
vn 0.0573120117 -0.992675781 -0.10546875
vn -0.096862793 -0.995117188 -0.0146102905
vn 0.0504150391 -0.991210938 -0.122070312
vn -0.0788574219 -0.995605469 -0.0550537109
vn 0.0788574219 -0.995605469 -0.0550842285
vn 0.096862793 -0.995117188 -0.0146255493
vn -0.10345459 -0.994140625 0.029800415
vn -0.108764648 -0.994140625 0.0181427002
vn 0.108764648 -0.994140625 0.0181274414
vn 0.103393555 -0.994140625 0.0297851562
vn -0.0310668945 -0.999023438 0.0247039795
vn -0.0622558594 -0.997558594 0.0281219482
vn 0.0622558594 -0.997558594 0.0281219482
vn 0.0310668945 -0.999023438 0.0247039795
vn -0.0276947021 0.980957031 0.193481445
vn -0.00677108765 0.971191406 0.237670898
vn 0.00677108765 0.971191406 0.237670898
vn -0.0513916016 0.988769531 0.139038086
vn 0.0277099609 0.980957031 0.193481445
vn -0.0628662109 0.991699219 0.111755371
vn 0.0628662109 0.991699219 0.111755371
vn -0.0985717773 0.995117188 0.0159759521
vn 0.0513916016 0.988769531 0.139038086
vn -0.0856933594 0.995117188 0.0530090332
vn 0.0856933594 0.995117188 0.0530090332
vn 0.0985717773 0.995117188 0.0159912109
vn -0.102783203 0.994140625 -0.0302581787
vn -0.108459473 0.994140625 -0.0195465088
vn 0.108398438 0.994140625 -0.01953125
vn 0.102783203 0.994140625 -0.0302581787
vn -0.0310668945 0.999023438 -0.025390625
vn -0.0616149902 0.997558594 -0.0287322998
vn 0.0616149902 0.997558594 -0.0287322998
vn 0.0310516357 0.999023438 -0.025390625
vn -0 0 1
vn -4.76837158E-07 0 1
vn -0 0 1
vn -4.76837158E-07 0 1
vn -0 0 1
vn -0 0 1
vn -0 0 1
vn -0 0 1
vn -4.76837158E-07 0 1
vn -2.38418579E-07 0 1
vn -4.76837158E-07 0 1
vn -2.38418579E-07 0 1
vn -0 0 1
vn -1.1920929E-07 0 1
vn -0 0 1
vn -1.1920929E-07 0 1
vn -2.38418579E-07 0 1
vn 1.1920929E-07 0 1
vn -2.38418579E-07 0 1
vn 1.1920929E-07 0 1
vn -2.38418579E-07 0 1
vn -0 0 1
vn -2.38418579E-07 0 1
vn -0 0 1
vn -0 0 1
vn -2.38418579E-07 0 1
vn -0 0 1
vn -2.38418579E-07 0 1
vn -0 0 1
vn -0 0 1
vn -0 0 1
vn -0 0 1
vn -0 0 1
vn -2.38418579E-07 0 1
vn -0 0 1
vn -2.38418579E-07 0 1
vn -1.1920929E-07 0 1
vn -0 0 1
vn -1.1920929E-07 0 1
vn -0 0 1
vn 1.1920929E-07 0 1
vn -0 0 1
vn 1.1920929E-07 0 1
vn -0 0 1
vn 2.38418579E-07 0 1
vn -0 0 1
vn 2.38418579E-07 0 1
vn -0 0 1
vn -0 0 1
vn -0 0 1
vn -0 0 1
vn -0 0 1
vn 4.76837158E-07 0 1
vn -0 0 1
vn 4.76837158E-07 0 1
vn -0 0 1
vn -0.106201172 -0.465087891 -0.87890625
vn -0.106201172 -0.465087891 -0.87890625
vn -0.20703125 -0.429931641 -0.87890625
vn -0.20703125 -0.429931641 -0.87890625
vn -1.78813934E-07 -0.477050781 -0.87890625
vn -0.297607422 -0.373046875 -0.87890625
vn -1.1920929E-07 -0.477050781 -0.87890625
vn -0.297607422 -0.373046875 -0.87890625
vn 0.106201172 -0.465087891 -0.87890625
vn -0.373046875 -0.297607422 -0.87890625
vn 0.106201172 -0.465087891 -0.87890625
vn -0.373046875 -0.297607422 -0.87890625
vn 0.20703125 -0.429931641 -0.87890625
vn -0.429931641 -0.20703125 -0.87890625
vn 0.20703125 -0.429931641 -0.87890625
vn -0.429931641 -0.20703125 -0.87890625
vn 0.297607422 -0.373046875 -0.87890625
vn -0.465087891 -0.106201172 -0.87890625
vn 0.297607422 -0.373046875 -0.87890625
vn -0.465087891 -0.106201172 -0.87890625
vn 0.373046875 -0.297607422 -0.87890625
vn -0.477050781 0 -0.87890625
vn 0.373046875 -0.297607422 -0.87890625
vn -0.477050781 0 -0.87890625
vn 0.429931641 -0.20703125 -0.87890625
vn -0.465087891 0.106201172 -0.87890625
vn 0.429931641 -0.20703125 -0.87890625
vn -0.465087891 0.106201172 -0.87890625
vn 0.465087891 -0.106201172 -0.87890625
vn -0.429931641 0.20703125 -0.87890625
vn 0.465087891 -0.106201172 -0.87890625
vn -0.429931641 0.20703125 -0.87890625
vn 0.477050781 0 -0.87890625
vn -0.373046875 0.297607422 -0.87890625
vn 0.477050781 0 -0.87890625
vn -0.373046875 0.297607422 -0.87890625
vn 0.465087891 0.106201172 -0.87890625
vn -0.297607422 0.373046875 -0.87890625
vn 0.465087891 0.106201172 -0.87890625
vn -0.297607422 0.373046875 -0.87890625
vn 0.429931641 0.20703125 -0.87890625
vn -0.20703125 0.429931641 -0.87890625
vn 0.429931641 0.20703125 -0.87890625
vn -0.20703125 0.429931641 -0.87890625
vn 0.373046875 0.297607422 -0.87890625
vn -0.106201172 0.465087891 -0.87890625
vn 0.373046875 0.297607422 -0.87890625
vn -0.106201172 0.465087891 -0.87890625
vn 0.297607422 0.373046875 -0.87890625
vn 3.57627869E-07 0.477050781 -0.87890625
vn 0.297607422 0.373046875 -0.87890625
vn 3.57627869E-07 0.477050781 -0.87890625
vn 0.20703125 0.429931641 -0.87890625
vn 0.106201172 0.465087891 -0.87890625
vn 0.20703125 0.429931641 -0.87890625
vn 0.106201172 0.465087891 -0.87890625
vn -0.348388672 -0.9375 0
vn -0.353271484 -0.935546875 0
vn -0.353271484 -0.935546875 0
vn -0.348388672 -0.9375 0
vn -0.327880859 -0.944824219 0
vn -0.327880859 -0.944824219 0
vn -0.284912109 -0.958496094 0
vn -0.284912109 -0.958496094 0
vn -0.216552734 -0.976074219 0
vn -0.216552734 -0.976074219 0
vn -0.120422363 -0.992675781 0
vn -0.120422363 -0.992675781 0
vn -1.13248825E-06 -1 0
vn -1.13248825E-06 -1 0
vn 0.120422363 -0.992675781 0
vn 0.120422363 -0.992675781 0
vn 0.216552734 -0.976074219 0
vn 0.216552734 -0.976074219 0
vn 0.284912109 -0.958496094 0
vn 0.284912109 -0.958496094 0
vn 0.327880859 -0.944824219 0
vn 0.327880859 -0.944824219 0
vn 0.348388672 -0.9375 0
vn 0.348388672 -0.9375 0
vn 0.353271484 -0.935546875 0
vn 0.353271484 -0.935546875 0
vn -0.61328125 0.769042969 0.1796875
vn -0.769042969 0.61328125 0.1796875
vn -0.61328125 0.769042969 0.1796875
vn 0.169067383 -0.732421875 0.659667969
vn 0.206665039 -0.757324219 0.619140625
vn 0.169067383 -0.732421875 0.659667969
vn 0.222290039 -0.734375 0.641601562
vn -0.222290039 -0.734375 0.641601562
vn -0.089050293 -0.759765625 0.644042969
vn -0.222290039 -0.734375 0.641601562
vn -0.169067383 -0.732421875 0.659667969
vn 0.886230469 0.426757812 0.1796875
vn 0.769042969 0.61328125 0.1796875
vn 0.769042969 0.61328125 0.1796875
vn 0.886230469 0.426757812 0.1796875
vn 0.958984375 0.21887207 0.1796875
vn 0.958984375 0.21887207 0.1796875
vn 0.983886719 -4.76837158E-07 0.1796875
vn 0.983886719 -4.76837158E-07 0.1796875
vn 0.958984375 -0.21887207 0.1796875
vn 0.958984375 -0.21887207 0.1796875
vn 0.769042969 0.61328125 0.1796875
vn 0.61328125 0.769042969 0.1796875
vn 0.769042969 0.61328125 0.1796875
vn 0.61328125 0.769042969 0.1796875
vn 0.426757812 0.886230469 0.1796875
vn 0.426757812 0.886230469 0.1796875
vn 0.21887207 0.958984375 0.1796875
vn 0.21887207 0.958984375 0.1796875
vn 0.21887207 0.958984375 0.1796875
vn -2.38418579E-07 0.983886719 0.1796875
vn 0.21887207 0.958984375 0.1796875
vn -2.38418579E-07 0.983886719 0.1796875
vn -0.21887207 0.958984375 0.1796875
vn -0.21887207 0.958984375 0.1796875
vn -0.426757812 0.886230469 0.1796875
vn -0.426757812 0.886230469 0.1796875
vn -0.61328125 0.769042969 0.1796875
vn -0.61328125 0.769042969 0.1796875
vn -0.61328125 0.769042969 0.1796875
vn -0.769042969 0.61328125 0.1796875
vn -0.769042969 0.61328125 0.1796875
vn -0.886230469 0.426757812 0.1796875
vn -0.886230469 0.426757812 0.1796875
vn -0.958984375 0.21887207 0.1796875
vn -0.958984375 0.21887207 0.1796875
vn -0.983886719 -3.57627869E-07 0.1796875
vn -0.983886719 -3.57627869E-07 0.1796875
vn -0.958984375 -0.21887207 0.1796875
vn -0.958984375 -0.21887207 0.1796875
vn -0.886230469 -0.426757812 0.1796875
vn -0.886230469 -0.426757812 0.1796875
vn -0.886230469 -0.426757812 0.1796875
vn -0.769042969 -0.61328125 0.1796875
vn -0.886230469 -0.426757812 0.1796875
vn -0.769042969 -0.61328125 0.1796875
vn -0.61328125 -0.769042969 0.1796875
vn -0.61328125 -0.769042969 0.1796875
vn -0.61328125 -0.769042969 0.1796875
vn -0.426757812 -0.886230469 0.1796875
vn -0.61328125 -0.769042969 0.1796875
vn -0.426757812 -0.886230469 0.1796875
vn -0.21887207 -0.958984375 0.1796875
vn -0.21887207 -0.958984375 0.1796875
vn -0 -0.983886719 0.1796875
vn -0 -0.983886719 0.1796875
vn 0.21887207 -0.958984375 0.1796875
vn 0.21887207 -0.958984375 0.1796875
vn 0.426757812 -0.886230469 0.1796875
vn 0.426757812 -0.886230469 0.1796875
vn 0.61328125 -0.769042969 0.1796875
vn 0.61328125 -0.769042969 0.1796875
vn 0.61328125 -0.769042969 0.1796875
vn 0.769042969 -0.61328125 0.1796875
vn 0.61328125 -0.769042969 0.1796875
vn 0.769042969 -0.61328125 0.1796875
vn 0.886230469 -0.426757812 0.1796875
vn 0.886230469 -0.426757812 0.1796875
vn 0.958984375 -0.21887207 0.1796875
vn 0.958984375 -0.21887207 0.1796875
vn -0.523925781 3.57627869E-07 -0.8515625
vn -0.510742188 -0.116577148 -0.8515625
vn -0.523925781 4.17232513E-07 -0.8515625
vn -0.510742188 -0.116577148 -0.8515625
vn -0.471923828 -0.227294922 -0.8515625
vn -0.471923828 -0.227294922 -0.8515625
vn -0.409667969 -0.326660156 -0.8515625
vn -0.409667969 -0.326660156 -0.8515625
vn -0.326660156 -0.409667969 -0.8515625
vn -0.326660156 -0.409667969 -0.8515625
vn -0.227294922 -0.471923828 -0.8515625
vn -0.227294922 -0.471923828 -0.8515625
vn -0.116577148 -0.510742188 -0.8515625
vn -0.116577148 -0.510742188 -0.8515625
vn 2.38418579E-07 -0.523925781 -0.8515625
vn 2.38418579E-07 -0.523925781 -0.8515625
vn 0.116577148 -0.510742188 -0.8515625
vn 0.116577148 -0.510742188 -0.8515625
vn 0.227294922 -0.471923828 -0.8515625
vn 0.227294922 -0.471923828 -0.8515625
vn 0.326660156 -0.409667969 -0.8515625
vn 0.326660156 -0.409667969 -0.8515625
vn 0.409667969 -0.326660156 -0.8515625
vn 0.409667969 -0.326660156 -0.8515625
vn 0.471923828 -0.227294922 -0.8515625
vn 0.471923828 -0.227294922 -0.8515625
vn 0.510742188 -0.116577148 -0.8515625
vn 0.510742188 -0.116577148 -0.8515625
vn 0.523925781 -4.17232513E-07 -0.8515625
vn 0.523925781 -3.57627869E-07 -0.8515625
vn 0.510742188 0.116577148 -0.8515625
vn 0.510742188 0.116577148 -0.8515625
vn 0.471923828 0.227294922 -0.8515625
vn 0.471923828 0.227294922 -0.8515625
vn 0.409667969 0.326660156 -0.8515625
vn 0.409667969 0.326660156 -0.8515625
vn 0.326660156 0.409667969 -0.8515625
vn 0.326660156 0.409667969 -0.8515625
vn 0.227294922 0.471923828 -0.8515625
vn 0.227294922 0.471923828 -0.8515625
vn 0.116577148 0.510742188 -0.8515625
vn 0.116577148 0.510742188 -0.8515625
vn 5.36441803E-07 0.523925781 -0.8515625
vn 4.76837158E-07 0.523925781 -0.8515625
vn -0.116577148 0.510742188 -0.8515625
vn -0.116577148 0.510742188 -0.8515625
vn -0.227294922 0.471923828 -0.8515625
vn -0.227294922 0.471923828 -0.8515625
vn -0.326660156 0.409667969 -0.8515625
vn -0.326660156 0.409667969 -0.8515625
vn -0.409667969 0.326660156 -0.8515625
vn -0.409667969 0.326660156 -0.8515625
vn -0.471923828 0.227294922 -0.8515625
vn -0.471923828 0.227294922 -0.8515625
vn -0.471923828 0.227294922 -0.8515625
vn -0.510742188 0.116577148 -0.8515625
vn -0.471923828 0.227294922 -0.8515625
vn -0.510742188 0.116577148 -0.8515625
vn -0.523925781 4.17232513E-07 -0.8515625
vn -0.523925781 3.57627869E-07 -0.8515625
vn -0.169067383 -0.732421875 0.659667969
vn 0.169067383 -0.732421875 0.659667969
vn 0.530761719 -0.703613281 -0.472167969
vn 0.502441406 -0.849609375 -0.159790039
vn 0.495605469 -0.751464844 -0.435546875
vn 0.485595703 -0.872558594 0.0503845215
vn -0.502441406 -0.849609375 -0.159790039
vn -0.485595703 -0.872558594 0.0503845215
vn -0.495605469 -0.751464844 -0.435546875
vn -0.495605469 -0.751464844 -0.435546875
vn -0.512695312 -0.712402344 -0.479492188
vn 0.495605469 -0.751464844 -0.435546875
vn 0.512695312 -0.712402344 -0.479492188
vn -0 -0.858398438 -0.513183594
vn -0 -0.858398438 -0.513183594
g Computer moniter_0
f 3/3/3 2/2/2 1/1/1
f 6/6/6 5/5/5 4/4/4
f 9/9/9 8/8/8 7/7/7
f 12/12/12 11/11/11 10/10/10
f 15/15/15 14/14/14 13/13/13
f 18/18/18 17/17/17 16/16/16
f 21/21/21 20/20/20 19/19/19
f 22/22/22 21/21/21 19/19/19
f 22/22/22 19/19/19 23/23/23
f 24/24/24 22/22/22 23/23/23
f 24/24/24 23/23/23 25/25/25
f 26/26/26 24/24/24 25/25/25
f 26/26/26 25/25/25 27/27/27
f 28/28/28 26/26/26 27/27/27
f 28/28/28 27/27/27 29/29/29
f 30/30/30 28/28/28 29/29/29
f 30/30/30 29/29/29 31/31/31
f 32/32/32 30/30/30 31/31/31
f 32/32/32 31/31/31 33/33/33
f 34/34/34 32/32/32 33/33/33
f 34/34/34 33/33/33 35/35/35
f 36/36/36 34/34/34 35/35/35
f 36/36/36 35/35/35 37/37/37
f 38/38/38 36/36/36 37/37/37
f 38/38/38 37/37/37 39/39/39
f 40/40/40 38/38/38 39/39/39
f 40/40/40 39/39/39 41/41/41
f 42/42/42 40/40/40 41/41/41
f 42/42/42 41/41/41 43/43/43
f 44/44/44 42/42/42 43/43/43
f 47/47/47 46/46/46 45/45/45
f 46/46/46 48/48/48 45/45/45
f 45/45/45 48/48/48 49/49/49
f 48/48/48 50/50/50 49/49/49
f 49/49/49 50/50/50 51/51/51
f 50/50/50 52/52/52 51/51/51
f 51/51/51 52/52/52 53/53/53
f 52/52/52 54/54/54 53/53/53
f 53/53/53 54/54/54 55/55/55
f 54/54/54 56/56/56 55/55/55
f 55/55/55 56/56/56 57/57/57
f 56/56/56 58/58/58 57/57/57
f 57/57/57 58/58/58 59/59/59
f 58/58/58 60/60/60 59/59/59
f 59/59/59 60/60/60 61/61/61
f 60/60/60 62/62/62 61/61/61
f 61/61/61 62/62/62 63/63/63
f 62/62/62 64/64/64 63/63/63
f 63/63/63 64/64/64 65/65/65
f 64/64/64 66/66/66 65/65/65
f 65/65/65 66/66/66 67/67/67
f 66/66/66 68/68/68 67/67/67
f 67/67/67 68/68/68 69/69/69
f 68/68/68 70/70/70 69/69/69
f 73/73/73 72/72/72 71/71/71
f 74/74/74 73/73/73 71/71/71
f 77/77/77 76/76/76 75/75/75
f 78/78/78 77/77/77 75/75/75
f 81/81/81 80/80/80 79/79/79
f 80/80/80 82/82/82 79/79/79
f 79/79/79 82/82/82 83/83/83
f 82/82/82 84/84/84 83/83/83
f 83/83/83 84/84/84 85/85/85
f 84/84/84 86/86/86 85/85/85
f 85/85/85 86/86/86 87/87/87
f 86/86/86 88/88/88 87/87/87
f 87/87/87 88/88/88 89/89/89
f 88/88/88 90/90/90 89/89/89
f 89/89/89 90/90/90 91/91/91
f 90/90/90 92/92/92 91/91/91
f 91/91/91 92/92/92 93/93/93
f 92/92/92 94/94/94 93/93/93
f 93/93/93 94/94/94 95/95/95
f 94/94/94 96/96/96 95/95/95
f 95/95/95 96/96/96 97/97/97
f 96/96/96 98/98/98 97/97/97
f 97/97/97 98/98/98 99/99/99
f 98/98/98 100/100/100 99/99/99
f 99/99/99 100/100/100 101/101/101
f 100/100/100 102/102/102 101/101/101
f 101/101/101 102/102/102 103/103/103
f 102/102/102 104/104/104 103/103/103
f 107/107/107 106/106/106 105/105/105
f 107/107/107 108/108/108 106/106/106
f 108/108/108 109/109/109 106/106/106
f 108/108/108 110/110/110 109/109/109
f 110/110/110 111/111/111 109/109/109
f 114/114/114 113/113/113 112/112/112
f 114/114/114 112/112/112 115/115/115
f 116/116/116 114/114/114 115/115/115
f 116/116/116 115/115/115 117/117/117
f 118/118/118 116/116/116 117/117/117
f 118/118/118 117/117/117 119/119/119
f 120/120/120 118/118/118 119/119/119
f 120/120/120 119/119/119 121/121/121
f 122/122/122 120/120/120 121/121/121
f 122/122/122 121/121/121 123/123/123
f 124/124/124 122/122/122 123/123/123
f 127/127/127 126/126/126 125/125/125
f 128/128/128 127/127/127 125/125/125
f 128/128/128 125/125/125 129/129/129
f 130/130/130 128/128/128 129/129/129
f 130/130/130 129/129/129 131/131/131
f 132/132/132 130/130/130 131/131/131
f 132/132/132 131/131/131 133/133/133
f 134/134/134 132/132/132 133/133/133
f 134/134/134 133/133/133 135/135/135
f 138/138/138 137/137/137 136/136/136
f 138/138/138 136/136/136 139/139/139
f 140/140/140 138/138/138 139/139/139
f 140/140/140 139/139/139 141/141/141
f 142/142/142 140/140/140 141/141/141
f 145/145/145 144/144/144 143/143/143
f 146/146/146 145/145/145 143/143/143
f 146/146/146 143/143/143 147/147/147
f 148/148/148 146/146/146 147/147/147
f 148/148/148 147/147/147 149/149/149
f 150/150/150 148/148/148 149/149/149
f 153/153/153 152/152/152 151/151/151
f 154/154/154 153/153/153 151/151/151
f 154/154/154 151/151/151 155/155/155
f 156/156/156 154/154/154 155/155/155
f 156/156/156 155/155/155 157/157/157
f 158/158/158 156/156/156 157/157/157
f 161/161/161 160/160/160 159/159/159
f 162/162/162 161/161/161 159/159/159
f 162/162/162 159/159/159 163/163/163
f 164/164/164 162/162/162 163/163/163
f 164/164/164 163/163/163 165/165/165
f 166/166/166 164/164/164 165/165/165
f 166/166/166 165/165/165 167/167/167
f 168/168/168 166/166/166 167/167/167
f 171/171/171 170/170/170 169/169/169
f 172/172/172 171/171/171 169/169/169
f 172/172/172 169/169/169 173/173/173
f 174/174/174 172/172/172 173/173/173
f 174/174/174 173/173/173 175/175/175
f 176/176/176 174/174/174 175/175/175
f 179/179/179 178/178/178 177/177/177
f 178/178/178 180/180/180 177/177/177
f 177/177/177 180/180/180 181/181/181
f 184/184/184 183/183/183 182/182/182
f 185/185/185 184/184/184 182/182/182
f 185/185/185 186/186/186 184/184/184
f 186/186/186 187/187/187 184/184/184
f 190/190/190 189/189/189 188/188/188
f 191/191/191 190/190/190 188/188/188
f 191/191/191 192/192/192 190/190/190
f 192/192/192 193/193/193 190/190/190
f 196/196/196 195/195/195 194/194/194
f 197/197/197 196/196/196 194/194/194
f 197/197/197 198/198/198 196/196/196
f 198/198/198 199/199/199 196/196/196
f 202/202/202 201/201/201 200/200/200
f 203/203/203 202/202/202 200/200/200
f 203/203/203 204/204/204 202/202/202
f 204/204/204 205/205/205 202/202/202
f 208/208/208 207/207/207 206/206/206
f 209/209/209 208/208/208 206/206/206
f 209/209/209 210/210/210 208/208/208
f 210/210/210 211/211/211 208/208/208
f 214/214/214 213/213/213 212/212/212
f 215/215/215 214/214/214 212/212/212
f 218/218/218 217/217/217 216/216/216
f 219/219/219 218/218/218 216/216/216
f 222/222/222 221/221/221 220/220/220
f 221/221/221 223/223/223 220/220/220
f 220/220/220 223/223/223 224/224/224
f 225/225/225 220/220/220 224/224/224
f 228/228/228 227/227/227 226/226/226
f 229/229/229 228/228/228 226/226/226
f 232/232/232 231/231/231 230/230/230
f 233/233/233 232/232/232 230/230/230
f 233/233/233 230/230/230 234/234/234
f 230/230/230 235/235/235 234/234/234
f 234/234/234 235/235/235 236/236/236
f 237/237/237 234/234/234 236/236/236
f 240/240/240 239/239/239 238/238/238
f 241/241/241 240/240/240 238/238/238
f 244/244/244 243/243/243 242/242/242
f 243/243/243 245/245/245 242/242/242
f 246/246/246 245/245/245 243/243/243
f 247/247/247 246/246/246 243/243/243
f 250/250/250 249/249/249 248/248/248
f 251/251/251 250/250/250 248/248/248
f 251/251/251 248/248/248 252/252/252
f 248/248/248 253/253/253 252/252/252
f 252/252/252 253/253/253 254/254/254
f 255/255/255 252/252/252 254/254/254
f 258/258/258 257/257/257 256/256/256
f 259/259/259 258/258/258 256/256/256
f 262/262/262 261/261/261 260/260/260
f 263/263/263 262/262/262 260/260/260
f 266/266/266 265/265/265 264/264/264
f 267/267/267 266/266/266 264/264/264
f 270/270/270 269/269/269 268/268/268
f 271/271/271 270/270/270 268/268/268
f 271/271/271 268/268/268 272/272/272
f 268/268/268 273/273/273 272/272/272
f 272/272/272 273/273/273 274/274/274
f 275/275/275 272/272/272 274/274/274
f 278/278/278 277/277/277 276/276/276
f 279/279/279 278/278/278 276/276/276
f 282/282/282 281/281/281 280/280/280
f 283/283/283 282/282/282 280/280/280
f 286/286/286 285/285/285 284/284/284
f 287/287/287 286/286/286 284/284/284
f 287/287/287 284/284/284 288/288/288
f 284/284/284 289/289/289 288/288/288
f 288/288/288 289/289/289 290/290/290
f 291/291/291 288/288/288 290/290/290
f 294/294/294 293/293/293 292/292/292
f 295/295/295 294/294/294 292/292/292
f 298/298/298 297/297/297 296/296/296
f 299/299/299 298/298/298 296/296/296
f 302/302/302 301/301/301 300/300/300
f 303/303/303 302/302/302 300/300/300
f 306/306/306 305/305/305 304/304/304
f 307/307/307 306/306/306 304/304/304
f 310/310/310 309/309/309 308/308/308
f 311/311/311 310/310/310 308/308/308
f 314/314/314 313/313/313 312/312/312
f 315/315/315 314/314/314 312/312/312
f 318/318/318 317/317/317 316/316/316
f 319/319/319 318/318/318 316/316/316
f 322/322/322 321/321/321 320/320/320
f 323/323/323 322/322/322 320/320/320
f 326/326/326 325/325/325 324/324/324
f 327/327/327 326/326/326 324/324/324
f 330/330/330 329/329/329 328/328/328
f 331/331/331 330/330/330 328/328/328
f 334/334/334 333/333/333 332/332/332
f 335/335/335 334/334/334 332/332/332
f 338/338/338 337/337/337 336/336/336
f 339/339/339 338/338/338 336/336/336
f 342/342/342 341/341/341 340/340/340
f 343/343/343 342/342/342 340/340/340
f 342/342/342 343/343/343 344/344/344
f 345/345/345 342/342/342 344/344/344
f 348/348/348 347/347/347 346/346/346
f 349/349/349 348/348/348 346/346/346
f 352/352/352 351/351/351 350/350/350
f 351/351/351 353/353/353 350/350/350
f 353/353/353 354/354/354 350/350/350
f 357/357/357 356/356/356 355/355/355
f 358/358/358 357/357/357 355/355/355
f 361/361/361 360/360/360 359/359/359
f 362/362/362 361/361/361 359/359/359
f 365/365/365 364/364/364 363/363/363
f 366/366/366 365/365/365 363/363/363
f 369/369/369 368/368/368 367/367/367
f 370/370/370 369/369/369 367/367/367
f 373/373/373 372/372/372 371/371/371
f 373/373/373 374/374/374 372/372/372
f 372/372/372 375/375/375 371/371/371
f 374/374/374 376/376/376 372/372/372
f 371/371/371 375/375/375 377/377/377
f 374/374/374 378/378/378 376/376/376
f 379/379/379 371/371/371 377/377/377
f 378/378/378 380/380/380 376/376/376
f 379/379/379 377/377/377 381/381/381
f 382/382/382 379/379/379 381/381/381
f 378/378/378 383/383/383 380/380/380
f 383/383/383 384/384/384 380/380/380
f 382/382/382 381/381/381 385/385/385
f 386/386/386 382/382/382 385/385/385
f 387/387/387 384/384/384 383/383/383
f 388/388/388 387/387/387 383/383/383
f 386/386/386 385/385/385 389/389/389
f 388/388/388 389/389/389 387/387/387
f 385/385/385 390/390/390 389/389/389
f 389/389/389 390/390/390 387/387/387
f 393/393/393 392/392/392 391/391/391
f 391/391/391 392/392/392 394/394/394
f 395/395/395 393/393/393 391/391/391
f 396/396/396 391/391/391 394/394/394
f 395/395/395 397/397/397 393/393/393
f 396/396/396 394/394/394 398/398/398
f 397/397/397 399/399/399 393/393/393
f 400/400/400 396/396/396 398/398/398
f 397/397/397 401/401/401 399/399/399
f 401/401/401 402/402/402 399/399/399
f 400/400/400 398/398/398 403/403/403
f 404/404/404 400/400/400 403/403/403
f 401/401/401 405/405/405 402/402/402
f 405/405/405 406/406/406 402/402/402
f 404/404/404 403/403/403 407/407/407
f 403/403/403 408/408/408 407/407/407
f 409/409/409 406/406/406 405/405/405
f 407/407/407 408/408/408 409/409/409
f 410/410/410 409/409/409 405/405/405
f 410/410/410 407/407/407 409/409/409
f 413/413/413 412/412/412 411/411/411
f 412/412/412 414/414/414 411/411/411
f 413/413/413 411/411/411 415/415/415
f 412/412/412 416/416/416 414/414/414
f 417/417/417 413/413/413 415/415/415
f 416/416/416 418/418/418 414/414/414
f 417/417/417 415/415/415 419/419/419
f 416/416/416 420/420/420 418/418/418
f 421/421/421 417/417/417 419/419/419
f 420/420/420 422/422/422 418/418/418
f 421/421/421 419/419/419 423/423/423
f 420/420/420 424/424/424 422/422/422
f 425/425/425 421/421/421 423/423/423
f 424/424/424 426/426/426 422/422/422
f 425/425/425 423/423/423 427/427/427
f 424/424/424 428/428/428 426/426/426
f 429/429/429 425/425/425 427/427/427
f 428/428/428 430/430/430 426/426/426
f 429/429/429 427/427/427 431/431/431
f 428/428/428 432/432/432 430/430/430
f 433/433/433 429/429/429 431/431/431
f 432/432/432 434/434/434 430/430/430
f 433/433/433 431/431/431 435/435/435
f 432/432/432 436/436/436 434/434/434
f 437/437/437 433/433/433 435/435/435
f 436/436/436 438/438/438 434/434/434
f 437/437/437 435/435/435 439/439/439
f 436/436/436 440/440/440 438/438/438
f 441/441/441 437/437/437 439/439/439
f 440/440/440 442/442/442 438/438/438
f 441/441/441 439/439/439 443/443/443
f 440/440/440 444/444/444 442/442/442
f 445/445/445 441/441/441 443/443/443
f 444/444/444 446/446/446 442/442/442
f 445/445/445 443/443/443 447/447/447
f 444/444/444 448/448/448 446/446/446
f 449/449/449 445/445/445 447/447/447
f 448/448/448 450/450/450 446/446/446
f 449/449/449 447/447/447 451/451/451
f 448/448/448 452/452/452 450/450/450
f 453/453/453 449/449/449 451/451/451
f 452/452/452 454/454/454 450/450/450
f 453/453/453 451/451/451 455/455/455
f 452/452/452 456/456/456 454/454/454
f 457/457/457 453/453/453 455/455/455
f 456/456/456 458/458/458 454/454/454
f 457/457/457 455/455/455 459/459/459
f 456/456/456 460/460/460 458/458/458
f 461/461/461 457/457/457 459/459/459
f 460/460/460 462/462/462 458/458/458
f 461/461/461 459/459/459 463/463/463
f 460/460/460 464/464/464 462/462/462
f 465/465/465 461/461/461 463/463/463
f 464/464/464 466/466/466 462/462/462
f 465/465/465 463/463/463 466/466/466
f 464/464/464 465/465/465 466/466/466
f 469/469/469 468/468/468 467/467/467
f 470/470/470 469/469/469 467/467/467
f 467/467/467 468/468/468 471/471/471
f 472/472/472 469/469/469 470/470/470
f 468/468/468 473/473/473 471/471/471
f 474/474/474 472/472/472 470/470/470
f 471/471/471 473/473/473 475/475/475
f 476/476/476 472/472/472 474/474/474
f 473/473/473 477/477/477 475/475/475
f 478/478/478 476/476/476 474/474/474
f 475/475/475 477/477/477 479/479/479
f 480/480/480 476/476/476 478/478/478
f 477/477/477 481/481/481 479/479/479
f 482/482/482 480/480/480 478/478/478
f 479/479/479 481/481/481 483/483/483
f 484/484/484 480/480/480 482/482/482
f 481/481/481 485/485/485 483/483/483
f 486/486/486 484/484/484 482/482/482
f 483/483/483 485/485/485 487/487/487
f 488/488/488 484/484/484 486/486/486
f 485/485/485 489/489/489 487/487/487
f 490/490/490 488/488/488 486/486/486
f 487/487/487 489/489/489 491/491/491
f 492/492/492 488/488/488 490/490/490
f 489/489/489 493/493/493 491/491/491
f 494/494/494 492/492/492 490/490/490
f 491/491/491 493/493/493 495/495/495
f 496/496/496 492/492/492 494/494/494
f 493/493/493 497/497/497 495/495/495
f 498/498/498 496/496/496 494/494/494
f 495/495/495 497/497/497 499/499/499
f 500/500/500 496/496/496 498/498/498
f 497/497/497 501/501/501 499/499/499
f 502/502/502 500/500/500 498/498/498
f 499/499/499 501/501/501 503/503/503
f 504/504/504 500/500/500 502/502/502
f 501/501/501 505/505/505 503/503/503
f 506/506/506 504/504/504 502/502/502
f 503/503/503 505/505/505 507/507/507
f 508/508/508 504/504/504 506/506/506
f 505/505/505 509/509/509 507/507/507
f 510/510/510 508/508/508 506/506/506
f 507/507/507 509/509/509 511/511/511
f 512/512/512 508/508/508 510/510/510
f 509/509/509 513/513/513 511/511/511
f 514/514/514 512/512/512 510/510/510
f 511/511/511 513/513/513 515/515/515
f 516/516/516 512/512/512 514/514/514
f 513/513/513 517/517/517 515/515/515
f 518/518/518 516/516/516 514/514/514
f 515/515/515 517/517/517 519/519/519
f 520/520/520 516/516/516 518/518/518
f 517/517/517 521/521/521 519/519/519
f 522/522/522 520/520/520 518/518/518
f 519/519/519 521/521/521 522/522/522
f 521/521/521 520/520/520 522/522/522
g Computer moniter_1
f 525/525/525 524/524/524 523/523/523
f 524/524/524 526/526/526 523/523/523
f 523/523/523 526/526/526 527/527/527
f 526/526/526 528/528/528 527/527/527
f 527/527/527 528/528/528 529/529/529
f 528/528/528 530/530/530 529/529/529
f 529/529/529 530/530/530 531/531/531
f 530/530/530 532/532/532 531/531/531
f 531/531/531 532/532/532 533/533/533
f 532/532/532 534/534/534 533/533/533
f 533/533/533 534/534/534 535/535/535
f 534/534/534 536/536/536 535/535/535
f 535/535/535 536/536/536 537/537/537
f 536/536/536 538/538/538 537/537/537
f 537/537/537 538/538/538 539/539/539
f 538/538/538 540/540/540 539/539/539
f 539/539/539 540/540/540 541/541/541
f 540/540/540 542/542/542 541/541/541
f 541/541/541 542/542/542 543/543/543
f 542/542/542 544/544/544 543/543/543
f 543/543/543 544/544/544 545/545/545
f 544/544/544 546/546/546 545/545/545
f 545/545/545 546/546/546 547/547/547
f 546/546/546 548/548/548 547/547/547
g Computer moniter_2
f 551/551/551 550/550/550 549/549/549
f 552/552/552 14/14/14 15/15/15
f 555/555/555 554/554/554 553/553/553
f 556/556/556 361/361/361 362/362/362
f 559/559/559 558/558/558 557/557/557
f 562/562/562 561/561/561 560/560/560
f 563/563/563 562/562/562 560/560/560
f 563/563/563 560/560/560 564/564/564
f 565/565/565 563/563/563 564/564/564
f 565/565/565 564/564/564 566/566/566
f 567/567/567 565/565/565 566/566/566
f 567/567/567 566/566/566 568/568/568
f 569/569/569 567/567/567 568/568/568
f 572/572/572 571/571/571 570/570/570
f 571/571/571 573/573/573 570/570/570
f 571/571/571 574/574/574 573/573/573
f 574/574/574 575/575/575 573/573/573
f 574/574/574 576/576/576 575/575/575
f 576/576/576 577/577/577 575/575/575
f 580/580/580 579/579/579 578/578/578
f 579/579/579 581/581/581 578/578/578
f 579/579/579 582/582/582 581/581/581
f 582/582/582 583/583/583 581/581/581
f 582/582/582 584/584/584 583/583/583
f 584/584/584 585/585/585 583/583/583
f 584/584/584 586/586/586 585/585/585
f 586/586/586 587/587/587 585/585/585
f 590/590/590 589/589/589 588/588/588
f 590/590/590 591/591/591 589/589/589
f 591/591/591 592/592/592 589/589/589
f 591/591/591 593/593/593 592/592/592
f 593/593/593 594/594/594 592/592/592
f 593/593/593 595/595/595 594/594/594
f 595/595/595 596/596/596 594/594/594
f 595/595/595 597/597/597 596/596/596
f 597/597/597 598/598/598 596/596/596
f 597/597/597 599/599/599 598/598/598
f 599/599/599 600/600/600 598/598/598
f 603/603/603 602/602/602 601/601/601
f 602/602/602 604/604/604 601/601/601
f 602/602/602 605/605/605 604/604/604
f 605/605/605 606/606/606 604/604/604
f 609/609/609 608/608/608 607/607/607
f 608/608/608 610/610/610 607/607/607
f 608/608/608 611/611/611 610/610/610
f 611/611/611 612/612/612 610/610/610
f 611/611/611 613/613/613 612/612/612
f 613/613/613 614/614/614 612/612/612
f 613/613/613 615/615/615 614/614/614
f 615/615/615 616/616/616 614/614/614
f 615/615/615 617/617/617 616/616/616
f 617/617/617 618/618/618 616/616/616
f 617/617/617 619/619/619 618/618/618
f 619/619/619 620/620/620 618/618/618
f 623/623/623 622/622/622 621/621/621
f 622/622/622 624/624/624 621/621/621
f 622/622/622 625/625/625 624/624/624
f 625/625/625 626/626/626 624/624/624
f 625/625/625 627/627/627 626/626/626
f 627/627/627 628/628/628 626/626/626
f 631/631/631 630/630/630 629/629/629
f 630/630/630 632/632/632 629/629/629
f 630/630/630 633/633/633 632/632/632
f 633/633/633 634/634/634 632/632/632
f 633/633/633 635/635/635 634/634/634
f 635/635/635 636/636/636 634/634/634
f 635/635/635 637/637/637 636/636/636
f 637/637/637 638/638/638 636/636/636
f 637/637/637 639/639/639 638/638/638
f 639/639/639 640/640/640 638/638/638
f 639/639/639 641/641/641 640/640/640
f 641/641/641 642/642/642 640/640/640
f 641/641/641 643/643/643 642/642/642
f 643/643/643 644/644/644 642/642/642
f 643/643/643 645/645/645 644/644/644
f 645/645/645 646/646/646 644/644/644
f 645/645/645 647/647/647 646/646/646
f 647/647/647 648/648/648 646/646/646
f 647/647/647 649/649/649 648/648/648
f 649/649/649 650/650/650 648/648/648
f 649/649/649 651/651/651 650/650/650
f 651/651/651 652/652/652 650/650/650
f 651/651/651 653/653/653 652/652/652
f 653/653/653 654/654/654 652/652/652
f 653/653/653 655/655/655 654/654/654
f 655/655/655 656/656/656 654/654/654
f 655/655/655 657/657/657 656/656/656
f 657/657/657 658/658/658 656/656/656
f 657/657/657 659/659/659 658/658/658
f 659/659/659 660/660/660 658/658/658
f 659/659/659 661/661/661 660/660/660
f 661/661/661 662/662/662 660/660/660
f 661/661/661 663/663/663 662/662/662
f 663/663/663 664/664/664 662/662/662
f 663/663/663 665/665/665 664/664/664
f 665/665/665 666/666/666 664/664/664
f 665/665/665 667/667/667 666/666/666
f 667/667/667 668/668/668 666/666/666
f 667/667/667 669/669/669 668/668/668
f 669/669/669 670/670/670 668/668/668
f 669/669/669 671/671/671 670/670/670
f 671/671/671 672/672/672 670/670/670
f 671/671/671 673/673/673 672/672/672
f 673/673/673 674/674/674 672/672/672
f 673/673/673 675/675/675 674/674/674
f 675/675/675 676/676/676 674/674/674
f 675/675/675 677/677/677 676/676/676
f 677/677/677 678/678/678 676/676/676
f 677/677/677 679/679/679 678/678/678
f 679/679/679 680/680/680 678/678/678
f 679/679/679 681/681/681 680/680/680
f 681/681/681 682/682/682 680/680/680
f 685/685/685 684/684/684 683/683/683
f 684/684/684 686/686/686 683/683/683
f 684/684/684 687/687/687 686/686/686
f 687/687/687 688/688/688 686/686/686
f 690/690/690 689/689/689 368/368/368
f 369/369/369 690/690/690 368/368/368
f 693/693/693 692/692/692 691/691/691
f 692/692/692 366/366/366 691/691/691
f 692/692/692 694/694/694 366/366/366
f 694/694/694 365/365/365 366/366/366
f 696/696/696 695/695/695 358/358/358
f 695/695/695 357/357/357 358/358/358
f 695/695/695 697/697/697 357/357/357
f 698/698/698 342/342/342 345/345/345
f 342/342/342 698/698/698 341/341/341
f 698/698/698 699/699/699 341/341/341
f 701/701/701 700/700/700 353/353/353
f 351/351/351 701/701/701 353/353/353
f 702/702/702 348/348/348 349/349/349
f 703/703/703 702/702/702 349/349/349
