g Computer speker 2.001
v -0.000177839393 5.53131076E-06 -0.000230654172
v -0.000177839393 0.000223849405 -0.000230654172
v -0.000121076555 0.00018440366 0.000659176963
v -0.000121076555 4.49770669E-05 0.000659176963
v -0.000177839393 0.000223849405 -0.000230654172
v 0.00013632387 0.000223849405 -0.000230654172
v 7.95610249E-05 0.00018440366 0.000659176963
v -0.000121076555 0.00018440366 0.000659176963
v 0.00013632387 0.000223849405 -0.000230654172
v 0.00013632387 5.53131076E-06 -0.000230654172
v 7.95610249E-05 4.49770669E-05 0.000659176963
v 7.95610249E-05 0.00018440366 0.000659176963
v 0.00013632387 5.53131076E-06 -0.000230654172
v -0.000177839393 5.53131076E-06 -0.000230654172
v -0.000121076555 4.49770669E-05 0.000659176963
v 7.95610249E-05 4.49770669E-05 0.000659176963
v -0.000185917321 -8.22544095E-08 -0.000308448973
v -0.000184164193 1.1360645E-06 -0.000331147021
v -0.000184164193 0.000228244651 -0.000331147021
v -0.000185917321 0.000229462981 -0.000308448973
v -0.000117517411 0.000181930664 0.000728731451
v -0.000117517411 4.7450063E-05 0.000728731451
v -8.80852349E-06 5.05149364E-06 -0.000147096216
v -2.37347176E-05 5.05149364E-06 -0.000148566061
v -3.8661361E-05 5.05149364E-06 -0.000147096216
v 5.54338067E-06 5.05149364E-06 -0.000142742399
v -5.30146062E-05 5.05149364E-06 -0.000142742399
v 1.87702481E-05 5.05149364E-06 -0.00013567209
v -6.62411767E-05 5.05149364E-06 -0.00013567209
v 3.03648412E-05 5.05149364E-06 -0.000126157407
v -7.78347239E-05 5.05149364E-06 -0.000126157407
v 3.98796801E-05 5.05149364E-06 -0.000114563401
v -8.73504541E-05 5.05149364E-06 -0.000114563401
v 4.69501319E-05 5.05149364E-06 -0.000101335943
v -9.44200146E-05 5.05149364E-06 -0.000101335943
v 5.13039522E-05 5.05149364E-06 -8.69834403E-05
v -9.87741296E-05 5.05149364E-06 -8.69834403E-05
v 5.27739503E-05 5.05149364E-06 -7.20572425E-05
v -0.000100244135 5.05149364E-06 -7.20572425E-05
v 5.13039522E-05 5.05149364E-06 -5.7131052E-05
v -9.87741296E-05 5.05149364E-06 -5.7131052E-05
v 4.69501319E-05 5.05149364E-06 -4.2778549E-05
v -9.44200146E-05 5.05149364E-06 -4.2778549E-05
v 3.98796801E-05 5.05149364E-06 -2.9551089E-05
v -8.73504541E-05 5.05149364E-06 -2.9551089E-05
v 3.03648412E-05 5.05149364E-06 -1.7957389E-05
v -7.78347239E-05 5.05149364E-06 -1.7957389E-05
v 1.87702481E-05 5.05149364E-06 -8.44240185E-06
v -6.62411767E-05 5.05149364E-06 -8.44240185E-06
v 5.54338067E-06 5.05149364E-06 -1.37209884E-06
v -5.30146062E-05 5.05149364E-06 -1.37209884E-06
v -8.80852349E-06 5.05149364E-06 2.98142436E-06
v -3.8661361E-05 5.05149364E-06 2.98142436E-06
v -2.37347176E-05 5.05149364E-06 4.45157275E-06
v -1.24771886E-05 1.25801562E-05 0.000177803333
v -2.37347176E-05 1.25801562E-05 0.00017669439
v -3.49938855E-05 1.25801562E-05 0.000177803333
v -1.65209167E-06 1.25801562E-05 0.000181086958
v -4.58191316E-05 1.25801562E-05 0.000181086958
v 8.32408659E-06 1.25801562E-05 0.000186419784
v -5.57948624E-05 1.25801562E-05 0.000186419784
v 1.70689818E-05 1.25801562E-05 0.000193596177
v -6.45396067E-05 1.25801562E-05 0.000193596177
v 2.42453807E-05 1.25801562E-05 0.000202340772
v -7.17161602E-05 1.25801562E-05 0.000202340772
v 2.95777609E-05 1.25801562E-05 0.000212317405
v -7.70486877E-05 1.25801562E-05 0.000212317405
v 3.2862572E-05 1.25801562E-05 0.000223142502
v -8.03324583E-05 1.25801562E-05 0.000223142502
v 3.39706239E-05 1.25801562E-05 0.00023440033
v -8.14415471E-05 1.25801562E-05 0.00023440033
v 3.2862572E-05 1.25801562E-05 0.000245658157
v -8.03324583E-05 1.25801562E-05 0.000245658157
v 2.95777609E-05 1.25801562E-05 0.000256483559
v -7.70486877E-05 1.25801562E-05 0.000256483559
v 2.42453807E-05 1.25801562E-05 0.000266460178
v -7.17161602E-05 1.25801562E-05 0.000266460178
v 1.70689818E-05 1.25801562E-05 0.000275204773
v -6.45396067E-05 1.25801562E-05 0.000275204773
v 8.32408659E-06 1.25801562E-05 0.000282381166
v -5.57948624E-05 1.25801562E-05 0.000282381166
v -1.65209167E-06 1.25801562E-05 0.000287713687
v -4.58191316E-05 1.25801562E-05 0.000287713687
v -1.24771886E-05 1.25801562E-05 0.000290997326
v -3.49938855E-05 1.25801562E-05 0.000290997326
v -2.37347176E-05 1.25801562E-05 0.00029210627
v -1.47892533E-05 3.3982993E-05 0.000442173477
v -2.37351651E-05 3.3982993E-05 0.000441292505
v -3.26806294E-05 3.3982993E-05 0.000442173477
v -6.18770719E-06 3.3982993E-05 0.000444782956
v -4.12830705E-05 3.3982993E-05 0.000444782956
v 1.73941248E-06 3.3982993E-05 0.00044902027
v -4.92104882E-05 3.3982993E-05 0.00044902027
v 8.68812185E-06 3.3982993E-05 0.000454722642
v -5.61580055E-05 3.3982993E-05 0.000454722642
v 1.43900506E-05 3.3982993E-05 0.000461671036
v -6.18612758E-05 3.3982993E-05 0.000461671036
v 1.86277921E-05 3.3982993E-05 0.000469598453
v -6.60979713E-05 3.3982993E-05 0.000469598453
v 2.12368359E-05 3.3982993E-05 0.000478200294
v -6.87077627E-05 3.3982993E-05 0.000478200294
v 2.21179416E-05 3.3982993E-05 0.000487145764
v -6.95888666E-05 3.3982993E-05 0.000487145764
v 2.12368359E-05 3.3982993E-05 0.000496091554
v -6.87077627E-05 3.3982993E-05 0.000496091554
v 1.86277921E-05 3.3982993E-05 0.000504693075
v -6.60979713E-05 3.3982993E-05 0.000504693366
v 1.43900506E-05 3.3982993E-05 0.000512620783
v -6.18612758E-05 3.3982993E-05 0.000512620783
v 8.68812185E-06 3.3982993E-05 0.000519569207
v -5.61580055E-05 3.3982993E-05 0.000519569207
v 1.73941248E-06 3.3982993E-05 0.000525271578
v -4.92104882E-05 3.3982993E-05 0.000525271578
v -6.18770719E-06 3.3982993E-05 0.000529508863
v -4.12830705E-05 3.3982993E-05 0.000529508863
v -1.47892533E-05 3.3982993E-05 0.00053211808
v -3.26806294E-05 3.3982993E-05 0.00053211808
v -2.37351651E-05 3.3982993E-05 0.000532999344
v 7.60020266E-05 0.000181930664 0.000728731451
v 7.60020266E-05 4.7450063E-05 0.000728731451
v -0.000117517411 4.7450063E-05 0.000728731451
v -0.000117517411 0.000181930664 0.000728731451
v -0.000117517411 4.7450063E-05 0.000728731451
v 7.60020266E-05 4.7450063E-05 0.000728731451
v 7.60020266E-05 0.000181930664 0.000728731451
v -0.000117517411 0.000181930664 0.000728731451
v 7.60020266E-05 4.7450063E-05 0.000728731451
v 7.60020266E-05 0.000181930664 0.000728731451
v -0.000184164193 0.000228244651 -0.000331147021
v -0.000184164193 1.1360645E-06 -0.000331147021
v 0.000142648962 1.1360645E-06 -0.000331147021
v 0.000142648962 0.000228244651 -0.000331147021
v 0.000144401783 0.000229462981 -0.000308448973
v 0.000142648962 0.000228244651 -0.000331147021
v 0.000142648962 1.1360645E-06 -0.000331147021
v 0.000144401783 -8.22544095E-08 -0.000308448973
v 0.000144401783 -8.22544095E-08 -0.000308448973
v 0.000142648962 1.1360645E-06 -0.000331147021
v -0.000184164193 1.1360645E-06 -0.000331147021
v -0.000185917321 -8.22544095E-08 -0.000308448973
v -0.000185917321 0.000229462981 -0.000308448973
v -0.000184164193 0.000228244651 -0.000331147021
v 0.000142648962 0.000228244651 -0.000331147021
v 0.000144401783 0.000229462981 -0.000308448973
v 8.53469974E-05 -6.84440101E-06 -0.000144943289
v 9.74705763E-05 2.6797652E-05 -0.000122262238
v 8.53469974E-05 2.6797652E-05 -0.000144943289
v 9.74705763E-05 -6.84440101E-06 -0.000122262238
v 0.00010493576 2.6797652E-05 -9.76514784E-05
v 0.00010493576 -6.84440101E-06 -9.76514784E-05
v 0.000107456442 2.6797652E-05 -7.20572425E-05
v 0.000107456442 -6.84440101E-06 -7.20572425E-05
v 0.00010493576 2.6797652E-05 -4.64630102E-05
v 0.00010493576 -6.84440101E-06 -4.64630102E-05
v 9.74705763E-05 2.6797652E-05 -2.18522546E-05
v 9.74705763E-05 -6.84440101E-06 -2.18522546E-05
v 8.53469974E-05 2.6797652E-05 8.291006E-07
v 8.53469974E-05 -6.84440101E-06 8.291006E-07
v 6.90315646E-05 2.6797652E-05 2.07093362E-05
v 6.90315646E-05 -6.84440101E-06 2.07093362E-05
v -0.000116501149 -6.84440101E-06 -0.000164823825
v -9.66210646E-05 -6.84440101E-06 -0.000181139112
v -9.66210646E-05 2.6797652E-05 -0.000181139112
v -0.000116501149 2.6797652E-05 -0.000164823825
v -9.66210646E-05 -6.84440101E-06 -0.000181139112
v -7.39404568E-05 2.6797652E-05 -0.0001932624
v -9.66210646E-05 2.6797652E-05 -0.000181139112
v -7.39404568E-05 -6.84440101E-06 -0.0001932624
v -4.93304433E-05 2.6797652E-05 -0.000200728173
v -4.93304433E-05 -6.84440101E-06 -0.000200728173
v -2.37347176E-05 2.6797652E-05 -0.000203248856
v -2.37347176E-05 -6.84440101E-06 -0.000203248856
v 1.85891986E-06 2.6797652E-05 -0.000200728173
v 1.85891986E-06 -6.84440101E-06 -0.000200728173
v 2.64699756E-05 2.6797652E-05 -0.0001932624
v 2.64699756E-05 -6.84440101E-06 -0.0001932624
v 4.91505853E-05 2.6797652E-05 -0.000181139112
v 4.91505853E-05 -6.84440101E-06 -0.000181139112
v 6.90315646E-05 2.6797652E-05 -0.000164823825
v 6.90315646E-05 -6.84440101E-06 -0.000164823825
v -0.000116501149 -6.84440101E-06 2.07093362E-05
v -0.000132817469 2.6797652E-05 8.291006E-07
v -0.000116501149 2.6797652E-05 2.07093362E-05
v -0.000132817469 -6.84440101E-06 8.291006E-07
v -0.000144940757 2.6797652E-05 -2.18522546E-05
v -0.000144940757 -6.84440101E-06 -2.18522546E-05
v -0.000152406239 2.6797652E-05 -4.64630102E-05
v -0.000152406239 -6.84440101E-06 -4.64630102E-05
v -0.000154926922 2.6797652E-05 -7.20572425E-05
v -0.000154926922 -6.84440101E-06 -7.20572425E-05
v -0.000152406239 2.6797652E-05 -9.76514784E-05
v -0.000152406239 -6.84440101E-06 -9.76514784E-05
v -0.000144940757 2.6797652E-05 -0.000122262238
v -0.000144940757 -6.84440101E-06 -0.000122262238
v -0.000132817469 2.6797652E-05 -0.000144943595
v -0.000132817469 -6.84440101E-06 -0.000144943595
v -0.000116501149 2.6797652E-05 -0.000164823825
v -0.000116501149 -6.84440101E-06 -0.000164823825
v 4.91505853E-05 -6.84440101E-06 3.70246162E-05
v 2.64699756E-05 2.6797652E-05 4.91482024E-05
v 4.91505853E-05 2.6797652E-05 3.70246162E-05
v 2.64699756E-05 -6.84440101E-06 4.91482024E-05
v 1.85891986E-06 2.6797652E-05 5.66133858E-05
v 1.85891986E-06 -6.84440101E-06 5.66133858E-05
v -2.37347176E-05 2.6797652E-05 5.91343633E-05
v -2.37347176E-05 -6.84440101E-06 5.91343633E-05
v -4.93304433E-05 2.6797652E-05 5.66133858E-05
v -4.93304433E-05 -6.84440101E-06 5.66133858E-05
v -7.39404568E-05 2.6797652E-05 4.91482024E-05
v -7.39404568E-05 -6.84440101E-06 4.91482024E-05
v -9.66210646E-05 2.6797652E-05 3.70246162E-05
v -9.66210646E-05 -6.84440101E-06 3.70246162E-05
v -0.000116501149 2.6797652E-05 2.07093362E-05
v -0.000116501149 -6.84440101E-06 2.07093362E-05
v 6.90315646E-05 -6.84440101E-06 2.07093362E-05
v 4.91505853E-05 -6.84440101E-06 3.70246162E-05
v 4.91505853E-05 2.6797652E-05 3.70246162E-05
v 6.90315646E-05 2.6797652E-05 2.07093362E-05
v 6.90315646E-05 -6.84440101E-06 -0.000164823825
v 8.53469974E-05 -6.84440101E-06 -0.000144943289
v 8.53469974E-05 2.6797652E-05 -0.000144943289
v 6.90315646E-05 2.6797652E-05 -0.000164823825
v -2.37347176E-05 1.70350074E-06 0.000135450653
v -4.43115823E-06 1.70350074E-06 0.00013735205
v -4.43115823E-06 4.3323038E-05 0.00013735205
v -2.37347176E-05 4.3323038E-05 0.000135450653
v -4.30396176E-05 1.70350074E-06 0.00013735205
v -4.30396176E-05 4.3323038E-05 0.00013735205
v -6.16015459E-05 1.70350074E-06 0.000142982899
v -6.16015459E-05 4.3323038E-05 0.000142982899
v -7.87086756E-05 1.70350074E-06 0.000152126842
v -7.87086756E-05 4.3323038E-05 0.000152126842
v -9.37032673E-05 1.70350074E-06 0.000164432524
v -9.37032673E-05 4.3323038E-05 0.000164432524
v 5.8538466E-05 1.70350074E-06 0.000179426963
v 6.7682864E-05 1.70350074E-06 0.000196534093
v 6.7682864E-05 4.3323038E-05 0.000196534093
v 5.8538466E-05 4.3323038E-05 0.000179426963
v 4.62333846E-05 1.70350074E-06 0.000164432524
v 4.62333846E-05 4.3323038E-05 0.000164432524
v -4.43115823E-06 1.70350074E-06 0.00013735205
v 1.41313667E-05 4.3323038E-05 0.000142982899
v -4.43115823E-06 4.3323038E-05 0.00013735205
v 1.41313667E-05 1.70350074E-06 0.000142982899
v 3.12378979E-05 4.3323038E-05 0.000152126842
v 3.12378979E-05 1.70350074E-06 0.000152126842
v 4.62333846E-05 4.3323038E-05 0.000164432524
v 4.62333846E-05 1.70350074E-06 0.000164432524
v -9.37032673E-05 1.70350074E-06 0.000304368441
v -0.000106009393 4.3323038E-05 0.000289373973
v -9.37032673E-05 4.3323038E-05 0.000304368441
v -0.000106009393 1.70350074E-06 0.000289373973
v -0.000115153045 4.3323038E-05 0.000272266858
v -0.000115153045 1.70350074E-06 0.000272266858
v -0.000120784192 4.3323038E-05 0.000253704493
v -0.000120784192 1.70350074E-06 0.000253704493
v -0.000122685582 4.3323038E-05 0.00023440033
v -0.000122685582 1.70350074E-06 0.00023440033
v -0.000120784192 4.3323038E-05 0.000215096166
v -0.000120784192 1.70350074E-06 0.000215096166
v -0.000115153045 4.3323038E-05 0.000196534093
v -0.000115153045 1.70350074E-06 0.000196534093
v 5.8538466E-05 1.70350074E-06 0.000289373973
v 4.62333846E-05 1.70350074E-06 0.000304368441
v 4.62333846E-05 4.3323038E-05 0.000304368441
v 5.8538466E-05 4.3323038E-05 0.000289373973
v 6.7682864E-05 1.70350074E-06 0.000272266858
v 6.7682864E-05 4.3323038E-05 0.000272266858
v 7.33134148E-05 1.70350074E-06 0.000253704493
v 7.33134148E-05 4.3323038E-05 0.000253704493
v 7.5214055E-05 1.70350074E-06 0.00023440033
v 7.5214055E-05 4.3323038E-05 0.00023440033
v 7.33134148E-05 1.70350074E-06 0.000215096166
v 7.33134148E-05 4.3323038E-05 0.000215096166
v 6.7682864E-05 1.70350074E-06 0.000196534093
v 6.7682864E-05 4.3323038E-05 0.000196534093
v -0.000106009393 1.70350074E-06 0.000179426963
v -9.37032673E-05 1.70350074E-06 0.000164432524
v -9.37032673E-05 4.3323038E-05 0.000164432524
v -0.000106009393 4.3323038E-05 0.000179426963
v -0.000115153045 1.70350074E-06 0.000196534093
v -0.000115153045 4.3323038E-05 0.000196534093
v -2.37347176E-05 1.70350074E-06 0.000333350006
v -4.30396176E-05 1.70350074E-06 0.000331448595
v -4.30396176E-05 4.3323038E-05 0.000331448595
v -2.37347176E-05 4.3323038E-05 0.000333350006
v -4.43115823E-06 1.70350074E-06 0.000331448595
v -4.43115823E-06 4.3323038E-05 0.000331448595
v 1.41313667E-05 1.70350074E-06 0.000325818051
v 1.41313667E-05 4.3323038E-05 0.000325818051
v 3.12378979E-05 1.70350074E-06 0.000316674093
v 3.12378979E-05 4.3323038E-05 0.000316674093
v 4.62333846E-05 1.70350074E-06 0.000304368441
v 4.62333846E-05 4.3323038E-05 0.000304368441
v -7.87086756E-05 1.70350074E-06 0.000316674093
v -9.37032673E-05 1.70350074E-06 0.000304368441
v -9.37032673E-05 4.3323038E-05 0.000304368441
v -7.87086756E-05 4.3323038E-05 0.000316674093
v -6.16015459E-05 1.70350074E-06 0.000325818051
v -6.16015459E-05 4.3323038E-05 0.000325818051
v -4.30396176E-05 1.70350074E-06 0.000331448595
v -4.30396176E-05 4.3323038E-05 0.000331448595
v 4.16396542E-05 2.36010546E-05 0.000443463621
v 4.89053127E-05 5.67203751E-05 0.00045705706
v 4.16396542E-05 5.67203751E-05 0.000443463621
v 4.89053127E-05 2.36010546E-05 0.00045705706
v 5.33802813E-05 5.67203751E-05 0.000471806823
v 5.33802813E-05 2.36010546E-05 0.000471806823
v 5.48905118E-05 5.67203751E-05 0.000487145764
v 5.48905118E-05 2.36010546E-05 0.000487145764
v 5.33802813E-05 5.67203751E-05 0.000502485025
v 5.33802813E-05 2.36010546E-05 0.000502485025
v 4.89053127E-05 5.67203751E-05 0.000517234788
v 4.89053127E-05 2.36010546E-05 0.000517234788
v 4.16396542E-05 5.67203751E-05 0.000530828198
v -7.93324361E-05 2.36010546E-05 0.00043154895
v -6.74171752E-05 5.67203751E-05 0.00042177079
v -7.93324361E-05 5.67203751E-05 0.00043154895
v -6.74171752E-05 2.36010546E-05 0.00042177079
v -5.38246313E-05 5.67203751E-05 0.00041450499
v -5.38246313E-05 2.36010546E-05 0.00041450499
v -3.90745699E-05 5.67203751E-05 0.000410030771
v -3.90745699E-05 2.36010546E-05 0.000410030771
v -0.000102361737 2.36010546E-05 0.000487145764
v -0.000100850608 2.36010546E-05 0.000471806823
v -0.000100850608 5.67203751E-05 0.000471806823
v -0.000102361737 5.67203751E-05 0.000487145764
v -0.000100850608 2.36010546E-05 0.000502485025
v -0.000100850608 5.67203751E-05 0.000502485025
v -9.63759376E-05 2.36010546E-05 0.000517234788
v -9.63759376E-05 5.67203751E-05 0.000517234788
v -8.91099844E-05 2.36010546E-05 0.000530828198
v -8.91099844E-05 5.67203751E-05 0.000530828198
v -7.93324361E-05 2.36010546E-05 0.000542742899
v -7.93324361E-05 5.67203751E-05 0.000542742899
v -0.000100850608 2.36010546E-05 0.000471806823
v -9.63759376E-05 5.67203751E-05 0.00045705706
v -0.000100850608 5.67203751E-05 0.000471806823
v -9.63759376E-05 2.36010546E-05 0.00045705706
v -8.91099844E-05 5.67203751E-05 0.000443463621
v -8.91099844E-05 2.36010546E-05 0.000443463621
v -7.93324361E-05 5.67203751E-05 0.00043154895
v -7.93324361E-05 2.36010546E-05 0.00043154895
v 4.16396542E-05 2.36010546E-05 0.000530828198
v 3.18622588E-05 2.36010546E-05 0.000542742899
v 3.18622588E-05 5.67203751E-05 0.000542742899
v 4.16396542E-05 5.67203751E-05 0.000530828198
v 4.89053127E-05 2.36010546E-05 0.000517234788
v 1.99469923E-05 2.36010546E-05 0.00042177079
v 3.18622588E-05 2.36010546E-05 0.00043154895
v 3.18622588E-05 5.67203751E-05 0.00043154895
v 1.99469923E-05 5.67203751E-05 0.00042177079
v 6.35370588E-06 2.36010546E-05 0.00041450499
v 6.35370588E-06 5.67203751E-05 0.00041450499
v -8.39635686E-06 2.36010546E-05 0.000410030771
v -8.39635686E-06 5.67203751E-05 0.000410030771
v -2.37351651E-05 2.36010546E-05 0.000408519787
v -2.37351651E-05 5.67203751E-05 0.000408519787
v -3.90745699E-05 2.36010546E-05 0.000410030771
v -3.90745699E-05 5.67203751E-05 0.000410030771
v -2.37351651E-05 2.36010546E-05 0.00056577177
v -3.90745699E-05 2.36010546E-05 0.000564261049
v -3.90745699E-05 5.67203751E-05 0.000564261049
v -2.37351651E-05 5.67203751E-05 0.00056577177
v -8.39635686E-06 2.36010546E-05 0.000564261049
v -8.39635686E-06 5.67203751E-05 0.000564261049
v 6.35370588E-06 2.36010546E-05 0.000559786859
v 6.35370588E-06 5.67203751E-05 0.000559786859
v 1.99469923E-05 2.36010546E-05 0.000552521029
v 1.99469923E-05 5.67203751E-05 0.000552521029
v 3.18622588E-05 2.36010546E-05 0.000542742899
v 3.18622588E-05 5.67203751E-05 0.000542742899
v -6.74171752E-05 2.36010546E-05 0.000552521029
v -7.93324361E-05 2.36010546E-05 0.000542742899
v -7.93324361E-05 5.67203751E-05 0.000542742899
v -6.74171752E-05 5.67203751E-05 0.000552521029
v -5.38246313E-05 2.36010546E-05 0.000559786859
v -5.38246313E-05 5.67203751E-05 0.000559786859
v -3.90745699E-05 2.36010546E-05 0.000564261049
v -3.90745699E-05 5.67203751E-05 0.000564261049
v 3.18622588E-05 2.36010546E-05 0.00043154895
v 4.16396542E-05 2.36010546E-05 0.000443463621
v 4.16396542E-05 5.67203751E-05 0.000443463621
v 3.18622588E-05 5.67203751E-05 0.00043154895
v -0.000185917321 0.000229462981 -0.000308448973
v 0.000144401783 0.000229462981 -0.000308448973
v 0.000144401783 -8.22544095E-08 -0.000308448973
v -0.000185917321 -8.22544095E-08 -0.000308448973
v 0.000144401783 0.000229462981 -0.000308448973
v 0.000144401783 -8.22544095E-08 -0.000308448973
v -0.000185917321 -8.22544095E-08 -0.000308448973
v -0.000185917321 0.000229462981 -0.000308448973
v -0.000144940757 -6.84440101E-06 -2.18522546E-05
v -0.000132817469 -6.84440101E-06 8.291006E-07
v -0.000114800925 -1.38646365E-05 -1.12092494E-05
v -0.000125487291 -1.42151112E-05 -2.99102066E-05
v -0.000100684018 -1.34629008E-05 4.89234935E-06
v -0.000152406239 -6.84440101E-06 -4.64630102E-05
v -0.000116501149 -6.84440101E-06 2.07093362E-05
v -0.000132147819 -1.44451851E-05 -5.04925847E-05
v -8.38255874E-05 -1.30838152E-05 1.78754326E-05
v -0.000154926922 -6.84440101E-06 -7.20572425E-05
v -9.66210646E-05 -6.84440101E-06 3.70246162E-05
v -0.000134405345 -1.45220756E-05 -7.20572425E-05
v -6.49248032E-05 -1.27810235E-05 2.73829701E-05
v -0.000152406239 -6.84440101E-06 -9.76514784E-05
v -7.39404568E-05 -6.84440101E-06 4.91482024E-05
v -0.000132147819 -1.44451851E-05 -9.36219076E-05
v -4.46681661E-05 -1.25885008E-05 3.31774354E-05
v -0.000144940757 -6.84440101E-06 -0.000122262238
v -4.93304433E-05 -6.84440101E-06 5.66133858E-05
v -0.000125487291 -1.42151112E-05 -0.000114204282
v -2.37347176E-05 -1.25223396E-05 3.51241215E-05
v -0.000132817469 -6.84440101E-06 -0.000144943595
v -2.37347176E-05 -6.84440101E-06 5.91343633E-05
v -0.000114800925 -1.38646365E-05 -0.000132905247
v -2.80261042E-06 -1.25885008E-05 3.31774354E-05
v -0.000116501149 -6.84440101E-06 -0.000164823825
v 1.85891986E-06 -6.84440101E-06 5.66133858E-05
v -0.000100684018 -1.34629008E-05 -0.000149006548
v 1.74541765E-05 -1.27816202E-05 2.73829701E-05
v -9.66210646E-05 -6.84440101E-06 -0.000181139112
v 2.64699756E-05 -6.84440101E-06 4.91482024E-05
v -8.38255874E-05 -1.30838152E-05 -0.000161989927
v 3.6356003E-05 -1.30838152E-05 1.78757309E-05
v -7.39404568E-05 -6.84440101E-06 -0.0001932624
v 4.91505853E-05 -6.84440101E-06 3.70246162E-05
v -6.49248032E-05 -1.27810235E-05 -0.000171497159
v 5.32147278E-05 -1.34629008E-05 4.89234935E-06
v -4.93304433E-05 -6.84440101E-06 -0.000200728173
v 6.90315646E-05 -6.84440101E-06 2.07093362E-05
v -4.46681661E-05 -1.25885008E-05 -0.000177292226
v 6.73304457E-05 -1.38640398E-05 -1.12092494E-05
v -2.37347176E-05 -6.84440101E-06 -0.000203248856
v 8.53469974E-05 -6.84440101E-06 8.291006E-07
v -2.37347176E-05 -1.25223396E-05 -0.000179238908
v 7.80168193E-05 -1.42151112E-05 -2.99102066E-05
v 1.85891986E-06 -6.84440101E-06 -0.000200728173
v 9.74705763E-05 -6.84440101E-06 -2.18522546E-05
v -2.80261042E-06 -1.25885008E-05 -0.000177292226
v 8.46776311E-05 -1.44451851E-05 -5.04925847E-05
v 2.64699756E-05 -6.84440101E-06 -0.0001932624
v 0.00010493576 -6.84440101E-06 -4.64630102E-05
v 1.74541765E-05 -1.27816202E-05 -0.000171497464
v 8.6935157E-05 -1.4521479E-05 -7.20572425E-05
v 4.91505853E-05 -6.84440101E-06 -0.000181139112
v 0.000107456442 -6.84440101E-06 -7.20572425E-05
v 3.6356003E-05 -1.30838152E-05 -0.000161989927
v 8.46776311E-05 -1.44451851E-05 -9.36219076E-05
v 6.90315646E-05 -6.84440101E-06 -0.000164823825
v 0.00010493576 -6.84440101E-06 -9.76514784E-05
v 5.32147278E-05 -1.34629008E-05 -0.000149006548
v 7.80168193E-05 -1.42151112E-05 -0.000114204282
v 8.53469974E-05 -6.84440101E-06 -0.000144943289
v 9.74705763E-05 -6.84440101E-06 -0.000122262238
v 6.73304457E-05 -1.38640398E-05 -0.000132905247
v -0.000115153045 1.70350074E-06 0.000272266858
v -0.000106009393 1.70350074E-06 0.000289373973
v -9.4185918E-05 -2.90334219E-06 0.00028147368
v -0.000102386919 -3.13341616E-06 0.000266978721
v -8.33226732E-05 -2.63988977E-06 0.000293988269
v -0.000120784192 1.70350074E-06 0.000253704493
v -9.37032673E-05 1.70350074E-06 0.000304368441
v -0.000107489373 -3.28481201E-06 0.000251060119
v -7.0312024E-05 -2.39133828E-06 0.000304107059
v -0.000122685582 1.70350074E-06 0.00023440033
v -7.87086756E-05 1.70350074E-06 0.000316674093
v -0.000109218206 -3.33487969E-06 0.00023440033
v -5.56853411E-05 -2.19285494E-06 0.000311534386
v -0.000120784192 1.70350074E-06 0.000215096166
v -6.16015459E-05 1.70350074E-06 0.000325818051
v -0.000107489373 -3.28481201E-06 0.000217740831
v -3.9980263E-05 -2.06589698E-06 0.00031606853
v -0.000115153045 1.70350074E-06 0.000196534093
v -4.30396176E-05 1.70350074E-06 0.000331448595
v -0.000102386919 -3.13341616E-06 0.000201822215
v -2.37347176E-05 -2.02298156E-06 0.000317593222
v -0.000106009393 1.70350074E-06 0.000179426963
v -2.37347176E-05 1.70350074E-06 0.000333350006
v -9.4185918E-05 -2.90334219E-06 0.000187327256
v -7.49021774E-06 -2.06589698E-06 0.00031606853
v -9.37032673E-05 1.70350074E-06 0.000164432524
v -4.43115823E-06 1.70350074E-06 0.000331448595
v -8.33226732E-05 -2.63988977E-06 0.000174812667
v 8.21486083E-06 -2.19285494E-06 0.000311534386
v -7.87086756E-05 1.70350074E-06 0.000152126842
v 1.41313667E-05 1.70350074E-06 0.000325818051
v -7.0312024E-05 -2.39133828E-06 0.000164693585
v 2.28410954E-05 -2.39133828E-06 0.000304107351
v -6.16015459E-05 1.70350074E-06 0.000142982899
v 3.12378979E-05 1.70350074E-06 0.000316674093
v -5.56853411E-05 -2.19285494E-06 0.00015726655
v 3.58530888E-05 -2.63988977E-06 0.000293988269
v -4.30396176E-05 1.70350074E-06 0.00013735205
v 4.62333846E-05 1.70350074E-06 0.000304368441
v -3.9980263E-05 -2.06589698E-06 0.000152732129
v 4.6714842E-05 -2.90334219E-06 0.00028147368
v -2.37347176E-05 1.70350074E-06 0.000135450653
v 5.8538466E-05 1.70350074E-06 0.000289373973
v -2.37347176E-05 -2.02298156E-06 0.000151207743
v 5.49159922E-05 -3.13341616E-06 0.000266978721
v -4.43115823E-06 1.70350074E-06 0.00013735205
v 6.7682864E-05 1.70350074E-06 0.000272266858
v -7.49021774E-06 -2.06589698E-06 0.000152732129
v 6.0018745E-05 -3.28421584E-06 0.000251060119
v 1.41313667E-05 1.70350074E-06 0.000142982899
v 7.33134148E-05 1.70350074E-06 0.000253704493
v 8.21486083E-06 -2.19285494E-06 0.00015726655
v 6.17471305E-05 -3.33487969E-06 0.00023440033
v 3.12378979E-05 1.70350074E-06 0.000152126842
v 7.5214055E-05 1.70350074E-06 0.00023440033
v 2.28410954E-05 -2.39133828E-06 0.000164693585
v 6.0018745E-05 -3.28421584E-06 0.000217740831
v 4.62333846E-05 1.70350074E-06 0.000164432524
v 7.33134148E-05 1.70350074E-06 0.000215096166
v 3.58530888E-05 -2.63988977E-06 0.000174812667
v 5.49159922E-05 -3.13341616E-06 0.000201822215
v 5.8538466E-05 1.70350074E-06 0.000179426963
v 6.7682864E-05 1.70350074E-06 0.000196534093
v 4.6714842E-05 -2.90334219E-06 0.000187327256
v -9.63759376E-05 2.36010546E-05 0.000517234788
v -8.91099844E-05 2.36010546E-05 0.000530828198
v -8.13275547E-05 2.056837E-05 0.000525628042
v -8.79722793E-05 2.04169737E-05 0.000513754203
v -7.25001082E-05 2.07418198E-05 0.000535910425
v -0.000100850608 2.36010546E-05 0.000502485025
v -7.93324361E-05 2.36010546E-05 0.000542742899
v -9.21001993E-05 2.0317435E-05 0.000500744267
v -6.18904814E-05 2.09057325E-05 0.000544249429
v -0.000102361737 2.36010546E-05 0.000487145764
v -6.74171752E-05 2.36010546E-05 0.000552521029
v -9.34973359E-05 2.02846531E-05 0.000487145764
v -4.9930808E-05 2.10362668E-05 0.000550385099
v -0.000100850608 2.36010546E-05 0.000471806823
v -5.38246313E-05 2.36010546E-05 0.000559786859
v -9.21001993E-05 2.0317435E-05 0.000473547261
v -3.7060825E-05 2.1119713E-05 0.000554137514
v -9.63759376E-05 2.36010546E-05 0.00045705706
v -3.90745699E-05 2.36010546E-05 0.000564261049
v -8.79722793E-05 2.04169737E-05 0.000460537674
v -2.37351651E-05 2.11477272E-05 0.000555400562
v -8.91099844E-05 2.36010546E-05 0.000443463621
v -2.37351651E-05 2.36010546E-05 0.00056577177
v -8.13275547E-05 2.056837E-05 0.000448663806
v -1.04096525E-05 2.1119713E-05 0.000554137514
v -7.93324361E-05 2.36010546E-05 0.00043154895
v -8.39635686E-06 2.36010546E-05 0.000564261049
v -7.25001082E-05 2.07418198E-05 0.000438381132
v 2.45973456E-06 2.10362668E-05 0.000550385099
v -6.74171752E-05 2.36010546E-05 0.00042177079
v 6.35370588E-06 2.36010546E-05 0.000559786859
v -6.18904814E-05 2.09057325E-05 0.000430042448
v 1.44200021E-05 2.09051359E-05 0.000544249429
v -5.38246313E-05 2.36010546E-05 0.00041450499
v 1.99469923E-05 2.36010546E-05 0.000552521029
v -4.9930808E-05 2.10362668E-05 0.00042390672
v 2.50294797E-05 2.07418198E-05 0.000535910425
v -3.90745699E-05 2.36010546E-05 0.000410030771
v 3.18622588E-05 2.36010546E-05 0.000542742899
v -3.7060825E-05 2.1119713E-05 0.000420154014
v 3.38573736E-05 2.056837E-05 0.000525628042
v -2.37351651E-05 2.36010546E-05 0.000408519787
v 4.16396542E-05 2.36010546E-05 0.000530828198
v -2.37351651E-05 2.11477272E-05 0.000418891315
v 4.05021019E-05 2.04169737E-05 0.000513754203
v -8.39635686E-06 2.36010546E-05 0.000410030771
v 4.89053127E-05 2.36010546E-05 0.000517234788
v -1.04096525E-05 2.1119713E-05 0.000420154014
v 4.46300182E-05 2.0317435E-05 0.000500744558
v 6.35370588E-06 2.36010546E-05 0.00041450499
v 5.33802813E-05 2.36010546E-05 0.000502485025
v 2.45973456E-06 2.10362668E-05 0.00042390672
v 4.602626E-05 2.02846531E-05 0.000487145764
v 1.99469923E-05 2.36010546E-05 0.00042177079
v 5.48905118E-05 2.36010546E-05 0.000487145764
v 1.44200021E-05 2.09051359E-05 0.000430042448
v 4.46300182E-05 2.0317435E-05 0.000473547261
v 3.18622588E-05 2.36010546E-05 0.00043154895
v 5.33802813E-05 2.36010546E-05 0.000471806823
v 2.50294797E-05 2.07418198E-05 0.000438381132
v 4.05021019E-05 2.04169737E-05 0.000460537674
v 4.16396542E-05 2.36010546E-05 0.000443463621
v 4.89053127E-05 2.36010546E-05 0.00045705706
v 3.38573736E-05 2.056837E-05 0.000448663515
v -0.000125487291 -1.42151112E-05 -2.99102066E-05
v -0.000114800925 -1.38646365E-05 -1.12092494E-05
v -0.000132147819 -1.44451851E-05 -5.04925847E-05
v -0.000100684018 -1.34629008E-05 4.89234935E-06
v -0.000134405345 -1.45220756E-05 -7.20572425E-05
v -8.38255874E-05 -1.30838152E-05 1.78754326E-05
v -0.000132147819 -1.44451851E-05 -9.36219076E-05
v -6.49248032E-05 -1.27810235E-05 2.73829701E-05
v -0.000125487291 -1.42151112E-05 -0.000114204282
v -4.46681661E-05 -1.25885008E-05 3.31774354E-05
v -0.000114800925 -1.38646365E-05 -0.000132905247
v -2.37347176E-05 -1.25223396E-05 3.51241215E-05
v -0.000100684018 -1.34629008E-05 -0.000149006548
v -2.80261042E-06 -1.25885008E-05 3.31774354E-05
v -8.38255874E-05 -1.30838152E-05 -0.000161989927
v 1.74541765E-05 -1.27816202E-05 2.73829701E-05
v -6.49248032E-05 -1.27810235E-05 -0.000171497159
v 3.6356003E-05 -1.30838152E-05 1.78757309E-05
v -4.46681661E-05 -1.25885008E-05 -0.000177292226
v 5.32147278E-05 -1.34629008E-05 4.89234935E-06
v -2.37347176E-05 -1.25223396E-05 -0.000179238908
v 6.73304457E-05 -1.38640398E-05 -1.12092494E-05
v -2.80261042E-06 -1.25885008E-05 -0.000177292226
v 7.80168193E-05 -1.42151112E-05 -2.99102066E-05
v 1.74541765E-05 -1.27816202E-05 -0.000171497464
v 8.46776311E-05 -1.44451851E-05 -5.04925847E-05
v 3.6356003E-05 -1.30838152E-05 -0.000161989927
v 8.6935157E-05 -1.4521479E-05 -7.20572425E-05
v 5.32147278E-05 -1.34629008E-05 -0.000149006548
v 8.46776311E-05 -1.44451851E-05 -9.36219076E-05
v 6.73304457E-05 -1.38640398E-05 -0.000132905247
v 7.80168193E-05 -1.42151112E-05 -0.000114204282
v -0.000102386919 -3.13341616E-06 0.000266978721
v -9.4185918E-05 -2.90334219E-06 0.00028147368
v -0.000107489373 -3.28481201E-06 0.000251060119
v -8.33226732E-05 -2.63988977E-06 0.000293988269
v -0.000109218206 -3.33487969E-06 0.00023440033
v -7.0312024E-05 -2.39133828E-06 0.000304107059
v -0.000107489373 -3.28481201E-06 0.000217740831
v -5.56853411E-05 -2.19285494E-06 0.000311534386
v -0.000102386919 -3.13341616E-06 0.000201822215
v -3.9980263E-05 -2.06589698E-06 0.00031606853
v -9.4185918E-05 -2.90334219E-06 0.000187327256
v -2.37347176E-05 -2.02298156E-06 0.000317593222
v -8.33226732E-05 -2.63988977E-06 0.000174812667
v -7.49021774E-06 -2.06589698E-06 0.00031606853
v -7.0312024E-05 -2.39133828E-06 0.000164693585
v 8.21486083E-06 -2.19285494E-06 0.000311534386
v -5.56853411E-05 -2.19285494E-06 0.00015726655
v 2.28410954E-05 -2.39133828E-06 0.000304107351
v -3.9980263E-05 -2.06589698E-06 0.000152732129
v 3.58530888E-05 -2.63988977E-06 0.000293988269
v -2.37347176E-05 -2.02298156E-06 0.000151207743
v 4.6714842E-05 -2.90334219E-06 0.00028147368
v -7.49021774E-06 -2.06589698E-06 0.000152732129
v 5.49159922E-05 -3.13341616E-06 0.000266978721
v 8.21486083E-06 -2.19285494E-06 0.00015726655
v 6.0018745E-05 -3.28421584E-06 0.000251060119
v 2.28410954E-05 -2.39133828E-06 0.000164693585
v 6.17471305E-05 -3.33487969E-06 0.00023440033
v 3.58530888E-05 -2.63988977E-06 0.000174812667
v 6.0018745E-05 -3.28421584E-06 0.000217740831
v 4.6714842E-05 -2.90334219E-06 0.000187327256
v 5.49159922E-05 -3.13341616E-06 0.000201822215
v -8.79722793E-05 2.04169737E-05 0.000513754203
v -8.13275547E-05 2.056837E-05 0.000525628042
v -9.21001993E-05 2.0317435E-05 0.000500744267
v -7.25001082E-05 2.07418198E-05 0.000535910425
v -9.34973359E-05 2.02846531E-05 0.000487145764
v -6.18904814E-05 2.09057325E-05 0.000544249429
v -9.21001993E-05 2.0317435E-05 0.000473547261
v -4.9930808E-05 2.10362668E-05 0.000550385099
v -8.79722793E-05 2.04169737E-05 0.000460537674
v -3.7060825E-05 2.1119713E-05 0.000554137514
v -8.13275547E-05 2.056837E-05 0.000448663806
v -2.37351651E-05 2.11477272E-05 0.000555400562
v -7.25001082E-05 2.07418198E-05 0.000438381132
v -1.04096525E-05 2.1119713E-05 0.000554137514
v -6.18904814E-05 2.09057325E-05 0.000430042448
v 2.45973456E-06 2.10362668E-05 0.000550385099
v -4.9930808E-05 2.10362668E-05 0.00042390672
v 1.44200021E-05 2.09051359E-05 0.000544249429
v -3.7060825E-05 2.1119713E-05 0.000420154014
v 2.50294797E-05 2.07418198E-05 0.000535910425
v -2.37351651E-05 2.11477272E-05 0.000418891315
v 3.38573736E-05 2.056837E-05 0.000525628042
v -1.04096525E-05 2.1119713E-05 0.000420154014
v 4.05021019E-05 2.04169737E-05 0.000513754203
v 2.45973456E-06 2.10362668E-05 0.00042390672
v 4.46300182E-05 2.0317435E-05 0.000500744558
v 1.44200021E-05 2.09051359E-05 0.000430042448
v 4.602626E-05 2.02846531E-05 0.000487145764
v 2.50294797E-05 2.07418198E-05 0.000438381132
v 4.46300182E-05 2.0317435E-05 0.000473547261
v 3.38573736E-05 2.056837E-05 0.000448663515
v 4.05021019E-05 2.04169737E-05 0.000460537674
vt 0.494873047 0.706542969
vt 0.651855469 0.706542969
vt 0.623535156 0.0541992188
vt 0.5234375 0.0541992188
vt 0.234741211 0.0769042969
vt 0.00901031494 0.0769042969
vt 0.0498046875 0.729492188
vt 0.193969727 0.729492188
vt 0.666015625 0.706542969
vt 0.823242188 0.706542969
vt 0.794921875 0.0541992188
vt 0.694335938 0.0541992188
vt 0.478515625 0.0768432617
vt 0.252929688 0.0768432617
vt 0.293701172 0.729003906
vt 0.437744141 0.729003906
vt 0.490722656 0.763671875
vt 0.491699219 0.780273438
vt 0.654785156 0.780273438
vt 0.655761719 0.763671875
vt 0.621582031 0.00320243835
vt 0.524902344 0.00320243835
vt 0.395507812 0.887207031
vt 0.395507812 0.876464844
vt 0.393554688 0.865722656
vt 0.393554688 0.897949219
vt 0.389404297 0.85546875
vt 0.389404297 0.908203125
vt 0.383300781 0.846191406
vt 0.383300781 0.917480469
vt 0.375732422 0.838378906
vt 0.375732422 0.925292969
vt 0.366699219 0.832519531
vt 0.366699219 0.931152344
vt 0.356689453 0.828125
vt 0.356689453 0.935546875
vt 0.346191406 0.826171875
vt 0.346191406 0.9375
vt 0.335449219 0.826171875
vt 0.335449219 0.9375
vt 0.324951172 0.828125
vt 0.324951172 0.935546875
vt 0.314941406 0.832519531
vt 0.314941406 0.931152344
vt 0.305908203 0.838378906
vt 0.305908203 0.925292969
vt 0.298339844 0.846191406
vt 0.298339844 0.917480469
vt 0.292236328 0.85546875
vt 0.292236328 0.908203125
vt 0.288330078 0.865722656
vt 0.288330078 0.897949219
vt 0.286132812 0.876464844
vt 0.286132812 0.887207031
vt 0.601074219 0.87109375
vt 0.603027344 0.862792969
vt 0.603027344 0.854492188
vt 0.598144531 0.878417969
vt 0.601074219 0.846191406
vt 0.59375 0.885742188
vt 0.598144531 0.838867188
vt 0.587890625 0.891601562
vt 0.59375 0.83203125
vt 0.581054688 0.895996094
vt 0.587890625 0.826171875
vt 0.573730469 0.898925781
vt 0.581054688 0.821289062
vt 0.565429688 0.900878906
vt 0.573730469 0.818359375
vt 0.557617188 0.900878906
vt 0.565429688 0.81640625
vt 0.549316406 0.898925781
vt 0.557617188 0.81640625
vt 0.541992188 0.895996094
vt 0.549316406 0.818359375
vt 0.53515625 0.891601562
vt 0.541992188 0.821289062
vt 0.529296875 0.885742188
vt 0.53515625 0.826171875
vt 0.524902344 0.878417969
vt 0.529296875 0.83203125
vt 0.521972656 0.87109375
vt 0.524902344 0.838867188
vt 0.520507812 0.862792969
vt 0.521972656 0.846191406
vt 0.520507812 0.854492188
vt 0.818847656 0.817871094
vt 0.813476562 0.814453125
vt 0.807617188 0.811523438
vt 0.823730469 0.822753906
vt 0.801269531 0.810546875
vt 0.827148438 0.828125
vt 0.794921875 0.810546875
vt 0.829589844 0.833984375
vt 0.788574219 0.811523438
vt 0.831054688 0.840820312
vt 0.782714844 0.814453125
vt 0.831054688 0.847167969
vt 0.77734375 0.817871094
vt 0.829589844 0.853515625
vt 0.772460938 0.822753906
vt 0.827148438 0.859863281
vt 0.769042969 0.828125
vt 0.823730469 0.865234375
vt 0.766601562 0.833984375
vt 0.818847656 0.869628906
vt 0.765136719 0.840820312
vt 0.813476562 0.873535156
vt 0.765136719 0.847167969
vt 0.807617188 0.875976562
vt 0.766601562 0.853515625
vt 0.801269531 0.877441406
vt 0.769042969 0.859863281
vt 0.794921875 0.877441406
vt 0.772460938 0.865234375
vt 0.788574219 0.875976562
vt 0.77734375 0.869628906
vt 0.782714844 0.873535156
vt 0.638671875 0.928222656
vt 0.735351562 0.928222656
vt 0.735351562 0.786621094
vt 0.638671875 0.786621094
vt 0.296142578 0.779785156
vt 0.435302734 0.779785156
vt 0.0523681641 0.780273438
vt 0.19140625 0.780273438
vt 0.79296875 0.00320243835
vt 0.696289062 0.00320243835
vt 0.833496094 0.242675781
vt 0.996582031 0.242675781
vt 0.996582031 0.00320243835
vt 0.833496094 0.00320243835
vt 0.662109375 0.763671875
vt 0.663085938 0.780273438
vt 0.826171875 0.780273438
vt 0.827148438 0.763671875
vt 0.484375 0.0198364258
vt 0.483154297 0.00320243835
vt 0.248291016 0.00320243835
vt 0.246948242 0.0198364258
vt 0.240600586 0.0198059082
vt 0.239379883 0.00320243835
vt 0.0044631958 0.00320243835
vt 0.00320243835 0.0198059082
vt 0.888183594 0.370605469
vt 0.864257812 0.354003906
vt 0.864257812 0.370605469
vt 0.888183594 0.354003906
vt 0.864257812 0.3359375
vt 0.888183594 0.3359375
vt 0.864257812 0.317138672
vt 0.888183594 0.317138672
vt 0.864257812 0.298583984
vt 0.888183594 0.298583984
vt 0.864257812 0.280517578
vt 0.888183594 0.280517578
vt 0.864257812 0.263671875
vt 0.888183594 0.263671875
vt 0.864257812 0.249023438
vt 0.888183594 0.249023438
vt 0.857910156 0.385009766
vt 0.857910156 0.370361328
vt 0.833496094 0.370361328
vt 0.833496094 0.385009766
vt 0.857910156 0.370361328
vt 0.833496094 0.353759766
vt 0.833496094 0.370361328
vt 0.857910156 0.353759766
vt 0.833496094 0.335693359
vt 0.857910156 0.335693359
vt 0.833496094 0.317138672
vt 0.857910156 0.317138672
vt 0.833496094 0.298339844
vt 0.857910156 0.298339844
vt 0.833496094 0.280273438
vt 0.857910156 0.280273438
vt 0.833496094 0.263671875
vt 0.857910156 0.263671875
vt 0.833496094 0.249023438
vt 0.857910156 0.249023438
vt 0.833496094 0.533691406
vt 0.857910156 0.548339844
vt 0.857910156 0.533691406
vt 0.833496094 0.548339844
vt 0.857910156 0.564941406
vt 0.833496094 0.564941406
vt 0.857910156 0.583007812
vt 0.833496094 0.583007812
vt 0.857910156 0.602050781
vt 0.833496094 0.602050781
vt 0.857910156 0.620605469
vt 0.833496094 0.620605469
vt 0.857910156 0.638671875
vt 0.833496094 0.638671875
vt 0.857910156 0.655273438
vt 0.833496094 0.655273438
vt 0.857910156 0.669921875
vt 0.833496094 0.669921875
vt 0.857910156 0.512695312
vt 0.833496094 0.49609375
vt 0.833496094 0.512695312
vt 0.857910156 0.49609375
vt 0.833496094 0.478271484
vt 0.857910156 0.478271484
vt 0.833496094 0.459472656
vt 0.857910156 0.459472656
vt 0.833496094 0.440673828
vt 0.857910156 0.440673828
vt 0.833496094 0.422607422
vt 0.857910156 0.422607422
vt 0.833496094 0.406005859
vt 0.857910156 0.406005859
vt 0.833496094 0.391357422
vt 0.857910156 0.391357422
vt 0.857910156 0.52734375
vt 0.857910156 0.512695312
vt 0.833496094 0.512695312
vt 0.833496094 0.52734375
vt 0.888183594 0.385009766
vt 0.888183594 0.370605469
vt 0.864257812 0.370605469
vt 0.864257812 0.385009766
vt 0.470947266 0.837402344
vt 0.470947266 0.823242188
vt 0.441162109 0.823242188
vt 0.441162109 0.837402344
vt 0.470947266 0.8515625
vt 0.441162109 0.8515625
vt 0.470947266 0.865234375
vt 0.441162109 0.865234375
vt 0.470947266 0.877929688
vt 0.441162109 0.877929688
vt 0.470947266 0.888671875
vt 0.441162109 0.888671875
vt 0.0331115723 0.878417969
vt 0.0331115723 0.865722656
vt 0.00320243835 0.865722656
vt 0.00320243835 0.878417969
vt 0.0331115723 0.889160156
vt 0.00320243835 0.889160156
vt 0.470947266 0.823242188
vt 0.441162109 0.809570312
vt 0.441162109 0.823242188
vt 0.470947266 0.809570312
vt 0.441162109 0.797363281
vt 0.470947266 0.797363281
vt 0.441162109 0.786132812
vt 0.470947266 0.786132812
vt 0.0395202637 0.786621094
vt 0.0694580078 0.797851562
vt 0.0694580078 0.786621094
vt 0.0395202637 0.797851562
vt 0.0694580078 0.810546875
vt 0.0395202637 0.810546875
vt 0.0694580078 0.82421875
vt 0.0395202637 0.82421875
vt 0.0694580078 0.838378906
vt 0.0395202637 0.838378906
vt 0.0694580078 0.852539062
vt 0.0395202637 0.852539062
vt 0.0694580078 0.865722656
vt 0.0395202637 0.865722656
vt 0.0331115723 0.797851562
vt 0.0331115723 0.786621094
vt 0.00320243835 0.786621094
vt 0.00320243835 0.797851562
vt 0.0331115723 0.810546875
vt 0.00320243835 0.810546875
vt 0.0331115723 0.82421875
vt 0.00320243835 0.82421875
vt 0.0331115723 0.838378906
vt 0.00320243835 0.838378906
vt 0.0331115723 0.852539062
vt 0.00320243835 0.852539062
vt 0.0331115723 0.865722656
vt 0.00320243835 0.865722656
vt 0.0395202637 0.878417969
vt 0.0395202637 0.889160156
vt 0.0694580078 0.889160156
vt 0.0694580078 0.878417969
vt 0.0395202637 0.865722656
vt 0.0694580078 0.865722656
vt 0.86328125 0.727539062
vt 0.86328125 0.713378906
vt 0.833496094 0.713378906
vt 0.833496094 0.727539062
vt 0.86328125 0.741699219
vt 0.833496094 0.741699219
vt 0.86328125 0.755371094
vt 0.833496094 0.755371094
vt 0.86328125 0.767578125
vt 0.833496094 0.767578125
vt 0.86328125 0.778808594
vt 0.833496094 0.778808594
vt 0.86328125 0.687011719
vt 0.86328125 0.676269531
vt 0.833496094 0.676269531
vt 0.833496094 0.687011719
vt 0.86328125 0.699707031
vt 0.833496094 0.699707031
vt 0.86328125 0.713378906
vt 0.833496094 0.713378906
vt 0.16003418 0.859863281
vt 0.136230469 0.849609375
vt 0.136230469 0.859863281
vt 0.16003418 0.849609375
vt 0.136230469 0.838867188
vt 0.16003418 0.838867188
vt 0.136230469 0.827636719
vt 0.16003418 0.827636719
vt 0.136230469 0.81640625
vt 0.16003418 0.81640625
vt 0.136230469 0.805664062
vt 0.16003418 0.805664062
vt 0.136230469 0.795410156
vt 0.129882812 0.868164062
vt 0.106018066 0.859375
vt 0.106018066 0.868164062
vt 0.129882812 0.859375
vt 0.106018066 0.849609375
vt 0.129882812 0.849609375
vt 0.106018066 0.838867188
vt 0.129882812 0.838867188
vt 0.166503906 0.827636719
vt 0.166503906 0.838867188
vt 0.190307617 0.838867188
vt 0.190307617 0.827636719
vt 0.166503906 0.81640625
vt 0.190307617 0.81640625
vt 0.166503906 0.805664062
vt 0.190307617 0.805664062
vt 0.166503906 0.795410156
vt 0.190307617 0.795410156
vt 0.166503906 0.786621094
vt 0.190307617 0.786621094
vt 0.166503906 0.838867188
vt 0.190307617 0.849609375
vt 0.190307617 0.838867188
vt 0.166503906 0.849609375
vt 0.190307617 0.859863281
vt 0.166503906 0.859863281
vt 0.190307617 0.868164062
vt 0.166503906 0.868164062
vt 0.16003418 0.795410156
vt 0.16003418 0.786621094
vt 0.136230469 0.786621094
vt 0.136230469 0.795410156
vt 0.16003418 0.805664062
vt 0.129882812 0.795410156
vt 0.129882812 0.786621094
vt 0.106018066 0.786621094
vt 0.106018066 0.795410156
vt 0.129882812 0.805664062
vt 0.106018066 0.805664062
vt 0.129882812 0.81640625
vt 0.106018066 0.81640625
vt 0.129882812 0.827636719
vt 0.106018066 0.827636719
vt 0.129882812 0.838867188
vt 0.106018066 0.838867188
vt 0.0996704102 0.827636719
vt 0.0996704102 0.81640625
vt 0.0758666992 0.81640625
vt 0.0758666992 0.827636719
vt 0.0996704102 0.838867188
vt 0.0758666992 0.838867188
vt 0.0996704102 0.849609375
vt 0.0758666992 0.849609375
vt 0.0996704102 0.859375
vt 0.0758666992 0.859375
vt 0.0996704102 0.868164062
vt 0.0758666992 0.868164062
vt 0.0996704102 0.795410156
vt 0.0996704102 0.786621094
vt 0.0758666992 0.786621094
vt 0.0758666992 0.795410156
vt 0.0996704102 0.805664062
vt 0.0758666992 0.805664062
vt 0.0996704102 0.81640625
vt 0.0758666992 0.81640625
vt 0.16003418 0.868164062
vt 0.16003418 0.859863281
vt 0.136230469 0.859863281
vt 0.136230469 0.868164062
vt 0.240600586 0.0198059082
vt 0.00320243835 0.0198059082
vt 0.484375 0.0198364258
vt 0.246948242 0.0198364258
vt 0.662109375 0.763671875
vt 0.827148438 0.763671875
vt 0.490722656 0.763671875
vt 0.655761719 0.763671875
vt 0.296386719 0.797363281
vt 0.281005859 0.807617188
vt 0.291015625 0.819824219
vt 0.303466797 0.810546875
vt 0.280273438 0.831542969
vt 0.313476562 0.790039062
vt 0.268066406 0.820800781
vt 0.317871094 0.804199219
vt 0.272216797 0.844726562
vt 0.331542969 0.786132812
vt 0.257568359 0.836425781
vt 0.333007812 0.801269531
vt 0.266845703 0.858886719
vt 0.350097656 0.786132812
vt 0.250732422 0.854003906
vt 0.348632812 0.801269531
vt 0.264160156 0.874023438
vt 0.368164062 0.790039062
vt 0.246948242 0.872558594
vt 0.363769531 0.8046875
vt 0.264160156 0.889648438
vt 0.385253906 0.797363281
vt 0.246948242 0.891113281
vt 0.377929688 0.811035156
vt 0.267089844 0.904785156
vt 0.400634766 0.807617188
vt 0.250732422 0.909667969
vt 0.390380859 0.8203125
vt 0.272705078 0.918945312
vt 0.413818359 0.820800781
vt 0.257568359 0.927246094
vt 0.400878906 0.831542969
vt 0.280761719 0.932128906
vt 0.424072266 0.836425781
vt 0.268066406 0.942871094
vt 0.409179688 0.844726562
vt 0.291259766 0.943359375
vt 0.431152344 0.854003906
vt 0.281005859 0.956054688
vt 0.414550781 0.858886719
vt 0.303710938 0.952636719
vt 0.434570312 0.872558594
vt 0.296386719 0.966796875
vt 0.417480469 0.874023438
vt 0.317871094 0.958984375
vt 0.434570312 0.891113281
vt 0.313476562 0.974121094
vt 0.417480469 0.889648438
vt 0.333007812 0.962402344
vt 0.431152344 0.909667969
vt 0.331542969 0.977539062
vt 0.414794922 0.904785156
vt 0.348632812 0.962402344
vt 0.424072266 0.927246094
vt 0.350097656 0.977539062
vt 0.409423828 0.919433594
vt 0.364013672 0.959472656
vt 0.413818359 0.942871094
vt 0.368164062 0.974121094
vt 0.401367188 0.932617188
vt 0.378173828 0.953125
vt 0.400634766 0.956054688
vt 0.385253906 0.966796875
vt 0.390869141 0.943847656
vt 0.541015625 0.789550781
vt 0.527832031 0.794921875
vt 0.532714844 0.803710938
vt 0.543945312 0.798828125
vt 0.522949219 0.811035156
vt 0.5546875 0.786621094
vt 0.516601562 0.802734375
vt 0.555664062 0.796386719
vt 0.515136719 0.819824219
vt 0.568359375 0.786621094
vt 0.506835938 0.8125
vt 0.567382812 0.796386719
vt 0.508789062 0.830078125
vt 0.58203125 0.789550781
vt 0.498779297 0.824707031
vt 0.579589844 0.798828125
vt 0.504394531 0.840820312
vt 0.595214844 0.794921875
vt 0.493652344 0.837890625
vt 0.590332031 0.803710938
vt 0.501953125 0.852539062
vt 0.606933594 0.802734375
vt 0.490722656 0.8515625
vt 0.600097656 0.810546875
vt 0.501953125 0.864746094
vt 0.616699219 0.8125
vt 0.490722656 0.865722656
vt 0.608398438 0.819335938
vt 0.504394531 0.876464844
vt 0.624511719 0.824707031
vt 0.493652344 0.879882812
vt 0.614746094 0.829589844
vt 0.508300781 0.887695312
vt 0.629882812 0.837890625
vt 0.498779297 0.893066406
vt 0.619140625 0.840820312
vt 0.514648438 0.897949219
vt 0.632324219 0.8515625
vt 0.506835938 0.904785156
vt 0.62109375 0.852539062
vt 0.522949219 0.906738281
vt 0.632324219 0.865722656
vt 0.516601562 0.914550781
vt 0.62109375 0.864746094
vt 0.532714844 0.913574219
vt 0.629882812 0.879882812
vt 0.527832031 0.922851562
vt 0.618652344 0.876464844
vt 0.543945312 0.918457031
vt 0.624511719 0.893066406
vt 0.541015625 0.928222656
vt 0.614746094 0.887695312
vt 0.555664062 0.920898438
vt 0.616699219 0.904785156
vt 0.5546875 0.930664062
vt 0.608398438 0.897460938
vt 0.567382812 0.920898438
vt 0.606933594 0.914550781
vt 0.568359375 0.930664062
vt 0.600097656 0.90625
vt 0.579589844 0.918457031
vt 0.595214844 0.922851562
vt 0.58203125 0.928222656
vt 0.590332031 0.913574219
vt 0.741699219 0.838378906
vt 0.741699219 0.849609375
vt 0.748535156 0.848632812
vt 0.748535156 0.838867188
vt 0.750488281 0.858398438
vt 0.744140625 0.827148438
vt 0.744140625 0.860839844
vt 0.75 0.829101562
vt 0.754394531 0.867675781
vt 0.748046875 0.816894531
vt 0.748046875 0.87109375
vt 0.75390625 0.819824219
vt 0.760253906 0.875488281
vt 0.754394531 0.807128906
vt 0.754394531 0.880371094
vt 0.759277344 0.811523438
vt 0.767089844 0.882324219
vt 0.762207031 0.799316406
vt 0.762207031 0.888183594
vt 0.766601562 0.8046875
vt 0.774902344 0.888183594
vt 0.771484375 0.79296875
vt 0.771484375 0.89453125
vt 0.774414062 0.799316406
vt 0.783691406 0.891601562
vt 0.781738281 0.788574219
vt 0.781738281 0.898925781
vt 0.783691406 0.795410156
vt 0.793457031 0.893554688
vt 0.792480469 0.786621094
vt 0.792480469 0.901367188
vt 0.793457031 0.793945312
vt 0.802734375 0.894042969
vt 0.803710938 0.786621094
vt 0.803710938 0.901367188
vt 0.802734375 0.793945312
vt 0.8125 0.892089844
vt 0.814453125 0.788574219
vt 0.814453125 0.898925781
vt 0.8125 0.795898438
vt 0.821289062 0.888671875
vt 0.824707031 0.79296875
vt 0.824707031 0.89453125
vt 0.821289062 0.799804688
vt 0.829589844 0.883300781
vt 0.833984375 0.799316406
vt 0.833984375 0.888183594
vt 0.829101562 0.805175781
vt 0.836914062 0.876464844
vt 0.841796875 0.807128906
vt 0.841796875 0.880371094
vt 0.8359375 0.812011719
vt 0.842285156 0.868164062
vt 0.84765625 0.816894531
vt 0.84765625 0.87109375
vt 0.841796875 0.8203125
vt 0.846191406 0.858886719
vt 0.852050781 0.827148438
vt 0.852050781 0.860839844
vt 0.845703125 0.829101562
vt 0.84765625 0.848632812
vt 0.854492188 0.838378906
vt 0.854492188 0.849609375
vt 0.84765625 0.838867188
vt 0.303466797 0.810546875
vt 0.291015625 0.819824219
vt 0.317871094 0.804199219
vt 0.280273438 0.831542969
vt 0.333007812 0.801269531
vt 0.272216797 0.844726562
vt 0.348632812 0.801269531
vt 0.266845703 0.858886719
vt 0.363769531 0.8046875
vt 0.264160156 0.874023438
vt 0.377929688 0.811035156
vt 0.264160156 0.889648438
vt 0.390380859 0.8203125
vt 0.267089844 0.904785156
vt 0.400878906 0.831542969
vt 0.272705078 0.918945312
vt 0.409179688 0.844726562
vt 0.280761719 0.932128906
vt 0.414550781 0.858886719
vt 0.291259766 0.943359375
vt 0.417480469 0.874023438
vt 0.303710938 0.952636719
vt 0.417480469 0.889648438
vt 0.317871094 0.958984375
vt 0.414794922 0.904785156
vt 0.333007812 0.962402344
vt 0.409423828 0.919433594
vt 0.348632812 0.962402344
vt 0.401367188 0.932617188
vt 0.364013672 0.959472656
vt 0.390869141 0.943847656
vt 0.378173828 0.953125
vt 0.543945312 0.798828125
vt 0.532714844 0.803710938
vt 0.555664062 0.796386719
vt 0.522949219 0.811035156
vt 0.567382812 0.796386719
vt 0.515136719 0.819824219
vt 0.579589844 0.798828125
vt 0.508789062 0.830078125
vt 0.590332031 0.803710938
vt 0.504394531 0.840820312
vt 0.600097656 0.810546875
vt 0.501953125 0.852539062
vt 0.608398438 0.819335938
vt 0.501953125 0.864746094
vt 0.614746094 0.829589844
vt 0.504394531 0.876464844
vt 0.619140625 0.840820312
vt 0.508300781 0.887695312
vt 0.62109375 0.852539062
vt 0.514648438 0.897949219
vt 0.62109375 0.864746094
vt 0.522949219 0.906738281
vt 0.618652344 0.876464844
vt 0.532714844 0.913574219
vt 0.614746094 0.887695312
vt 0.543945312 0.918457031
vt 0.608398438 0.897460938
vt 0.555664062 0.920898438
vt 0.600097656 0.90625
vt 0.567382812 0.920898438
vt 0.590332031 0.913574219
vt 0.579589844 0.918457031
vt 0.748535156 0.838867188
vt 0.748535156 0.848632812
vt 0.75 0.829101562
vt 0.750488281 0.858398438
vt 0.75390625 0.819824219
vt 0.754394531 0.867675781
vt 0.759277344 0.811523438
vt 0.760253906 0.875488281
vt 0.766601562 0.8046875
vt 0.767089844 0.882324219
vt 0.774414062 0.799316406
vt 0.774902344 0.888183594
vt 0.783691406 0.795410156
vt 0.783691406 0.891601562
vt 0.793457031 0.793945312
vt 0.793457031 0.893554688
vt 0.802734375 0.793945312
vt 0.802734375 0.894042969
vt 0.8125 0.795898438
vt 0.8125 0.892089844
vt 0.821289062 0.799804688
vt 0.821289062 0.888671875
vt 0.829101562 0.805175781
vt 0.829589844 0.883300781
vt 0.8359375 0.812011719
vt 0.836914062 0.876464844
vt 0.841796875 0.8203125
vt 0.842285156 0.868164062
vt 0.845703125 0.829101562
vt 0.846191406 0.858886719
vt 0.84765625 0.838867188
vt 0.84765625 0.848632812
vn -0.998046875 0 0.063659668
vn -0.998046875 0 0.063659668
vn -0.998535156 0 0.0513000488
vn -0.998535156 1.1920929E-07 0.0513000488
vn -0 0.999023438 0.0442810059
vn -0 0.999023438 0.0442810059
vn -0 0.999511719 0.0357055664
vn -0 0.999511719 0.0357666016
vn 0.998046875 0 0.063659668
vn 0.998046875 0 0.063659668
vn 0.998535156 0 0.0512390137
vn 0.998535156 -1.1920929E-07 0.0512390137
vn -0 -0.999023438 0.0442810059
vn -0 -0.999023438 0.0442810059
vn -0 -0.999511719 0.0357055664
vn -0 -0.999511719 0.0357666016
vn -0.997070312 0 -0.0770263672
vn -0.997070312 0 -0.0770263672
vn -0.997070312 0 -0.0770263672
vn -0.997070312 0 -0.0770263672
vn -0.998535156 0 0.0511169434
vn -0.998535156 0 0.0511169434
vn -0.0531005859 -0.962402344 0.266845703
vn -7.15255737E-07 -0.962402344 0.272216797
vn 0.0530700684 -0.962402344 0.266845703
vn -0.104125977 -0.962402344 0.251464844
vn 0.104125977 -0.962402344 0.251464844
vn -0.151123047 -0.962402344 0.226196289
vn 0.151123047 -0.962402344 0.226196289
vn -0.192382812 -0.962402344 0.192382812
vn 0.192382812 -0.962402344 0.192382812
vn -0.226196289 -0.962402344 0.151123047
vn 0.226196289 -0.962402344 0.151123047
vn -0.251464844 -0.962402344 0.104125977
vn 0.251464844 -0.962402344 0.104125977
vn -0.266845703 -0.962402344 0.0531005859
vn 0.266845703 -0.962402344 0.0530700684
vn -0.272216797 -0.962402344 0
vn 0.272216797 -0.962402344 0
vn -0.266845703 -0.962402344 -0.0531005859
vn 0.266845703 -0.962402344 -0.0530700684
vn -0.251464844 -0.962402344 -0.104125977
vn 0.251464844 -0.962402344 -0.104125977
vn -0.226196289 -0.962402344 -0.151123047
vn 0.226196289 -0.962402344 -0.151123047
vn -0.192382812 -0.962402344 -0.192382812
vn 0.192382812 -0.962402344 -0.192382812
vn -0.151123047 -0.962402344 -0.226196289
vn 0.151123047 -0.962402344 -0.226196289
vn -0.104125977 -0.962402344 -0.251464844
vn 0.104125977 -0.962402344 -0.251464844
vn -0.0531005859 -0.962402344 -0.266845703
vn 0.0530700684 -0.962402344 -0.266845703
vn -7.15255737E-07 -0.962402344 -0.272216797
vn -0.0531005859 -0.962402344 0.266845703
vn -1.37090683E-06 -0.962402344 0.272216797
vn 0.0531005859 -0.962402344 0.266845703
vn -0.104125977 -0.962402344 0.251464844
vn 0.104125977 -0.962402344 0.251464844
vn -0.151123047 -0.962402344 0.226196289
vn 0.151123047 -0.962402344 0.226196289
vn -0.192382812 -0.962402344 0.192382812
vn 0.192382812 -0.962402344 0.192382812
vn -0.226196289 -0.962402344 0.151123047
vn 0.226196289 -0.962402344 0.151123047
vn -0.251464844 -0.962402344 0.104125977
vn 0.251464844 -0.962402344 0.104125977
vn -0.266845703 -0.962402344 0.0531005859
vn 0.266845703 -0.962402344 0.0531005859
vn -0.272216797 -0.962402344 1.78813934E-07
vn 0.272216797 -0.962402344 1.78813934E-07
vn -0.266845703 -0.962402344 -0.0531005859
vn 0.266845703 -0.962402344 -0.0530700684
vn -0.251464844 -0.962402344 -0.104125977
vn 0.251464844 -0.962402344 -0.104125977
vn -0.226196289 -0.962402344 -0.151123047
vn 0.226196289 -0.962402344 -0.151123047
vn -0.192382812 -0.962402344 -0.192382812
vn 0.192382812 -0.962402344 -0.192382812
vn -0.151123047 -0.962402344 -0.226196289
vn 0.151123047 -0.962402344 -0.226196289
vn -0.104125977 -0.962402344 -0.251464844
vn 0.104125977 -0.962402344 -0.251464844
vn -0.0531005859 -0.962402344 -0.266845703
vn 0.0531005859 -0.962402344 -0.266845703
vn -1.37090683E-06 -0.962402344 -0.272216797
vn -0.0530700684 -0.962402344 0.266845703
vn 1.78813934E-07 -0.962402344 0.272216797
vn 0.0530700684 -0.962402344 0.266845703
vn -0.104125977 -0.962402344 0.251464844
vn 0.104125977 -0.962402344 0.251464844
vn -0.151123047 -0.962402344 0.226196289
vn 0.151123047 -0.962402344 0.226196289
vn -0.192382812 -0.962402344 0.192382812
vn 0.192382812 -0.962402344 0.192382812
vn -0.226196289 -0.962402344 0.151123047
vn 0.226318359 -0.962402344 0.151123047
vn -0.251464844 -0.962402344 0.104125977
vn 0.251464844 -0.962402344 0.104125977
vn -0.266845703 -0.962402344 0.0531005859
vn 0.266845703 -0.962402344 0.0531005859
vn -0.272216797 -0.962402344 3.57627869E-07
vn 0.272216797 -0.962402344 1.78813934E-07
vn -0.266845703 -0.962402344 -0.0531005859
vn 0.266845703 -0.962402344 -0.0531005859
vn -0.251464844 -0.962402344 -0.104125977
vn 0.251464844 -0.962402344 -0.104125977
vn -0.226196289 -0.962402344 -0.151123047
vn 0.226318359 -0.962402344 -0.151123047
vn -0.192382812 -0.962402344 -0.192382812
vn 0.192382812 -0.962402344 -0.192382812
vn -0.151123047 -0.962402344 -0.226196289
vn 0.151123047 -0.962402344 -0.226196289
vn -0.104125977 -0.962402344 -0.251464844
vn 0.104125977 -0.962402344 -0.251464844
vn -0.0530700684 -0.962402344 -0.266845703
vn 0.0530700684 -0.962402344 -0.266845703
vn 1.78813934E-07 -0.962402344 -0.272216797
vn -0 0 1
vn -0 0 1
vn -0 0 1
vn -0 0 1
vn -0 -0.999511719 0.0355224609
vn -0 -0.999511719 0.0355224609
vn -0 0.999511719 0.0355224609
vn -0 0.999511719 0.0355224609
vn 0.998535156 0 0.0510864258
vn 0.998535156 0 0.0510864258
vn -0 0 -1
vn -0 0 -1
vn -0 0 -1
vn -0 0 -1
vn 0.997070312 0 -0.076965332
vn 0.997070312 0 -0.076965332
vn 0.997070312 0 -0.076965332
vn 0.997070312 0 -0.076965332
vn -0 -0.998535156 -0.0535888672
vn -0 -0.998535156 -0.0535888672
vn -0 -0.998535156 -0.0535888672
vn -0 -0.998535156 -0.0535888672
vn -0 0.998535156 -0.0535888672
vn -0 0.998535156 -0.0535888672
vn -0 0.998535156 -0.0535888672
vn -0 0.998535156 -0.0535888672
vn 0.831542969 0 -0.555664062
vn 0.923828125 0 -0.382568359
vn 0.831542969 0 -0.555664062
vn 0.923828125 0 -0.382568359
vn 0.980957031 0 -0.195068359
vn 0.980957031 0 -0.195068359
vn 1 0 0
vn 1 0 0
vn 0.980957031 0 0.195068359
vn 0.980957031 0 0.195068359
vn 0.923828125 0 0.382568359
vn 0.923828125 0 0.382568359
vn 0.831542969 0 0.555664062
vn 0.831542969 0 0.555664062
vn 0.70703125 0 0.70703125
vn 0.70703125 0 0.70703125
vn -0.70703125 0 -0.70703125
vn -0.555664062 0 -0.831542969
vn -0.555664062 0 -0.831542969
vn -0.70703125 0 -0.70703125
vn -0.555664062 0 -0.831542969
vn -0.3828125 0 -0.923828125
vn -0.555664062 0 -0.831542969
vn -0.3828125 0 -0.923828125
vn -0.195068359 0 -0.980957031
vn -0.195068359 0 -0.980957031
vn 3.9935112E-06 0 -1
vn 3.9935112E-06 0 -1
vn 0.195068359 0 -0.980957031
vn 0.195068359 0 -0.980957031
vn 0.382568359 0 -0.923828125
vn 0.382568359 0 -0.923828125
vn 0.555664062 0 -0.831542969
vn 0.555664062 0 -0.831542969
vn 0.70703125 0 -0.70703125
vn 0.70703125 0 -0.70703125
vn -0.70703125 0 0.70703125
vn -0.831542969 0 0.555664062
vn -0.70703125 0 0.70703125
vn -0.831542969 0 0.555664062
vn -0.923828125 0 0.382568359
vn -0.923828125 0 0.382568359
vn -0.980957031 0 0.195068359
vn -0.980957031 0 0.195068359
vn -1 0 0
vn -1 0 0
vn -0.980957031 0 -0.195068359
vn -0.980957031 0 -0.195068359
vn -0.923828125 0 -0.382568359
vn -0.923828125 0 -0.382568359
vn -0.831542969 0 -0.555664062
vn -0.831542969 0 -0.555664062
vn -0.70703125 0 -0.70703125
vn -0.70703125 0 -0.70703125
vn 0.555664062 0 0.831542969
vn 0.382568359 0 0.923828125
vn 0.555664062 0 0.831542969
vn 0.382568359 0 0.923828125
vn 0.195068359 0 0.980957031
vn 0.195068359 0 0.980957031
vn 3.9935112E-06 0 1
vn 3.9935112E-06 0 1
vn -0.195068359 0 0.980957031
vn -0.195068359 0 0.980957031
vn -0.382568359 0 0.923828125
vn -0.382568359 0 0.923828125
vn -0.555664062 0 0.831542969
vn -0.555664062 0 0.831542969
vn -0.70703125 0 0.70703125
vn -0.70703125 0 0.70703125
vn 0.70703125 0 0.70703125
vn 0.555664062 0 0.831542969
vn 0.555664062 0 0.831542969
vn 0.70703125 0 0.70703125
vn 0.70703125 0 -0.70703125
vn 0.831542969 0 -0.555664062
vn 0.831542969 0 -0.555664062
vn 0.70703125 0 -0.70703125
vn 3.39746475E-06 0 -1
vn 0.195068359 0 -0.980957031
vn 0.195068359 0 -0.980957031
vn 3.39746475E-06 0 -1
vn -0.195068359 0 -0.980957031
vn -0.195068359 0 -0.980957031
vn -0.382568359 0 -0.923828125
vn -0.382568359 0 -0.923828125
vn -0.555664062 0 -0.831542969
vn -0.555664062 0 -0.831542969
vn -0.70703125 0 -0.70703125
vn -0.70703125 0 -0.70703125
vn 0.831542969 0 -0.555664062
vn 0.923828125 0 -0.382568359
vn 0.923828125 0 -0.382568359
vn 0.831542969 0 -0.555664062
vn 0.70703125 0 -0.70703125
vn 0.70703125 0 -0.70703125
vn 0.195068359 0 -0.980957031
vn 0.382568359 0 -0.923828125
vn 0.195068359 0 -0.980957031
vn 0.382568359 0 -0.923828125
vn 0.555664062 0 -0.831542969
vn 0.555664062 0 -0.831542969
vn 0.70703125 0 -0.70703125
vn 0.70703125 0 -0.70703125
vn -0.70703125 0 0.70703125
vn -0.831542969 0 0.555664062
vn -0.70703125 0 0.70703125
vn -0.831542969 0 0.555664062
vn -0.923828125 0 0.382568359
vn -0.923828125 0 0.382568359
vn -0.980957031 0 0.195068359
vn -0.980957031 0 0.195068359
vn -1 0 0
vn -1 0 0
vn -0.980957031 0 -0.195068359
vn -0.980957031 0 -0.195068359
vn -0.923828125 0 -0.382568359
vn -0.923828125 0 -0.382568359
vn 0.831542969 0 0.555664062
vn 0.70703125 0 0.70703125
vn 0.70703125 0 0.70703125
vn 0.831542969 0 0.555664062
vn 0.923828125 0 0.382568359
vn 0.923828125 0 0.382568359
vn 0.980957031 0 0.195068359
vn 0.980957031 0 0.195068359
vn 1 0 0
vn 1 0 0
vn 0.980957031 0 -0.195068359
vn 0.980957031 0 -0.195068359
vn 0.923828125 0 -0.382568359
vn 0.923828125 0 -0.382568359
vn -0.831542969 0 -0.555664062
vn -0.70703125 0 -0.70703125
vn -0.70703125 0 -0.70703125
vn -0.831542969 0 -0.555664062
vn -0.923828125 0 -0.382568359
vn -0.923828125 0 -0.382568359
vn 3.39746475E-06 0 1
vn -0.195068359 0 0.980957031
vn -0.195068359 0 0.980957031
vn 3.39746475E-06 0 1
vn 0.195068359 0 0.980957031
vn 0.195068359 0 0.980957031
vn 0.382568359 0 0.923828125
vn 0.382568359 0 0.923828125
vn 0.555664062 0 0.831542969
vn 0.555664062 0 0.831542969
vn 0.70703125 0 0.70703125
vn 0.70703125 0 0.70703125
vn -0.555664062 0 0.831542969
vn -0.70703125 0 0.70703125
vn -0.70703125 0 0.70703125
vn -0.555664062 0 0.831542969
vn -0.382568359 0 0.923828125
vn -0.382568359 0 0.923828125
vn -0.195068359 0 0.980957031
vn -0.195068359 0 0.980957031
vn 0.831542969 0 -0.555664062
vn 0.923828125 0 -0.3828125
vn 0.831542969 0 -0.555664062
vn 0.923828125 0 -0.3828125
vn 0.980957031 0 -0.195068359
vn 0.980957031 0 -0.195068359
vn 1 0 -1.13248825E-06
vn 1 0 -1.13248825E-06
vn 0.980957031 0 0.195068359
vn 0.980957031 0 0.195068359
vn 0.923828125 0 0.3828125
vn 0.923828125 0 0.3828125
vn 0.831542969 0 0.555664062
vn -0.70703125 0 -0.70703125
vn -0.555664062 0 -0.831542969
vn -0.70703125 0 -0.70703125
vn -0.555664062 0 -0.831542969
vn -0.3828125 0 -0.923828125
vn -0.3828125 0 -0.923828125
vn -0.195068359 0 -0.980957031
vn -0.195068359 0 -0.980957031
vn -1 0 -1.13248825E-06
vn -0.980957031 0 -0.195068359
vn -0.980957031 0 -0.195068359
vn -1 0 -1.13248825E-06
vn -0.980957031 0 0.195068359
vn -0.980957031 0 0.195068359
vn -0.923828125 0 0.3828125
vn -0.923828125 0 0.3828125
vn -0.831542969 0 0.555664062
vn -0.831542969 0 0.555664062
vn -0.70703125 0 0.70703125
vn -0.70703125 0 0.70703125
vn -0.980957031 0 -0.195068359
vn -0.923828125 0 -0.3828125
vn -0.980957031 0 -0.195068359
vn -0.923828125 0 -0.3828125
vn -0.831542969 0 -0.555664062
vn -0.831542969 0 -0.555664062
vn -0.70703125 0 -0.70703125
vn -0.70703125 0 -0.70703125
vn 0.831542969 0 0.555664062
vn 0.70703125 0 0.70703125
vn 0.70703125 0 0.70703125
vn 0.831542969 0 0.555664062
vn 0.923828125 0 0.3828125
vn 0.555664062 0 -0.831542969
vn 0.70703125 0 -0.70703125
vn 0.70703125 0 -0.70703125
vn 0.555664062 0 -0.831542969
vn 0.382568359 0 -0.923828125
vn 0.382568359 0 -0.923828125
vn 0.195068359 0 -0.980957031
vn 0.195068359 0 -0.980957031
vn 1.90734863E-06 0 -1
vn 1.90734863E-06 0 -1
vn -0.195068359 0 -0.980957031
vn -0.195068359 0 -0.980957031
vn 1.90734863E-06 0 1
vn -0.195068359 0 0.980957031
vn -0.195068359 0 0.980957031
vn 1.90734863E-06 0 1
vn 0.195068359 0 0.980957031
vn 0.195068359 0 0.980957031
vn 0.382568359 0 0.923828125
vn 0.382568359 0 0.923828125
vn 0.555664062 0 0.831542969
vn 0.555664062 0 0.831542969
vn 0.70703125 0 0.70703125
vn 0.70703125 0 0.70703125
vn -0.555664062 0 0.831542969
vn -0.70703125 0 0.70703125
vn -0.70703125 0 0.70703125
vn -0.555664062 0 0.831542969
vn -0.382568359 0 0.923828125
vn -0.382568359 0 0.923828125
vn -0.195068359 0 0.980957031
vn -0.195068359 0 0.980957031
vn 0.70703125 0 -0.70703125
vn 0.831542969 0 -0.555664062
vn 0.831542969 0 -0.555664062
vn 0.70703125 0 -0.70703125
vn -0 0.997558594 0.0719604492
vn -0 0.997558594 0.0719604492
vn -0 -0.997558594 0.0719604492
vn -0 -0.997558594 0.0719604492
vn 0.994628906 0 0.103271484
vn 0.994628906 0 0.103271484
vn -0.994628906 0 0.103271484
vn -0.994628906 0 0.103271484
vn -0.300048828 -0.944335938 0.133300781
vn -0.249755859 -0.951660156 0.1796875
vn -0.249389648 -0.951660156 0.179931641
vn -0.300048828 -0.944335938 0.133666992
vn -0.192871094 -0.958984375 0.208862305
vn -0.335205078 -0.939453125 0.0712280273
vn -0.193237305 -0.958496094 0.208618164
vn -0.335205078 -0.939453125 0.0714111328
vn -0.137817383 -0.96484375 0.223754883
vn -0.34765625 -0.9375 0
vn -0.138183594 -0.96484375 0.223632812
vn -0.34765625 -0.9375 0
vn -0.0877685547 -0.969238281 0.229980469
vn -0.335205078 -0.939453125 -0.0712280273
vn -0.0880126953 -0.969238281 0.229858398
vn -0.335205078 -0.939453125 -0.0714111328
vn -0.0424499512 -0.971679688 0.231811523
vn -0.300048828 -0.944335938 -0.133300781
vn -0.0425720215 -0.971679688 0.231811523
vn -0.300048828 -0.944335938 -0.133666992
vn 8.34465027E-07 -0.97265625 0.232055664
vn -0.249755859 -0.951660156 -0.1796875
vn 7.15255737E-07 -0.97265625 0.232055664
vn -0.249267578 -0.951660156 -0.179931641
vn 0.0424499512 -0.971679688 0.231811523
vn -0.193237305 -0.958496094 -0.208618164
vn 0.0425720215 -0.971679688 0.231811523
vn -0.192871094 -0.958984375 -0.208862305
vn 0.0877685547 -0.969238281 0.229980469
vn -0.138183594 -0.96484375 -0.223632812
vn 0.0880126953 -0.969238281 0.229980469
vn -0.137817383 -0.96484375 -0.223754883
vn 0.137939453 -0.96484375 0.223754883
vn -0.0880126953 -0.969238281 -0.229858398
vn 0.138183594 -0.96484375 0.223632812
vn -0.0877685547 -0.969238281 -0.229980469
vn 0.192871094 -0.958984375 0.208740234
vn -0.0425720215 -0.971679688 -0.231811523
vn 0.193237305 -0.958496094 0.208618164
vn -0.0424499512 -0.971679688 -0.231811523
vn 0.249267578 -0.951660156 0.179931641
vn 7.15255737E-07 -0.97265625 -0.232055664
vn 0.249755859 -0.951660156 0.1796875
vn 8.34465027E-07 -0.97265625 -0.232055664
vn 0.299804688 -0.944335938 0.133666992
vn 0.0425720215 -0.971679688 -0.231811523
vn 0.300048828 -0.944335938 0.133300781
vn 0.0424499512 -0.971679688 -0.231811523
vn 0.335205078 -0.939453125 0.0714111328
vn 0.0880126953 -0.969238281 -0.229980469
vn 0.335205078 -0.939453125 0.0712280273
vn 0.0877685547 -0.969238281 -0.229980469
vn 0.34765625 -0.9375 0
vn 0.138183594 -0.96484375 -0.223632812
vn 0.34765625 -0.9375 0
vn 0.137939453 -0.96484375 -0.223754883
vn 0.335205078 -0.939453125 -0.0714111328
vn 0.193237305 -0.958496094 -0.208618164
vn 0.335205078 -0.939453125 -0.0712280273
vn 0.192871094 -0.958984375 -0.208740234
vn 0.299804688 -0.944335938 -0.133666992
vn 0.249755859 -0.951660156 -0.1796875
vn 0.300048828 -0.944335938 -0.133300781
vn 0.249267578 -0.951660156 -0.179931641
vn -0.30078125 -0.944335938 0.132202148
vn -0.250732422 -0.951660156 0.178344727
vn -0.250244141 -0.951660156 0.178466797
vn -0.300537109 -0.944335938 0.132446289
vn -0.194091797 -0.958984375 0.207641602
vn -0.335449219 -0.939453125 0.0705566406
vn -0.194458008 -0.958496094 0.207397461
vn -0.335205078 -0.939453125 0.0706787109
vn -0.139160156 -0.96484375 0.222900391
vn -0.34765625 -0.9375 -1.1920929E-07
vn -0.139404297 -0.96484375 0.222900391
vn -0.34765625 -0.9375 -1.1920929E-07
vn -0.0887451172 -0.969238281 0.229492188
vn -0.335449219 -0.939453125 -0.0705566406
vn -0.0889282227 -0.969238281 0.229492188
vn -0.335205078 -0.939453125 -0.0706787109
vn -0.0429992676 -0.971679688 0.231689453
vn -0.30078125 -0.944335938 -0.132202148
vn -0.0430908203 -0.971679688 0.231689453
vn -0.300537109 -0.944335938 -0.132446289
vn 7.74860382E-07 -0.97265625 0.232055664
vn -0.250732422 -0.951660156 -0.178344727
vn 6.55651093E-07 -0.97265625 0.232055664
vn -0.250244141 -0.951660156 -0.178466797
vn 0.0429992676 -0.971679688 0.231689453
vn -0.194458008 -0.958496094 -0.207397461
vn 0.0430908203 -0.971679688 0.231689453
vn -0.194091797 -0.958984375 -0.207641602
vn 0.0887451172 -0.969238281 0.229492188
vn -0.139404297 -0.96484375 -0.222900391
vn 0.0889282227 -0.969238281 0.229492188
vn -0.139160156 -0.96484375 -0.222900391
vn 0.139160156 -0.96484375 0.222900391
vn -0.0889282227 -0.969238281 -0.229492188
vn 0.139404297 -0.96484375 0.222900391
vn -0.0887451172 -0.969238281 -0.229492188
vn 0.194091797 -0.958984375 0.207641602
vn -0.0430908203 -0.971679688 -0.231689453
vn 0.194458008 -0.958496094 0.207397461
vn -0.0429992676 -0.971679688 -0.231689453
vn 0.250244141 -0.951660156 0.178466797
vn 6.55651093E-07 -0.97265625 -0.232055664
vn 0.250732422 -0.951660156 0.178344727
vn 7.74860382E-07 -0.97265625 -0.232055664
vn 0.300537109 -0.944335938 0.132446289
vn 0.0430908203 -0.971679688 -0.231689453
vn 0.30078125 -0.944335938 0.132202148
vn 0.0429992676 -0.971679688 -0.231689453
vn 0.335205078 -0.939453125 0.0706787109
vn 0.0889282227 -0.969238281 -0.229492188
vn 0.335449219 -0.939453125 0.0705566406
vn 0.0887451172 -0.969238281 -0.229492188
vn 0.34765625 -0.9375 -1.1920929E-07
vn 0.139404297 -0.96484375 -0.222900391
vn 0.34765625 -0.9375 -1.1920929E-07
vn 0.139160156 -0.96484375 -0.222900391
vn 0.335205078 -0.939453125 -0.0706787109
vn 0.194458008 -0.958496094 -0.207397461
vn 0.335449219 -0.939453125 -0.0705566406
vn 0.194091797 -0.958984375 -0.207641602
vn 0.300537109 -0.944335938 -0.132446289
vn 0.250732422 -0.951660156 -0.178344727
vn 0.30078125 -0.944335938 -0.132202148
vn 0.250244141 -0.951660156 -0.178466797
vn -0.301269531 -0.944335938 0.130859375
vn -0.251708984 -0.951660156 0.176757812
vn -0.251464844 -0.951660156 0.177001953
vn -0.301025391 -0.944335938 0.131103516
vn -0.195556641 -0.958984375 0.206298828
vn -0.335449219 -0.939453125 0.0698242188
vn -0.195800781 -0.958496094 0.206176758
vn -0.335449219 -0.939453125 0.0699462891
vn -0.14050293 -0.96484375 0.222045898
vn -0.34765625 -0.9375 -1.78813934E-07
vn -0.14074707 -0.96484375 0.221923828
vn -0.34765625 -0.9375 -1.78813934E-07
vn -0.08984375 -0.969238281 0.229125977
vn -0.335449219 -0.939453125 -0.0698242188
vn -0.0900268555 -0.969238281 0.229003906
vn -0.335449219 -0.939453125 -0.0699462891
vn -0.0436096191 -0.971679688 0.231567383
vn -0.301269531 -0.944335938 -0.130859375
vn -0.0437011719 -0.971679688 0.231567383
vn -0.301025391 -0.944335938 -0.131103516
vn 2.98023224E-07 -0.97265625 0.232055664
vn -0.251708984 -0.951660156 -0.176757812
vn 2.98023224E-07 -0.97265625 0.232055664
vn -0.251464844 -0.951660156 -0.177001953
vn 0.0436096191 -0.971679688 0.231567383
vn -0.195800781 -0.958496094 -0.206176758
vn 0.0437011719 -0.971679688 0.231567383
vn -0.195556641 -0.958984375 -0.206298828
vn 0.08984375 -0.969238281 0.229125977
vn -0.14074707 -0.96484375 -0.221923828
vn 0.0900268555 -0.969238281 0.229125977
vn -0.14050293 -0.96484375 -0.222045898
vn 0.14050293 -0.96484375 0.222045898
vn -0.0900268555 -0.969238281 -0.229003906
vn 0.14074707 -0.96484375 0.222045898
vn -0.08984375 -0.969238281 -0.229125977
vn 0.195556641 -0.958984375 0.206298828
vn -0.0437011719 -0.971679688 -0.231567383
vn 0.195800781 -0.958496094 0.206176758
vn -0.0436096191 -0.971679688 -0.231567383
vn 0.251464844 -0.951660156 0.177001953
vn 2.98023224E-07 -0.97265625 -0.232055664
vn 0.251708984 -0.951660156 0.176757812
vn 2.98023224E-07 -0.97265625 -0.232055664
vn 0.301025391 -0.944335938 0.131103516
vn 0.0437011719 -0.971679688 -0.231567383
vn 0.301269531 -0.944335938 0.130859375
vn 0.0436096191 -0.971679688 -0.231567383
vn 0.335449219 -0.939453125 0.0699462891
vn 0.0900268555 -0.969238281 -0.229125977
vn 0.335449219 -0.939453125 0.0697631836
vn 0.08984375 -0.969238281 -0.229125977
vn 0.34765625 -0.9375 -4.17232513E-07
vn 0.14074707 -0.96484375 -0.222045898
vn 0.34765625 -0.9375 -4.17232513E-07
vn 0.14050293 -0.96484375 -0.222045898
vn 0.335449219 -0.939453125 -0.0699462891
vn 0.195800781 -0.958496094 -0.206176758
vn 0.335449219 -0.939453125 -0.0697631836
vn 0.195556641 -0.958984375 -0.206298828
vn 0.301025391 -0.944335938 -0.131103516
vn 0.251708984 -0.951660156 -0.176757812
vn 0.301269531 -0.944335938 -0.130859375
vn 0.251464844 -0.951660156 -0.177001953
vn 0.459716797 -0.867675781 -0.189453125
vn 0.4140625 -0.867675781 -0.275146484
vn 0.487792969 -0.867675781 -0.096496582
vn 0.352294922 -0.867675781 -0.350585938
vn 0.497070312 -0.867675781 0
vn 0.277099609 -0.867675781 -0.412841797
vn 0.487792969 -0.867675781 0.096496582
vn 0.190917969 -0.867675781 -0.458984375
vn 0.459716797 -0.867675781 0.189453125
vn 0.0973510742 -0.867675781 -0.487548828
vn 0.4140625 -0.867675781 0.275146484
vn -1.13248825E-06 -0.867675781 -0.497070312
vn 0.352294922 -0.867675781 0.350585938
vn -0.0974121094 -0.867675781 -0.487548828
vn 0.277099609 -0.867675781 0.412841797
vn -0.190917969 -0.867675781 -0.458984375
vn 0.190917969 -0.867675781 0.458984375
vn -0.277099609 -0.867675781 -0.412841797
vn 0.0973510742 -0.867675781 0.487548828
vn -0.352294922 -0.867675781 -0.350585938
vn -1.13248825E-06 -0.867675781 0.497070312
vn -0.4140625 -0.867675781 -0.275146484
vn -0.0974121094 -0.867675781 0.487548828
vn -0.459716797 -0.867675781 -0.189453125
vn -0.190917969 -0.867675781 0.458984375
vn -0.487792969 -0.867675781 -0.0965576172
vn -0.277099609 -0.867675781 0.412841797
vn -0.497070312 -0.867675781 0
vn -0.352294922 -0.867675781 0.350585938
vn -0.487792969 -0.867675781 0.0965576172
vn -0.4140625 -0.867675781 0.275146484
vn -0.459716797 -0.867675781 0.189453125
vn 0.459472656 -0.867675781 -0.189575195
vn 0.413818359 -0.867675781 -0.275390625
vn 0.487548828 -0.867675781 -0.0966186523
vn 0.352294922 -0.867675781 -0.350830078
vn 0.497070312 -0.867675781 2.38418579E-07
vn 0.276855469 -0.867675781 -0.412841797
vn 0.487548828 -0.867675781 0.0966186523
vn 0.190917969 -0.867675781 -0.458984375
vn 0.459472656 -0.867675781 0.189575195
vn 0.0973510742 -0.867675781 -0.487548828
vn 0.413818359 -0.867675781 0.275390625
vn -2.2649765E-06 -0.867675781 -0.497070312
vn 0.352294922 -0.867675781 0.350830078
vn -0.0973510742 -0.867675781 -0.487548828
vn 0.276855469 -0.867675781 0.412841797
vn -0.190795898 -0.867675781 -0.458984375
vn 0.190917969 -0.867675781 0.458984375
vn -0.276855469 -0.867675781 -0.412841797
vn 0.0973510742 -0.867675781 0.487548828
vn -0.352294922 -0.867675781 -0.350830078
vn -2.2649765E-06 -0.867675781 0.497070312
vn -0.413818359 -0.867675781 -0.275390625
vn -0.0973510742 -0.867675781 0.487548828
vn -0.459472656 -0.867675781 -0.189575195
vn -0.190917969 -0.867675781 0.458984375
vn -0.487548828 -0.867675781 -0.0966186523
vn -0.276855469 -0.867675781 0.412841797
vn -0.497070312 -0.867675781 2.38418579E-07
vn -0.352294922 -0.867675781 0.350830078
vn -0.487548828 -0.867675781 0.0966186523
vn -0.413818359 -0.867675781 0.275390625
vn -0.459472656 -0.867675781 0.189575195
vn 0.459472656 -0.867675781 -0.189697266
vn 0.413818359 -0.867675781 -0.275634766
vn 0.487548828 -0.867675781 -0.0966796875
vn 0.352050781 -0.867675781 -0.350830078
vn 0.497070312 -0.867675781 2.98023224E-07
vn 0.276855469 -0.867675781 -0.412841797
vn 0.487548828 -0.867675781 0.0966796875
vn 0.190673828 -0.867675781 -0.458984375
vn 0.459472656 -0.867675781 0.189697266
vn 0.0972290039 -0.867675781 -0.487548828
vn 0.413818359 -0.867675781 0.275634766
vn 2.98023224E-07 -0.867675781 -0.497070312
vn 0.352050781 -0.867675781 0.350830078
vn -0.0972290039 -0.867675781 -0.487548828
vn 0.276855469 -0.867675781 0.412841797
vn -0.190795898 -0.867675781 -0.458984375
vn 0.190673828 -0.867675781 0.458984375
vn -0.276855469 -0.867675781 -0.412841797
vn 0.0972290039 -0.867675781 0.487548828
vn -0.352050781 -0.867675781 -0.351074219
vn 2.98023224E-07 -0.867675781 0.497070312
vn -0.413818359 -0.867675781 -0.275634766
vn -0.0972290039 -0.867675781 0.487548828
vn -0.459472656 -0.867675781 -0.189697266
vn -0.190795898 -0.867675781 0.458984375
vn -0.487548828 -0.867675781 -0.0966796875
vn -0.276855469 -0.867675781 0.412841797
vn -0.497070312 -0.867675781 5.96046448E-07
vn -0.352050781 -0.867675781 0.351074219
vn -0.487548828 -0.867675781 0.0966796875
vn -0.413818359 -0.867675781 0.275634766
vn -0.459472656 -0.867675781 0.189697266
g Computer speker 2.001_0
f 3/3/3 2/2/2 1/1/1
f 4/4/4 3/3/3 1/1/1
f 7/7/7 6/6/6 5/5/5
f 8/8/8 7/7/7 5/5/5
f 11/11/11 10/10/10 9/9/9
f 12/12/12 11/11/11 9/9/9
f 15/15/15 14/14/14 13/13/13
f 16/16/16 15/15/15 13/13/13
g Computer speker 2.001_1
f 19/19/19 18/18/18 17/17/17
f 20/20/20 19/19/19 17/17/17
f 22/22/22 21/21/21 3/3/3
f 4/4/4 22/22/22 3/3/3
f 25/25/25 24/24/24 23/23/23
f 23/23/23 26/26/26 25/25/25
f 26/26/26 27/27/27 25/25/25
f 26/26/26 28/28/28 27/27/27
f 28/28/28 29/29/29 27/27/27
f 28/28/28 30/30/30 29/29/29
f 30/30/30 31/31/31 29/29/29
f 30/30/30 32/32/32 31/31/31
f 32/32/32 33/33/33 31/31/31
f 32/32/32 34/34/34 33/33/33
f 34/34/34 35/35/35 33/33/33
f 34/34/34 36/36/36 35/35/35
f 36/36/36 37/37/37 35/35/35
f 36/36/36 38/38/38 37/37/37
f 38/38/38 39/39/39 37/37/37
f 38/38/38 40/40/40 39/39/39
f 40/40/40 41/41/41 39/39/39
f 40/40/40 42/42/42 41/41/41
f 42/42/42 43/43/43 41/41/41
f 42/42/42 44/44/44 43/43/43
f 44/44/44 45/45/45 43/43/43
f 44/44/44 46/46/46 45/45/45
f 46/46/46 47/47/47 45/45/45
f 46/46/46 48/48/48 47/47/47
f 48/48/48 49/49/49 47/47/47
f 48/48/48 50/50/50 49/49/49
f 50/50/50 51/51/51 49/49/49
f 50/50/50 52/52/52 51/51/51
f 52/52/52 53/53/53 51/51/51
f 52/52/52 54/54/54 53/53/53
f 57/57/57 56/56/56 55/55/55
f 55/55/55 58/58/58 57/57/57
f 58/58/58 59/59/59 57/57/57
f 58/58/58 60/60/60 59/59/59
f 60/60/60 61/61/61 59/59/59
f 60/60/60 62/62/62 61/61/61
f 62/62/62 63/63/63 61/61/61
f 62/62/62 64/64/64 63/63/63
f 64/64/64 65/65/65 63/63/63
f 64/64/64 66/66/66 65/65/65
f 66/66/66 67/67/67 65/65/65
f 66/66/66 68/68/68 67/67/67
f 68/68/68 69/69/69 67/67/67
f 68/68/68 70/70/70 69/69/69
f 70/70/70 71/71/71 69/69/69
f 70/70/70 72/72/72 71/71/71
f 72/72/72 73/73/73 71/71/71
f 72/72/72 74/74/74 73/73/73
f 74/74/74 75/75/75 73/73/73
f 74/74/74 76/76/76 75/75/75
f 76/76/76 77/77/77 75/75/75
f 76/76/76 78/78/78 77/77/77
f 78/78/78 79/79/79 77/77/77
f 78/78/78 80/80/80 79/79/79
f 80/80/80 81/81/81 79/79/79
f 80/80/80 82/82/82 81/81/81
f 82/82/82 83/83/83 81/81/81
f 82/82/82 84/84/84 83/83/83
f 84/84/84 85/85/85 83/83/83
f 84/84/84 86/86/86 85/85/85
f 89/89/89 88/88/88 87/87/87
f 87/87/87 90/90/90 89/89/89
f 90/90/90 91/91/91 89/89/89
f 90/90/90 92/92/92 91/91/91
f 92/92/92 93/93/93 91/91/91
f 92/92/92 94/94/94 93/93/93
f 94/94/94 95/95/95 93/93/93
f 94/94/94 96/96/96 95/95/95
f 96/96/96 97/97/97 95/95/95
f 96/96/96 98/98/98 97/97/97
f 98/98/98 99/99/99 97/97/97
f 98/98/98 100/100/100 99/99/99
f 100/100/100 101/101/101 99/99/99
f 100/100/100 102/102/102 101/101/101
f 102/102/102 103/103/103 101/101/101
f 102/102/102 104/104/104 103/103/103
f 104/104/104 105/105/105 103/103/103
f 104/104/104 106/106/106 105/105/105
f 106/106/106 107/107/107 105/105/105
f 106/106/106 108/108/108 107/107/107
f 108/108/108 109/109/109 107/107/107
f 108/108/108 110/110/110 109/109/109
f 110/110/110 111/111/111 109/109/109
f 110/110/110 112/112/112 111/111/111
f 112/112/112 113/113/113 111/111/111
f 112/112/112 114/114/114 113/113/113
f 114/114/114 115/115/115 113/113/113
f 114/114/114 116/116/116 115/115/115
f 116/116/116 117/117/117 115/115/115
f 116/116/116 118/118/118 117/117/117
f 121/121/121 120/120/120 119/119/119
f 122/122/122 121/121/121 119/119/119
f 124/124/124 123/123/123 15/15/15
f 16/16/16 124/124/124 15/15/15
f 126/126/126 125/125/125 7/7/7
f 8/8/8 126/126/126 7/7/7
f 128/128/128 127/127/127 11/11/11
f 12/12/12 128/128/128 11/11/11
f 131/131/131 130/130/130 129/129/129
f 132/132/132 131/131/131 129/129/129
f 135/135/135 134/134/134 133/133/133
f 136/136/136 135/135/135 133/133/133
f 139/139/139 138/138/138 137/137/137
f 140/140/140 139/139/139 137/137/137
f 143/143/143 142/142/142 141/141/141
f 144/144/144 143/143/143 141/141/141
g Computer speker 2.001_2
f 147/147/147 146/146/146 145/145/145
f 146/146/146 148/148/148 145/145/145
f 146/146/146 149/149/149 148/148/148
f 149/149/149 150/150/150 148/148/148
f 149/149/149 151/151/151 150/150/150
f 151/151/151 152/152/152 150/150/150
f 151/151/151 153/153/153 152/152/152
f 153/153/153 154/154/154 152/152/152
f 153/153/153 155/155/155 154/154/154
f 155/155/155 156/156/156 154/154/154
f 155/155/155 157/157/157 156/156/156
f 157/157/157 158/158/158 156/156/156
f 157/157/157 159/159/159 158/158/158
f 159/159/159 160/160/160 158/158/158
f 163/163/163 162/162/162 161/161/161
f 164/164/164 163/163/163 161/161/161
f 167/167/167 166/166/166 165/165/165
f 166/166/166 168/168/168 165/165/165
f 166/166/166 169/169/169 168/168/168
f 169/169/169 170/170/170 168/168/168
f 169/169/169 171/171/171 170/170/170
f 171/171/171 172/172/172 170/170/170
f 171/171/171 173/173/173 172/172/172
f 173/173/173 174/174/174 172/172/172
f 173/173/173 175/175/175 174/174/174
f 175/175/175 176/176/176 174/174/174
f 175/175/175 177/177/177 176/176/176
f 177/177/177 178/178/178 176/176/176
f 177/177/177 179/179/179 178/178/178
f 179/179/179 180/180/180 178/178/178
f 183/183/183 182/182/182 181/181/181
f 182/182/182 184/184/184 181/181/181
f 182/182/182 185/185/185 184/184/184
f 185/185/185 186/186/186 184/184/184
f 185/185/185 187/187/187 186/186/186
f 187/187/187 188/188/188 186/186/186
f 187/187/187 189/189/189 188/188/188
f 189/189/189 190/190/190 188/188/188
f 189/189/189 191/191/191 190/190/190
f 191/191/191 192/192/192 190/190/190
f 191/191/191 193/193/193 192/192/192
f 193/193/193 194/194/194 192/192/192
f 193/193/193 195/195/195 194/194/194
f 195/195/195 196/196/196 194/194/194
f 195/195/195 197/197/197 196/196/196
f 197/197/197 198/198/198 196/196/196
f 201/201/201 200/200/200 199/199/199
f 200/200/200 202/202/202 199/199/199
f 200/200/200 203/203/203 202/202/202
f 203/203/203 204/204/204 202/202/202
f 203/203/203 205/205/205 204/204/204
f 205/205/205 206/206/206 204/204/204
f 205/205/205 207/207/207 206/206/206
f 207/207/207 208/208/208 206/206/206
f 207/207/207 209/209/209 208/208/208
f 209/209/209 210/210/210 208/208/208
f 209/209/209 211/211/211 210/210/210
f 211/211/211 212/212/212 210/210/210
f 211/211/211 213/213/213 212/212/212
f 213/213/213 214/214/214 212/212/212
f 217/217/217 216/216/216 215/215/215
f 218/218/218 217/217/217 215/215/215
f 221/221/221 220/220/220 219/219/219
f 222/222/222 221/221/221 219/219/219
f 225/225/225 224/224/224 223/223/223
f 226/226/226 225/225/225 223/223/223
f 226/226/226 223/223/223 227/227/227
f 228/228/228 226/226/226 227/227/227
f 228/228/228 227/227/227 229/229/229
f 230/230/230 228/228/228 229/229/229
f 230/230/230 229/229/229 231/231/231
f 232/232/232 230/230/230 231/231/231
f 232/232/232 231/231/231 233/233/233
f 234/234/234 232/232/232 233/233/233
f 237/237/237 236/236/236 235/235/235
f 238/238/238 237/237/237 235/235/235
f 238/238/238 235/235/235 239/239/239
f 240/240/240 238/238/238 239/239/239
f 243/243/243 242/242/242 241/241/241
f 242/242/242 244/244/244 241/241/241
f 242/242/242 245/245/245 244/244/244
f 245/245/245 246/246/246 244/244/244
f 245/245/245 247/247/247 246/246/246
f 247/247/247 248/248/248 246/246/246
f 251/251/251 250/250/250 249/249/249
f 250/250/250 252/252/252 249/249/249
f 250/250/250 253/253/253 252/252/252
f 253/253/253 254/254/254 252/252/252
f 253/253/253 255/255/255 254/254/254
f 255/255/255 256/256/256 254/254/254
f 255/255/255 257/257/257 256/256/256
f 257/257/257 258/258/258 256/256/256
f 257/257/257 259/259/259 258/258/258
f 259/259/259 260/260/260 258/258/258
f 259/259/259 261/261/261 260/260/260
f 261/261/261 262/262/262 260/260/260
f 265/265/265 264/264/264 263/263/263
f 266/266/266 265/265/265 263/263/263
f 266/266/266 263/263/263 267/267/267
f 268/268/268 266/266/266 267/267/267
f 268/268/268 267/267/267 269/269/269
f 270/270/270 268/268/268 269/269/269
f 270/270/270 269/269/269 271/271/271
f 272/272/272 270/270/270 271/271/271
f 272/272/272 271/271/271 273/273/273
f 274/274/274 272/272/272 273/273/273
f 274/274/274 273/273/273 275/275/275
f 276/276/276 274/274/274 275/275/275
f 279/279/279 278/278/278 277/277/277
f 280/280/280 279/279/279 277/277/277
f 280/280/280 277/277/277 281/281/281
f 282/282/282 280/280/280 281/281/281
f 285/285/285 284/284/284 283/283/283
f 286/286/286 285/285/285 283/283/283
f 286/286/286 283/283/283 287/287/287
f 288/288/288 286/286/286 287/287/287
f 288/288/288 287/287/287 289/289/289
f 290/290/290 288/288/288 289/289/289
f 290/290/290 289/289/289 291/291/291
f 292/292/292 290/290/290 291/291/291
f 292/292/292 291/291/291 293/293/293
f 294/294/294 292/292/292 293/293/293
f 297/297/297 296/296/296 295/295/295
f 298/298/298 297/297/297 295/295/295
f 298/298/298 295/295/295 299/299/299
f 300/300/300 298/298/298 299/299/299
f 300/300/300 299/299/299 301/301/301
f 302/302/302 300/300/300 301/301/301
f 305/305/305 304/304/304 303/303/303
f 304/304/304 306/306/306 303/303/303
f 304/304/304 307/307/307 306/306/306
f 307/307/307 308/308/308 306/306/306
f 307/307/307 309/309/309 308/308/308
f 309/309/309 310/310/310 308/308/308
f 309/309/309 311/311/311 310/310/310
f 311/311/311 312/312/312 310/310/310
f 311/311/311 313/313/313 312/312/312
f 313/313/313 314/314/314 312/312/312
f 313/313/313 315/315/315 314/314/314
f 318/318/318 317/317/317 316/316/316
f 317/317/317 319/319/319 316/316/316
f 317/317/317 320/320/320 319/319/319
f 320/320/320 321/321/321 319/319/319
f 320/320/320 322/322/322 321/321/321
f 322/322/322 323/323/323 321/321/321
f 326/326/326 325/325/325 324/324/324
f 327/327/327 326/326/326 324/324/324
f 327/327/327 324/324/324 328/328/328
f 329/329/329 327/327/327 328/328/328
f 329/329/329 328/328/328 330/330/330
f 331/331/331 329/329/329 330/330/330
f 331/331/331 330/330/330 332/332/332
f 333/333/333 331/331/331 332/332/332
f 333/333/333 332/332/332 334/334/334
f 335/335/335 333/333/333 334/334/334
f 338/338/338 337/337/337 336/336/336
f 337/337/337 339/339/339 336/336/336
f 337/337/337 340/340/340 339/339/339
f 340/340/340 341/341/341 339/339/339
f 340/340/340 342/342/342 341/341/341
f 342/342/342 343/343/343 341/341/341
f 346/346/346 345/345/345 344/344/344
f 347/347/347 346/346/346 344/344/344
f 347/347/347 344/344/344 348/348/348
f 351/351/351 350/350/350 349/349/349
f 352/352/352 351/351/351 349/349/349
f 352/352/352 349/349/349 353/353/353
f 354/354/354 352/352/352 353/353/353
f 354/354/354 353/353/353 355/355/355
f 356/356/356 354/354/354 355/355/355
f 356/356/356 355/355/355 357/357/357
f 358/358/358 356/356/356 357/357/357
f 358/358/358 357/357/357 359/359/359
f 360/360/360 358/358/358 359/359/359
f 363/363/363 362/362/362 361/361/361
f 364/364/364 363/363/363 361/361/361
f 364/364/364 361/361/361 365/365/365
f 366/366/366 364/364/364 365/365/365
f 366/366/366 365/365/365 367/367/367
f 368/368/368 366/366/366 367/367/367
f 368/368/368 367/367/367 369/369/369
f 370/370/370 368/368/368 369/369/369
f 370/370/370 369/369/369 371/371/371
f 372/372/372 370/370/370 371/371/371
f 375/375/375 374/374/374 373/373/373
f 376/376/376 375/375/375 373/373/373
f 376/376/376 373/373/373 377/377/377
f 378/378/378 376/376/376 377/377/377
f 378/378/378 377/377/377 379/379/379
f 380/380/380 378/378/378 379/379/379
f 383/383/383 382/382/382 381/381/381
f 384/384/384 383/383/383 381/381/381
f 386/386/386 385/385/385 5/5/5
f 6/6/6 386/386/386 5/5/5
f 388/388/388 387/387/387 13/13/13
f 14/14/14 388/388/388 13/13/13
f 390/390/390 389/389/389 9/9/9
f 10/10/10 390/390/390 9/9/9
f 392/392/392 391/391/391 1/1/1
f 2/2/2 392/392/392 1/1/1
f 395/395/395 394/394/394 393/393/393
f 396/396/396 395/395/395 393/393/393
f 395/395/395 397/397/397 394/394/394
f 396/396/396 393/393/393 398/398/398
f 397/397/397 399/399/399 394/394/394
f 400/400/400 396/396/396 398/398/398
f 397/397/397 401/401/401 399/399/399
f 400/400/400 398/398/398 402/402/402
f 401/401/401 403/403/403 399/399/399
f 404/404/404 400/400/400 402/402/402
f 401/401/401 405/405/405 403/403/403
f 404/404/404 402/402/402 406/406/406
f 405/405/405 407/407/407 403/403/403
f 408/408/408 404/404/404 406/406/406
f 405/405/405 409/409/409 407/407/407
f 408/408/408 406/406/406 410/410/410
f 409/409/409 411/411/411 407/407/407
f 412/412/412 408/408/408 410/410/410
f 409/409/409 413/413/413 411/411/411
f 412/412/412 410/410/410 414/414/414
f 413/413/413 415/415/415 411/411/411
f 416/416/416 412/412/412 414/414/414
f 413/413/413 417/417/417 415/415/415
f 416/416/416 414/414/414 418/418/418
f 417/417/417 419/419/419 415/415/415
f 420/420/420 416/416/416 418/418/418
f 417/417/417 421/421/421 419/419/419
f 420/420/420 418/418/418 422/422/422
f 421/421/421 423/423/423 419/419/419
f 424/424/424 420/420/420 422/422/422
f 421/421/421 425/425/425 423/423/423
f 424/424/424 422/422/422 426/426/426
f 425/425/425 427/427/427 423/423/423
f 428/428/428 424/424/424 426/426/426
f 425/425/425 429/429/429 427/427/427
f 428/428/428 426/426/426 430/430/430
f 429/429/429 431/431/431 427/427/427
f 432/432/432 428/428/428 430/430/430
f 429/429/429 433/433/433 431/431/431
f 432/432/432 430/430/430 434/434/434
f 433/433/433 435/435/435 431/431/431
f 436/436/436 432/432/432 434/434/434
f 433/433/433 437/437/437 435/435/435
f 436/436/436 434/434/434 438/438/438
f 437/437/437 439/439/439 435/435/435
f 440/440/440 436/436/436 438/438/438
f 437/437/437 441/441/441 439/439/439
f 440/440/440 438/438/438 442/442/442
f 441/441/441 443/443/443 439/439/439
f 444/444/444 440/440/440 442/442/442
f 441/441/441 445/445/445 443/443/443
f 444/444/444 442/442/442 446/446/446
f 445/445/445 447/447/447 443/443/443
f 448/448/448 444/444/444 446/446/446
f 445/445/445 449/449/449 447/447/447
f 448/448/448 446/446/446 450/450/450
f 449/449/449 451/451/451 447/447/447
f 452/452/452 448/448/448 450/450/450
f 449/449/449 453/453/453 451/451/451
f 452/452/452 450/450/450 454/454/454
f 453/453/453 455/455/455 451/451/451
f 456/456/456 452/452/452 454/454/454
f 456/456/456 454/454/454 455/455/455
f 453/453/453 456/456/456 455/455/455
f 459/459/459 458/458/458 457/457/457
f 460/460/460 459/459/459 457/457/457
f 459/459/459 461/461/461 458/458/458
f 460/460/460 457/457/457 462/462/462
f 461/461/461 463/463/463 458/458/458
f 464/464/464 460/460/460 462/462/462
f 461/461/461 465/465/465 463/463/463
f 464/464/464 462/462/462 466/466/466
f 465/465/465 467/467/467 463/463/463
f 468/468/468 464/464/464 466/466/466
f 465/465/465 469/469/469 467/467/467
f 468/468/468 466/466/466 470/470/470
f 469/469/469 471/471/471 467/467/467
f 472/472/472 468/468/468 470/470/470
f 469/469/469 473/473/473 471/471/471
f 472/472/472 470/470/470 474/474/474
f 473/473/473 475/475/475 471/471/471
f 476/476/476 472/472/472 474/474/474
f 473/473/473 477/477/477 475/475/475
f 476/476/476 474/474/474 478/478/478
f 477/477/477 479/479/479 475/475/475
f 480/480/480 476/476/476 478/478/478
f 477/477/477 481/481/481 479/479/479
f 480/480/480 478/478/478 482/482/482
f 481/481/481 483/483/483 479/479/479
f 484/484/484 480/480/480 482/482/482
f 481/481/481 485/485/485 483/483/483
f 484/484/484 482/482/482 486/486/486
f 485/485/485 487/487/487 483/483/483
f 488/488/488 484/484/484 486/486/486
f 485/485/485 489/489/489 487/487/487
f 488/488/488 486/486/486 490/490/490
f 489/489/489 491/491/491 487/487/487
f 492/492/492 488/488/488 490/490/490
f 489/489/489 493/493/493 491/491/491
f 492/492/492 490/490/490 494/494/494
f 493/493/493 495/495/495 491/491/491
f 496/496/496 492/492/492 494/494/494
f 493/493/493 497/497/497 495/495/495
f 496/496/496 494/494/494 498/498/498
f 497/497/497 499/499/499 495/495/495
f 500/500/500 496/496/496 498/498/498
f 497/497/497 501/501/501 499/499/499
f 500/500/500 498/498/498 502/502/502
f 501/501/501 503/503/503 499/499/499
f 504/504/504 500/500/500 502/502/502
f 501/501/501 505/505/505 503/503/503
f 504/504/504 502/502/502 506/506/506
f 505/505/505 507/507/507 503/503/503
f 508/508/508 504/504/504 506/506/506
f 505/505/505 509/509/509 507/507/507
f 508/508/508 506/506/506 510/510/510
f 509/509/509 511/511/511 507/507/507
f 512/512/512 508/508/508 510/510/510
f 509/509/509 513/513/513 511/511/511
f 512/512/512 510/510/510 514/514/514
f 513/513/513 515/515/515 511/511/511
f 516/516/516 512/512/512 514/514/514
f 513/513/513 517/517/517 515/515/515
f 516/516/516 514/514/514 518/518/518
f 517/517/517 519/519/519 515/515/515
f 520/520/520 516/516/516 518/518/518
f 520/520/520 518/518/518 519/519/519
f 517/517/517 520/520/520 519/519/519
f 523/523/523 522/522/522 521/521/521
f 524/524/524 523/523/523 521/521/521
f 523/523/523 525/525/525 522/522/522
f 524/524/524 521/521/521 526/526/526
f 525/525/525 527/527/527 522/522/522
f 528/528/528 524/524/524 526/526/526
f 525/525/525 529/529/529 527/527/527
f 528/528/528 526/526/526 530/530/530
f 529/529/529 531/531/531 527/527/527
f 532/532/532 528/528/528 530/530/530
f 529/529/529 533/533/533 531/531/531
f 532/532/532 530/530/530 534/534/534
f 533/533/533 535/535/535 531/531/531
f 536/536/536 532/532/532 534/534/534
f 533/533/533 537/537/537 535/535/535
f 536/536/536 534/534/534 538/538/538
f 537/537/537 539/539/539 535/535/535
f 540/540/540 536/536/536 538/538/538
f 537/537/537 541/541/541 539/539/539
f 540/540/540 538/538/538 542/542/542
f 541/541/541 543/543/543 539/539/539
f 544/544/544 540/540/540 542/542/542
f 541/541/541 545/545/545 543/543/543
f 544/544/544 542/542/542 546/546/546
f 545/545/545 547/547/547 543/543/543
f 548/548/548 544/544/544 546/546/546
f 545/545/545 549/549/549 547/547/547
f 548/548/548 546/546/546 550/550/550
f 549/549/549 551/551/551 547/547/547
f 552/552/552 548/548/548 550/550/550
f 549/549/549 553/553/553 551/551/551
f 552/552/552 550/550/550 554/554/554
f 553/553/553 555/555/555 551/551/551
f 556/556/556 552/552/552 554/554/554
f 553/553/553 557/557/557 555/555/555
f 556/556/556 554/554/554 558/558/558
f 557/557/557 559/559/559 555/555/555
f 560/560/560 556/556/556 558/558/558
f 557/557/557 561/561/561 559/559/559
f 560/560/560 558/558/558 562/562/562
f 561/561/561 563/563/563 559/559/559
f 564/564/564 560/560/560 562/562/562
f 561/561/561 565/565/565 563/563/563
f 564/564/564 562/562/562 566/566/566
f 565/565/565 567/567/567 563/563/563
f 568/568/568 564/564/564 566/566/566
f 565/565/565 569/569/569 567/567/567
f 568/568/568 566/566/566 570/570/570
f 569/569/569 571/571/571 567/567/567
f 572/572/572 568/568/568 570/570/570
f 569/569/569 573/573/573 571/571/571
f 572/572/572 570/570/570 574/574/574
f 573/573/573 575/575/575 571/571/571
f 576/576/576 572/572/572 574/574/574
f 573/573/573 577/577/577 575/575/575
f 576/576/576 574/574/574 578/578/578
f 577/577/577 579/579/579 575/575/575
f 580/580/580 576/576/576 578/578/578
f 577/577/577 581/581/581 579/579/579
f 580/580/580 578/578/578 582/582/582
f 581/581/581 583/583/583 579/579/579
f 584/584/584 580/580/580 582/582/582
f 584/584/584 582/582/582 583/583/583
f 581/581/581 584/584/584 583/583/583
f 45/45/45 586/586/586 585/585/585
f 43/43/43 45/45/45 585/585/585
f 45/45/45 47/47/47 586/586/586
f 43/43/43 585/585/585 587/587/587
f 47/47/47 588/588/588 586/586/586
f 41/41/41 43/43/43 587/587/587
f 47/47/47 49/49/49 588/588/588
f 41/41/41 587/587/587 589/589/589
f 49/49/49 590/590/590 588/588/588
f 39/39/39 41/41/41 589/589/589
f 49/49/49 51/51/51 590/590/590
f 39/39/39 589/589/589 591/591/591
f 51/51/51 592/592/592 590/590/590
f 37/37/37 39/39/39 591/591/591
f 51/51/51 53/53/53 592/592/592
f 37/37/37 591/591/591 593/593/593
f 53/53/53 594/594/594 592/592/592
f 35/35/35 37/37/37 593/593/593
f 53/53/53 54/54/54 594/594/594
f 35/35/35 593/593/593 595/595/595
f 54/54/54 596/596/596 594/594/594
f 33/33/33 35/35/35 595/595/595
f 54/54/54 52/52/52 596/596/596
f 33/33/33 595/595/595 597/597/597
f 52/52/52 598/598/598 596/596/596
f 31/31/31 33/33/33 597/597/597
f 52/52/52 50/50/50 598/598/598
f 31/31/31 597/597/597 599/599/599
f 50/50/50 600/600/600 598/598/598
f 29/29/29 31/31/31 599/599/599
f 50/50/50 48/48/48 600/600/600
f 29/29/29 599/599/599 601/601/601
f 48/48/48 602/602/602 600/600/600
f 27/27/27 29/29/29 601/601/601
f 48/48/48 46/46/46 602/602/602
f 27/27/27 601/601/601 603/603/603
f 46/46/46 604/604/604 602/602/602
f 25/25/25 27/27/27 603/603/603
f 46/46/46 44/44/44 604/604/604
f 25/25/25 603/603/603 605/605/605
f 44/44/44 606/606/606 604/604/604
f 24/24/24 25/25/25 605/605/605
f 44/44/44 42/42/42 606/606/606
f 24/24/24 605/605/605 607/607/607
f 42/42/42 608/608/608 606/606/606
f 23/23/23 24/24/24 607/607/607
f 42/42/42 40/40/40 608/608/608
f 23/23/23 607/607/607 609/609/609
f 40/40/40 610/610/610 608/608/608
f 26/26/26 23/23/23 609/609/609
f 40/40/40 38/38/38 610/610/610
f 26/26/26 609/609/609 611/611/611
f 38/38/38 612/612/612 610/610/610
f 28/28/28 26/26/26 611/611/611
f 38/38/38 36/36/36 612/612/612
f 28/28/28 611/611/611 613/613/613
f 36/36/36 614/614/614 612/612/612
f 30/30/30 28/28/28 613/613/613
f 36/36/36 34/34/34 614/614/614
f 30/30/30 613/613/613 615/615/615
f 34/34/34 616/616/616 614/614/614
f 32/32/32 30/30/30 615/615/615
f 32/32/32 615/615/615 616/616/616
f 34/34/34 32/32/32 616/616/616
f 77/77/77 618/618/618 617/617/617
f 75/75/75 77/77/77 617/617/617
f 77/77/77 79/79/79 618/618/618
f 75/75/75 617/617/617 619/619/619
f 79/79/79 620/620/620 618/618/618
f 73/73/73 75/75/75 619/619/619
f 79/79/79 81/81/81 620/620/620
f 73/73/73 619/619/619 621/621/621
f 81/81/81 622/622/622 620/620/620
f 71/71/71 73/73/73 621/621/621
f 81/81/81 83/83/83 622/622/622
f 71/71/71 621/621/621 623/623/623
f 83/83/83 624/624/624 622/622/622
f 69/69/69 71/71/71 623/623/623
f 83/83/83 85/85/85 624/624/624
f 69/69/69 623/623/623 625/625/625
f 85/85/85 626/626/626 624/624/624
f 67/67/67 69/69/69 625/625/625
f 85/85/85 86/86/86 626/626/626
f 67/67/67 625/625/625 627/627/627
f 86/86/86 628/628/628 626/626/626
f 65/65/65 67/67/67 627/627/627
f 86/86/86 84/84/84 628/628/628
f 65/65/65 627/627/627 629/629/629
f 84/84/84 630/630/630 628/628/628
f 63/63/63 65/65/65 629/629/629
f 84/84/84 82/82/82 630/630/630
f 63/63/63 629/629/629 631/631/631
f 82/82/82 632/632/632 630/630/630
f 61/61/61 63/63/63 631/631/631
f 82/82/82 80/80/80 632/632/632
f 61/61/61 631/631/631 633/633/633
f 80/80/80 634/634/634 632/632/632
f 59/59/59 61/61/61 633/633/633
f 80/80/80 78/78/78 634/634/634
f 59/59/59 633/633/633 635/635/635
f 78/78/78 636/636/636 634/634/634
f 57/57/57 59/59/59 635/635/635
f 78/78/78 76/76/76 636/636/636
f 57/57/57 635/635/635 637/637/637
f 76/76/76 638/638/638 636/636/636
f 56/56/56 57/57/57 637/637/637
f 76/76/76 74/74/74 638/638/638
f 56/56/56 637/637/637 639/639/639
f 74/74/74 640/640/640 638/638/638
f 55/55/55 56/56/56 639/639/639
f 74/74/74 72/72/72 640/640/640
f 55/55/55 639/639/639 641/641/641
f 72/72/72 642/642/642 640/640/640
f 58/58/58 55/55/55 641/641/641
f 72/72/72 70/70/70 642/642/642
f 58/58/58 641/641/641 643/643/643
f 70/70/70 644/644/644 642/642/642
f 60/60/60 58/58/58 643/643/643
f 70/70/70 68/68/68 644/644/644
f 60/60/60 643/643/643 645/645/645
f 68/68/68 646/646/646 644/644/644
f 62/62/62 60/60/60 645/645/645
f 68/68/68 66/66/66 646/646/646
f 62/62/62 645/645/645 647/647/647
f 66/66/66 648/648/648 646/646/646
f 64/64/64 62/62/62 647/647/647
f 64/64/64 647/647/647 648/648/648
f 66/66/66 64/64/64 648/648/648
f 109/109/109 650/650/650 649/649/649
f 107/107/107 109/109/109 649/649/649
f 109/109/109 111/111/111 650/650/650
f 107/107/107 649/649/649 651/651/651
f 111/111/111 652/652/652 650/650/650
f 105/105/105 107/107/107 651/651/651
f 111/111/111 113/113/113 652/652/652
f 105/105/105 651/651/651 653/653/653
f 113/113/113 654/654/654 652/652/652
f 103/103/103 105/105/105 653/653/653
f 113/113/113 115/115/115 654/654/654
f 103/103/103 653/653/653 655/655/655
f 115/115/115 656/656/656 654/654/654
f 101/101/101 103/103/103 655/655/655
f 115/115/115 117/117/117 656/656/656
f 101/101/101 655/655/655 657/657/657
f 117/117/117 658/658/658 656/656/656
f 99/99/99 101/101/101 657/657/657
f 117/117/117 118/118/118 658/658/658
f 99/99/99 657/657/657 659/659/659
f 118/118/118 660/660/660 658/658/658
f 97/97/97 99/99/99 659/659/659
f 118/118/118 116/116/116 660/660/660
f 97/97/97 659/659/659 661/661/661
f 116/116/116 662/662/662 660/660/660
f 95/95/95 97/97/97 661/661/661
f 116/116/116 114/114/114 662/662/662
f 95/95/95 661/661/661 663/663/663
f 114/114/114 664/664/664 662/662/662
f 93/93/93 95/95/95 663/663/663
f 114/114/114 112/112/112 664/664/664
f 93/93/93 663/663/663 665/665/665
f 112/112/112 666/666/666 664/664/664
f 91/91/91 93/93/93 665/665/665
f 112/112/112 110/110/110 666/666/666
f 91/91/91 665/665/665 667/667/667
f 110/110/110 668/668/668 666/666/666
f 89/89/89 91/91/91 667/667/667
f 110/110/110 108/108/108 668/668/668
f 89/89/89 667/667/667 669/669/669
f 108/108/108 670/670/670 668/668/668
f 88/88/88 89/89/89 669/669/669
f 108/108/108 106/106/106 670/670/670
f 88/88/88 669/669/669 671/671/671
f 106/106/106 672/672/672 670/670/670
f 87/87/87 88/88/88 671/671/671
f 106/106/106 104/104/104 672/672/672
f 87/87/87 671/671/671 673/673/673
f 104/104/104 674/674/674 672/672/672
f 90/90/90 87/87/87 673/673/673
f 104/104/104 102/102/102 674/674/674
f 90/90/90 673/673/673 675/675/675
f 102/102/102 676/676/676 674/674/674
f 92/92/92 90/90/90 675/675/675
f 102/102/102 100/100/100 676/676/676
f 92/92/92 675/675/675 677/677/677
f 100/100/100 678/678/678 676/676/676
f 94/94/94 92/92/92 677/677/677
f 100/100/100 98/98/98 678/678/678
f 94/94/94 677/677/677 679/679/679
f 98/98/98 680/680/680 678/678/678
f 96/96/96 94/94/94 679/679/679
f 96/96/96 679/679/679 680/680/680
f 98/98/98 96/96/96 680/680/680
