g stars
v -0.00589178549 0.0182361621 0.000307524781
v -0.00595912337 0.0182356425 0.000288981188
v -0.00607849704 0.01823451 0.000308037997
v -0.00587972766 0.0182359833 0.00037632286
v -0.00630677817 0.0182320662 0.000410976994
v -0.00591004966 0.0182352327 0.000493346422
v -0.00628801668 0.0182327274 0.000291551347
v -0.00618042098 0.0182338785 0.000243033166
v -0.00624957541 0.0182333067 0.000233238927
v -0.00640009018 0.0182309244 0.000487827056
v -0.0064307726 0.0182303917 0.000550572237
v -0.00585503317 0.0182352737 0.000600993633
v -0.00638719182 0.0182305519 0.000605154608
v -0.00585185876 0.0182350129 0.000670767389
v -0.00627941452 0.0182312801 0.000659905083
v -0.0060342229 0.0182332341 0.000710811582
v -0.00591356028 0.0182343312 0.000703491562
v -0.00623516086 0.0182312056 0.000772402273
v -0.00611959444 0.0182321258 0.000796396111
v -0.0061849677 0.0182314496 0.000820975285
v -0.00417395541 0.0182352141 0.000143865342
v -0.00422090245 0.0182348657 0.000141835204
v -0.00429631537 0.0182341021 0.000172290209
v -0.0041556987 0.0182350948 0.00018716573
v -0.0044361921 0.0182329025 0.000192999243
v -0.00415797811 0.0182345882 0.000268467673
v -0.00441975566 0.0182332918 0.00014897644
v -0.00437293388 0.0182336774 0.00014499604
v -0.00443052826 0.0182324573 0.000274136662
v -0.00410570577 0.0182346143 0.000330781331
v -0.00448015751 0.0182316899 0.000338568672
v -0.00409312826 0.0182344411 0.000376059412
v -0.00449083745 0.0182313323 0.000384330138
v -0.00412866659 0.0182339828 0.000406800507
v -0.00445404835 0.0182314385 0.00041356741
v -0.00420669047 0.0182332434 0.000429753069
v -0.00437513553 0.0182319283 0.000433257199
v -0.00424979907 0.0182324983 0.000498719222
v -0.00432919245 0.0182318781 0.000500370224
v -0.00428897096 0.018232042 0.000524672272
v 0.000498583307 0.0128049171 0.00317748985
v 0.000504183176 0.0128494725 0.00317711756
v 0.000481064315 0.0129236802 0.00317669287
v 0.000455913541 0.01279091 0.00317785796
v 0.000472260115 0.0130585274 0.00317571964
v 0.000512906874 0.0130394325 0.00317561673
v 0.000513042789 0.0129945241 0.00317595899
v 0.000394538627 0.0130594736 0.00317618717
v 0.000378653407 0.0127994381 0.00317826401
v 0.000337043399 0.0131117851 0.00317613943
v 0.000315219164 0.0127545195 0.00317899231
v 0.000294290774 0.0131255351 0.0031762959
v 0.000271110534 0.0127460798 0.00317932665
v 0.000263570546 0.0130927814 0.00317673129
v 0.000244604336 0.0127823334 0.00317921164
v 0.000238654015 0.0130191548 0.00317744422
v 0.000228836536 0.0128584467 0.00317872874
v 0.000171140433 0.0129806437 0.00317814946
v 0.000166512124 0.0129048955 0.00317875505
v 0.000144853591 0.0129442364 0.00317858788
v -6.28834969E-05 0.0110489009 0.00317780254
v -2.97361603E-05 0.0110688899 0.00317748543
v -3.36188059E-05 0.0111074001 0.00317716412
v -6.73431132E-05 0.0111652911 0.00317679788
v -0.000129433276 0.0110411765 0.00317815295
v -0.000100727673 0.0112768766 0.00317595946
v -6.28989947E-05 0.0112686669 0.00317587098
v -5.41293593E-05 0.0112309642 0.00317616551
v -0.000166204569 0.0112626944 0.00317636179
v -0.000174068802 0.0109912157 0.0031787816
v -0.000224587318 0.011295557 0.00317632104
v -0.000209497812 0.0109756254 0.00317906821
v -0.000238752356 0.0110009741 0.00317897019
v -0.000263153896 0.0112988697 0.00317645655
v -0.000266668183 0.0110618733 0.00317855389
v -0.000282649387 0.0112654306 0.00317683164
v -0.000289393065 0.0111987777 0.00317744608
v -0.000327979331 0.0110888844 0.00317857531
v -0.000338687882 0.011153413 0.00317805493
v -0.000353757729 0.011117761 0.00317843189
v 0.00550151058 0.0110512758 0.00317985029
v 0.00552089559 0.0108986981 0.00317908404
v 0.00552380132 0.0109982332 0.00317970267
v 0.00546102645 0.0107013034 0.00317743863
v 0.00544403354 0.0110538304 0.00317942165
v 0.0055565862 0.0107292915 0.00317834201
v 0.00558480667 0.0108223325 0.00317911757
v 0.00560014136 0.0107668806 0.0031789036
v 0.00540814968 0.0106169246 0.00317652477
v 0.00535165891 0.0110166492 0.00317848893
v 0.00536015397 0.0105852056 0.00317596737
v 0.00531094288 0.0106150135 0.00317576691
v 0.00525789242 0.011050174 0.00317796855
v 0.00525478693 0.0106972512 0.00317582814
v 0.00520056067 0.0110453647 0.00317749707
v 0.00518719433 0.0108921481 0.00317647634
v 0.00518037565 0.0109914923 0.00317701977
v 0.00515819853 0.0107214674 0.00317522907
v 0.00512634031 0.0108133294 0.00317553547
v 0.00511319842 0.010757315 0.00317509728
v 0.00362258218 0.00644762721 0.00317679672
v 0.00359452935 0.00638679368 0.00317616435
v 0.00359433843 0.00634809025 0.00317586982
v 0.00362924323 0.006331346 0.00317595806
v 0.00364517164 0.00656189211 0.00317780138
v 0.00369623024 0.00632998673 0.00317636062
v 0.00360829709 0.00655011507 0.00317748426
v 0.00360316318 0.00651175343 0.00317716296
v 0.00371170859 0.00655400241 0.00317815179
v 0.00374542829 0.00628450373 0.00317631988
v 0.00376669434 0.00659227604 0.0031787802
v 0.00378218433 0.00627235509 0.00317645515
v 0.003804771 0.00659924233 0.00317906705
v 0.00380888861 0.006300373 0.00317683024
v 0.00382736907 0.00656781299 0.00317896856
v 0.00383087201 0.00636365404 0.00317744492
v 0.00384043832 0.00650210353 0.00317855226
v 0.00388932903 0.00639637932 0.00317805377
v 0.00389383873 0.0064616357 0.00317857414
v 0.00391223794 0.0064275763 0.00317843072
v 0.000882228604 0.00671716314 0.00318695861
v 0.000796773413 0.00695386156 0.00318695838
v 0.000700649631 0.00703805313 0.00318695861
v 0.000717800867 0.00686309813 0.00318695861
v 0.000898917904 0.00656973571 0.00318695861
v 0.000695880619 0.00672989246 0.00318695861
v 0.000864947448 0.00628733635 0.00318695861
v 0.000642901636 0.00659269327 0.00318695861
v 0.000536711188 0.00645631179 0.00318695838
v 0.000720511656 0.0061256513 0.00318695838
v 0.000387785432 0.00638744934 0.00318695838
v 0.000494626758 0.00602370733 0.00318695838
v 0.000216847053 0.0063515841 0.00318695838
v 0.000285994407 0.00599932903 0.00318695838
v 3.64780426E-05 0.00637135468 0.00318695838
v 7.72958956E-05 0.00603706343 0.00318695814
v -9.64111096E-05 0.00641067745 0.00318695814
v -0.000120359655 0.00614347542 0.00318695814
v -0.000259453052 0.00631963834 0.00318695814
v -0.00016331255 0.00646569114 0.00318695814
v -0.000317785132 0.00650547491 0.00318695814
v -0.000308256742 0.0066632675 0.00318695814
v 0.00479803607 0.0114979334 0.00318696024
v 0.00496217562 0.0116886832 0.00318695954
v 0.00498825638 0.0118137738 0.00318695977
v 0.00484431814 0.0117128529 0.00318695977
v 0.00467784191 0.0114109414 0.00318696024
v 0.00471753534 0.0116664767 0.00318696024
v 0.00441520661 0.0113017391 0.00318695977
v 0.00457201293 0.0116451876 0.00318696024
v 0.00440104911 0.0116706425 0.00318695977
v 0.00420341175 0.011348065 0.00318695977
v 0.00426788721 0.0117664989 0.00318695977
v 0.00400361279 0.011494685 0.00318695977
v 0.0041526393 0.0118977409 0.00318695977
v 0.00387984747 0.0116644027 0.00318695977
v 0.00408121385 0.0120645417 0.00318695977
v 0.00381014217 0.0118647022 0.00318695977
v 0.00405015005 0.0121996002 0.00318695954
v 0.00380567671 0.0120891389 0.00318695954
v 0.00389073603 0.0122968517 0.00318695954
v 0.00406518159 0.0122849019 0.00318695977
v 0.00402391283 0.0124389846 0.00318695977
v 0.00416601682 0.0125082359 0.00318695954
v -0.00504583353 0.0182350967 0.000831634388
v -0.00507053593 0.0182352159 0.000791586004
v -0.00511730323 0.0182348657 0.000796773995
v -0.00518725719 0.0182341021 0.00083846983
v -0.00503562577 0.0182345882 0.000912432675
v -0.00532249082 0.0182329006 0.00088040228
v -0.0053129755 0.0182332918 0.000834321952
v -0.00526725501 0.0182336774 0.000823206268
v -0.0053044511 0.0182324573 0.000959820754
v -0.00497435033 0.018234618 0.00096608157
v -0.005343684 0.0182316881 0.00103118597
v -0.00495496346 0.0182344411 0.00100895646
v -0.00498541677 0.0182339828 0.00104482286
v -0.00534723746 0.0182313304 0.00107810495
v -0.00505910628 0.0182332434 0.00107949553
v -0.00530635333 0.0182314366 0.00110139605
v -0.00522524724 0.0182319265 0.00110878283
v -0.00509119034 0.0182324983 0.00115434639
v -0.00516949873 0.0182318762 0.00116815022
v -0.00512597291 0.0182320401 0.00118603162
v -0.00655054208 0.0182332825 -0.000382392987
v -0.00647544954 0.0182337705 -0.000393736962
v -0.00652462011 0.0182335135 -0.000394013507
v -0.00637730351 0.0182340648 -0.000366479158
v -0.00655113207 0.0182330459 -0.000353990181
v -0.0063922368 0.0182343703 -0.000413327216
v -0.00643849839 0.0182342306 -0.000426173792
v -0.0064113019 0.0182344429 -0.000434390298
v -0.00633503404 0.0182340816 -0.000341357576
v -0.00653169956 0.0182327759 -0.000308821793
v -0.00631881459 0.0182339754 -0.000318033097
v -0.00633295625 0.0182336997 -0.000293394929
v -0.006547153 0.0182323121 -0.000262144196
v -0.00637289649 0.0182332527 -0.000264717324
v -0.00638372544 0.0182328019 -0.000216754081
v -0.00646831747 0.0182324573 -0.000229083293
v -0.00654410943 0.0182320978 -0.000233899351
v -0.00651727896 0.0182321612 -0.000224561692
v -0.00642869808 0.0182324257 -0.000199959875
v -0.00640089484 0.0182325263 -0.000194124572
v -0.00286679342 0.0182343703 0.000260483619
v -0.00288143125 0.0182344429 0.000236133928
v -0.00290970178 0.0182342306 0.000238941313
v -0.00295222364 0.0182337705 0.000263627764
v -0.00286119315 0.0182340648 0.000309334398
v -0.00303415861 0.0182330459 0.000288004259
v -0.00302809314 0.0182332825 0.000260249974
v -0.003000414 0.0182335135 0.000253856764
v -0.00302381953 0.0182327759 0.000336076017
v -0.00282457424 0.0182340816 0.000342149142
v -0.00304799993 0.0182323121 0.000378888828
v -0.00281316601 0.0182339754 0.000368167763
v -0.00283180084 0.0182336979 0.000389609922
v -0.00305047119 0.0182320978 0.000407189131
v -0.00287652924 0.0182332527 0.000410031062
v -0.00302594993 0.0182321612 0.000421534758
v -0.0029770371 0.0182324573 0.000426558254
v -0.00289642182 0.0182328001 0.000454997993
v -0.00294379191 0.0182324257 0.000462787139
v -0.00291763875 0.0182325244 0.000473883731
v -0.00281034899 0.0182340648 -0.00138472253
v -0.00276240637 0.0182343703 -0.00137380662
v -0.00273458054 0.0182344429 -0.00137953996
v -0.0027278536 0.0182342306 -0.00140714284
v -0.00289583043 0.0182336997 -0.00138361508
v -0.00285345153 0.0182340816 -0.00136105774
v -0.0028817805 0.0182339754 -0.00135892385
v -0.0029002626 0.0182332527 -0.00143258448
v -0.00273704156 0.0182337705 -0.00145544461
v -0.00293608871 0.0182328019 -0.00146626285
v -0.00294686877 0.0182325263 -0.00149254256
v -0.00271184254 0.0182335135 -0.00149766798
v -0.0029277273 0.0182324257 -0.00151353597
v -0.0027086949 0.0182332825 -0.00152590091
v -0.00288252323 0.0182324573 -0.00153288536
v -0.00273286761 0.0182330459 -0.00154082768
v -0.00278164749 0.0182327759 -0.00154701469
v -0.00286156381 0.0182321612 -0.00157736475
v -0.0028140184 0.0182323121 -0.00158402498
v -0.00283989753 0.0182320978 -0.00159574149
v 0.000317311293 0.0120930849 0.00317586958
v 0.000328758935 0.0119901067 0.00317679835
v 0.000331766612 0.0120571237 0.00317616435
v 0.000286346069 0.0118577741 0.00317815365
v 0.000278621301 0.0120954094 0.00317595806
v 0.00035101414 0.0118756192 0.00317780394
v 0.000371003145 0.0119379926 0.00317716389
v 0.000380749698 0.0119004771 0.00317748566
v 0.000249837642 0.0118014961 0.00317878299
v 0.00021600246 0.0120713385 0.00317636156
v 0.000217169523 0.0117806364 0.00317907054
v 0.000184336299 0.0118012326 0.00317897252
v 0.000153195855 0.0120949065 0.00317632011
v 0.000147377243 0.0118572181 0.00317855412
v 0.000114524359 0.0120922746 0.00317645492
v 0.000103902217 0.0119892107 0.00317744655
v 0.000100359321 0.012056197 0.00317683187
v 8.25685274E-05 0.0118745482 0.00317857764
v 6.20770443E-05 0.0119367605 0.0031780554
v 5.26332842E-05 0.0118991714 0.00317843258
v 0.00172324479 0.0114340065 0.00317766797
v 0.00173816737 0.0114520295 0.00317747728
v 0.00172826403 0.0114732301 0.0031772831
v 0.00169745972 0.0114995325 0.00317706098
v 0.00168681203 0.0114163077 0.00317788008
v 0.00169188378 0.0115396474 0.00317667844
v 0.0016793519 0.0115594072 0.00317650172
v 0.00167131773 0.0113788862 0.00317825912
v 0.00165612751 0.0115565397 0.00317655457
v 0.00165421423 0.0113629159 0.00317843398
v 0.00162159558 0.0115353735 0.00317679811
v 0.00163245853 0.0113715371 0.00317837298
v 0.00160436751 0.0114007164 0.00317812175
v 0.00158171833 0.0115424693 0.00317677273
v 0.00156398886 0.0114038885 0.00317813549
v 0.0015640622 0.011474303 0.00317745283
v 0.00155905122 0.0115366559 0.00317685516
v 0.00155460113 0.0115136858 0.00317708193
v 0.00154499174 0.0114385718 0.00317782117
v 0.00154351234 0.011415218 0.00317804888
v -0.00113551202 0.0107611595 0.00317650125
v -0.00112931314 0.0106989108 0.00317706098
v -0.00112703384 0.0107393498 0.00317667797
v -0.00115583953 0.0106193144 0.00317788008
v -0.00115885376 0.0107628321 0.00317655434
v -0.00111667451 0.010629639 0.00317766774
v -0.00110417244 0.0106671555 0.00317728263
v -0.00109854992 0.0106444424 0.00317747728
v -0.00117827288 0.0105855931 0.00317825866
v -0.00119682425 0.0107487356 0.00317679788
v -0.00119813916 0.0105732251 0.00317843375
v -0.00123457843 0.0107634002 0.0031767725
v -0.00121781998 0.0105858883 0.00317837298
v -0.00123974145 0.0106199402 0.00317812129
v -0.00125794346 0.0107620759 0.00317685399
v -0.00126507157 0.0106999297 0.00317745283
v -0.00126674469 0.0107403975 0.00317708077
v -0.00127874734 0.0106308563 0.00317813503
v -0.0012906855 0.0106685553 0.00317782001
v -0.00129664957 0.0106459297 0.00317804865
v -0.000561980007 0.0092047127 0.00317650032
v -0.000552657235 0.00922617503 0.00317655341
v -0.000553358754 0.00926665775 0.00317679695
v -0.000576755381 0.00934720878 0.00317745283
v -0.000585366448 0.00920394715 0.00317667704
v -0.000538024295 0.00933537353 0.00317708077
v -0.000526997435 0.00929740909 0.00317677134
v -0.000520492787 0.00931988005 0.00317685399
v -0.000597854261 0.00938176829 0.00317782047
v -0.000622757652 0.0092195021 0.00317706005
v -0.000617223384 0.00939489063 0.00317804841
v -0.0006373793 0.00938300602 0.00317813479
v -0.000661053637 0.0092063155 0.00317728217
v -0.00066061673 0.00934983324 0.00317812082
v -0.000700015982 0.00934044179 0.00317837205
v -0.000689044595 0.00927090459 0.00317787915
v -0.000684348925 0.00920854416 0.00317747635
v -0.000692297821 0.009230542 0.0031776668
v -0.000713413348 0.00930324011 0.00317825819
v -0.000718489871 0.00932607986 0.00317843282
v 0.0033181468 0.00572708342 0.00317805377
v 0.00333603472 0.00576146366 0.00317843072
v 0.00331260473 0.00579234958 0.00317857577
v 0.00326531311 0.00568574667 0.00317744492
v 0.00325355423 0.00582421757 0.00317855226
v 0.00325325876 0.0056197606 0.00317683001
v 0.00323054893 0.00588724017 0.00317897066
v 0.00323112798 0.00558794616 0.00317645306
v 0.00319288834 0.00559434062 0.00317631825
v 0.00320336712 0.00591488089 0.00317906868
v 0.0031667517 0.00590215437 0.00317878113
v 0.00313722785 0.00563181844 0.00317635969
v 0.00311820162 0.00585586531 0.00317815179
v 0.00307072257 0.00562290894 0.0031759562
v 0.00305114407 0.00585348718 0.00317780208
v 0.00304630236 0.00573696382 0.00317679672
v 0.0030164551 0.00583619811 0.00317748426
v 0.0030172558 0.00579744438 0.00317716203
v 0.0030336096 0.00563413603 0.00317586772
v 0.00302786683 0.00567246648 0.00317616249
v 0.00195372663 0.00646380428 0.00317685353
v 0.0019633912 0.00648508407 0.0031770803
v 0.00196331413 0.00652556634 0.00317745144
v 0.00194113131 0.00660648569 0.00317812013
v 0.00193029759 0.00646344991 0.0031767711
v 0.00197972264 0.00659397803 0.00317813386
v 0.00199017883 0.00655583711 0.00317781977
v 0.00199703593 0.00657819025 0.00317804748
v 0.00192054117 0.00664139865 0.00317837135
v 0.00189309707 0.00647966983 0.00317679672
v 0.00190135208 0.00665485719 0.00317843258
v 0.00188098371 0.00664333347 0.0031782575
v 0.00185454066 0.00646718964 0.00317655317
v 0.00185720564 0.00661060214 0.00317787845
v 0.00181759836 0.00660193898 0.00317766657
v 0.00182750693 0.00653225277 0.00317705958
v 0.00183124363 0.00646984205 0.00317650009
v 0.00182362436 0.00649197586 0.00317667681
v 0.00180359778 0.0065650153 0.00317728147
v 0.00179887167 0.00658792723 0.00317747588
v 0.00492769945 0.00664779544 0.00317781908
v 0.00493873656 0.00666842936 0.00317804771
v 0.00492480583 0.00668723462 0.00317813409
v 0.00489552086 0.00662319781 0.0031774519
v 0.00488938298 0.00670687761 0.00317812059
v 0.00488778576 0.00658344012 0.00317707984
v 0.00487593375 0.00674508093 0.00317837182
v 0.00487420661 0.00656438572 0.00317685306
v 0.00485971617 0.0067619537 0.00317843258
v 0.00485117082 0.00656850543 0.00317677134
v 0.00483752647 0.00675451988 0.00317825796
v 0.0048178318 0.00659150817 0.00317679695
v 0.0048079011 0.00672690244 0.00317787868
v 0.00477762986 0.00658658007 0.00317655341
v 0.00476740953 0.00672591897 0.00317766657
v 0.00476368051 0.00665560225 0.00317706005
v 0.00474635232 0.00671571121 0.00317747612
v 0.00474656653 0.00669231173 0.00317728193
v 0.00475530792 0.00659360737 0.00317650032
v 0.00475210603 0.00661678798 0.00317667704
v 0.00468156673 0.00808637962 0.00317843258
v 0.00468191039 0.00810978003 0.00317825796
v 0.0046656793 0.00814688858 0.00317787868
v 0.00466027018 0.00807667803 0.00317837182
v 0.00465338444 0.00821622089 0.00317728193
v 0.00461976742 0.00807665661 0.00317812059
v 0.00467553316 0.00820866227 0.00317747612
v 0.00467817951 0.00818541273 0.00317766657
v 0.00461307634 0.00821225159 0.00317705981
v 0.0045894892 0.00804975722 0.00317813456
v 0.00458029658 0.00823604222 0.00317667681
v 0.00456712907 0.00804285239 0.00317804795
v 0.00455736648 0.00824070908 0.00317650009
v 0.00455131987 0.00806010608 0.00317782001
v 0.00454333471 0.00822198018 0.00317655317
v 0.00453878753 0.00809861999 0.0031774526
v 0.00453465339 0.00818241946 0.00317679672
v 0.00450384431 0.00811909884 0.0031770803
v 0.00450189551 0.0081585953 0.0031767711
v 0.00449037086 0.00813823193 0.00317685353
vt 0.592773438 0.461425781
vt 0.59765625 0.394287109
vt 0.552246094 0.28515625
vt 0.524414062 0.486328125
vt 0.396972656 0.0897216797
vt 0.396972656 0.480712891
vt 0.524414062 0.0840454102
vt 0.59765625 0.176147461
vt 0.592773438 0.108947754
vt 0.297851562 0.0166778564
vt 0.22644043 0
vt 0.297851562 0.553710938
vt 0.179443359 0.0518798828
vt 0.22644043 0.5703125
vt 0.145996094 0.164428711
vt 0.145996094 0.406005859
vt 0.179443359 0.518554688
vt 0.0393676758 0.228271484
vt 0.0393676758 0.342041016
vt 0 0.28515625
vt 0.99609375 0.694824219
vt 0.999511719 0.649414062
vt 0.969238281 0.576171875
vt 0.950195312 0.711425781
vt 0.950195312 0.440917969
vt 0.864746094 0.707519531
vt 0.99609375 0.457519531
vt 0.999511719 0.502929688
vt 0.864746094 0.444580078
vt 0.797851562 0.756835938
vt 0.797851562 0.395507812
vt 0.75 0.768066406
vt 0.75 0.384277344
vt 0.718261719 0.732910156
vt 0.718261719 0.419189453
vt 0.695800781 0.657226562
vt 0.695800781 0.494873047
vt 0.624023438 0.614257812
vt 0.624023438 0.537597656
vt 0.59765625 0.576171875
vt 0.592773438 0.108947754
vt 0.524414062 0.0840454102
vt 0.396972656 0.0897216797
vt 0.59765625 0.176147461
vt 0.179443359 0.0518798828
vt 0.22644043 0
vt 0.297851562 0.0166778564
vt 0.145996094 0.164428711
vt 0.552246094 0.28515625
vt 0.0393676758 0.228271484
vt 0.59765625 0.394287109
vt 0 0.28515625
vt 0.592773438 0.461425781
vt 0.0393676758 0.342041016
vt 0.524414062 0.486328125
vt 0.145996094 0.406005859
vt 0.396972656 0.480712891
vt 0.179443359 0.518554688
vt 0.297851562 0.553710938
vt 0.22644043 0.5703125
vt 0.999511719 0.502929688
vt 0.99609375 0.457519531
vt 0.950195312 0.440917969
vt 0.864746094 0.444580078
vt 0.969238281 0.576171875
vt 0.718261719 0.419189453
vt 0.75 0.384277344
vt 0.797851562 0.395507812
vt 0.695800781 0.494873047
vt 0.999511719 0.649414062
vt 0.624023438 0.537597656
vt 0.99609375 0.694824219
vt 0.950195312 0.711425781
vt 0.59765625 0.576171875
vt 0.864746094 0.707519531
vt 0.624023438 0.614257812
vt 0.695800781 0.657226562
vt 0.797851562 0.756835938
vt 0.718261719 0.732910156
vt 0.75 0.768066406
vt 0.592773438 0.461425781
vt 0.396972656 0.480712891
vt 0.524414062 0.486328125
vt 0.145996094 0.406005859
vt 0.59765625 0.394287109
vt 0.179443359 0.518554688
vt 0.297851562 0.553710938
vt 0.22644043 0.5703125
vt 0.0393676758 0.342041016
vt 0.552246094 0.28515625
vt 0 0.28515625
vt 0.0393676758 0.228271484
vt 0.59765625 0.176147461
vt 0.145996094 0.164428711
vt 0.592773438 0.108947754
vt 0.396972656 0.0897216797
vt 0.524414062 0.0840454102
vt 0.179443359 0.0518798828
vt 0.297851562 0.0166778564
vt 0.22644043 0
vt 0.864746094 0.444580078
vt 0.797851562 0.395507812
vt 0.75 0.384277344
vt 0.718261719 0.419189453
vt 0.999511719 0.502929688
vt 0.695800781 0.494873047
vt 0.99609375 0.457519531
vt 0.950195312 0.440917969
vt 0.969238281 0.576171875
vt 0.624023438 0.537597656
vt 0.999511719 0.649414062
vt 0.59765625 0.576171875
vt 0.99609375 0.694824219
vt 0.624023438 0.614257812
vt 0.950195312 0.711425781
vt 0.695800781 0.657226562
vt 0.864746094 0.707519531
vt 0.718261719 0.732910156
vt 0.797851562 0.756835938
vt 0.75 0.768066406
vt 0 0
vt 0 0
vt 0 0
vt 0 0
vt 0 0
vt 0 0
vt 0 0
vt 0 0
vt 0 0
vt 0 0
vt 0 0
vt 0 0
vt 0 0
vt 0 0
vt 0 0
vt 0 0
vt 0 0
vt 0 0
vt 0 0
vt 0 0
vt 0 0
vt 0 0
vt 0 0
vt 0 0
vt 0 0
vt 0 0
vt 0 0
vt 0 0
vt 0 0
vt 0 0
vt 0 0
vt 0 0
vt 0 0
vt 0 0
vt 0 0
vt 0 0
vt 0 0
vt 0 0
vt 0 0
vt 0 0
vt 0 0
vt 0 0
vt 0 0
vt 0 0
vt 0.718261719 0.349365234
vt 0.75 0.384277344
vt 0.797851562 0.373046875
vt 0.864746094 0.323730469
vt 0.695800781 0.2734375
vt 1 0.265625
vt 0.997070312 0.310791016
vt 0.950683594 0.327636719
vt 0.969726562 0.192138672
vt 0.624023438 0.23046875
vt 1 0.118652344
vt 0.59765625 0.192138672
vt 0.624023438 0.153808594
vt 0.996582031 0.0733642578
vt 0.695800781 0.110778809
vt 0.950683594 0.0566101074
vt 0.864746094 0.0604553223
vt 0.718261719 0.034942627
vt 0.797851562 0.0112380981
vt 0.75 0
vt 0.203491211 0.5703125
vt 0.272949219 0.606933594
vt 0.232543945 0.577148438
vt 0.3359375 0.686523438
vt 0.184448242 0.591308594
vt 0.354492188 0.642089844
vt 0.324707031 0.604492188
vt 0.352539062 0.614746094
vt 0.354492188 0.730957031
vt 0.170776367 0.637207031
vt 0.352539062 0.758300781
vt 0.324707031 0.768066406
vt 0.127441406 0.663085938
vt 0.272949219 0.766113281
vt 0.232543945 0.795410156
vt 0.170776367 0.735351562
vt 0.111450195 0.686523438
vt 0.127441406 0.709472656
vt 0.184448242 0.78125
vt 0.203491211 0.802246094
vt 0.427490234 0.78125
vt 0.446533203 0.802246094
vt 0.475585938 0.795410156
vt 0.516113281 0.766113281
vt 0.413818359 0.735351562
vt 0.59765625 0.730957031
vt 0.595703125 0.758300781
vt 0.567871094 0.768066406
vt 0.579101562 0.686523438
vt 0.370361328 0.709472656
vt 0.59765625 0.642089844
vt 0.354492188 0.686523438
vt 0.370361328 0.663085938
vt 0.595703125 0.614746094
vt 0.413818359 0.637207031
vt 0.567871094 0.604492188
vt 0.516113281 0.606933594
vt 0.427490234 0.591308594
vt 0.475585938 0.577148438
vt 0.446533203 0.5703125
vt 0.656738281 0.933105469
vt 0.670410156 0.979003906
vt 0.689453125 1
vt 0.71875 0.993164062
vt 0.61328125 0.860839844
vt 0.61328125 0.907226562
vt 0.59765625 0.883789062
vt 0.656738281 0.834960938
vt 0.758789062 0.963378906
vt 0.670410156 0.7890625
vt 0.689453125 0.768066406
vt 0.810546875 0.965820312
vt 0.71875 0.774902344
vt 0.838378906 0.955566406
vt 0.758789062 0.8046875
vt 0.840332031 0.928222656
vt 0.822265625 0.883789062
vt 0.810546875 0.802246094
vt 0.840332031 0.83984375
vt 0.838378906 0.8125
vt 0.996582031 0.0733642578
vt 0.969726562 0.192138672
vt 1 0.118652344
vt 0.864746094 0.323730469
vt 0.950683594 0.0566101074
vt 0.950683594 0.327636719
vt 1 0.265625
vt 0.997070312 0.310791016
vt 0.797851562 0.373046875
vt 0.864746094 0.0604553223
vt 0.75 0.384277344
vt 0.718261719 0.349365234
vt 0.797851562 0.0112380981
vt 0.695800781 0.2734375
vt 0.75 0
vt 0.695800781 0.110778809
vt 0.718261719 0.034942627
vt 0.624023438 0.23046875
vt 0.624023438 0.153808594
vt 0.59765625 0.192138672
vt 0.232543945 0.577148438
vt 0.203491211 0.5703125
vt 0.184448242 0.591308594
vt 0.170776367 0.637207031
vt 0.272949219 0.606933594
vt 0.127441406 0.663085938
vt 0.111450195 0.686523438
vt 0.324707031 0.604492188
vt 0.127441406 0.709472656
vt 0.352539062 0.614746094
vt 0.170776367 0.735351562
vt 0.354492188 0.642089844
vt 0.3359375 0.686523438
vt 0.184448242 0.78125
vt 0.354492188 0.730957031
vt 0.272949219 0.766113281
vt 0.203491211 0.802246094
vt 0.232543945 0.795410156
vt 0.324707031 0.768066406
vt 0.352539062 0.758300781
vt 0.595703125 0.614746094
vt 0.579101562 0.686523438
vt 0.59765625 0.642089844
vt 0.516113281 0.766113281
vt 0.567871094 0.604492188
vt 0.567871094 0.768066406
vt 0.59765625 0.730957031
vt 0.595703125 0.758300781
vt 0.475585938 0.795410156
vt 0.516113281 0.606933594
vt 0.446533203 0.802246094
vt 0.475585938 0.577148438
vt 0.427490234 0.78125
vt 0.413818359 0.735351562
vt 0.446533203 0.5703125
vt 0.413818359 0.637207031
vt 0.427490234 0.591308594
vt 0.370361328 0.709472656
vt 0.370361328 0.663085938
vt 0.354492188 0.686523438
vt 0.838378906 0.8125
vt 0.810546875 0.802246094
vt 0.758789062 0.8046875
vt 0.656738281 0.834960938
vt 0.840332031 0.83984375
vt 0.670410156 0.7890625
vt 0.71875 0.774902344
vt 0.689453125 0.768066406
vt 0.61328125 0.860839844
vt 0.822265625 0.883789062
vt 0.59765625 0.883789062
vt 0.61328125 0.907226562
vt 0.840332031 0.928222656
vt 0.656738281 0.933105469
vt 0.670410156 0.979003906
vt 0.758789062 0.963378906
vt 0.838378906 0.955566406
vt 0.810546875 0.965820312
vt 0.71875 0.993164062
vt 0.689453125 1
vt 0.624023438 0.153808594
vt 0.59765625 0.192138672
vt 0.624023438 0.23046875
vt 0.695800781 0.110778809
vt 0.695800781 0.2734375
vt 0.718261719 0.034942627
vt 0.718261719 0.349365234
vt 0.75 0
vt 0.797851562 0.0112380981
vt 0.75 0.384277344
vt 0.797851562 0.373046875
vt 0.864746094 0.0604553223
vt 0.864746094 0.323730469
vt 0.950683594 0.0566101074
vt 0.950683594 0.327636719
vt 0.969726562 0.192138672
vt 0.997070312 0.310791016
vt 1 0.265625
vt 0.996582031 0.0733642578
vt 1 0.118652344
vt 0.203491211 0.802246094
vt 0.232543945 0.795410156
vt 0.272949219 0.766113281
vt 0.3359375 0.686523438
vt 0.184448242 0.78125
vt 0.354492188 0.730957031
vt 0.324707031 0.768066406
vt 0.352539062 0.758300781
vt 0.354492188 0.642089844
vt 0.170776367 0.735351562
vt 0.352539062 0.614746094
vt 0.324707031 0.604492188
vt 0.127441406 0.709472656
vt 0.272949219 0.606933594
vt 0.232543945 0.577148438
vt 0.170776367 0.637207031
vt 0.111450195 0.686523438
vt 0.127441406 0.663085938
vt 0.184448242 0.591308594
vt 0.203491211 0.5703125
vt 0.370361328 0.663085938
vt 0.354492188 0.686523438
vt 0.370361328 0.709472656
vt 0.413818359 0.637207031
vt 0.413818359 0.735351562
vt 0.427490234 0.591308594
vt 0.427490234 0.78125
vt 0.446533203 0.5703125
vt 0.446533203 0.802246094
vt 0.475585938 0.577148438
vt 0.475585938 0.795410156
vt 0.516113281 0.606933594
vt 0.516113281 0.766113281
vt 0.567871094 0.604492188
vt 0.567871094 0.768066406
vt 0.579101562 0.686523438
vt 0.595703125 0.758300781
vt 0.59765625 0.730957031
vt 0.595703125 0.614746094
vt 0.59765625 0.642089844
vt 0.689453125 1
vt 0.71875 0.993164062
vt 0.758789062 0.963378906
vt 0.670410156 0.979003906
vt 0.840332031 0.928222656
vt 0.656738281 0.933105469
vt 0.838378906 0.955566406
vt 0.810546875 0.965820312
vt 0.822265625 0.883789062
vt 0.61328125 0.907226562
vt 0.840332031 0.83984375
vt 0.59765625 0.883789062
vt 0.838378906 0.8125
vt 0.61328125 0.860839844
vt 0.810546875 0.802246094
vt 0.656738281 0.834960938
vt 0.758789062 0.8046875
vt 0.670410156 0.7890625
vt 0.71875 0.774902344
vt 0.689453125 0.768066406
vn 0.00883483887 -1 -0.00413131714
vn 0.00883483887 -1 -0.00413131714
vn 0.00883483887 -1 -0.00413131714
vn 0.00883483887 -1 -0.00413131714
vn 0.00883483887 -1 -0.00413131714
vn 0.00883483887 -1 -0.00413131714
vn 0.00883483887 -1 -0.00413131714
vn 0.00883483887 -1 -0.00413131714
vn 0.00883483887 -1 -0.00413131714
vn 0.00883483887 -1 -0.00413131714
vn 0.00883483887 -1 -0.00413131714
vn 0.00883483887 -1 -0.00413131714
vn 0.00883483887 -1 -0.00413131714
vn 0.00883483887 -1 -0.00413131714
vn 0.00883483887 -1 -0.00413131714
vn 0.00883483887 -1 -0.00413131714
vn 0.00883483887 -1 -0.00413131714
vn 0.00883483887 -1 -0.00413131714
vn 0.00883483887 -1 -0.00413131714
vn 0.00883483887 -1 -0.00413131714
vn 0.00769042969 -1 -0.00601577759
vn 0.00769042969 -1 -0.00601577759
vn 0.00769042969 -1 -0.00601577759
vn 0.00769042969 -1 -0.00601577759
vn 0.00769042969 -1 -0.00601577759
vn 0.00769042969 -1 -0.00601577759
vn 0.00769042969 -1 -0.00601577759
vn 0.00769042969 -1 -0.00601577759
vn 0.00769042969 -1 -0.00601577759
vn 0.00769042969 -1 -0.00601577759
vn 0.00769042969 -1 -0.00601577759
vn 0.00769042969 -1 -0.00601577759
vn 0.00769042969 -1 -0.00601577759
vn 0.00769042969 -1 -0.00601577759
vn 0.00769042969 -1 -0.00601577759
vn 0.00769042969 -1 -0.00601577759
vn 0.00769042969 -1 -0.00601577759
vn 0.00769042969 -1 -0.00601577759
vn 0.00769042969 -1 -0.00601577759
vn 0.00769042969 -1 -0.00601577759
vn -0.00609970093 -0.00761413574 -1
vn -0.00609970093 -0.00761413574 -1
vn -0.00609970093 -0.00761413574 -1
vn -0.00609970093 -0.00761413574 -1
vn -0.00609970093 -0.00761413574 -1
vn -0.00609970093 -0.00761413574 -1
vn -0.00609970093 -0.00761413574 -1
vn -0.00609970093 -0.00761413574 -1
vn -0.00609970093 -0.00761413574 -1
vn -0.00609970093 -0.00761413574 -1
vn -0.00609970093 -0.00761413574 -1
vn -0.00609970093 -0.00761413574 -1
vn -0.00609970093 -0.00761413574 -1
vn -0.00609970093 -0.00761413574 -1
vn -0.00609970093 -0.00761413574 -1
vn -0.00609970093 -0.00761413574 -1
vn -0.00609970093 -0.00761413574 -1
vn -0.00609970093 -0.00761413574 -1
vn -0.00609970093 -0.00761413574 -1
vn -0.00609970093 -0.00761413574 -1
vn -0.00424194336 -0.0087890625 -1
vn -0.00424194336 -0.0087890625 -1
vn -0.00424194336 -0.0087890625 -1
vn -0.00424194336 -0.0087890625 -1
vn -0.00424194336 -0.0087890625 -1
vn -0.00424194336 -0.0087890625 -1
vn -0.00424194336 -0.0087890625 -1
vn -0.00424194336 -0.0087890625 -1
vn -0.00424194336 -0.0087890625 -1
vn -0.00424194336 -0.0087890625 -1
vn -0.00424194336 -0.0087890625 -1
vn -0.00424194336 -0.0087890625 -1
vn -0.00424194336 -0.0087890625 -1
vn -0.00424194336 -0.0087890625 -1
vn -0.00424194336 -0.0087890625 -1
vn -0.00424194336 -0.0087890625 -1
vn -0.00424194336 -0.0087890625 -1
vn -0.00424194336 -0.0087890625 -1
vn -0.00424194336 -0.0087890625 -1
vn -0.00424194336 -0.0087890625 -1
vn 0.00769424438 0.0059967041 -1
vn 0.00769424438 0.0059967041 -1
vn 0.00769424438 0.0059967041 -1
vn 0.00769424438 0.0059967041 -1
vn 0.00769424438 0.0059967041 -1
vn 0.00769424438 0.0059967041 -1
vn 0.00769424438 0.0059967041 -1
vn 0.00769424438 0.0059967041 -1
vn 0.00769424438 0.0059967041 -1
vn 0.00769424438 0.0059967041 -1
vn 0.00769424438 0.0059967041 -1
vn 0.00769424438 0.0059967041 -1
vn 0.00769424438 0.0059967041 -1
vn 0.00769424438 0.0059967041 -1
vn 0.00769424438 0.0059967041 -1
vn 0.00769424438 0.0059967041 -1
vn 0.00769424438 0.0059967041 -1
vn 0.00769424438 0.0059967041 -1
vn 0.00769424438 0.0059967041 -1
vn 0.00769424438 0.0059967041 -1
vn 0.00616455078 0.00756835938 -1
vn 0.00616455078 0.00756835938 -1
vn 0.00616455078 0.00756835938 -1
vn 0.00616455078 0.00756835938 -1
vn 0.00616455078 0.00756835938 -1
vn 0.00616455078 0.00756835938 -1
vn 0.00616455078 0.00756835938 -1
vn 0.00616455078 0.00756835938 -1
vn 0.00616455078 0.00756835938 -1
vn 0.00616455078 0.00756835938 -1
vn 0.00616455078 0.00756835938 -1
vn 0.00616455078 0.00756835938 -1
vn 0.00616455078 0.00756835938 -1
vn 0.00616455078 0.00756835938 -1
vn 0.00616455078 0.00756835938 -1
vn 0.00616455078 0.00756835938 -1
vn 0.00616455078 0.00756835938 -1
vn 0.00616455078 0.00756835938 -1
vn 0.00616455078 0.00756835938 -1
vn 0.00616455078 0.00756835938 -1
vn -7.74860382E-07 -2.38418579E-07 -1
vn -4.47034836E-06 -1.31130219E-06 -1
vn -4.47034836E-06 -1.31130219E-06 -1
vn -3.15904617E-06 -8.94069672E-07 -1
vn -0 0 -1
vn -0 0 -1
vn 4.76837158E-07 5.96046448E-07 -1
vn 2.38418579E-07 2.98023224E-07 -1
vn 7.74860382E-07 4.76837158E-07 -1
vn 7.74860382E-07 4.17232513E-07 -1
vn 5.96046448E-07 0 -1
vn 5.96046448E-07 0 -1
vn 3.57627869E-07 2.98023224E-07 -1
vn 3.57627869E-07 2.38418579E-07 -1
vn 1.54972076E-06 5.36441803E-07 -1
vn 1.01327896E-06 5.36441803E-07 -1
vn 8.94069672E-07 1.78813934E-07 -1
vn 1.7285347E-06 3.57627869E-07 -1
vn -0 0 -1
vn -0 0 -1
vn -0 0 -1
vn -0 0 -1
vn 7.15255737E-07 -2.98023224E-07 -1
vn -4.47034836E-06 5.36441803E-07 -1
vn -4.47034836E-06 5.36441803E-07 -1
vn -2.62260437E-06 2.38418579E-07 -1
vn 4.76837158E-07 0 -1
vn 1.13248825E-06 -1.78813934E-07 -1
vn 8.34465027E-07 1.1920929E-07 -1
vn 4.17232513E-07 1.78813934E-07 -1
vn 6.55651093E-07 0 -1
vn 5.36441803E-07 0 -1
vn -0 0 -1
vn -0 0 -1
vn 3.57627869E-07 0 -1
vn 2.98023224E-07 0 -1
vn 8.34465027E-07 -9.53674316E-07 -1
vn 7.74860382E-07 -5.36441803E-07 -1
vn 3.57627869E-07 0 -1
vn 7.15255737E-07 -8.94069672E-07 -1
vn 1.1920929E-07 5.96046448E-07 -1
vn 2.38418579E-07 3.57627869E-07 -1
vn 4.76837158E-07 0 -1
vn 4.76837158E-07 0 -1
vn 0.00667953491 -1 -0.00710678101
vn 0.00667953491 -1 -0.00710678101
vn 0.00667953491 -1 -0.00710678101
vn 0.00667953491 -1 -0.00710678101
vn 0.00667953491 -1 -0.00710678101
vn 0.00667953491 -1 -0.00710678101
vn 0.00667953491 -1 -0.00710678101
vn 0.00667953491 -1 -0.00710678101
vn 0.00667953491 -1 -0.00710678101
vn 0.00667953491 -1 -0.00710678101
vn 0.00667953491 -1 -0.00710678101
vn 0.00667953491 -1 -0.00710678101
vn 0.00667953491 -1 -0.00710678101
vn 0.00667953491 -1 -0.00710678101
vn 0.00667953491 -1 -0.00710678101
vn 0.00667953491 -1 -0.00710678101
vn 0.00667953491 -1 -0.00710678101
vn 0.00667953491 -1 -0.00710678101
vn 0.00667953491 -1 -0.00710678101
vn 0.00667953491 -1 -0.00710678101
vn 0.00527191162 -1 -0.00820159912
vn 0.00527191162 -1 -0.00820159912
vn 0.00527191162 -1 -0.00820159912
vn 0.00527191162 -1 -0.00820159912
vn 0.00527191162 -1 -0.00820159912
vn 0.00527191162 -1 -0.00820159912
vn 0.00527191162 -1 -0.00820159912
vn 0.00527191162 -1 -0.00820159912
vn 0.00527191162 -1 -0.00820159912
vn 0.00527191162 -1 -0.00820159912
vn 0.00527191162 -1 -0.00820159912
vn 0.00527191162 -1 -0.00820159912
vn 0.00527191162 -1 -0.00820159912
vn 0.00527191162 -1 -0.00820159912
vn 0.00527191162 -1 -0.00820159912
vn 0.00527191162 -1 -0.00820159912
vn 0.00527191162 -1 -0.00820159912
vn 0.00527191162 -1 -0.00820159912
vn 0.00527191162 -1 -0.00820159912
vn 0.00527191162 -1 -0.00820159912
vn 0.00675582886 -1 -0.00702667236
vn 0.00675582886 -1 -0.00702667236
vn 0.00675582886 -1 -0.00702667236
vn 0.00675582886 -1 -0.00702667236
vn 0.00675582886 -1 -0.00702667236
vn 0.00675582886 -1 -0.00702667236
vn 0.00675582886 -1 -0.00702667236
vn 0.00675582886 -1 -0.00702667236
vn 0.00675582886 -1 -0.00702667236
vn 0.00675582886 -1 -0.00702667236
vn 0.00675582886 -1 -0.00702667236
vn 0.00675582886 -1 -0.00702667236
vn 0.00675582886 -1 -0.00702667236
vn 0.00675582886 -1 -0.00702667236
vn 0.00675582886 -1 -0.00702667236
vn 0.00675582886 -1 -0.00702667236
vn 0.00675582886 -1 -0.00702667236
vn 0.00675582886 -1 -0.00702667236
vn 0.00675582886 -1 -0.00702667236
vn 0.00675582886 -1 -0.00702667236
vn 0.00439071655 -1 0.00871276855
vn 0.00439071655 -1 0.00871276855
vn 0.00439071655 -1 0.00871276855
vn 0.00439071655 -1 0.00871276855
vn 0.00439071655 -1 0.00871276855
vn 0.00439071655 -1 0.00871276855
vn 0.00439071655 -1 0.00871276855
vn 0.00439071655 -1 0.00871276855
vn 0.00439071655 -1 0.00871276855
vn 0.00439071655 -1 0.00871276855
vn 0.00439071655 -1 0.00871276855
vn 0.00439071655 -1 0.00871276855
vn 0.00439071655 -1 0.00871276855
vn 0.00439071655 -1 0.00871276855
vn 0.00439071655 -1 0.00871276855
vn 0.00439071655 -1 0.00871276855
vn 0.00439071655 -1 0.00871276855
vn 0.00439071655 -1 0.00871276855
vn 0.00439071655 -1 0.00871276855
vn 0.00439071655 -1 0.00871276855
vn -0.00284767151 -0.00933074951 -1
vn -0.00284767151 -0.00933074951 -1
vn -0.00284767151 -0.00933074951 -1
vn -0.00284767151 -0.00933074951 -1
vn -0.00284767151 -0.00933074951 -1
vn -0.00284767151 -0.00933074951 -1
vn -0.00284767151 -0.00933074951 -1
vn -0.00284767151 -0.00933074951 -1
vn -0.00284767151 -0.00933074951 -1
vn -0.00284767151 -0.00933074951 -1
vn -0.00284767151 -0.00933074951 -1
vn -0.00284767151 -0.00933074951 -1
vn -0.00284767151 -0.00933074951 -1
vn -0.00284767151 -0.00933074951 -1
vn -0.00284767151 -0.00933074951 -1
vn -0.00284767151 -0.00933074951 -1
vn -0.00284767151 -0.00933074951 -1
vn -0.00284767151 -0.00933074951 -1
vn -0.00284767151 -0.00933074951 -1
vn -0.00284767151 -0.00933074951 -1
vn -0.00110626221 -0.00968933105 -1
vn -0.00110626221 -0.00968933105 -1
vn -0.00110626221 -0.00968933105 -1
vn -0.00110626221 -0.00968933105 -1
vn -0.00110626221 -0.00968933105 -1
vn -0.00110626221 -0.00968933105 -1
vn -0.00110626221 -0.00968933105 -1
vn -0.00110626221 -0.00968933105 -1
vn -0.00110626221 -0.00968933105 -1
vn -0.00110626221 -0.00968933105 -1
vn -0.00110626221 -0.00968933105 -1
vn -0.00110626221 -0.00968933105 -1
vn -0.00110626221 -0.00968933105 -1
vn -0.00110626221 -0.00968933105 -1
vn -0.00110626221 -0.00968933105 -1
vn -0.00110626221 -0.00968933105 -1
vn -0.00110626221 -0.00968933105 -1
vn -0.00110626221 -0.00968933105 -1
vn -0.00110626221 -0.00968933105 -1
vn -0.00110626221 -0.00968933105 -1
vn -0.00295257568 -0.00929260254 -1
vn -0.00295257568 -0.00929260254 -1
vn -0.00295257568 -0.00929260254 -1
vn -0.00295257568 -0.00929260254 -1
vn -0.00295257568 -0.00929260254 -1
vn -0.00295257568 -0.00929260254 -1
vn -0.00295257568 -0.00929260254 -1
vn -0.00295257568 -0.00929260254 -1
vn -0.00295257568 -0.00929260254 -1
vn -0.00295257568 -0.00929260254 -1
vn -0.00295257568 -0.00929260254 -1
vn -0.00295257568 -0.00929260254 -1
vn -0.00295257568 -0.00929260254 -1
vn -0.00295257568 -0.00929260254 -1
vn -0.00295257568 -0.00929260254 -1
vn -0.00295257568 -0.00929260254 -1
vn -0.00295257568 -0.00929260254 -1
vn -0.00295257568 -0.00929260254 -1
vn -0.00295257568 -0.00929260254 -1
vn -0.00295257568 -0.00929260254 -1
vn -0.00778961182 0.00587463379 -1
vn -0.00778961182 0.00587463379 -1
vn -0.00778961182 0.00587463379 -1
vn -0.00778961182 0.00587463379 -1
vn -0.00778961182 0.00587463379 -1
vn -0.00778961182 0.00587463379 -1
vn -0.00778961182 0.00587463379 -1
vn -0.00778961182 0.00587463379 -1
vn -0.00778961182 0.00587463379 -1
vn -0.00778961182 0.00587463379 -1
vn -0.00778961182 0.00587463379 -1
vn -0.00778961182 0.00587463379 -1
vn -0.00778961182 0.00587463379 -1
vn -0.00778961182 0.00587463379 -1
vn -0.00778961182 0.00587463379 -1
vn -0.00778961182 0.00587463379 -1
vn -0.00778961182 0.00587463379 -1
vn -0.00778961182 0.00587463379 -1
vn -0.00778961182 0.00587463379 -1
vn -0.00778961182 0.00587463379 -1
vn 0.00492858887 0.00842285156 -1
vn 0.00492858887 0.00842285156 -1
vn 0.00492858887 0.00842285156 -1
vn 0.00492858887 0.00842285156 -1
vn 0.00492858887 0.00842285156 -1
vn 0.00492858887 0.00842285156 -1
vn 0.00492858887 0.00842285156 -1
vn 0.00492858887 0.00842285156 -1
vn 0.00492858887 0.00842285156 -1
vn 0.00492858887 0.00842285156 -1
vn 0.00492858887 0.00842285156 -1
vn 0.00492858887 0.00842285156 -1
vn 0.00492858887 0.00842285156 -1
vn 0.00492858887 0.00842285156 -1
vn 0.00492858887 0.00842285156 -1
vn 0.00492858887 0.00842285156 -1
vn 0.00492858887 0.00842285156 -1
vn 0.00492858887 0.00842285156 -1
vn 0.00492858887 0.00842285156 -1
vn 0.00492858887 0.00842285156 -1
vn 0.00333595276 0.00917816162 -1
vn 0.00333595276 0.00917816162 -1
vn 0.00333595276 0.00917816162 -1
vn 0.00333595276 0.00917816162 -1
vn 0.00333595276 0.00917816162 -1
vn 0.00333595276 0.00917816162 -1
vn 0.00333595276 0.00917816162 -1
vn 0.00333595276 0.00917816162 -1
vn 0.00333595276 0.00917816162 -1
vn 0.00333595276 0.00917816162 -1
vn 0.00333595276 0.00917816162 -1
vn 0.00333595276 0.00917816162 -1
vn 0.00333595276 0.00917816162 -1
vn 0.00333595276 0.00917816162 -1
vn 0.00333595276 0.00917816162 -1
vn 0.00333595276 0.00917816162 -1
vn 0.00333595276 0.00917816162 -1
vn 0.00333595276 0.00917816162 -1
vn 0.00333595276 0.00917816162 -1
vn 0.00333595276 0.00917816162 -1
vn 0.0050239563 0.00836181641 -1
vn 0.0050239563 0.00836181641 -1
vn 0.0050239563 0.00836181641 -1
vn 0.0050239563 0.00836181641 -1
vn 0.0050239563 0.00836181641 -1
vn 0.0050239563 0.00836181641 -1
vn 0.0050239563 0.00836181641 -1
vn 0.0050239563 0.00836181641 -1
vn 0.0050239563 0.00836181641 -1
vn 0.0050239563 0.00836181641 -1
vn 0.0050239563 0.00836181641 -1
vn 0.0050239563 0.00836181641 -1
vn 0.0050239563 0.00836181641 -1
vn 0.0050239563 0.00836181641 -1
vn 0.0050239563 0.00836181641 -1
vn 0.0050239563 0.00836181641 -1
vn 0.0050239563 0.00836181641 -1
vn 0.0050239563 0.00836181641 -1
vn 0.0050239563 0.00836181641 -1
vn 0.0050239563 0.00836181641 -1
vn 0.00622177124 -0.00751495361 -1
vn 0.00622177124 -0.00751495361 -1
vn 0.00622177124 -0.00751495361 -1
vn 0.00622177124 -0.00751495361 -1
vn 0.00622177124 -0.00751495361 -1
vn 0.00622177124 -0.00751495361 -1
vn 0.00622177124 -0.00751495361 -1
vn 0.00622177124 -0.00751495361 -1
vn 0.00622177124 -0.00751495361 -1
vn 0.00622177124 -0.00751495361 -1
vn 0.00622177124 -0.00751495361 -1
vn 0.00622177124 -0.00751495361 -1
vn 0.00622177124 -0.00751495361 -1
vn 0.00622177124 -0.00751495361 -1
vn 0.00622177124 -0.00751495361 -1
vn 0.00622177124 -0.00751495361 -1
vn 0.00622177124 -0.00751495361 -1
vn 0.00622177124 -0.00751495361 -1
vn 0.00622177124 -0.00751495361 -1
vn 0.00622177124 -0.00751495361 -1
g stars_0
f 3/3/3 2/2/2 1/1/1
f 1/1/1 4/4/4 3/3/3
f 3/3/3 4/4/4 5/5/5
f 4/4/4 6/6/6 5/5/5
f 3/3/3 5/5/5 7/7/7
f 8/8/8 3/3/3 7/7/7
f 7/7/7 9/9/9 8/8/8
f 6/6/6 10/10/10 5/5/5
f 6/6/6 11/11/11 10/10/10
f 6/6/6 12/12/12 11/11/11
f 12/12/12 13/13/13 11/11/11
f 12/12/12 14/14/14 13/13/13
f 14/14/14 15/15/15 13/13/13
f 14/14/14 16/16/16 15/15/15
f 14/14/14 17/17/17 16/16/16
f 16/16/16 18/18/18 15/15/15
f 16/16/16 19/19/19 18/18/18
f 19/19/19 20/20/20 18/18/18
f 23/23/23 22/22/22 21/21/21
f 21/21/21 24/24/24 23/23/23
f 23/23/23 24/24/24 25/25/25
f 24/24/24 26/26/26 25/25/25
f 23/23/23 25/25/25 27/27/27
f 27/27/27 28/28/28 23/23/23
f 26/26/26 29/29/29 25/25/25
f 26/26/26 30/30/30 29/29/29
f 30/30/30 31/31/31 29/29/29
f 30/30/30 32/32/32 31/31/31
f 32/32/32 33/33/33 31/31/31
f 32/32/32 34/34/34 33/33/33
f 34/34/34 35/35/35 33/33/33
f 34/34/34 36/36/36 35/35/35
f 36/36/36 37/37/37 35/35/35
f 36/36/36 38/38/38 37/37/37
f 38/38/38 39/39/39 37/37/37
f 38/38/38 40/40/40 39/39/39
f 43/43/43 42/42/42 41/41/41
f 41/41/41 44/44/44 43/43/43
f 44/44/44 45/45/45 43/43/43
f 43/43/43 45/45/45 46/46/46
f 46/46/46 47/47/47 43/43/43
f 44/44/44 48/48/48 45/45/45
f 44/44/44 49/49/49 48/48/48
f 49/49/49 50/50/50 48/48/48
f 49/49/49 51/51/51 50/50/50
f 51/51/51 52/52/52 50/50/50
f 51/51/51 53/53/53 52/52/52
f 53/53/53 54/54/54 52/52/52
f 53/53/53 55/55/55 54/54/54
f 55/55/55 56/56/56 54/54/54
f 55/55/55 57/57/57 56/56/56
f 57/57/57 58/58/58 56/56/56
f 57/57/57 59/59/59 58/58/58
f 59/59/59 60/60/60 58/58/58
f 63/63/63 62/62/62 61/61/61
f 61/61/61 64/64/64 63/63/63
f 61/61/61 65/65/65 64/64/64
f 65/65/65 66/66/66 64/64/64
f 64/64/64 66/66/66 67/67/67
f 67/67/67 68/68/68 64/64/64
f 65/65/65 69/69/69 66/66/66
f 65/65/65 70/70/70 69/69/69
f 70/70/70 71/71/71 69/69/69
f 70/70/70 72/72/72 71/71/71
f 72/72/72 73/73/73 71/71/71
f 73/73/73 74/74/74 71/71/71
f 73/73/73 75/75/75 74/74/74
f 75/75/75 76/76/76 74/74/74
f 75/75/75 77/77/77 76/76/76
f 75/75/75 78/78/78 77/77/77
f 78/78/78 79/79/79 77/77/77
f 78/78/78 80/80/80 79/79/79
f 83/83/83 82/82/82 81/81/81
f 84/84/84 81/81/81 82/82/82
f 84/84/84 85/85/85 81/81/81
f 86/86/86 84/84/84 82/82/82
f 86/86/86 82/82/82 87/87/87
f 87/87/87 88/88/88 86/86/86
f 84/84/84 89/89/89 85/85/85
f 89/89/89 90/90/90 85/85/85
f 89/89/89 91/91/91 90/90/90
f 91/91/91 92/92/92 90/90/90
f 92/92/92 93/93/93 90/90/90
f 92/92/92 94/94/94 93/93/93
f 94/94/94 95/95/95 93/93/93
f 94/94/94 96/96/96 95/95/95
f 95/95/95 96/96/96 97/97/97
f 94/94/94 98/98/98 96/96/96
f 98/98/98 99/99/99 96/96/96
f 98/98/98 100/100/100 99/99/99
f 103/103/103 102/102/102 101/101/101
f 101/101/101 104/104/104 103/103/103
f 104/104/104 101/101/101 105/105/105
f 106/106/106 104/104/104 105/105/105
f 101/101/101 107/107/107 105/105/105
f 101/101/101 108/108/108 107/107/107
f 106/106/106 105/105/105 109/109/109
f 110/110/110 106/106/106 109/109/109
f 110/110/110 109/109/109 111/111/111
f 112/112/112 110/110/110 111/111/111
f 112/112/112 111/111/111 113/113/113
f 114/114/114 112/112/112 113/113/113
f 114/114/114 113/113/113 115/115/115
f 116/116/116 114/114/114 115/115/115
f 116/116/116 115/115/115 117/117/117
f 118/118/118 116/116/116 117/117/117
f 118/118/118 117/117/117 119/119/119
f 119/119/119 120/120/120 118/118/118
f 123/123/123 122/122/122 121/121/121
f 124/124/124 123/123/123 121/121/121
f 124/124/124 121/121/121 125/125/125
f 126/126/126 124/124/124 125/125/125
f 126/126/126 125/125/125 127/127/127
f 128/128/128 126/126/126 127/127/127
f 128/128/128 127/127/127 129/129/129
f 127/127/127 130/130/130 129/129/129
f 129/129/129 130/130/130 131/131/131
f 130/130/130 132/132/132 131/131/131
f 131/131/131 132/132/132 133/133/133
f 132/132/132 134/134/134 133/133/133
f 133/133/133 134/134/134 135/135/135
f 134/134/134 136/136/136 135/135/135
f 135/135/135 136/136/136 137/137/137
f 136/136/136 138/138/138 137/137/137
f 137/137/137 138/138/138 139/139/139
f 140/140/140 137/137/137 139/139/139
f 140/140/140 139/139/139 141/141/141
f 142/142/142 140/140/140 141/141/141
f 145/145/145 144/144/144 143/143/143
f 146/146/146 145/145/145 143/143/143
f 146/146/146 143/143/143 147/147/147
f 148/148/148 146/146/146 147/147/147
f 148/148/148 147/147/147 149/149/149
f 150/150/150 148/148/148 149/149/149
f 150/150/150 149/149/149 151/151/151
f 149/149/149 152/152/152 151/151/151
f 151/151/151 152/152/152 153/153/153
f 152/152/152 154/154/154 153/153/153
f 153/153/153 154/154/154 155/155/155
f 154/154/154 156/156/156 155/155/155
f 155/155/155 156/156/156 157/157/157
f 156/156/156 158/158/158 157/157/157
f 157/157/157 158/158/158 159/159/159
f 158/158/158 160/160/160 159/159/159
f 159/159/159 160/160/160 161/161/161
f 162/162/162 159/159/159 161/161/161
f 162/162/162 161/161/161 163/163/163
f 164/164/164 162/162/162 163/163/163
g stars_1
f 167/167/167 166/166/166 165/165/165
f 165/165/165 168/168/168 167/167/167
f 165/165/165 169/169/169 168/168/168
f 169/169/169 170/170/170 168/168/168
f 168/168/168 170/170/170 171/171/171
f 171/171/171 172/172/172 168/168/168
f 169/169/169 173/173/173 170/170/170
f 169/169/169 174/174/174 173/173/173
f 174/174/174 175/175/175 173/173/173
f 174/174/174 176/176/176 175/175/175
f 176/176/176 177/177/177 175/175/175
f 177/177/177 178/178/178 175/175/175
f 177/177/177 179/179/179 178/178/178
f 179/179/179 180/180/180 178/178/178
f 179/179/179 181/181/181 180/180/180
f 179/179/179 182/182/182 181/181/181
f 182/182/182 183/183/183 181/181/181
f 182/182/182 184/184/184 183/183/183
f 187/187/187 186/186/186 185/185/185
f 188/188/188 185/185/185 186/186/186
f 188/188/188 189/189/189 185/185/185
f 190/190/190 188/188/188 186/186/186
f 190/190/190 186/186/186 191/191/191
f 191/191/191 192/192/192 190/190/190
f 188/188/188 193/193/193 189/189/189
f 193/193/193 194/194/194 189/189/189
f 193/193/193 195/195/195 194/194/194
f 195/195/195 196/196/196 194/194/194
f 196/196/196 197/197/197 194/194/194
f 196/196/196 198/198/198 197/197/197
f 198/198/198 199/199/199 197/197/197
f 199/199/199 200/200/200 197/197/197
f 200/200/200 201/201/201 197/197/197
f 201/201/201 200/200/200 202/202/202
f 199/199/199 203/203/203 200/200/200
f 199/199/199 204/204/204 203/203/203
f 207/207/207 206/206/206 205/205/205
f 205/205/205 208/208/208 207/207/207
f 205/205/205 209/209/209 208/208/208
f 209/209/209 210/210/210 208/208/208
f 208/208/208 210/210/210 211/211/211
f 211/211/211 212/212/212 208/208/208
f 209/209/209 213/213/213 210/210/210
f 209/209/209 214/214/214 213/213/213
f 214/214/214 215/215/215 213/213/213
f 214/214/214 216/216/216 215/215/215
f 216/216/216 217/217/217 215/215/215
f 217/217/217 218/218/218 215/215/215
f 217/217/217 219/219/219 218/218/218
f 219/219/219 220/220/220 218/218/218
f 219/219/219 221/221/221 220/220/220
f 219/219/219 222/222/222 221/221/221
f 222/222/222 223/223/223 221/221/221
f 222/222/222 224/224/224 223/223/223
f 227/227/227 226/226/226 225/225/225
f 225/225/225 228/228/228 227/227/227
f 228/228/228 225/225/225 229/229/229
f 225/225/225 230/230/230 229/229/229
f 230/230/230 231/231/231 229/229/229
f 228/228/228 229/229/229 232/232/232
f 233/233/233 228/228/228 232/232/232
f 233/233/233 232/232/232 234/234/234
f 233/233/233 234/234/234 235/235/235
f 236/236/236 233/233/233 235/235/235
f 236/236/236 235/235/235 237/237/237
f 238/238/238 236/236/236 237/237/237
f 238/238/238 237/237/237 239/239/239
f 240/240/240 238/238/238 239/239/239
f 241/241/241 240/240/240 239/239/239
f 241/241/241 239/239/239 242/242/242
f 243/243/243 241/241/241 242/242/242
f 242/242/242 244/244/244 243/243/243
f 247/247/247 246/246/246 245/245/245
f 248/248/248 245/245/245 246/246/246
f 248/248/248 249/249/249 245/245/245
f 250/250/250 248/248/248 246/246/246
f 250/250/250 246/246/246 251/251/251
f 251/251/251 252/252/252 250/250/250
f 248/248/248 253/253/253 249/249/249
f 253/253/253 254/254/254 249/249/249
f 253/253/253 255/255/255 254/254/254
f 255/255/255 256/256/256 254/254/254
f 256/256/256 257/257/257 254/254/254
f 256/256/256 258/258/258 257/257/257
f 258/258/258 259/259/259 257/257/257
f 258/258/258 260/260/260 259/259/259
f 259/259/259 260/260/260 261/261/261
f 258/258/258 262/262/262 260/260/260
f 262/262/262 263/263/263 260/260/260
f 262/262/262 264/264/264 263/263/263
f 267/267/267 266/266/266 265/265/265
f 265/265/265 268/268/268 267/267/267
f 265/265/265 269/269/269 268/268/268
f 269/269/269 270/270/270 268/268/268
f 269/269/269 271/271/271 270/270/270
f 269/269/269 272/272/272 271/271/271
f 272/272/272 273/273/273 271/271/271
f 272/272/272 274/274/274 273/273/273
f 274/274/274 275/275/275 273/273/273
f 274/274/274 276/276/276 275/275/275
f 276/276/276 277/277/277 275/275/275
f 277/277/277 278/278/278 275/275/275
f 277/277/277 279/279/279 278/278/278
f 279/279/279 280/280/280 278/278/278
f 281/281/281 278/278/278 280/280/280
f 280/280/280 282/282/282 281/281/281
f 279/279/279 283/283/283 280/280/280
f 279/279/279 284/284/284 283/283/283
f 287/287/287 286/286/286 285/285/285
f 288/288/288 285/285/285 286/286/286
f 288/288/288 289/289/289 285/285/285
f 290/290/290 288/288/288 286/286/286
f 290/290/290 286/286/286 291/291/291
f 291/291/291 292/292/292 290/290/290
f 288/288/288 293/293/293 289/289/289
f 293/293/293 294/294/294 289/289/289
f 293/293/293 295/295/295 294/294/294
f 295/295/295 296/296/296 294/294/294
f 295/295/295 297/297/297 296/296/296
f 297/297/297 298/298/298 296/296/296
f 298/298/298 299/299/299 296/296/296
f 298/298/298 300/300/300 299/299/299
f 299/299/299 300/300/300 301/301/301
f 298/298/298 302/302/302 300/300/300
f 302/302/302 303/303/303 300/300/300
f 302/302/302 304/304/304 303/303/303
f 307/307/307 306/306/306 305/305/305
f 307/307/307 305/305/305 308/308/308
f 305/305/305 309/309/309 308/308/308
f 307/307/307 308/308/308 310/310/310
f 311/311/311 307/307/307 310/310/310
f 310/310/310 312/312/312 311/311/311
f 309/309/309 313/313/313 308/308/308
f 309/309/309 314/314/314 313/313/313
f 314/314/314 315/315/315 313/313/313
f 314/314/314 316/316/316 315/315/315
f 314/314/314 317/317/317 316/316/316
f 317/317/317 318/318/318 316/316/316
f 317/317/317 319/319/319 318/318/318
f 317/317/317 320/320/320 319/319/319
f 317/317/317 321/321/321 320/320/320
f 320/320/320 321/321/321 322/322/322
f 320/320/320 323/323/323 319/319/319
f 323/323/323 324/324/324 319/319/319
f 327/327/327 326/326/326 325/325/325
f 325/325/325 328/328/328 327/327/327
f 328/328/328 329/329/329 327/327/327
f 328/328/328 330/330/330 329/329/329
f 330/330/330 331/331/331 329/329/329
f 330/330/330 332/332/332 331/331/331
f 332/332/332 333/333/333 331/331/331
f 333/333/333 334/334/334 331/331/331
f 333/333/333 335/335/335 334/334/334
f 333/333/333 336/336/336 335/335/335
f 336/336/336 337/337/337 335/335/335
f 336/336/336 338/338/338 337/337/337
f 338/338/338 339/339/339 337/337/337
f 338/338/338 340/340/340 339/339/339
f 341/341/341 339/339/339 340/340/340
f 340/340/340 342/342/342 341/341/341
f 338/338/338 343/343/343 340/340/340
f 343/343/343 344/344/344 340/340/340
f 347/347/347 346/346/346 345/345/345
f 347/347/347 345/345/345 348/348/348
f 345/345/345 349/349/349 348/348/348
f 347/347/347 348/348/348 350/350/350
f 351/351/351 347/347/347 350/350/350
f 350/350/350 352/352/352 351/351/351
f 349/349/349 353/353/353 348/348/348
f 349/349/349 354/354/354 353/353/353
f 354/354/354 355/355/355 353/353/353
f 354/354/354 356/356/356 355/355/355
f 354/354/354 357/357/357 356/356/356
f 357/357/357 358/358/358 356/356/356
f 357/357/357 359/359/359 358/358/358
f 357/357/357 360/360/360 359/359/359
f 357/357/357 361/361/361 360/360/360
f 360/360/360 361/361/361 362/362/362
f 360/360/360 363/363/363 359/359/359
f 363/363/363 364/364/364 359/359/359
f 367/367/367 366/366/366 365/365/365
f 365/365/365 368/368/368 367/367/367
f 368/368/368 369/369/369 367/367/367
f 368/368/368 370/370/370 369/369/369
f 370/370/370 371/371/371 369/369/369
f 370/370/370 372/372/372 371/371/371
f 372/372/372 373/373/373 371/371/371
f 372/372/372 374/374/374 373/373/373
f 374/374/374 375/375/375 373/373/373
f 374/374/374 376/376/376 375/375/375
f 376/376/376 377/377/377 375/375/375
f 376/376/376 378/378/378 377/377/377
f 378/378/378 379/379/379 377/377/377
f 378/378/378 380/380/380 379/379/379
f 381/381/381 379/379/379 380/380/380
f 380/380/380 382/382/382 381/381/381
f 378/378/378 383/383/383 380/380/380
f 383/383/383 384/384/384 380/380/380
f 387/387/387 386/386/386 385/385/385
f 385/385/385 388/388/388 387/387/387
f 387/387/387 388/388/388 389/389/389
f 388/388/388 390/390/390 389/389/389
f 387/387/387 389/389/389 391/391/391
f 391/391/391 392/392/392 387/387/387
f 390/390/390 393/393/393 389/389/389
f 390/390/390 394/394/394 393/393/393
f 394/394/394 395/395/395 393/393/393
f 394/394/394 396/396/396 395/395/395
f 396/396/396 397/397/397 395/395/395
f 396/396/396 398/398/398 397/397/397
f 398/398/398 399/399/399 397/397/397
f 398/398/398 400/400/400 399/399/399
f 400/400/400 401/401/401 399/399/399
f 400/400/400 402/402/402 401/401/401
f 402/402/402 403/403/403 401/401/401
f 402/402/402 404/404/404 403/403/403
