g star
v -2.12690229E-05 0.000228598714 0.000307701237
v -2.35790012E-05 0.000194812412 0.000331614021
v -9.21055689E-05 0.000196919442 0.000285258895
v 0.000296504179 0.000205962657 3.62277024E-06
v 0.000333606149 0.000171767475 8.79663203E-05
v 0.000313537865 0.000206997385 7.93176878E-05
v -0.000320706371 0.000234851235 -1.51830909E-05
v -0.00025022059 0.000194325447 -0.000121662611
v -0.000233604602 0.000228226185 -0.000117142794
v -0.00025022059 0.000194325447 -0.000121662611
v -0.000253024686 0.000190900566 -0.00026483534
v -0.000236295164 0.000224966396 -0.000251339661
v -0.000220268368 0.000187455415 -0.00034075795
v -0.000205636024 0.000221701848 -0.000322545762
v -0.000308898074 7.16865034E-05 0.000113145114
v -0.000332316762 5.42235357E-05 5.68139549E-05
v -0.000362884108 7.30681422E-05 6.54947726E-05
v -0.000166020691 6.59769794E-05 0.000156725044
v -0.000145623679 2.96121834E-05 0.000128773449
v -0.000310288364 5.36870939E-05 7.62206328E-05
v -0.000246214273 6.30933064E-05 -0.000117291806
v -0.000213411739 2.65938033E-05 -0.000105707048
v -0.000214371976 4.03547274E-05 -0.000278279767
v -1.06459856E-05 4.80449198E-05 -0.000278035383
v -1.25828383E-05 1.30701064E-05 -0.0002413404
v 0.000151901841 2.24119412E-05 -0.000296334008
v -0.000343090593 7.04777194E-05 -3.71873375E-06
v -0.000213411739 2.65938033E-05 -0.000105707048
v -0.000246214273 6.30933064E-05 -0.000117291806
v -0.000148580366 5.31446931E-05 -0.000335265388
v -1.25828383E-05 1.30701064E-05 -0.0002413404
v -1.06459856E-05 4.80449198E-05 -0.000278035383
v 0.000224728283 7.90774793E-05 -0.000104751583
v 0.000240307141 0.000167809718 -0.000249802455
v 0.000235892832 7.49981409E-05 -0.000247495773
v 0.000229142606 0.000171889056 -0.000107058288
v 0.000226040778 0.000203326941 -0.000237252112
v 0.00021551906 0.000207204808 -0.000103459359
v 0.000235892832 7.49981409E-05 -0.000247495773
v 0.000226775694 3.73828407E-05 -0.000252156256
v 0.000215155771 4.16326511E-05 -0.000103248356
v 0.000224728283 7.90774793E-05 -0.000104751583
v -0.000308244809 0.00011010468 0.000123684396
v -0.000166915357 0.000197441579 0.000163110497
v -0.000171329666 0.000104629988 0.000165417194
v -0.000303830195 0.000202916257 0.00012137711
v -0.000155554706 0.000231145619 0.000149666666
v -0.000365892338 0.000204507698 6.6652894E-05
v -0.000370306952 0.000111696121 6.89595909E-05
v -0.000362884108 7.30681422E-05 6.54947726E-05
v -0.000308898074 7.16865034E-05 0.000113145114
v -0.000171329666 0.000104629988 0.000165417194
v -0.000166020691 6.59769794E-05 0.000156725044
v -8.54867685E-05 0.000230607984 0.000264192204
v -0.000166915357 0.000197441579 0.000163110497
v -9.21055689E-05 0.000196919442 0.000285258895
v -2.12690229E-05 0.000228598714 0.000307701237
v -0.000171329666 0.000104629988 0.000165417194
v -9.65195868E-05 0.000104107858 0.000287566188
v -2.79930227E-05 0.000102001424 0.000333920703
v -2.35790012E-05 0.000194812412 0.000331614021
v -8.79219151E-05 6.542146E-05 0.000284184207
v -2.82710789E-05 6.35743127E-05 0.000324490073
v -0.000166020691 6.59769794E-05 0.000156725044
v -0.000171329666 0.000104629988 0.000165417194
v 0.000125324717 7.8129764E-05 -0.000333080883
v -5.44249997E-06 0.000178532602 -0.000288637268
v -9.85681982E-06 8.57210107E-05 -0.000286329974
v 0.000129739041 0.000170941348 -0.000335386983
v -4.26769247E-06 0.000213429332 -0.000273583515
v 0.000122419588 0.000206261277 -0.000317459693
v 0.000212045605 0.000167220831 -0.000327584741
v 0.000199593298 0.000202735057 -0.000310197473
v 0.000207631281 7.44092467E-05 -0.000325277448
v 0.00020210653 3.68511683E-05 -0.000319932093
v 0.000130376211 4.01234611E-05 -0.000326774723
v -9.85681982E-06 8.57210107E-05 -0.000286329974
v -1.06459856E-05 4.80449198E-05 -0.000278035383
v -0.000128172032 0.000217990877 -0.000325095054
v -5.44249997E-06 0.000178532602 -0.000288637268
v -0.000137652751 0.000183455937 -0.00034353495
v -0.000205636024 0.000221701848 -0.000322545762
v -9.85681982E-06 8.57210107E-05 -0.000286329974
v -0.000220268368 0.000187455415 -0.00034075795
v -0.000142067074 9.06455462E-05 -0.000341228239
v -0.000224683274 9.46432338E-05 -0.000338451267
v -0.000148580366 5.31446931E-05 -0.000335265388
v -0.000220562506 5.65540795E-05 -0.000332791213
v -1.06459856E-05 4.80449198E-05 -0.000278035383
v -9.85681982E-06 8.57210107E-05 -0.000286329974
v 0.000122018755 0.000218153597 0.000158123366
v 8.83632893E-05 0.000270318968 0.000103850958
v 0.000183356096 0.000265235896 8.1096885E-05
v 0.0002524218 0.00021112441 0.000126948347
v 0.00022784411 0.000262256857 4.63741999E-05
v 0.000313537865 0.000206997385 7.93176878E-05
v -0.000257439009 9.80877885E-05 -0.000262528047
v -0.00025022059 0.000194325447 -0.000121662611
v -0.000254634913 0.000101513862 -0.000119355915
v -0.000253024686 0.000190900566 -0.00026483534
v -0.000220268368 0.000187455415 -0.00034075795
v -0.000224683274 9.46432338E-05 -0.000338451267
v -0.000220562506 5.65540795E-05 -0.000332791213
v -0.000249119679 5.95402707E-05 -0.00026667476
v -0.000254634913 0.000101513862 -0.000119355915
v -0.000246214273 6.30933064E-05 -0.000117291806
v 0.000305202149 4.02706864E-05 1.59931187E-05
v 0.000224728283 7.90774793E-05 -0.000104751583
v 0.000215155771 4.16326511E-05 -0.000103248356
v 0.000311080366 7.78108806E-05 9.5272062E-06
v 0.000229142606 0.000171889056 -0.000107058288
v 0.000224728283 7.90774793E-05 -0.000104751583
v 0.000315494544 0.000170621861 7.22050663E-06
v 0.00021551906 0.000207204808 -0.000103459359
v 0.000296504179 0.000205962657 3.62277024E-06
v 0.000264042465 8.33189479E-05 0.000141121141
v 0.000119057295 5.27197117E-05 0.000165438047
v 0.000124932529 9.07635695E-05 0.000174444314
v 0.000264205184 4.49723011E-05 0.000130649205
v 0.00032919168 7.89564801E-05 9.02730171E-05
v 0.000320922874 4.11915753E-05 8.63456735E-05
v 0.000311080366 7.78108806E-05 9.5272062E-06
v 0.000305202149 4.02706864E-05 1.59931187E-05
v 0.000320922874 4.11915753E-05 8.63456735E-05
v 0.00032919168 7.89564801E-05 9.02730171E-05
v 0.000333606149 0.000171767475 8.79663203E-05
v 0.000315494544 0.000170621861 7.22050663E-06
v 0.000296504179 0.000205962657 3.62277024E-06
v -2.12690229E-05 0.000228598714 0.000307701237
v -1.60643449E-05 0.000277992483 0.000212752217
v 3.24958564E-05 0.00027496813 0.000184003104
v 4.53793982E-05 0.00022448301 0.000268178585
v 8.83632893E-05 0.000270318968 0.000103850958
v 0.000122018755 0.000218153597 0.000158123366
v -0.000370306952 0.000111696121 6.89595909E-05
v -0.000362884108 7.30681422E-05 6.54947726E-05
v -0.000343090593 7.04777194E-05 -3.71873375E-06
v -0.00034750966 0.000108635424 -1.05392928E-05
v -0.000246214273 6.30933064E-05 -0.000117291806
v -0.000254634913 0.000101513862 -0.000119355915
v -0.000343095366 0.000201447008 -1.28459924E-05
v -0.000254634913 0.000101513862 -0.000119355915
v -0.000365892338 0.000204507698 6.6652894E-05
v -0.00025022059 0.000194325447 -0.000121662611
v -0.000342136307 0.000237686632 5.934E-05
v -0.000320706371 0.000234851235 -1.51830909E-05
v 0.000313537865 0.000206997385 7.93176878E-05
v 0.00022784411 0.000262256857 4.63741999E-05
v 0.000215476452 0.000261474255 -8.76367085E-06
v 0.000296504179 0.000205962657 3.62277024E-06
v 0.00021551906 0.000207204808 -0.000103459359
v 0.000156509879 0.000262339105 -8.68004572E-05
v 0.000164133598 0.000259553199 -0.000184275501
v 0.000226040778 0.000203326941 -0.000237252112
v 0.00014483511 0.000259151449 -0.000237389802
v 0.000199593298 0.000202735057 -0.000310197473
v -0.000342136307 0.000237686632 5.934E-05
v -0.000249817676 0.000284613372 3.18199382E-05
v -0.000207437566 0.000283526169 6.91896639E-05
v -0.000283908827 0.000236227512 0.00011060774
v -0.000113943213 0.000279787782 9.7688433E-05
v -0.000155554706 0.000231145619 0.000149666666
v -6.28584603E-05 0.000279431348 0.000181097974
v -8.54867685E-05 0.000230607984 0.000264192204
v -1.60643449E-05 0.000277992483 0.000212752217
v -2.12690229E-05 0.000228598714 0.000307701237
v -0.000128172032 0.000217990877 -0.000325095054
v -0.000150376552 0.000272968406 -0.000246385316
v -0.000205636024 0.000221701848 -0.000322545762
v -9.39607635E-05 0.000270237913 -0.000248281955
v -4.26769247E-06 0.000213429332 -0.000273583515
v -3.67939469E-06 0.000266876217 -0.000210794213
v 0.000122419588 0.000206261277 -0.000317459693
v 8.86309135E-05 0.000261691806 -0.000242717855
v 0.000199593298 0.000202735057 -0.000310197473
v 0.00014483511 0.000259151449 -0.000237389802
v -0.000205636024 0.000221701848 -0.000322545762
v -0.000150376552 0.000272968406 -0.000246385316
v -0.000172744389 0.000275321014 -0.000194540611
v -0.000236295164 0.000224966396 -0.000251339661
v -0.000170829589 0.000277659885 -9.67735032E-05
v -0.000233604602 0.000228226185 -0.000117142794
v -0.000234249819 0.00028252363 -2.24667783E-05
v -0.000320706371 0.000234851235 -1.51830909E-05
v -0.000249817676 0.000284613372 3.18199382E-05
v -0.000342136307 0.000237686632 5.934E-05
v 0.000240307141 0.000167809718 -0.000249802455
v 0.000207631281 7.44092467E-05 -0.000325277448
v 0.000235892832 7.49981409E-05 -0.000247495773
v 0.000212045605 0.000167220831 -0.000327584741
v 0.000199593298 0.000202735057 -0.000310197473
v 0.000226040778 0.000203326941 -0.000237252112
v 0.000207631281 7.44092467E-05 -0.000325277448
v 0.00020210653 3.68511683E-05 -0.000319932093
v 0.000226775694 3.73828407E-05 -0.000252156256
v 0.000235892832 7.49981409E-05 -0.000247495773
v 0.000296504179 0.000205962657 3.62277024E-06
v 0.000215476452 0.000261474255 -8.76367085E-06
v 0.000156509879 0.000262339105 -8.68004572E-05
v 0.00021551906 0.000207204808 -0.000103459359
v -0.000150376552 0.000272968406 -0.000246385316
v -9.39607635E-05 0.000270237913 -0.000248281955
v -3.67939469E-06 0.000266876217 -0.000210794213
v -0.000172744389 0.000275321014 -0.000194540611
v 0.000164133598 0.000259553199 -0.000184275501
v -0.000170829589 0.000277659885 -9.67735032E-05
v 0.00014483511 0.000259151449 -0.000237389802
v 8.86309135E-05 0.000261691806 -0.000242717855
v 0.000156509879 0.000262339105 -8.68004572E-05
v -0.000234249819 0.00028252363 -2.24667783E-05
v 0.000215476452 0.000261474255 -8.76367085E-06
v -0.000249817676 0.000284613372 3.18199382E-05
v 0.00022784411 0.000262256857 4.63741999E-05
v -0.000207437566 0.000283526169 6.91896639E-05
v 0.000183356096 0.000265235896 8.1096885E-05
v -0.000113943213 0.000279787782 9.7688433E-05
v 8.83632893E-05 0.000270318968 0.000103850958
v -6.28584603E-05 0.000279431348 0.000181097974
v 3.24958564E-05 0.00027496813 0.000184003104
v -1.60643449E-05 0.000277992483 0.000212752217
v 4.53793982E-05 0.00022448301 0.000268178585
v -2.35790012E-05 0.000194812412 0.000331614021
v -2.12690229E-05 0.000228598714 0.000307701237
v 4.7533511E-05 0.00019038438 0.000289513468
v 0.000122018755 0.000218153597 0.000158123366
v 0.000129346838 0.000183575146 0.000172137021
v 4.31194894E-05 9.75722069E-05 0.00029182015
v -2.79930227E-05 0.000102001424 0.000333920703
v -2.82710789E-05 6.35743127E-05 0.000324490073
v 3.36495032E-05 5.97834587E-05 0.000287894014
v 0.0002524218 0.00021112441 0.000126948347
v 0.000129346838 0.000183575146 0.000172137021
v 0.000268457079 0.000176130532 0.000138815041
v 0.000313537865 0.000206997385 7.93176878E-05
v 0.000124932529 9.07635695E-05 0.000174444314
v 0.000333606149 0.000171767475 8.79663203E-05
v 0.000264042465 8.33189479E-05 0.000141121141
v 0.00032919168 7.89564801E-05 9.02730171E-05
v -0.000283908827 0.000236227512 0.00011060774
v -0.000365892338 0.000204507698 6.6652894E-05
v -0.000342136307 0.000237686632 5.934E-05
v -0.000303830195 0.000202916257 0.00012137711
v -0.000155554706 0.000231145619 0.000149666666
v 4.31194894E-05 9.75722069E-05 0.00029182015
v 4.7533511E-05 0.00019038438 0.000289513468
v 0.000129346838 0.000183575146 0.000172137021
v 0.000124932529 9.07635695E-05 0.000174444314
v 3.36495032E-05 5.97834587E-05 0.000287894014
v 0.000124932529 9.07635695E-05 0.000174444314
v 0.000119057295 5.27197117E-05 0.000165438047
v 3.36495032E-05 5.97834587E-05 0.000287894014
v -2.81688572E-05 4.56100679E-05 0.000292232638
v -2.82710789E-05 6.35743127E-05 0.000324490073
v -2.48491756E-06 4.39357755E-05 0.000277412531
v 0.000119057295 5.27197117E-05 0.000165438047
v 9.82394777E-05 1.78760292E-05 0.000135618451
v 0.000264205184 4.49723011E-05 0.000130649205
v 9.82394777E-05 1.78760292E-05 0.000135618451
v 0.000266080344 2.67493724E-05 9.36013457E-05
v 0.000320922874 4.11915753E-05 8.63456735E-05
v 0.000289178482 2.51388537E-05 7.57467715E-05
v -2.28577846E-05 2.71797171E-06 4.50587249E-05
v 5.37902088E-06 3.68356694E-07 4.54902647E-06
v -4.86767276E-05 2.89797777E-06 2.90095795E-06
v -0.000145623679 2.96121834E-05 0.000128773449
v 5.3389369E-05 -2.20060338E-06 -6.95228573E-06
v -0.000332316762 5.42235357E-05 5.68139549E-05
v -0.000310288364 5.36870939E-05 7.62206328E-05
v -0.000308898074 7.16865034E-05 0.000113145114
v -0.000166020691 6.59769794E-05 0.000156725044
v -9.59294994E-05 4.78744505E-06 -1.15019084E-05
v -0.000324487977 5.30427678E-05 2.81447174E-05
v -0.000362884108 7.30681422E-05 6.54947726E-05
v -0.000343090593 7.04777194E-05 -3.71873375E-06
v -0.000213411739 2.65938033E-05 -0.000105707048
v -6.38762067E-05 2.3293494E-06 -4.90581988E-05
v -0.000213411739 2.65938033E-05 -0.000105707048
v 2.35873449E-05 -1.76429739E-06 -4.63926772E-05
v -6.48438945E-05 1.14738941E-06 -9.84686558E-05
v -0.000214371976 4.03547274E-05 -0.000278279767
v 0.000283071538 2.46036052E-05 4.66471902E-05
v 0.000305202149 4.02706864E-05 1.59931187E-05
v 0.000320922874 4.11915753E-05 8.63456735E-05
v 0.000215155771 4.16326511E-05 -0.000103248356
v 0.000178793372 7.7164168E-06 -9.33772317E-05
v 0.000226775694 3.73828407E-05 -0.000252156256
v 0.000191257292 2.13152161E-05 -0.000265843264
v 0.00020210653 3.68511683E-05 -0.000319932093
v 0.000178793372 7.7164168E-06 -9.33772317E-05
v 0.000181147159 2.11131573E-05 -0.000293418154
v 2.74404883E-05 -3.17156309E-06 -9.56571093E-05
v -1.92150474E-05 -5.51342964E-07 -7.95215383E-05
v -1.25828383E-05 1.30701064E-05 -0.0002413404
v -0.000202915966 3.90779969E-05 -0.000305151945
v 0.000151901841 2.24119412E-05 -0.000296334008
v -0.000173292152 3.75413874E-05 -0.000306535367
v 0.000130376211 4.01234611E-05 -0.000326774723
v 0.00020210653 3.68511683E-05 -0.000319932093
v -1.06459856E-05 4.80449198E-05 -0.000278035383
v -0.000249119679 5.95402707E-05 -0.00026667476
v -0.000246214273 6.30933064E-05 -0.000117291806
v -0.000220562506 5.65540795E-05 -0.000332791213
v -0.000220562506 5.65540795E-05 -0.000332791213
v -0.000148580366 5.31446931E-05 -0.000335265388
v -1.25828383E-05 1.30701064E-05 -0.0002413404
v -0.000145623679 2.96121834E-05 0.000128773449
v -0.000166020691 6.59769794E-05 0.000156725044
v -8.79219151E-05 6.542146E-05 0.000284184207
v -5.25462601E-05 4.63712204E-05 0.000275793078
v -2.82710789E-05 6.35743127E-05 0.000324490073
v -2.81688572E-05 4.56100679E-05 0.000292232638
v -0.000145623679 2.96121834E-05 0.000128773449
v -2.28577846E-05 2.71797171E-06 4.50587249E-05
vt 0.134277344 0.547851562
vt 0.110290527 0.537597656
vt 0.110839844 0.600585938
vt 0.518554688 0.862792969
vt 0.541015625 0.830566406
vt 0.515625 0.825195312
vt 0.147827148 0.797851562
vt 0.172851562 0.703125
vt 0.145996094 0.703613281
vt 0.172851562 0.703125
vt 0.174804688 0.600097656
vt 0.147949219 0.606933594
vt 0.174682617 0.537597656
vt 0.147705078 0.548339844
vt 0.159790039 0.0477294922
vt 0.202392578 0.0292663574
vt 0.194824219 0.00557327271
vt 0.130004883 0.157470703
vt 0.15234375 0.173583984
vt 0.188232422 0.0464477539
vt 0.336425781 0.0902709961
vt 0.329101562 0.116760254
vt 0.459960938 0.111572266
vt 0.464111328 0.266113281
vt 0.437011719 0.266601562
vt 0.482177734 0.389892578
vt 0.247924805 0.0191040039
vt 0.329101562 0.116760254
vt 0.336425781 0.0902709961
vt 0.504394531 0.159790039
vt 0.437011719 0.266601562
vt 0.464111328 0.266113281
vt 0.294921875 0.569824219
vt 0.386230469 0.637207031
vt 0.386230469 0.566894531
vt 0.294921875 0.640625
vt 0.370605469 0.663574219
vt 0.28515625 0.666503906
vt 0.386230469 0.566894531
vt 0.385986328 0.537597656
vt 0.291015625 0.541015625
vt 0.294921875 0.569824219
vt 0.0408325195 0.804199219
vt 0.10559082 0.702148438
vt 0.0355529785 0.702148438
vt 0.110839844 0.804199219
vt 0.130004883 0.702148438
vt 0.110290527 0.866699219
vt 0.0402832031 0.866699219
vt 0.0105895996 0.86328125
vt 0.0110702515 0.80859375
vt 0.0355529785 0.702148438
vt 0.00557327271 0.702636719
vt 0.134887695 0.606933594
vt 0.10559082 0.702148438
vt 0.110839844 0.600585938
vt 0.134277344 0.547851562
vt 0.0355529785 0.702148438
vt 0.0408325195 0.600585938
vt 0.0402832031 0.537597656
vt 0.110290527 0.537597656
vt 0.0110626221 0.596191406
vt 0.0105743408 0.541503906
vt 0.00557327271 0.702636719
vt 0.0355529785 0.702148438
vt 0.750976562 0.617675781
vt 0.681640625 0.702148438
vt 0.752441406 0.702636719
vt 0.680664062 0.6171875
vt 0.655761719 0.698242188
vt 0.654785156 0.618652344
vt 0.680664062 0.556152344
vt 0.654785156 0.561523438
vt 0.750976562 0.556640625
vt 0.779785156 0.55859375
vt 0.779785156 0.611816406
vt 0.752441406 0.702636719
vt 0.78125 0.700195312
vt 0.654785156 0.800292969
vt 0.681640625 0.702148438
vt 0.680664062 0.811035156
vt 0.655273438 0.85546875
vt 0.752441406 0.702636719
vt 0.681152344 0.869628906
vt 0.751464844 0.811523438
vt 0.751953125 0.870117188
vt 0.780273438 0.813476562
vt 0.780761719 0.864746094
vt 0.78125 0.700195312
vt 0.752441406 0.702636719
vt 0.6328125 0.361083984
vt 0.672363281 0.332275391
vt 0.609863281 0.291748047
vt 0.547363281 0.305175781
vt 0.586914062 0.255371094
vt 0.515625 0.255371094
vt 0.245361328 0.600585938
vt 0.172851562 0.703125
vt 0.243408203 0.703613281
vt 0.174804688 0.600097656
vt 0.174682617 0.537597656
vt 0.245239258 0.537597656
vt 0.273925781 0.540039062
vt 0.273925781 0.594238281
vt 0.243408203 0.703613281
vt 0.271972656 0.701660156
vt 0.496826172 0.664550781
vt 0.406982422 0.634277344
vt 0.401611328 0.663085938
vt 0.498291016 0.635742188
vt 0.406982422 0.563476562
vt 0.406982422 0.634277344
vt 0.498291016 0.564941406
vt 0.397216797 0.537597656
vt 0.482666016 0.5390625
vt 0.611816406 0.768554688
vt 0.643554688 0.687011719
vt 0.614257812 0.68359375
vt 0.640625 0.775878906
vt 0.611816406 0.829589844
vt 0.640625 0.829101562
vt 0.614746094 0.869628906
vt 0.643554688 0.863769531
vt 0.640625 0.829101562
vt 0.611816406 0.829589844
vt 0.541015625 0.830566406
vt 0.543945312 0.870605469
vt 0.518554688 0.862792969
vt 0.697265625 0.504882812
vt 0.719238281 0.437255859
vt 0.691894531 0.404052734
vt 0.659667969 0.459472656
vt 0.672363281 0.332275391
vt 0.6328125 0.361083984
vt 0.245117188 0.866699219
vt 0.273925781 0.861816406
vt 0.273925781 0.806640625
vt 0.245361328 0.804199219
vt 0.271972656 0.701660156
vt 0.243408203 0.703613281
vt 0.174804688 0.803710938
vt 0.243408203 0.703613281
vt 0.174560547 0.866699219
vt 0.172851562 0.703125
vt 0.147705078 0.856933594
vt 0.147827148 0.797851562
vt 0.515625 0.255371094
vt 0.586914062 0.255371094
vt 0.609863281 0.218994141
vt 0.547363281 0.205444336
vt 0.6328125 0.149536133
vt 0.672363281 0.178222656
vt 0.691894531 0.106445312
vt 0.659667969 0.0510253906
vt 0.719238281 0.0733642578
vt 0.697265625 0.00557327271
vt 0.990722656 0.409667969
vt 0.933105469 0.367675781
vt 0.893066406 0.383544922
vt 0.936035156 0.431396484
vt 0.818847656 0.379882812
vt 0.833984375 0.426269531
vt 0.760742188 0.426513672
vt 0.754394531 0.490478516
vt 0.719238281 0.437255859
vt 0.697265625 0.504882812
vt 0.936035156 0.0792236328
vt 0.933105469 0.142822266
vt 0.990722656 0.100952148
vt 0.893066406 0.126953125
vt 0.833984375 0.0842285156
vt 0.818847656 0.130615234
vt 0.754394531 0.0202178955
vt 0.760742188 0.0840454102
vt 0.697265625 0.00557327271
vt 0.719238281 0.0733642578
vt 0.990722656 0.100952148
vt 0.933105469 0.142822266
vt 0.935546875 0.185791016
vt 0.994628906 0.159912109
vt 0.909179688 0.255371094
vt 0.958007812 0.255371094
vt 0.935546875 0.324951172
vt 0.994628906 0.350830078
vt 0.933105469 0.367675781
vt 0.990722656 0.409667969
vt 0.681640625 0.516113281
vt 0.750976562 0.556640625
vt 0.752441406 0.516601562
vt 0.680664062 0.556152344
vt 0.654785156 0.561523438
vt 0.655761719 0.523925781
vt 0.750976562 0.556640625
vt 0.779785156 0.55859375
vt 0.78125 0.5234375
vt 0.752441406 0.516601562
vt 0.547363281 0.205444336
vt 0.609863281 0.218994141
vt 0.672363281 0.178222656
vt 0.6328125 0.149536133
vt 0.933105469 0.142822266
vt 0.893066406 0.126953125
vt 0.818847656 0.130615234
vt 0.935546875 0.185791016
vt 0.691894531 0.106445312
vt 0.909179688 0.255371094
vt 0.719238281 0.0733642578
vt 0.760742188 0.0840454102
vt 0.672363281 0.178222656
vt 0.935546875 0.324951172
vt 0.609863281 0.218994141
vt 0.933105469 0.367675781
vt 0.586914062 0.255371094
vt 0.893066406 0.383544922
vt 0.609863281 0.291748047
vt 0.818847656 0.379882812
vt 0.672363281 0.332275391
vt 0.760742188 0.426513672
vt 0.691894531 0.404052734
vt 0.719238281 0.437255859
vt 0.516601562 0.586425781
vt 0.542480469 0.517089844
vt 0.517089844 0.531738281
vt 0.541992188 0.575683594
vt 0.518066406 0.688476562
vt 0.543457031 0.684570312
vt 0.612304688 0.574707031
vt 0.612792969 0.516113281
vt 0.642089844 0.522949219
vt 0.641601562 0.573730469
vt 0.515625 0.768066406
vt 0.543457031 0.684570312
vt 0.541015625 0.76953125
vt 0.515625 0.825195312
vt 0.614257812 0.68359375
vt 0.541015625 0.830566406
vt 0.611816406 0.768554688
vt 0.611816406 0.829589844
vt 0.134887695 0.797851562
vt 0.110290527 0.866699219
vt 0.134277344 0.856445312
vt 0.110839844 0.804199219
vt 0.130004883 0.702148438
vt 0.612304688 0.574707031
vt 0.541992188 0.575683594
vt 0.543457031 0.684570312
vt 0.614257812 0.68359375
vt 0.641601562 0.573730469
vt 0.614257812 0.68359375
vt 0.643554688 0.687011719
vt 0.0348510742 0.312255859
vt 0.030456543 0.265869141
vt 0.00557327271 0.266113281
vt 0.0423278809 0.28515625
vt 0.129882812 0.374511719
vt 0.152832031 0.359375
vt 0.159790039 0.484375
vt 0.152832031 0.359375
vt 0.188354492 0.485595703
vt 0.194702148 0.526367188
vt 0.202392578 0.502929688
vt 0.219238281 0.265869141
vt 0.250732422 0.286376953
vt 0.250732422 0.245239258
vt 0.15234375 0.173583984
vt 0.260498047 0.322753906
vt 0.202392578 0.0292663574
vt 0.188232422 0.0464477539
vt 0.159790039 0.0477294922
vt 0.130004883 0.157470703
vt 0.260498047 0.208984375
vt 0.224487305 0.034576416
vt 0.194824219 0.00557327271
vt 0.247924805 0.0191040039
vt 0.329101562 0.116760254
vt 0.290039062 0.232543945
vt 0.329101562 0.116760254
vt 0.290039062 0.299072266
vt 0.327392578 0.230712891
vt 0.459960938 0.111572266
vt 0.224487305 0.497314453
vt 0.247924805 0.512695312
vt 0.194702148 0.526367188
vt 0.336425781 0.441650391
vt 0.328857422 0.415527344
vt 0.449951172 0.447265625
vt 0.459960938 0.420654297
vt 0.500976562 0.427001953
vt 0.328857422 0.415527344
vt 0.480712891 0.412353516
vt 0.327392578 0.301025391
vt 0.314208984 0.265869141
vt 0.437011719 0.266601562
vt 0.480712891 0.119689941
vt 0.482177734 0.389892578
vt 0.482421875 0.142211914
vt 0.504394531 0.372314453
vt 0.500976562 0.427001953
vt 0.464111328 0.266113281
vt 0.449951172 0.084777832
vt 0.336425781 0.0902709961
vt 0.500976562 0.105041504
vt 0.500976562 0.105041504
vt 0.504394531 0.159790039
vt 0.437011719 0.266601562
vt 0.15234375 0.173583984
vt 0.130004883 0.157470703
vt 0.0348510742 0.219726562
vt 0.042388916 0.247070312
vt 0.00557327271 0.266113281
vt 0.030456543 0.265869141
vt 0.15234375 0.173583984
vt 0.219238281 0.265869141
vn -0.401367188 0.670898438 0.623535156
vn -0.533203125 0.273193359 0.80078125
vn -0.680175781 0.280273438 0.677246094
vn 0.727539062 0.592773438 -0.345214844
vn 0.959960938 0.176879883 -0.217895508
vn 0.782714844 0.594238281 -0.184204102
vn -0.646484375 0.657226562 -0.386962891
vn -0.732421875 0.230224609 -0.640625
vn -0.691894531 0.667480469 -0.275146484
vn -0.966308594 0.257568359 0.0128250122
vn -0.939453125 0.270751953 -0.209350586
vn -0.728027344 0.666992188 -0.159790039
vn -0.882324219 0.260253906 -0.392333984
vn -0.678222656 0.660644531 -0.322509766
vn -0.300537109 -0.795898438 0.525878906
vn -0.387695312 -0.913574219 0.124450684
vn -0.387939453 -0.822265625 0.416259766
vn -0.394287109 -0.783691406 0.479980469
vn -0.393798828 -0.783691406 0.48046875
vn -0.267333984 -0.904785156 0.33203125
vn -0.590332031 -0.786132812 -0.183105469
vn -0.592773438 -0.786132812 -0.176635742
vn -0.40625 -0.908691406 -0.0952758789
vn -0.0182189941 -0.816894531 -0.576660156
vn -0.0217590332 -0.816894531 -0.576660156
vn -0.0419616699 -0.931640625 -0.361083984
vn -0.539550781 -0.797851562 -0.269042969
vn -0.592773438 -0.786132812 -0.176635742
vn -0.590332031 -0.786132812 -0.183105469
vn 0.0814208984 -0.831054688 -0.550292969
vn -0.0217590332 -0.816894531 -0.576660156
vn -0.0182189941 -0.816894531 -0.576660156
vn 0.995605469 -0.0454101562 0.0791625977
vn 0.971679688 0.181152344 -0.151123047
vn 0.983398438 -0.135620117 -0.120605469
vn 0.983398438 0.166381836 0.0722045898
vn 0.795410156 0.595703125 -0.113342285
vn 0.766601562 0.599121094 -0.230834961
vn 0.983398438 -0.135620117 -0.120605469
vn 0.96484375 -0.215332031 -0.150878906
vn 0.966308594 -0.244018555 0.0824584961
vn 0.966308594 -0.244018555 0.0824584961
vn -0.481933594 -0.0892333984 0.871582031
vn -0.2734375 0.247436523 0.9296875
vn -0.290039062 0.0375671387 0.956054688
vn -0.475097656 0.274414062 0.8359375
vn -0.438476562 0.677246094 0.591308594
vn -0.631835938 0.276123047 0.724609375
vn -0.661132812 -0.0667724609 0.747558594
vn -0.65234375 -0.190673828 0.733886719
vn -0.494873047 -0.222167969 0.83984375
vn -0.291503906 -0.248168945 0.923828125
vn -0.291503906 -0.248168945 0.923828125
vn -0.530761719 0.674316406 0.513183594
vn -0.822265625 0.262939453 0.504882812
vn -0.680175781 0.280273438 0.677246094
vn -0.401367188 0.670898438 0.623535156
vn -0.8515625 0.0534667969 0.521484375
vn -0.725585938 -0.081237793 0.683105469
vn -0.560546875 -0.069519043 0.825195312
vn -0.533203125 0.273193359 0.80078125
vn -0.698242188 -0.21496582 0.682617188
vn -0.553710938 -0.194335938 0.810058594
vn -0.830566406 -0.228637695 0.5078125
vn -0.830566406 -0.228637695 0.5078125
vn -0.133300781 -0.0993652344 -0.985839844
vn -0.309814453 0.20300293 -0.928710938
vn -0.327148438 -0.00791931152 -0.944824219
vn -0.0903930664 0.211303711 -0.973144531
vn 0.0528564453 0.619628906 -0.783203125
vn -0.0681152344 0.620117188 -0.781738281
vn 0.101318359 0.198974609 -0.974609375
vn 0.101867676 0.611816406 -0.784179688
vn 0.0901489258 -0.0891723633 -0.991699219
vn 0.0866699219 -0.15234375 -0.984375
vn -0.103820801 -0.176391602 -0.979003906
vn -0.330322266 -0.196655273 -0.923339844
vn -0.330322266 -0.196655273 -0.923339844
vn 0.172973633 0.608886719 -0.774414062
vn 0.383300781 0.170532227 -0.907714844
vn 0.168701172 0.19909668 -0.965332031
vn 0.00348854065 0.616210938 -0.787597656
vn 0.381835938 -0.0411071777 -0.923339844
vn -0.0228881836 0.204711914 -0.978515625
vn 0.17956543 -0.108520508 -0.977539062
vn -0.0376586914 -0.0838623047 -0.995605469
vn 0.155029297 -0.181518555 -0.971191406
vn -0.0407714844 -0.150634766 -0.987792969
vn 0.368408203 -0.207641602 -0.90625
vn 0.368408203 -0.207641602 -0.90625
vn 0.462890625 0.634765625 0.618652344
vn 0.391113281 0.772460938 0.5
vn 0.260009766 0.795410156 0.547363281
vn 0.360107422 0.636230469 0.682617188
vn 0.376953125 0.829589844 0.411621094
vn 0.504882812 0.626953125 0.593261719
vn -0.980957031 -0.0736694336 -0.178955078
vn -0.966308594 0.257568359 0.0128250122
vn -0.998535156 0.0479431152 0.0184173584
vn -0.939453125 0.270751953 -0.209350586
vn -0.882324219 0.260253906 -0.392333984
vn -0.917480469 -0.0594482422 -0.393310547
vn -0.909667969 -0.155273438 -0.385498047
vn -0.960449219 -0.185180664 -0.20703125
vn -0.9765625 -0.213134766 0.0241394043
vn -0.9765625 -0.213134766 0.0241394043
vn 0.892578125 -0.208740234 -0.399658203
vn 0.776855469 -0.22265625 -0.589355469
vn 0.776855469 -0.22265625 -0.589355469
vn 0.897460938 -0.131713867 -0.421386719
vn 0.788574219 0.159057617 -0.594238281
vn 0.796386719 -0.0528564453 -0.602539062
vn 0.898925781 0.178466797 -0.400146484
vn 0.766601562 0.599121094 -0.230834961
vn 0.727539062 0.592773438 -0.345214844
vn 0.415771484 -0.118591309 0.901855469
vn 0.212280273 -0.256347656 0.942871094
vn 0.212280273 -0.256347656 0.942871094
vn 0.431640625 -0.236083984 0.870605469
vn 0.606933594 -0.108703613 0.787109375
vn 0.592773438 -0.210205078 0.77734375
vn 0.897460938 -0.131713867 -0.421386719
vn 0.892578125 -0.208740234 -0.399658203
vn 0.958984375 -0.18737793 -0.212158203
vn 0.969726562 -0.116210938 -0.215698242
vn 0.959960938 0.176879883 -0.217895508
vn 0.898925781 0.178466797 -0.400146484
vn 0.727539062 0.592773438 -0.345214844
vn 0.423583984 0.632324219 0.648925781
vn 0.319091797 0.833496094 0.451171875
vn 0.484130859 0.78125 0.394287109
vn 0.559570312 0.623046875 0.546386719
vn 0.391113281 0.772460938 0.5
vn 0.462890625 0.634765625 0.618652344
vn -0.960449219 -0.0542602539 -0.273193359
vn -0.950683594 -0.158325195 -0.266357422
vn -0.874023438 -0.181884766 -0.450927734
vn -0.878417969 -0.0755615234 -0.471923828
vn -0.751953125 -0.198974609 -0.628417969
vn -0.751953125 -0.198974609 -0.628417969
vn -0.852539062 0.260498047 -0.453369141
vn -0.759765625 0.0199890137 -0.649902344
vn -0.924316406 0.265136719 -0.275390625
vn -0.732421875 0.230224609 -0.640625
vn -0.711425781 0.6640625 -0.229736328
vn -0.646484375 0.657226562 -0.386962891
vn 0.782714844 0.594238281 -0.184204102
vn 0.57421875 0.806640625 -0.140258789
vn 0.568359375 0.759277344 -0.316162109
vn 0.727539062 0.592773438 -0.345214844
vn 0.766601562 0.599121094 -0.230834961
vn 0.639648438 0.743652344 -0.19519043
vn 0.645019531 0.762207031 -0.0553894043
vn 0.795410156 0.595703125 -0.113342285
vn 0.554199219 0.806152344 -0.207519531
vn 0.755371094 0.593261719 -0.278808594
vn -0.479248047 0.672851562 0.563476562
vn -0.322021484 0.862304688 0.390380859
vn -0.217285156 0.817871094 0.532714844
vn -0.340087891 0.668945312 0.661132812
vn -0.346923828 0.807128906 0.477783203
vn -0.438476562 0.677246094 0.591308594
vn -0.432128906 0.823730469 0.366455078
vn -0.530761719 0.674316406 0.513183594
vn -0.266601562 0.860839844 0.433349609
vn -0.401367188 0.670898438 0.623535156
vn 0.172973633 0.608886719 -0.774414062
vn 0.020690918 0.822265625 -0.568359375
vn 0.00348854065 0.616210938 -0.787597656
vn 0.190673828 0.770019531 -0.608886719
vn 0.0528564453 0.619628906 -0.783203125
vn 0.0552978516 0.760253906 -0.647460938
vn -0.0681152344 0.620117188 -0.781738281
vn -0.0806884766 0.782714844 -0.6171875
vn 0.101867676 0.611816406 -0.784179688
vn 0.0906982422 0.818847656 -0.56640625
vn -0.678222656 0.660644531 -0.322509766
vn -0.463134766 0.853515625 -0.238525391
vn -0.56640625 0.818847656 -0.0922851562
vn -0.728027344 0.666992188 -0.159790039
vn -0.554199219 0.799316406 -0.231567383
vn -0.691894531 0.667480469 -0.275146484
vn -0.475097656 0.808105469 -0.348144531
vn -0.646484375 0.657226562 -0.386962891
vn -0.486816406 0.856445312 -0.172485352
vn -0.711425781 0.6640625 -0.229736328
vn 0.971679688 0.181152344 -0.151123047
vn 0.93359375 -0.116760254 -0.338378906
vn 0.983398438 -0.135620117 -0.120605469
vn 0.924804688 0.17565918 -0.337402344
vn 0.755371094 0.593261719 -0.278808594
vn 0.795410156 0.595703125 -0.113342285
vn 0.93359375 -0.116760254 -0.338378906
vn 0.924316406 -0.183105469 -0.334716797
vn 0.96484375 -0.215332031 -0.150878906
vn 0.983398438 -0.135620117 -0.120605469
vn 0.727539062 0.592773438 -0.345214844
vn 0.568359375 0.759277344 -0.316162109
vn 0.639648438 0.743652344 -0.19519043
vn 0.766601562 0.599121094 -0.230834961
vn 0.0474853516 0.998535156 -0.0248260498
vn 0.0474853516 0.998535156 -0.0248260498
vn 0.0474853516 0.998535156 -0.0248260498
vn 0.0474853516 0.998535156 -0.0248260498
vn 0.0474853516 0.998535156 -0.0248260498
vn 0.0474853516 0.998535156 -0.0248260498
vn 0.0474853516 0.998535156 -0.0248260498
vn 0.0474853516 0.998535156 -0.0248260498
vn 0.0474853516 0.998535156 -0.0248260498
vn 0.0474853516 0.998535156 -0.0248260498
vn 0.0474853516 0.998535156 -0.0248260498
vn 0.0474853516 0.998535156 -0.0248260498
vn 0.0474853516 0.998535156 -0.0248260498
vn 0.0474853516 0.998535156 -0.0248260498
vn 0.0474853516 0.998535156 -0.0248260498
vn 0.0474853516 0.998535156 -0.0248260498
vn 0.0474853516 0.998535156 -0.0248260498
vn 0.0474853516 0.998535156 -0.0248260498
vn 0.0474853516 0.998535156 -0.0248260498
vn 0.0474853516 0.998535156 -0.0248260498
vn 0.559570312 0.623046875 0.546386719
vn 0.506835938 0.224609375 0.832519531
vn 0.423583984 0.632324219 0.648925781
vn 0.661132812 0.217529297 0.718261719
vn 0.462890625 0.634765625 0.618652344
vn 0.811035156 0.186523438 0.554199219
vn 0.672851562 -0.125732422 0.729003906
vn 0.501953125 -0.101501465 0.858886719
vn 0.488037109 -0.21081543 0.847167969
vn 0.645507812 -0.237304688 0.725585938
vn 0.360107422 0.636230469 0.682617188
vn 0.23828125 0.223510742 0.9453125
vn 0.447021484 0.231323242 0.864257812
vn 0.504882812 0.626953125 0.593261719
vn 0.233642578 0.013053894 0.972167969
vn 0.609375 0.218017578 0.762207031
vn 0.415771484 -0.118591309 0.901855469
vn 0.606933594 -0.108703613 0.787109375
vn -0.340087891 0.668945312 0.661132812
vn -0.631835938 0.276123047 0.724609375
vn -0.479248047 0.672851562 0.563476562
vn -0.475097656 0.274414062 0.8359375
vn -0.438476562 0.677246094 0.591308594
vn 0.672851562 -0.125732422 0.729003906
vn 0.661132812 0.217529297 0.718261719
vn 0.811035156 0.186523438 0.554199219
vn 0.819335938 -0.0247344971 0.572753906
vn 0.645507812 -0.237304688 0.725585938
vn 0.786132812 -0.255126953 0.562988281
vn 0.786132812 -0.255126953 0.562988281
vn 0.365966797 -0.824707031 0.431640625
vn -0.0555725098 -0.922851562 0.381347656
vn 0.228027344 -0.848144531 0.478515625
vn 0.182006836 -0.924804688 0.334716797
vn 0.295654297 -0.8125 0.502929688
vn 0.290527344 -0.812011719 0.506347656
vn 0.193115234 -0.818359375 0.541503906
vn 0.0346069336 -0.988769531 0.143676758
vn 0.161254883 -0.924804688 0.344238281
vn 0.282714844 -0.854003906 0.437011719
vn 0.292724609 -0.944824219 0.145751953
vn -0.0515441895 -0.989746094 0.133911133
vn -0.00662994385 -0.996582031 0.0846557617
vn -0.0921630859 -0.9921875 0.0827636719
vn -0.136230469 -0.980957031 0.140136719
vn 0.0548400879 -0.996582031 0.0637207031
vn -0.387695312 -0.913574219 0.124450684
vn -0.267333984 -0.904785156 0.33203125
vn -0.300537109 -0.795898438 0.525878906
vn -0.394287109 -0.783691406 0.479980469
vn -0.151611328 -0.986816406 0.0567321777
vn -0.402587891 -0.907714844 -0.11730957
vn -0.55078125 -0.825683594 -0.123596191
vn -0.539550781 -0.797851562 -0.269042969
vn -0.592773438 -0.786132812 -0.176635742
vn -0.11529541 -0.993164062 0.000473499298
vn -0.182128906 -0.982910156 -0.0243377686
vn 0.0204162598 -1 0.0050163269
vn -0.110473633 -0.991699219 -0.064453125
vn -0.40625 -0.908691406 -0.0952758789
vn 0.323974609 -0.94140625 -0.0942382812
vn 0.482666016 -0.842285156 -0.239746094
vn 0.479492188 -0.872558594 -0.0924682617
vn 0.532226562 -0.833007812 -0.150024414
vn 0.533691406 -0.833007812 -0.145507812
vn 0.53515625 -0.84375 -0.0406188965
vn 0.326416016 -0.942382812 -0.0751953125
vn 0.456542969 -0.875 -0.159790039
vn 0.0880126953 -0.99609375 -0.0151748657
vn 0.174926758 -0.949707031 -0.260498047
vn 0.0196685791 -0.998046875 -0.0615234375
vn -0.0453491211 -0.998046875 -0.045715332
vn -0.0426635742 -0.9921875 -0.115905762
vn -0.247680664 -0.9296875 -0.272705078
vn -0.0419616699 -0.931640625 -0.361083984
vn -0.0233459473 -0.931640625 -0.362792969
vn -0.124511719 -0.82421875 -0.552734375
vn 0.00991821289 -0.862304688 -0.506347656
vn -0.0182189941 -0.816894531 -0.576660156
vn -0.602050781 -0.794921875 -0.0736694336
vn -0.590332031 -0.786132812 -0.183105469
vn -0.523925781 -0.831054688 -0.18737793
vn -0.061126709 -0.857421875 -0.510742188
vn 0.0814208984 -0.831054688 -0.550292969
vn -0.0217590332 -0.816894531 -0.576660156
vn -0.393798828 -0.783691406 0.48046875
vn -0.394287109 -0.783691406 0.479980469
vn -0.462402344 -0.790527344 0.401611328
vn -0.286621094 -0.903808594 0.317382812
vn -0.334716797 -0.823730469 0.457763672
vn -0.0555725098 -0.922851562 0.381347656
vn -0.136230469 -0.980957031 0.140136719
vn -0.0515441895 -0.989746094 0.133911133
g star_0
f 3/3/3 2/2/2 1/1/1
f 6/6/6 5/5/5 4/4/4
f 9/9/9 8/8/8 7/7/7
f 11/11/11 10/10/10 9/9/9
f 12/12/12 11/11/11 9/9/9
f 13/13/13 11/11/11 12/12/12
f 14/14/14 13/13/13 12/12/12
f 17/17/17 16/16/16 15/15/15
f 20/20/20 19/19/19 18/18/18
f 23/23/23 22/22/22 21/21/21
f 26/26/26 25/25/25 24/24/24
f 29/29/29 28/28/28 27/27/27
f 32/32/32 31/31/31 30/30/30
f 35/35/35 34/34/34 33/33/33
f 34/34/34 36/36/36 33/33/33
f 36/36/36 34/34/34 37/37/37
f 38/38/38 36/36/36 37/37/37
f 41/41/41 40/40/40 39/39/39
f 42/42/42 41/41/41 39/39/39
f 45/45/45 44/44/44 43/43/43
f 44/44/44 46/46/46 43/43/43
f 46/46/46 44/44/44 47/47/47
f 43/43/43 46/46/46 48/48/48
f 49/49/49 43/43/43 48/48/48
f 49/49/49 50/50/50 43/43/43
f 50/50/50 51/51/51 43/43/43
f 52/52/52 43/43/43 51/51/51
f 53/53/53 52/52/52 51/51/51
f 47/47/47 55/55/55 54/54/54
f 55/55/55 56/56/56 54/54/54
f 54/54/54 56/56/56 57/57/57
f 56/56/56 55/55/55 58/58/58
f 59/59/59 56/56/56 58/58/58
f 59/59/59 60/60/60 56/56/56
f 60/60/60 61/61/61 56/56/56
f 59/59/59 62/62/62 60/60/60
f 62/62/62 63/63/63 60/60/60
f 62/62/62 59/59/59 64/64/64
f 59/59/59 65/65/65 64/64/64
f 68/68/68 67/67/67 66/66/66
f 67/67/67 69/69/69 66/66/66
f 69/69/69 67/67/67 70/70/70
f 71/71/71 69/69/69 70/70/70
f 72/72/72 69/69/69 71/71/71
f 66/66/66 69/69/69 72/72/72
f 73/73/73 72/72/72 71/71/71
f 74/74/74 66/66/66 72/72/72
f 74/74/74 75/75/75 66/66/66
f 75/75/75 76/76/76 66/66/66
f 77/77/77 66/66/66 76/76/76
f 78/78/78 77/77/77 76/76/76
f 70/70/70 80/80/80 79/79/79
f 80/80/80 81/81/81 79/79/79
f 79/79/79 81/81/81 82/82/82
f 81/81/81 80/80/80 83/83/83
f 81/81/81 84/84/84 82/82/82
f 85/85/85 81/81/81 83/83/83
f 86/86/86 84/84/84 81/81/81
f 85/85/85 86/86/86 81/81/81
f 85/85/85 87/87/87 86/86/86
f 87/87/87 88/88/88 86/86/86
f 89/89/89 87/87/87 85/85/85
f 90/90/90 89/89/89 85/85/85
f 93/93/93 92/92/92 91/91/91
f 94/94/94 93/93/93 91/91/91
f 95/95/95 93/93/93 94/94/94
f 96/96/96 95/95/95 94/94/94
f 99/99/99 98/98/98 97/97/97
f 98/98/98 100/100/100 97/97/97
f 97/97/97 100/100/100 101/101/101
f 102/102/102 97/97/97 101/101/101
f 102/102/102 103/103/103 97/97/97
f 103/103/103 104/104/104 97/97/97
f 105/105/105 97/97/97 104/104/104
f 106/106/106 105/105/105 104/104/104
f 109/109/109 108/108/108 107/107/107
f 108/108/108 110/110/110 107/107/107
f 112/112/112 111/111/111 110/110/110
f 111/111/111 113/113/113 110/110/110
f 113/113/113 111/111/111 114/114/114
f 115/115/115 113/113/113 114/114/114
f 118/118/118 117/117/117 116/116/116
f 117/117/117 119/119/119 116/116/116
f 116/116/116 119/119/119 120/120/120
f 119/119/119 121/121/121 120/120/120
f 124/124/124 123/123/123 122/122/122
f 125/125/125 124/124/124 122/122/122
f 126/126/126 125/125/125 122/122/122
f 127/127/127 126/126/126 122/122/122
f 126/126/126 127/127/127 128/128/128
f 131/131/131 130/130/130 129/129/129
f 132/132/132 131/131/131 129/129/129
f 133/133/133 131/131/131 132/132/132
f 134/134/134 133/133/133 132/132/132
f 137/137/137 136/136/136 135/135/135
f 138/138/138 137/137/137 135/135/135
f 139/139/139 137/137/137 138/138/138
f 140/140/140 139/139/139 138/138/138
f 138/138/138 135/135/135 141/141/141
f 138/138/138 141/141/141 142/142/142
f 135/135/135 143/143/143 141/141/141
f 141/141/141 144/144/144 142/142/142
f 141/141/141 143/143/143 145/145/145
f 144/144/144 141/141/141 146/146/146
f 146/146/146 141/141/141 145/145/145
f 149/149/149 148/148/148 147/147/147
f 150/150/150 149/149/149 147/147/147
f 153/153/153 152/152/152 151/151/151
f 154/154/154 153/153/153 151/151/151
f 155/155/155 153/153/153 154/154/154
f 156/156/156 155/155/155 154/154/154
f 159/159/159 158/158/158 157/157/157
f 160/160/160 159/159/159 157/157/157
f 161/161/161 159/159/159 160/160/160
f 162/162/162 161/161/161 160/160/160
f 163/163/163 161/161/161 162/162/162
f 164/164/164 163/163/163 162/162/162
f 165/165/165 163/163/163 164/164/164
f 166/166/166 165/165/165 164/164/164
f 169/169/169 168/168/168 167/167/167
f 168/168/168 170/170/170 167/167/167
f 167/167/167 170/170/170 171/171/171
f 170/170/170 172/172/172 171/171/171
f 171/171/171 172/172/172 173/173/173
f 172/172/172 174/174/174 173/173/173
f 173/173/173 174/174/174 175/175/175
f 174/174/174 176/176/176 175/175/175
f 179/179/179 178/178/178 177/177/177
f 180/180/180 179/179/179 177/177/177
f 181/181/181 179/179/179 180/180/180
f 182/182/182 181/181/181 180/180/180
f 183/183/183 181/181/181 182/182/182
f 184/184/184 183/183/183 182/182/182
f 185/185/185 183/183/183 184/184/184
f 186/186/186 185/185/185 184/184/184
f 189/189/189 188/188/188 187/187/187
f 188/188/188 190/190/190 187/187/187
f 187/187/187 190/190/190 191/191/191
f 192/192/192 187/187/187 191/191/191
f 195/195/195 194/194/194 193/193/193
f 196/196/196 195/195/195 193/193/193
f 199/199/199 198/198/198 197/197/197
f 200/200/200 199/199/199 197/197/197
f 203/203/203 202/202/202 201/201/201
f 201/201/201 204/204/204 203/203/203
f 203/203/203 204/204/204 205/205/205
f 204/204/204 206/206/206 205/205/205
f 203/203/203 205/205/205 207/207/207
f 207/207/207 208/208/208 203/203/203
f 206/206/206 209/209/209 205/205/205
f 206/206/206 210/210/210 209/209/209
f 210/210/210 211/211/211 209/209/209
f 210/210/210 212/212/212 211/211/211
f 212/212/212 213/213/213 211/211/211
f 212/212/212 214/214/214 213/213/213
f 214/214/214 215/215/215 213/213/213
f 214/214/214 216/216/216 215/215/215
f 216/216/216 217/217/217 215/215/215
f 216/216/216 218/218/218 217/217/217
f 218/218/218 219/219/219 217/217/217
f 218/218/218 220/220/220 219/219/219
f 223/223/223 222/222/222 221/221/221
f 222/222/222 224/224/224 221/221/221
f 221/221/221 224/224/224 225/225/225
f 224/224/224 226/226/226 225/225/225
f 227/227/227 224/224/224 222/222/222
f 228/228/228 227/227/227 222/222/222
f 228/228/228 229/229/229 227/227/227
f 229/229/229 230/230/230 227/227/227
f 225/225/225 232/232/232 231/231/231
f 232/232/232 233/233/233 231/231/231
f 231/231/231 233/233/233 234/234/234
f 233/233/233 232/232/232 235/235/235
f 233/233/233 236/236/236 234/234/234
f 237/237/237 233/233/233 235/235/235
f 236/236/236 233/233/233 238/238/238
f 233/233/233 237/237/237 238/238/238
f 241/241/241 240/240/240 239/239/239
f 240/240/240 242/242/242 239/239/239
f 239/239/239 242/242/242 243/243/243
f 246/246/246 245/245/245 244/244/244
f 247/247/247 246/246/246 244/244/244
f 249/249/249 244/244/244 248/248/248
f 250/250/250 249/249/249 248/248/248
f 253/253/253 252/252/252 251/251/251
f 252/252/252 254/254/254 251/251/251
f 251/251/251 254/254/254 255/255/255
f 254/254/254 256/256/256 255/255/255
f 255/255/255 256/256/256 257/257/257
f 258/258/258 254/254/254 252/252/252
f 256/256/256 259/259/259 257/257/257
f 257/257/257 259/259/259 260/260/260
f 259/259/259 261/261/261 260/260/260
f 261/261/261 259/259/259 258/258/258
f 258/258/258 252/252/252 262/262/262
f 262/262/262 263/263/263 258/258/258
f 261/261/261 258/258/258 263/263/263
f 263/263/263 262/262/262 264/264/264
f 265/265/265 264/264/264 262/262/262
f 263/263/263 266/266/266 261/261/261
f 266/266/266 263/263/263 264/264/264
f 264/264/264 265/265/265 267/267/267
f 265/265/265 268/268/268 267/267/267
f 267/267/267 268/268/268 269/269/269
f 269/269/269 268/268/268 270/270/270
f 267/267/267 271/271/271 264/264/264
f 266/266/266 264/264/264 271/271/271
f 271/271/271 267/267/267 272/272/272
f 272/272/272 267/267/267 273/273/273
f 274/274/274 272/272/272 273/273/273
f 275/275/275 272/272/272 274/274/274
f 276/276/276 271/271/271 272/272/272
f 272/272/272 277/277/277 276/276/276
f 278/278/278 266/266/266 271/271/271
f 278/278/278 271/271/271 276/276/276
f 279/279/279 276/276/276 277/277/277
f 279/279/279 277/277/277 280/280/280
f 281/281/281 266/266/266 278/278/278
f 281/281/281 261/261/261 266/266/266
f 261/261/261 281/281/281 282/282/282
f 283/283/283 261/261/261 282/282/282
f 282/282/282 281/281/281 284/284/284
f 281/281/281 285/285/285 284/284/284
f 284/284/284 285/285/285 286/286/286
f 285/285/285 287/287/287 286/286/286
f 286/286/286 287/287/287 288/288/288
f 278/278/278 289/289/289 281/281/281
f 287/287/287 290/290/290 288/288/288
f 287/287/287 289/289/289 291/291/291
f 289/289/289 278/278/278 291/291/291
f 291/291/291 290/290/290 287/287/287
f 292/292/292 291/291/291 278/278/278
f 278/278/278 276/276/276 292/292/292
f 279/279/279 292/292/292 276/276/276
f 291/291/291 292/292/292 293/293/293
f 293/293/293 292/292/292 279/279/279
f 290/290/290 291/291/291 293/293/293
f 293/293/293 279/279/279 294/294/294
f 280/280/280 294/294/294 279/279/279
f 293/293/293 295/295/295 290/290/290
f 294/294/294 296/296/296 293/293/293
f 290/290/290 295/295/295 297/297/297
f 298/298/298 290/290/290 297/297/297
f 297/297/297 295/295/295 299/299/299
f 294/294/294 280/280/280 300/300/300
f 300/300/300 280/280/280 301/301/301
f 302/302/302 294/294/294 300/300/300
f 296/296/296 294/294/294 303/303/303
f 304/304/304 296/296/296 303/303/303
f 305/305/305 296/296/296 304/304/304
f 308/308/308 307/307/307 306/306/306
f 309/309/309 308/308/308 306/306/306
f 308/308/308 309/309/309 310/310/310
f 309/309/309 311/311/311 310/310/310
f 311/311/311 309/309/309 312/312/312
f 313/313/313 311/311/311 312/312/312
