{
  "accessors": [
    {
      "bufferView": 2,
      "componentType": 5126,
      "count": 1792,
      "max": [
        2.25,
        3.0206868648529053,
        3.5
      ],
      "min": [
        -2.25,
        0.0,
        -3.5139968395233154
      ],
      "type": "VEC3"
    },
    {
      "bufferView": 2,
      "byteOffset": 21504,
      "componentType": 5126,
      "count": 1792,
      "max": [
        1.0,
        1.0,
        1.0
      ],
      "min": [
        -1.0,
        -1.0,
        -1.0
      ],
      "type": "VEC3"
    },
    {
      "bufferView": 1,
      "componentType": 5126,
      "count": 1792,
      "max": [
        1.0,
        1.0000001192092896
      ],
      "min": [
        0.0,
        0.0
      ],
      "type": "VEC2"
    },
    {
      "bufferView": 0,
      "componentType": 5125,
      "count": 2946,
      "type": "SCALAR"
    },
    {
      "bufferView": 2,
      "byteOffset": 43008,
      "componentType": 5126,
      "count": 36,
      "max": [
        2.25,
        3.5,
        3.5
      ],
      "min": [
        -2.25,
        3.5,
        -3.5
      ],
      "type": "VEC3"
    },
    {
      "bufferView": 2,
      "byteOffset": 43440,
      "componentType": 5126,
      "count": 36,
      "max": [
        -0.0,
        -1.0,
        -0.0
      ],
      "min": [
        -0.0,
        -1.0,
        -0.0
      ],
      "type": "VEC3"
    },
    {
      "bufferView": 1,
      "byteOffset": 14336,
      "componentType": 5126,
      "count": 36,
      "max": [
        1.0,
        1.0
      ],
      "min": [
        0.0,
        0.0
      ],
      "type": "VEC2"
    },
    {
      "bufferView": 0,
      "byteOffset": 11784,
      "componentType": 5125,
      "count": 150,
      "type": "SCALAR"
    },
    {
      "bufferView": 2,
      "byteOffset": 43872,
      "componentType": 5126,
      "count": 40,
      "max": [
        2.25,
        0.0,
        3.463674545288086
      ],
      "min": [
        -2.213674545288086,
        0.0,
        -3.463674545288086
      ],
      "type": "VEC3"
    },
    {
      "bufferView": 2,
      "byteOffset": 44352,
      "componentType": 5126,
      "count": 40,
      "max": [
        0.0,
        1.0,
        -0.0
      ],
      "min": [
        0.0,
        1.0,
        -0.0
      ],
      "type": "VEC3"
    },
    {
      "bufferView": 1,
      "byteOffset": 14624,
      "componentType": 5126,
      "count": 40,
      "max": [
        0.9919277429580688,
        0.9948107004165649
      ],
      "min": [
        0.0,
        0.0
      ],
      "type": "VEC2"
    },
    {
      "bufferView": 0,
      "byteOffset": 12384,
      "componentType": 5125,
      "count": 156,
      "type": "SCALAR"
    },
    {
      "bufferView": 2,
      "byteOffset": 44832,
      "componentType": 5126,
      "count": 176,
      "max": [
        2.25,
        3.5,
        3.5
      ],
      "min": [
        -2.25,
        0.15089578926563263,
        -3.5
      ],
      "type": "VEC3"
    },
    {
      "bufferView": 2,
      "byteOffset": 46944,
      "componentType": 5126,
      "count": 176,
      "max": [
        1.0,
        0.0,
        1.0
      ],
      "min": [
        -1.0,
        0.0,
        -1.0
      ],
      "type": "VEC3"
    },
    {
      "bufferView": 1,
      "byteOffset": 14944,
      "componentType": 5126,
      "count": 176,
      "max": [
        1.0,
        1.0
      ],
      "min": [
        0.0,
        0.0
      ],
      "type": "VEC2"
    },
    {
      "bufferView": 0,
      "byteOffset": 13008,
      "componentType": 5125,
      "count": 678,
      "type": "SCALAR"
    },
    {
      "bufferView": 2,
      "byteOffset": 49056,
      "componentType": 5126,
      "count": 898,
      "max": [
        2.271890878677368,
        1.247363567352295,
        2.666355609893799
      ],
      "min": [
        -2.25,
        0.2647470235824585,
        -3.5
      ],
      "type": "VEC3"
    },
    {
      "bufferView": 2,
      "byteOffset": 59832,
      "componentType": 5126,
      "count": 898,
      "max": [
        1.0,
        1.0,
        1.0
      ],
      "min": [
        -1.0,
        -1.0,
        -1.0
      ],
      "type": "VEC3"
    },
    {
      "bufferView": 1,
      "byteOffset": 16352,
      "componentType": 5126,
      "count": 898,
      "max": [
        0.875,
        1.0
      ],
      "min": [
        0.125,
        0.0
      ],
      "type": "VEC2"
    },
    {
      "bufferView": 0,
      "byteOffset": 15720,
      "componentType": 5125,
      "count": 2118,
      "type": "SCALAR"
    },
    {
      "bufferView": 2,
      "byteOffset": 70608,
      "componentType": 5126,
      "count": 65,
      "max": [
        2.25,
        1.005184531211853,
        2.178717613220215
      ],
      "min": [
        2.202587604522705,
        0.9544107913970947,
        2.047089099884033
      ],
      "type": "VEC3"
    },
    {
      "bufferView": 2,
      "byteOffset": 71388,
      "componentType": 5126,
      "count": 65,
      "max": [
        1.0,
        1.0,
        1.0
      ],
      "min": [
        -1.0,
        -1.0,
        -1.0
      ],
      "type": "VEC3"
    },
    {
      "bufferView": 1,
      "byteOffset": 23536,
      "componentType": 5126,
      "count": 65,
      "max": [
        0.0,
        0.0
      ],
      "min": [
        0.0,
        0.0
      ],
      "type": "VEC2"
    },
    {
      "bufferView": 0,
      "byteOffset": 24192,
      "componentType": 5125,
      "count": 114,
      "type": "SCALAR"
    },
    {
      "bufferView": 2,
      "byteOffset": 72168,
      "componentType": 5126,
      "count": 268,
      "max": [
        2.257159948348999,
        1.9944359064102173,
        2.2163171768188477
      ],
      "min": [
        2.25,
        0.021587252616882324,
        1.2914190292358398
      ],
      "type": "VEC3"
    },
    {
      "bufferView": 2,
      "byteOffset": 75384,
      "componentType": 5126,
      "count": 268,
      "max": [
        -0.9450626373291016,
        0.3268842101097107,
        0.3268892467021942
      ],
      "min": [
        -1.0,
        -0.3268844187259674,
        -0.3268892467021942
      ],
      "type": "VEC3"
    },
    {
      "bufferView": 1,
      "byteOffset": 24056,
      "componentType": 5126,
      "count": 268,
      "max": [
        0.0,
        0.0
      ],
      "min": [
        0.0,
        0.0
      ],
      "type": "VEC2"
    },
    {
      "bufferView": 0,
      "byteOffset": 24648,
      "componentType": 5125,
      "count": 498,
      "type": "SCALAR"
    },
    {
      "bufferView": 2,
      "byteOffset": 78600,
      "componentType": 5126,
      "count": 620,
      "max": [
        2.203969955444336,
        0.003222823143005371,
        3.453763961791992
      ],
      "min": [
        -2.201141595840454,
        0.0,
        -3.452749252319336
      ],
      "type": "VEC3"
    },
    {
      "bufferView": 2,
      "byteOffset": 86040,
      "componentType": 5126,
      "count": 620,
      "max": [
        1.0,
        1.0,
        1.0
      ],
      "min": [
        -1.0,
        0.0,
        0.0
      ],
      "type": "VEC3"
    },
    {
      "bufferView": 1,
      "byteOffset": 26200,
      "componentType": 5126,
      "count": 620,
      "max": [
        0.875,
        1.0
      ],
      "min": [
        0.375,
        0.0
      ],
      "type": "VEC2"
    },
    {
      "bufferView": 0,
      "byteOffset": 26640,
      "componentType": 5125,
      "count": 930,
      "type": "SCALAR"
    },
    {
      "bufferView": 2,
      "byteOffset": 93480,
      "componentType": 5126,
      "count": 48,
      "max": [
        0.04956793785095215,
        0.4565984904766083,
        2.6171460151672363
      ],
      "min": [
        -2.2390806674957275,
        0.32152286171913147,
        -3.4890809059143066
      ],
      "type": "VEC3"
    },
    {
      "bufferView": 2,
      "byteOffset": 94056,
      "componentType": 5126,
      "count": 48,
      "max": [
        1.0,
        0.0,
        1.0
      ],
      "min": [
        0.0,
        0.0,
        0.0
      ],
      "type": "VEC3"
    },
    {
      "bufferView": 1,
      "byteOffset": 31160,
      "componentType": 5126,
      "count": 48,
      "max": [
        0.5913054943084717,
        0.1872474104166031
      ],
      "min": [
        0.5336945652961731,
        0.06275258958339691
      ],
      "type": "VEC2"
    },
    {
      "bufferView": 0,
      "byteOffset": 30360,
      "componentType": 5125,
      "count": 72,
      "type": "SCALAR"
    },
    {
      "bufferView": 2,
      "byteOffset": 94632,
      "componentType": 5126,
      "count": 8,
      "max": [
        0.10132640600204468,
        2.915621519088745,
        -3.5139968395233154
      ],
      "min": [
        -1.335137128829956,
        1.3095628023147583,
        -3.5139968395233154
      ],
      "type": "VEC3"
    },
    {
      "bufferView": 2,
      "byteOffset": 94728,
      "componentType": 5126,
      "count": 8,
      "max": [
        0.0,
        0.0,
        1.0
      ],
      "min": [
        0.0,
        0.0,
        1.0
      ],
      "type": "VEC3"
    },
    {
      "bufferView": 1,
      "byteOffset": 31544,
      "componentType": 5126,
      "count": 8,
      "max": [
        0.5555554628372192,
        1.0000001192092896
      ],
      "min": [
        0.4444444179534912,
        1.0
      ],
      "type": "VEC2"
    },
    {
      "bufferView": 0,
      "byteOffset": 30648,
      "componentType": 5125,
      "count": 12,
      "type": "SCALAR"
    },
    {
      "bufferView": 2,
      "byteOffset": 94824,
      "componentType": 5126,
      "count": 528,
      "max": [
        0.8077820539474487,
        0.47768789529800415,
        0.8206433057785034
      ],
      "min": [
        -0.8074280023574829,
        -0.21366184949874878,
        -1.519669771194458
      ],
      "type": "VEC3"
    },
    {
      "bufferView": 2,
      "byteOffset": 101160,
      "componentType": 5126,
      "count": 528,
      "max": [
        0.8318474292755127,
        1.0,
        1.0
      ],
      "min": [
        -0.8318474292755127,
        -1.0,
        -1.0
      ],
      "type": "VEC3"
    },
    {
      "bufferView": 0,
      "byteOffset": 30696,
      "componentType": 5125,
      "count": 792,
      "type": "SCALAR"
    },
    {
      "bufferView": 2,
      "byteOffset": 107496,
      "componentType": 5126,
      "count": 666,
      "max": [
        0.8870463371276855,
        0.6141459941864014,
        0.8613928556442261
      ],
      "min": [
        -0.8866922855377197,
        -0.5710499882698059,
        -1.5863505601882935
      ],
      "type": "VEC3"
    },
    {
      "bufferView": 2,
      "byteOffset": 115488,
      "componentType": 5126,
      "count": 666,
      "max": [
        1.0,
        1.0,
        1.0
      ],
      "min": [
        -1.0,
        -1.0,
        -1.0
      ],
      "type": "VEC3"
    },
    {
      "bufferView": 0,
      "byteOffset": 33864,
      "componentType": 5125,
      "count": 1128,
      "type": "SCALAR"
    },
    {
      "bufferView": 2,
      "byteOffset": 123480,
      "componentType": 5126,
      "count": 216,
      "max": [
        0.8077820539474487,
        0.14212548732757568,
        0.8199888467788696
      ],
      "min": [
        -0.8074280023574829,
        -0.2066442370414734,
        -1.5311921834945679
      ],
      "type": "VEC3"
    },
    {
      "bufferView": 2,
      "byteOffset": 126072,
      "componentType": 5126,
      "count": 216,
      "max": [
        1.0,
        1.0,
        1.0
      ],
      "min": [
        -1.0,
        -1.0,
        -1.0
      ],
      "type": "VEC3"
    },
    {
      "bufferView": 0,
      "byteOffset": 38376,
      "componentType": 5125,
      "count": 324,
      "type": "SCALAR"
    },
    {
      "bufferView": 2,
      "byteOffset": 128664,
      "componentType": 5126,
      "count": 36,
      "max": [
        0.8367752432823181,
        0.16671228408813477,
        0.44673073291778564
      ],
      "min": [
        -0.8375548720359802,
        -0.1717177927494049,
        -1.488234281539917
      ],
      "type": "VEC3"
    },
    {
      "bufferView": 2,
      "byteOffset": 129096,
      "componentType": 5126,
      "count": 36,
      "max": [
        1.0,
        1.0,
        1.0
      ],
      "min": [
        -1.0,
        -1.0,
        -1.0
      ],
      "type": "VEC3"
    },
    {
      "bufferView": 1,
      "byteOffset": 31608,
      "componentType": 5126,
      "count": 36,
      "max": [
        0.875,
        1.0
      ],
      "min": [
        0.125,
        0.06463256478309631
      ],
      "type": "VEC2"
    },
    {
      "bufferView": 0,
      "byteOffset": 39672,
      "componentType": 5125,
      "count": 60,
      "type": "SCALAR"
    },
    {
      "bufferView": 2,
      "byteOffset": 129528,
      "componentType": 5126,
      "count": 62,
      "max": [
        0.8610784411430359,
        0.1917119026184082,
        0.44673073291778564
      ],
      "min": [
        -0.861858069896698,
        -0.1717177927494049,
        -0.03646838665008545
      ],
      "type": "VEC3"
    },
    {
      "bufferView": 2,
      "byteOffset": 130272,
      "componentType": 5126,
      "count": 62,
      "max": [
        1.0,
        1.0,
        1.0
      ],
      "min": [
        -1.0,
        -1.0,
        -1.0
      ],
      "type": "VEC3"
    },
    {
      "bufferView": 1,
      "byteOffset": 31896,
      "componentType": 5126,
      "count": 62,
      "max": [
        0.875,
        1.0
      ],
      "min": [
        0.125,
        0.0
      ],
      "type": "VEC2"
    },
    {
      "bufferView": 0,
      "byteOffset": 39912,
      "componentType": 5125,
      "count": 108,
      "type": "SCALAR"
    },
    {
      "bufferView": 2,
      "byteOffset": 131016,
      "componentType": 5126,
      "count": 78,
      "max": [
        0.7753621935844421,
        0.5466105937957764,
        0.834994912147522
      ],
      "min": [
        -0.7750081419944763,
        0.14148253202438354,
        0.8130594491958618
      ],
      "type": "VEC3"
    },
    {
      "bufferView": 2,
      "byteOffset": 131952,
      "componentType": 5126,
      "count": 78,
      "max": [
        1.0,
        1.0,
        -0.0
      ],
      "min": [
        -1.0,
        -1.0,
        -1.0
      ],
      "type": "VEC3"
    },
    {
      "bufferView": 0,
      "byteOffset": 40344,
      "componentType": 5125,
      "count": 138,
      "type": "SCALAR"
    },
    {
      "bufferView": 2,
      "byteOffset": 132888,
      "componentType": 5126,
      "count": 2196,
      "max": [
        0.20321743190288544,
        0.6929634809494019,
        1.0157939195632935
      ],
      "min": [
        -0.4684840142726898,
        -0.5074203014373779,
        -1.0157924890518188
      ],
      "type": "VEC3"
    },
    {
      "bufferView": 2,
      "byteOffset": 159240,
      "componentType": 5126,
      "count": 2196,
      "max": [
        1.0,
        1.0,
        1.0
      ],
      "min": [
        -1.0,
        -1.0,
        -1.0
      ],
      "type": "VEC3"
    },
    {
      "bufferView": 1,
      "byteOffset": 32392,
      "componentType": 5126,
      "count": 2196,
      "max": [
        0.875,
        0.7500000596046448
      ],
      "min": [
        0.0,
        0.0
      ],
      "type": "VEC2"
    },
    {
      "bufferView": 0,
      "byteOffset": 40896,
      "componentType": 5125,
      "count": 4344,
      "type": "SCALAR"
    },
    {
      "bufferView": 2,
      "byteOffset": 185592,
      "componentType": 5126,
      "count": 386,
      "max": [
        0.1723352074623108,
        0.5904491543769836,
        0.9258663058280945
      ],
      "min": [
        -0.3864944875240326,
        -0.31489279866218567,
        -0.9258647561073303
      ],
      "type": "VEC3"
    },
    {
      "bufferView": 2,
      "byteOffset": 190224,
      "componentType": 5126,
      "count": 386,
      "max": [
        1.0,
        1.0,
        1.0
      ],
      "min": [
        -1.0,
        -1.0,
        -1.0
      ],
      "type": "VEC3"
    },
    {
      "bufferView": 1,
      "byteOffset": 49960,
      "componentType": 5126,
      "count": 386,
      "max": [
        0.6154825687408447,
        0.745600700378418
      ],
      "min": [
        0.38924774527549744,
        0.5153688192367554
      ],
      "type": "VEC2"
    },
    {
      "bufferView": 0,
      "byteOffset": 58272,
      "componentType": 5125,
      "count": 672,
      "type": "SCALAR"
    },
    {
      "bufferView": 2,
      "byteOffset": 194856,
      "componentType": 5126,
      "count": 378,
      "max": [
        0.4733404517173767,
        0.3847336769104004,
        1.0
      ],
      "min": [
        -0.4733404517173767,
        -0.6090394854545593,
        -1.2500379085540771
      ],
      "type": "VEC3"
    },
    {
      "bufferView": 2,
      "byteOffset": 199392,
      "componentType": 5126,
      "count": 378,
      "max": [
        1.0,
        1.0,
        1.0
      ],
      "min": [
        -1.0,
        -1.0,
        -1.0
      ],
      "type": "VEC3"
    },
    {
      "bufferView": 1,
      "byteOffset": 53048,
      "componentType": 5126,
      "count": 378,
      "max": [
        0.875,
        1.0
      ],
      "min": [
        0.125,
        0.0
      ],
      "type": "VEC2"
    },
    {
      "bufferView": 0,
      "byteOffset": 60960,
      "componentType": 5125,
      "count": 732,
      "type": "SCALAR"
    },
    {
      "bufferView": 2,
      "byteOffset": 203928,
      "componentType": 5126,
      "count": 512,
      "max": [
        0.4845709800720215,
        0.7031905055046082,
        0.43467551469802856
      ],
      "min": [
        -0.4576544761657715,
        -0.22878539562225342,
        -0.43467551469802856
      ],
      "type": "VEC3"
    },
    {
      "bufferView": 2,
      "byteOffset": 210072,
      "componentType": 5126,
      "count": 512,
      "max": [
        0.9925559163093567,
        0.999755322933197,
        0.8345680832862854
      ],
      "min": [
        -0.9936680197715759,
        -0.9971451759338379,
        -0.8345680832862854
      ],
      "type": "VEC3"
    },
    {
      "bufferView": 1,
      "byteOffset": 56072,
      "componentType": 5126,
      "count": 512,
      "max": [
        0.8750001192092896,
        0.7500001192092896
      ],
      "min": [
        0.1250000149011612,
        0.0
      ],
      "type": "VEC2"
    },
    {
      "bufferView": 0,
      "byteOffset": 63888,
      "componentType": 5125,
      "count": 768,
      "type": "SCALAR"
    },
    {
      "bufferView": 2,
      "byteOffset": 216216,
      "componentType": 5126,
      "count": 2132,
      "max": [
        0.5029102563858032,
        0.17133140563964844,
        0.526126503944397
      ],
      "min": [
        -0.46389174461364746,
        -0.7529739141464233,
        -0.526126503944397
      ],
      "type": "VEC3"
    },
    {
      "bufferView": 2,
      "byteOffset": 241800,
      "componentType": 5126,
      "count": 2132,
      "max": [
        1.0,
        1.0,
        1.0
      ],
      "min": [
        -1.0,
        -1.0,
        -1.0
      ],
      "type": "VEC3"
    },
    {
      "bufferView": 1,
      "byteOffset": 60168,
      "componentType": 5126,
      "count": 2132,
      "max": [
        1.0,
        1.0
      ],
      "min": [
        0.0,
        0.01000000536441803
      ],
      "type": "VEC2"
    },
    {
      "bufferView": 0,
      "byteOffset": 66960,
      "componentType": 5125,
      "count": 3576,
      "type": "SCALAR"
    },
    {
      "bufferView": 2,
      "byteOffset": 267384,
      "componentType": 5126,
      "count": 174,
      "max": [
        0.3898836374282837,
        0.39940255880355835,
        0.16663503646850586
      ],
      "min": [
        -0.3898836374282837,
        -0.35831236839294434,
        -0.16663503646850586
      ],
      "type": "VEC3"
    },
    {
      "bufferView": 2,
      "byteOffset": 269472,
      "componentType": 5126,
      "count": 174,
      "max": [
        1.0,
        1.0,
        1.0
      ],
      "min": [
        -1.0,
        -1.0,
        -1.0
      ],
      "type": "VEC3"
    },
    {
      "bufferView": 1,
      "byteOffset": 77224,
      "componentType": 5126,
      "count": 174,
      "max": [
        0.875,
        1.0
      ],
      "min": [
        0.01000000536441803,
        0.0
      ],
      "type": "VEC2"
    },
    {
      "bufferView": 0,
      "byteOffset": 81264,
      "componentType": 5125,
      "count": 504,
      "type": "SCALAR"
    },
    {
      "bufferView": 2,
      "byteOffset": 271560,
      "componentType": 5126,
      "count": 414,
      "max": [
        0.3898836374282837,
        0.3915253281593323,
        0.16663503646850586
      ],
      "min": [
        -0.3898836374282837,
        -0.39940255880355835,
        -0.16663503646850586
      ],
      "type": "VEC3"
    },
    {
      "bufferView": 2,
      "byteOffset": 276528,
      "componentType": 5126,
      "count": 414,
      "max": [
        1.0,
        1.0,
        1.0
      ],
      "min": [
        -1.0,
        -1.0,
        -1.0
      ],
      "type": "VEC3"
    },
    {
      "bufferView": 1,
      "byteOffset": 78616,
      "componentType": 5126,
      "count": 414,
      "max": [
        0.875,
        1.0
      ],
      "min": [
        0.125,
        0.0
      ],
      "type": "VEC2"
    },
    {
      "bufferView": 0,
      "byteOffset": 83280,
      "componentType": 5125,
      "count": 1044,
      "type": "SCALAR"
    },
    {
      "bufferView": 2,
      "byteOffset": 281496,
      "componentType": 5126,
      "count": 24,
      "max": [
        0.3434470593929291,
        0.3410009741783142,
        0.1640200912952423
      ],
      "min": [
        -0.34344708919525146,
        -0.17617452144622803,
        0.16165432333946228
      ],
      "type": "VEC3"
    },
    {
      "bufferView": 2,
      "byteOffset": 281784,
      "componentType": 5126,
      "count": 24,
      "max": [
        1.0,
        1.0,
        1.0
      ],
      "min": [
        -1.0,
        -1.0,
        -1.0
      ],
      "type": "VEC3"
    },
    {
      "bufferView": 1,
      "byteOffset": 81928,
      "componentType": 5126,
      "count": 24,
      "max": [
        0.6081548929214478,
        0.8333333730697632
      ],
      "min": [
        0.44058623909950256,
        0.8333333730697632
      ],
      "type": "VEC2"
    },
    {
      "bufferView": 0,
      "byteOffset": 87456,
      "componentType": 5125,
      "count": 36,
      "type": "SCALAR"
    },
    {
      "bufferView": 2,
      "byteOffset": 282072,
      "componentType": 5126,
      "count": 578,
      "max": [
        0.3669978380203247,
        0.29085296392440796,
        0.09100198745727539
      ],
      "min": [
        -0.36699792742729187,
        -0.11657935380935669,
        -0.091968834400177
      ],
      "type": "VEC3"
    },
    {
      "bufferView": 2,
      "byteOffset": 289008,
      "componentType": 5126,
      "count": 578,
      "max": [
        1.0,
        0.9659265875816345,
        0.9659257531166077
      ],
      "min": [
        -1.0,
        -0.9659265875816345,
        -0.9659257531166077
      ],
      "type": "VEC3"
    },
    {
      "bufferView": 1,
      "byteOffset": 82120,
      "componentType": 5126,
      "count": 578,
      "max": [
        1.0,
        1.0000001192092896
      ],
      "min": [
        7.450580596923828e-08,
        0.01000000536441803
      ],
      "type": "VEC2"
    },
    {
      "bufferView": 0,
      "byteOffset": 87600,
      "componentType": 5125,
      "count": 954,
      "type": "SCALAR"
    },
    {
      "bufferView": 2,
      "byteOffset": 295944,
      "componentType": 5126,
      "count": 64,
      "max": [
        -0.010045046918094158,
        0.29115980863571167,
        -0.11123573780059814
      ],
      "min": [
        -0.0571117103099823,
        0.1265292465686798,
        -0.14394009113311768
      ],
      "type": "VEC3"
    },
    {
      "bufferView": 2,
      "byteOffset": 296712,
      "componentType": 5126,
      "count": 64,
      "max": [
        1.0,
        1.0,
        6.834485475337715e-07
      ],
      "min": [
        -1.0,
        -1.0,
        -1.1390808651867701e-07
      ],
      "type": "VEC3"
    },
    {
      "bufferView": 1,
      "byteOffset": 86744,
      "componentType": 5126,
      "count": 64,
      "max": [
        0.875,
        1.0
      ],
      "min": [
        0.125,
        0.25
      ],
      "type": "VEC2"
    },
    {
      "bufferView": 0,
      "byteOffset": 91416,
      "componentType": 5125,
      "count": 96,
      "type": "SCALAR"
    },
    {
      "bufferView": 2,
      "byteOffset": 297480,
      "componentType": 5126,
      "count": 160,
      "max": [
        0.01127643883228302,
        0.30653005838394165,
        -0.03462189435958862
      ],
      "min": [
        -0.315029501914978,
        -0.08001962304115295,
        -0.15874862670898438
      ],
      "type": "VEC3"
    },
    {
      "bufferView": 2,
      "byteOffset": 299400,
      "componentType": 5126,
      "count": 160,
      "max": [
        1.0,
        1.0,
        1.0
      ],
      "min": [
        -1.0,
        -1.0,
        -2.012526010730653e-06
      ],
      "type": "VEC3"
    },
    {
      "bufferView": 1,
      "byteOffset": 87256,
      "componentType": 5126,
      "count": 160,
      "max": [
        0.8750000596046448,
        1.0
      ],
      "min": [
        0.125,
        0.25
      ],
      "type": "VEC2"
    },
    {
      "bufferView": 0,
      "byteOffset": 91800,
      "componentType": 5125,
      "count": 384,
      "type": "SCALAR"
    },
    {
      "bufferView": 2,
      "byteOffset": 301320,
      "componentType": 5126,
      "count": 382,
      "max": [
        0.38199687004089355,
        0.39940255880355835,
        0.12415876984596252
      ],
      "min": [
        -0.3819969892501831,
        -0.12748730182647705,
        -0.14394021034240723
      ],
      "type": "VEC3"
    },
    {
      "bufferView": 2,
      "byteOffset": 305904,
      "componentType": 5126,
      "count": 382,
      "max": [
        1.0,
        0.9659264087677002,
        1.0
      ],
      "min": [
        -1.0,
        -0.9659264087677002,
        -0.9659241437911987
      ],
      "type": "VEC3"
    },
    {
      "bufferView": 1,
      "byteOffset": 88536,
      "componentType": 5126,
      "count": 382,
      "max": [
        1.0,
        1.0000001192092896
      ],
      "min": [
        0.0,
        0.5
      ],
      "type": "VEC2"
    },
    {
      "bufferView": 0,
      "byteOffset": 93336,
      "componentType": 5125,
      "count": 576,
      "type": "SCALAR"
    },
    {
      "bufferView": 2,
      "byteOffset": 310488,
      "componentType": 5126,
      "count": 88,
      "max": [
        -0.010045069269835949,
        0.29115980863571167,
        -0.04548752307891846
      ],
      "min": [
        -0.25979289412498474,
        0.02682572603225708,
        -0.13630318641662598
      ],
      "type": "VEC3"
    },
    {
      "bufferView": 2,
      "byteOffset": 311544,
      "componentType": 5126,
      "count": 88,
      "max": [
        1.0,
        0.6529364585876465,
        1.0
      ],
      "min": [
        -1.0,
        -0.6529364585876465,
        -0.9999996423721313
      ],
      "type": "VEC3"
    },
    {
      "bufferView": 1,
      "byteOffset": 91592,
      "componentType": 5126,
      "count": 88,
      "max": [
        0.625,
        0.75
      ],
      "min": [
        0.375,
        0.5
      ],
      "type": "VEC2"
    },
    {
      "bufferView": 0,
      "byteOffset": 95640,
      "componentType": 5125,
      "count": 132,
      "type": "SCALAR"
    },
    {
      "bufferView": 2,
      "byteOffset": 312600,
      "componentType": 5126,
      "count": 16,
      "max": [
        -0.38988354802131653,
        -0.24792413413524628,
        -0.11326158046722412
      ],
      "min": [
        -0.3898836672306061,
        -0.2693045735359192,
        -0.13670098781585693
      ],
      "type": "VEC3"
    },
    {
      "bufferView": 2,
      "byteOffset": 312792,
      "componentType": 5126,
      "count": 16,
      "max": [
        1.0,
        0.0,
        2.565711532120929e-12
      ],
      "min": [
        1.0,
        -3.5830880733556114e-06,
        -4.902570253761951e-06
      ],
      "type": "VEC3"
    },
    {
      "bufferView": 1,
      "byteOffset": 92296,
      "componentType": 5126,
      "count": 16,
      "max": [
        0.0,
        0.0
      ],
      "min": [
        0.0,
        0.0
      ],
      "type": "VEC2"
    },
    {
      "bufferView": 0,
      "byteOffset": 96168,
      "componentType": 5125,
      "count": 24,
      "type": "SCALAR"
    },
    {
      "bufferView": 2,
      "byteOffset": 312984,
      "componentType": 5126,
      "count": 280,
      "max": [
        -0.38988354802131653,
        0.010256677865982056,
        1.0986497402191162
      ],
      "min": [
        -0.49107325077056885,
        -0.2693045735359192,
        -0.13670098781585693
      ],
      "type": "VEC3"
    },
    {
      "bufferView": 2,
      "byteOffset": 316344,
      "componentType": 5126,
      "count": 280,
      "max": [
        1.0,
        1.0,
        1.0
      ],
      "min": [
        -1.0,
        -1.0,
        -1.0
      ],
      "type": "VEC3"
    },
    {
      "bufferView": 0,
      "byteOffset": 96264,
      "componentType": 5125,
      "count": 426,
      "type": "SCALAR"
    },
    {
      "bufferView": 2,
      "byteOffset": 319704,
      "componentType": 5126,
      "count": 84,
      "max": [
        -0.4764595031738281,
        0.005534738302230835,
        1.0939302444458008
      ],
      "min": [
        -0.508887529373169,
        -0.03760436177253723,
        1.0519795417785645
      ],
      "type": "VEC3"
    },
    {
      "bufferView": 2,
      "byteOffset": 320712,
      "componentType": 5126,
      "count": 84,
      "max": [
        0.0,
        1.0,
        1.0
      ],
      "min": [
        -1.0,
        -1.0,
        -1.0
      ],
      "type": "VEC3"
    },
    {
      "bufferView": 1,
      "byteOffset": 92424,
      "componentType": 5126,
      "count": 84,
      "max": [
        0.6201508641242981,
        0.1666666567325592
      ],
      "min": [
        0.39901620149612427,
        0.0833333283662796
      ],
      "type": "VEC2"
    },
    {
      "bufferView": 0,
      "byteOffset": 97968,
      "componentType": 5125,
      "count": 138,
      "type": "SCALAR"
    },
    {
      "bufferView": 2,
      "byteOffset": 321720,
      "componentType": 5126,
      "count": 292,
      "max": [
        0.6156655550003052,
        0.48846209049224854,
        0.16919445991516113
      ],
      "min": [
        -0.6156655550003052,
        -0.48846209049224854,
        -0.2078252136707306
      ],
      "type": "VEC3"
    },
    {
      "bufferView": 2,
      "byteOffset": 325224,
      "componentType": 5126,
      "count": 292,
      "max": [
        1.0,
        1.0,
        1.0
      ],
      "min": [
        -1.0,
        -1.0,
        -1.0
      ],
      "type": "VEC3"
    },
    {
      "bufferView": 1,
      "byteOffset": 93096,
      "componentType": 5126,
      "count": 292,
      "max": [
        0.75,
        0.875
      ],
      "min": [
        0.0,
        0.0
      ],
      "type": "VEC2"
    },
    {
      "bufferView": 0,
      "byteOffset": 98520,
      "componentType": 5125,
      "count": 492,
      "type": "SCALAR"
    },
    {
      "bufferView": 2,
      "byteOffset": 328728,
      "componentType": 5126,
      "count": 8,
      "max": [
        0.6026199460029602,
        0.47541648149490356,
        0.10253134369850159
      ],
      "min": [
        -0.6026199460029602,
        -0.1841076910495758,
        0.10253134369850159
      ],
      "type": "VEC3"
    },
    {
      "bufferView": 2,
      "byteOffset": 328824,
      "componentType": 5126,
      "count": 8,
      "max": [
        0.0,
        0.0,
        1.0
      ],
      "min": [
        0.0,
        0.0,
        1.0
      ],
      "type": "VEC3"
    },
    {
      "bufferView": 1,
      "byteOffset": 95432,
      "componentType": 5126,
      "count": 8,
      "max": [
        0.6205153465270996,
        0.875
      ],
      "min": [
        0.3794846832752228,
        0.7526485919952393
      ],
      "type": "VEC2"
    },
    {
      "bufferView": 0,
      "byteOffset": 100488,
      "componentType": 5125,
      "count": 12,
      "type": "SCALAR"
    },
    {
      "bufferView": 2,
      "byteOffset": 328920,
      "componentType": 5126,
      "count": 210,
      "max": [
        1.1177756786346436,
        0.05055011808872223,
        -0.10616274178028107
      ],
      "min": [
        -0.0074070170521736145,
        -1.3270376920700073,
        -0.24331259727478027
      ],
      "type": "VEC3"
    },
    {
      "bufferView": 2,
      "byteOffset": 331440,
      "componentType": 5126,
      "count": 210,
      "max": [
        1.0,
        1.0,
        1.0
      ],
      "min": [
        -1.0,
        -1.0,
        -1.0
      ],
      "type": "VEC3"
    },
    {
      "bufferView": 1,
      "byteOffset": 95496,
      "componentType": 5126,
      "count": 210,
      "max": [
        0.6250000596046448,
        0.5
      ],
      "min": [
        0.6132070422172546,
        0.4999999403953552
      ],
      "type": "VEC2"
    },
    {
      "bufferView": 0,
      "byteOffset": 100536,
      "componentType": 5125,
      "count": 408,
      "type": "SCALAR"
    },
    {
      "bufferView": 2,
      "byteOffset": 333960,
      "componentType": 5126,
      "count": 1601,
      "max": [
        0.37364625930786133,
        0.011777335777878761,
        0.14588221907615662
      ],
      "min": [
        -0.37364625930786133,
        -0.03092287853360176,
        -0.14588221907615662
      ],
      "type": "VEC3"
    },
    {
      "bufferView": 2,
      "byteOffset": 353172,
      "componentType": 5126,
      "count": 1601,
      "max": [
        1.0,
        0.9968958497047424,
        1.0
      ],
      "min": [
        -1.0,
        -1.0,
        -1.0
      ],
      "type": "VEC3"
    },
    {
      "bufferView": 1,
      "byteOffset": 97176,
      "componentType": 5126,
      "count": 1601,
      "max": [
        0.875,
        1.0
      ],
      "min": [
        0.37499991059303284,
        0.0
      ],
      "type": "VEC2"
    },
    {
      "bufferView": 0,
      "byteOffset": 102168,
      "componentType": 5125,
      "count": 3231,
      "type": "SCALAR"
    },
    {
      "bufferView": 2,
      "byteOffset": 372384,
      "componentType": 5126,
      "count": 336,
      "max": [
        0.3502296209335327,
        0.030466560274362564,
        0.07493866235017776
      ],
      "min": [
        -0.35144150257110596,
        0.017083190381526947,
        -0.09451811760663986
      ],
      "type": "VEC3"
    },
    {
      "bufferView": 2,
      "byteOffset": 376416,
      "componentType": 5126,
      "count": 336,
      "max": [
        9.9839185807582e-09,
        0.9968959093093872,
        0.07873306423425674
      ],
      "min": [
        -6.428964915983215e-09,
        0.9968957304954529,
        0.07873159646987915
      ],
      "type": "VEC3"
    },
    {
      "bufferView": 1,
      "byteOffset": 109984,
      "componentType": 5126,
      "count": 336,
      "max": [
        0.8599854707717896,
        0.7051973938941956
      ],
      "min": [
        0.6408440470695496,
        0.5461429953575134
      ],
      "type": "VEC2"
    },
    {
      "bufferView": 0,
      "byteOffset": 115092,
      "componentType": 5125,
      "count": 504,
      "type": "SCALAR"
    },
    {
      "bufferView": 2,
      "byteOffset": 380448,
      "componentType": 5126,
      "count": 2635,
      "max": [
        0.3614698648452759,
        0.03092288039624691,
        0.08435869961977005
      ],
      "min": [
        -0.3626817464828491,
        -0.006406649947166443,
        -0.10750874131917953
      ],
      "type": "VEC3"
    },
    {
      "bufferView": 2,
      "byteOffset": 412068,
      "componentType": 5126,
      "count": 2635,
      "max": [
        0.9723644256591797,
        0.9968958497047424,
        0.9877275824546814
      ],
      "min": [
        -0.9723644256591797,
        0.1561868041753769,
        -0.9509642720222473
      ],
      "type": "VEC3"
    },
    {
      "bufferView": 1,
      "byteOffset": 112672,
      "componentType": 5126,
      "count": 2635,
      "max": [
        0.8630369901657104,
        0.7142857313156128
      ],
      "min": [
        0.637340784072876,
        0.5357142686843872
      ],
      "type": "VEC2"
    },
    {
      "bufferView": 0,
      "byteOffset": 117108,
      "componentType": 5125,
      "count": 4071,
      "type": "SCALAR"
    },
    {
      "bufferView": 2,
      "byteOffset": 443688,
      "componentType": 5126,
      "count": 22,
      "max": [
        0.7332539558410645,
        0.003830432891845703,
        0.2254941463470459
      ],
      "min": [
        -0.7332537174224854,
        -0.0038303732872009277,
        -0.2254941463470459
      ],
      "type": "VEC3"
    },
    {
      "bufferView": 2,
      "byteOffset": 443952,
      "componentType": 5126,
      "count": 22,
      "max": [
        0.0,
        1.0,
        -0.0
      ],
      "min": [
        0.0,
        -1.0,
        -0.0
      ],
      "type": "VEC3"
    },
    {
      "bufferView": 1,
      "byteOffset": 133752,
      "componentType": 5126,
      "count": 22,
      "max": [
        0.875,
        0.75
      ],
      "min": [
        0.125,
        0.5
      ],
      "type": "VEC2"
    },
    {
      "bufferView": 0,
      "byteOffset": 133392,
      "componentType": 5125,
      "count": 36,
      "type": "SCALAR"
    },
    {
      "bufferView": 2,
      "byteOffset": 444216,
      "componentType": 5126,
      "count": 32,
      "max": [
        0.7332539558410645,
        0.003830432891845703,
        0.2254941463470459
      ],
      "min": [
        -0.7332537174224854,
        -0.0038303732872009277,
        -0.2254941463470459
      ],
      "type": "VEC3"
    },
    {
      "bufferView": 2,
      "byteOffset": 444600,
      "componentType": 5126,
      "count": 32,
      "max": [
        1.0,
        0.0,
        1.0
      ],
      "min": [
        -1.0,
        0.0,
        -1.0
      ],
      "type": "VEC3"
    },
    {
      "bufferView": 1,
      "byteOffset": 133928,
      "componentType": 5126,
      "count": 32,
      "max": [
        0.625,
        1.0
      ],
      "min": [
        0.375,
        0.0
      ],
      "type": "VEC2"
    },
    {
      "bufferView": 0,
      "byteOffset": 133536,
      "componentType": 5125,
      "count": 48,
      "type": "SCALAR"
    },
    {
      "bufferView": 2,
      "byteOffset": 444984,
      "componentType": 5126,
      "count": 607,
      "max": [
        0.057198941707611084,
        0.02916708029806614,
        0.11045290529727936
      ],
      "min": [
        -0.057198941707611084,
        -0.02916708029806614,
        -0.11045290529727936
      ],
      "type": "VEC3"
    },
    {
      "bufferView": 2,
      "byteOffset": 452268,
      "componentType": 5126,
      "count": 607,
      "max": [
        1.0,
        0.9990893602371216,
        0.9958536624908447
      ],
      "min": [
        -1.0,
        -1.0,
        -0.9307544231414795
      ],
      "type": "VEC3"
    },
    {
      "bufferView": 1,
      "byteOffset": 134184,
      "componentType": 5126,
      "count": 607,
      "max": [
        1.0,
        1.0000001192092896
      ],
      "min": [
        0.0,
        0.0
      ],
      "type": "VEC2"
    },
    {
      "bufferView": 0,
      "byteOffset": 133728,
      "componentType": 5125,
      "count": 984,
      "type": "SCALAR"
    },
    {
      "bufferView": 2,
      "byteOffset": 459552,
      "componentType": 5126,
      "count": 40,
      "max": [
        0.0014742269413545728,
        0.02916708029806614,
        0.03220129758119583
      ],
      "min": [
        -0.056489378213882446,
        0.0027390059549361467,
        -0.06487883627414703
      ],
      "type": "VEC3"
    },
    {
      "bufferView": 2,
      "byteOffset": 460032,
      "componentType": 5126,
      "count": 40,
      "max": [
        0.0,
        0.9471450448036194,
        0.8920770287513733
      ],
      "min": [
        -0.9891616702079773,
        -0.9471451044082642,
        -0.8920770883560181
      ],
      "type": "VEC3"
    },
    {
      "bufferView": 1,
      "byteOffset": 139040,
      "componentType": 5126,
      "count": 40,
      "max": [
        1.0,
        0.8333333730697632
      ],
      "min": [
        0.0,
        0.0
      ],
      "type": "VEC2"
    },
    {
      "bufferView": 0,
      "byteOffset": 137664,
      "componentType": 5125,
      "count": 60,
      "type": "SCALAR"
    },
    {
      "bufferView": 2,
      "byteOffset": 460512,
      "componentType": 5126,
      "count": 2372,
      "max": [
        1.035947322845459,
        1.231338620185852,
        0.01055860798805952
      ],
      "min": [
        -1.0583953857421875,
        -0.5778458714485168,
        -0.010558727197349072
      ],
      "type": "VEC3"
    },
    {
      "bufferView": 2,
      "byteOffset": 488976,
      "componentType": 5126,
      "count": 2372,
      "max": [
        0.8768637180328369,
        0.9999281167984009,
        1.0
      ],
      "min": [
        -0.9070783257484436,
        -0.9999549388885498,
        -0.9999999403953552
      ],
      "type": "VEC3"
    },
    {
      "bufferView": 1,
      "byteOffset": 139360,
      "componentType": 5126,
      "count": 2372,
      "max": [
        0.6212264895439148,
        1.0
      ],
      "min": [
        0.0,
        0.0
      ],
      "type": "VEC2"
    },
    {
      "bufferView": 0,
      "byteOffset": 137904,
      "componentType": 5125,
      "count": 3504,
      "type": "SCALAR"
    },
    {
      "bufferView": 2,
      "byteOffset": 517440,
      "componentType": 5126,
      "count": 188,
      "max": [
        1.004513144493103,
        1.231338620185852,
        0.010546687059104443
      ],
      "min": [
        -1.0044288635253906,
        -0.5071461200714111,
        -0.010533313266932964
      ],
      "type": "VEC3"
    },
    {
      "bufferView": 2,
      "byteOffset": 519696,
      "componentType": 5126,
      "count": 188,
      "max": [
        0.8660234808921814,
        0.4999971389770508,
        0.9999998807907104
      ],
      "min": [
        -0.00038509469595737755,
        -0.4999809265136719,
        0.0025035268627107143
      ],
      "type": "VEC3"
    },
    {
      "bufferView": 1,
      "byteOffset": 158336,
      "componentType": 5126,
      "count": 188,
      "max": [
        0.6050000190734863,
        1.0
      ],
      "min": [
        0.375,
        0.2499999850988388
      ],
      "type": "VEC2"
    },
    {
      "bufferView": 0,
      "byteOffset": 151920,
      "componentType": 5125,
      "count": 264,
      "type": "SCALAR"
    },
    {
      "bufferView": 2,
      "byteOffset": 521952,
      "componentType": 5126,
      "count": 56,
      "max": [
        -2.702544689178467,
        -0.8302186131477356,
        0.055306196212768555
      ],
      "min": [
        -2.753934383392334,
        -0.8811854720115662,
        0.004641294479370117
      ],
      "type": "VEC3"
    },
    {
      "bufferView": 2,
      "byteOffset": 522624,
      "componentType": 5126,
      "count": 56,
      "max": [
        1.0,
        1.0,
        1.0
      ],
      "min": [
        -1.0,
        -1.0,
        -1.0
      ],
      "type": "VEC3"
    },
    {
      "bufferView": 0,
      "byteOffset": 152976,
      "componentType": 5125,
      "count": 84,
      "type": "SCALAR"
    },
    {
      "bufferView": 2,
      "byteOffset": 523296,
      "componentType": 5126,
      "count": 84,
      "max": [
        -2.7072641849517822,
        -0.8349405527114868,
        0.004641294479370117
      ],
      "min": [
        -2.7492148876190186,
        -0.8780796527862549,
        -0.027786731719970703
      ],
      "type": "VEC3"
    },
    {
      "bufferView": 2,
      "byteOffset": 524304,
      "componentType": 5126,
      "count": 84,
      "max": [
        1.0,
        1.0,
        0.0
      ],
      "min": [
        -1.0,
        -1.0,
        -1.0
      ],
      "type": "VEC3"
    },
    {
      "bufferView": 1,
      "byteOffset": 159840,
      "componentType": 5126,
      "count": 84,
      "max": [
        0.6201508641242981,
        0.1666666567325592
      ],
      "min": [
        0.39901620149612427,
        0.0833333283662796
      ],
      "type": "VEC2"
    },
    {
      "bufferView": 0,
      "byteOffset": 153312,
      "componentType": 5125,
      "count": 138,
      "type": "SCALAR"
    },
    {
      "bufferView": 2,
      "byteOffset": 525312,
      "componentType": 5126,
      "count": 126,
      "max": [
        -1.0420457124710083,
        -0.5428500771522522,
        0.06466454267501831
      ],
      "min": [
        -2.731297254562378,
        -1.049112319946289,
        -0.004049261566251516
      ],
      "type": "VEC3"
    },
    {
      "bufferView": 2,
      "byteOffset": 526824,
      "componentType": 5126,
      "count": 126,
      "max": [
        1.0,
        0.9999517798423767,
        0.9999961853027344
      ],
      "min": [
        -1.0,
        -0.9999472498893738,
        -0.9999961256980896
      ],
      "type": "VEC3"
    },
    {
      "bufferView": 1,
      "byteOffset": 160512,
      "componentType": 5126,
      "count": 126,
      "max": [
        0.6212264895439148,
        0.4166666865348816
      ],
      "min": [
        0.6212263107299805,
        0.3333333134651184
      ],
      "type": "VEC2"
    },
    {
      "bufferView": 0,
      "byteOffset": 153864,
      "componentType": 5125,
      "count": 192,
      "type": "SCALAR"
    },
    {
      "bufferView": 2,
      "byteOffset": 528336,
      "componentType": 5126,
      "count": 94,
      "max": [
        1.0033130645751953,
        0.2592061460018158,
        0.010546687059104443
      ],
      "min": [
        -1.003222942352295,
        -0.5776481032371521,
        -0.010349259711802006
      ],
      "type": "VEC3"
    },
    {
      "bufferView": 2,
      "byteOffset": 529464,
      "componentType": 5126,
      "count": 94,
      "max": [
        0.8659619688987732,
        0.4999658167362213,
        0.9999998807907104
      ],
      "min": [
        -0.00038509449223056436,
        -0.0005520399427041411,
        -0.012000593356788158
      ],
      "type": "VEC3"
    },
    {
      "bufferView": 1,
      "byteOffset": 161520,
      "componentType": 5126,
      "count": 94,
      "max": [
        0.6050000190734863,
        0.75
      ],
      "min": [
        0.0,
        0.0
      ],
      "type": "VEC2"
    },
    {
      "bufferView": 0,
      "byteOffset": 154632,
      "componentType": 5125,
      "count": 132,
      "type": "SCALAR"
    },
    {
      "bufferView": 2,
      "byteOffset": 530592,
      "componentType": 5126,
      "count": 668,
      "max": [
        0.15477091073989868,
        0.1259000301361084,
        0.15310657024383545
      ],
      "min": [
        -0.15266066789627075,
        -0.11310313642024994,
        -0.1543249785900116
      ],
      "type": "VEC3"
    },
    {
      "bufferView": 2,
      "byteOffset": 538608,
      "componentType": 5126,
      "count": 668,
      "max": [
        0.9344264268875122,
        1.0,
        0.9960037469863892
      ],
      "min": [
        -0.934426486492157,
        -1.0,
        -0.9960037469863892
      ],
      "type": "VEC3"
    },
    {
      "bufferView": 1,
      "byteOffset": 162272,
      "componentType": 5126,
      "count": 668,
      "max": [
        1.0,
        1.0
      ],
      "min": [
        0.0,
        0.0
      ],
      "type": "VEC2"
    },
    {
      "bufferView": 0,
      "byteOffset": 155160,
      "componentType": 5125,
      "count": 1038,
      "type": "SCALAR"
    },
    {
      "bufferView": 2,
      "byteOffset": 546624,
      "componentType": 5126,
      "count": 120,
      "max": [
        0.18349935114383698,
        -0.05363567918539047,
        0.03324218839406967
      ],
      "min": [
        0.07365217804908752,
        -0.16334573924541473,
        -0.06402496993541718
      ],
      "type": "VEC3"
    },
    {
      "bufferView": 2,
      "byteOffset": 548064,
      "componentType": 5126,
      "count": 120,
      "max": [
        0.8961384296417236,
        0.9544236063957214,
        0.9990184307098389
      ],
      "min": [
        -0.9657244682312012,
        -0.8907228708267212,
        -0.9990184903144836
      ],
      "type": "VEC3"
    },
    {
      "bufferView": 1,
      "byteOffset": 167616,
      "componentType": 5126,
      "count": 120,
      "max": [
        1.0,
        0.7500000596046448
      ],
      "min": [
        0.0,
        0.0
      ],
      "type": "VEC2"
    },
    {
      "bufferView": 0,
      "byteOffset": 159312,
      "componentType": 5125,
      "count": 168,
      "type": "SCALAR"
    },
    {
      "bufferView": 2,
      "byteOffset": 549504,
      "componentType": 5126,
      "count": 120,
      "max": [
        -0.0736522451043129,
        -0.0507315993309021,
        0.061588138341903687
      ],
      "min": [
        -0.18349938094615936,
        -0.16044166684150696,
        -0.03567899763584137
      ],
      "type": "VEC3"
    },
    {
      "bufferView": 2,
      "byteOffset": 550944,
      "componentType": 5126,
      "count": 120,
      "max": [
        0.9676965475082397,
        0.9519070386886597,
        0.9990184307098389
      ],
      "min": [
        -0.8961387276649475,
        -0.8907228708267212,
        -0.9990184307098389
      ],
      "type": "VEC3"
    },
    {
      "bufferView": 1,
      "byteOffset": 168576,
      "componentType": 5126,
      "count": 120,
      "max": [
        1.0,
        0.7500000596046448
      ],
      "min": [
        0.0,
        0.0
      ],
      "type": "VEC2"
    },
    {
      "bufferView": 0,
      "byteOffset": 159984,
      "componentType": 5125,
      "count": 168,
      "type": "SCALAR"
    },
    {
      "bufferView": 2,
      "byteOffset": 552384,
      "componentType": 5126,
      "count": 64,
      "max": [
        0.11104916781187057,
        -0.025388196110725403,
        0.07165046781301498
      ],
      "min": [
        -0.11043424159288406,
        -0.09175753593444824,
        -0.07286892086267471
      ],
      "type": "VEC3"
    },
    {
      "bufferView": 2,
      "byteOffset": 553152,
      "componentType": 5126,
      "count": 64,
      "max": [
        0.7229902744293213,
        0.724536657333374,
        0.9272498488426208
      ],
      "min": [
        -0.7229902148246765,
        -0.7245367169380188,
        -0.9272496700286865
      ],
      "type": "VEC3"
    },
    {
      "bufferView": 1,
      "byteOffset": 169536,
      "componentType": 5126,
      "count": 64,
      "max": [
        1.0,
        0.7500000596046448
      ],
      "min": [
        0.0,
        0.75
      ],
      "type": "VEC2"
    },
    {
      "bufferView": 0,
      "byteOffset": 160656,
      "componentType": 5125,
      "count": 96,
      "type": "SCALAR"
    },
    {
      "bufferView": 2,
      "byteOffset": 553920,
      "componentType": 5126,
      "count": 220,
      "max": [
        0.1642281413078308,
        0.02335434779524803,
        0.09506991505622864
      ],
      "min": [
        -0.1642281413078308,
        -0.02335434779524803,
        -0.09506991505622864
      ],
      "type": "VEC3"
    },
    {
      "bufferView": 2,
      "byteOffset": 556560,
      "componentType": 5126,
      "count": 220,
      "max": [
        1.0,
        1.0,
        1.0
      ],
      "min": [
        -1.0,
        -1.0,
        -1.0
      ],
      "type": "VEC3"
    },
    {
      "bufferView": 1,
      "byteOffset": 170048,
      "componentType": 5126,
      "count": 220,
      "max": [
        0.7522242069244385,
        0.7500000596046448
      ],
      "min": [
        0.24780058860778809,
        0.37287598848342896
      ],
      "type": "VEC2"
    },
    {
      "bufferView": 0,
      "byteOffset": 161040,
      "componentType": 5125,
      "count": 342,
      "type": "SCALAR"
    },
    {
      "bufferView": 2,
      "byteOffset": 559200,
      "componentType": 5126,
      "count": 16,
      "max": [
        0.1585395634174347,
        0.018368486315011978,
        0.08964627981185913
      ],
      "min": [
        -0.1585395634174347,
        -0.018368486315011978,
        -0.09055718034505844
      ],
      "type": "VEC3"
    },
    {
      "bufferView": 2,
      "byteOffset": 559392,
      "componentType": 5126,
      "count": 16,
      "max": [
        1.0,
        0.0,
        -0.0
      ],
      "min": [
        -1.0,
        0.0,
        -1.0
      ],
      "type": "VEC3"
    },
    {
      "bufferView": 1,
      "byteOffset": 171808,
      "componentType": 5126,
      "count": 16,
      "max": [
        0.7112203240394592,
        0.75
      ],
      "min": [
        0.6293298006057739,
        0.5137943625450134
      ],
      "type": "VEC2"
    },
    {
      "bufferView": 0,
      "byteOffset": 162408,
      "componentType": 5125,
      "count": 30,
      "type": "SCALAR"
    }
  ],
  "asset": {
    "extras": {
      "author": "Waven (https://sketchfab.com/wavenquack24)",
      "license": "CC-BY-4.0 (http://creativecommons.org/licenses/by/4.0/)",
      "source": "https://sketchfab.com/3d-models/low-poly-gaming-bedroom-3799700f186a4104ae570ea0c92a82fd",
      "title": "Low Poly Gaming Bedroom"
    },
    "generator": "Sketchfab-12.68.0",
    "version": "2.0"
  },
  "bufferViews": [
    {
      "buffer": 0,
      "byteLength": 162528,
      "name": "floatBufferViews",
      "target": 34963
    },
    {
      "buffer": 0,
      "byteLength": 171936,
      "byteOffset": 162528,
      "byteStride": 8,
      "name": "floatBufferViews",
      "target": 34962
    },
    {
      "buffer": 0,
      "byteLength": 559584,
      "byteOffset": 334464,
      "byteStride": 12,
      "name": "floatBufferViews",
      "target": 34962
    }
  ],
  "buffers": [
    {
      "byteLength": 894048,
      "uri": "scene.bin"
    }
  ],
  "materials": [
    {
      "doubleSided": true,
      "name": "Baseboard",
      "pbrMetallicRoughness": {
        "baseColorFactor": [
          0.456403,
          0.456403,
          0.456403,
          1.0
        ],
        "metallicFactor": 0.0
      }
    },
    {
      "doubleSided": true,
      "name": "Ceiling",
      "pbrMetallicRoughness": {
        "baseColorFactor": [
          0.498034,
          0.594811,
          0.784231,
          1.0
        ],
        "metallicFactor": 0.0
      }
    },
    {
      "doubleSided": true,
      "name": "Floor",
      "pbrMetallicRoughness": {
        "baseColorFactor": [
          0.471952,
          0.294109,
          0.159977,
          1.0
        ],
        "metallicFactor": 0.0
      }
    },
    {
      "doubleSided": true,
      "name": "Wall",
      "pbrMetallicRoughness": {
        "baseColorFactor": [
          0.40632920560616337,
          0.3346417458544336,
          0.3346417458544336,
          1.0
        ],
        "metallicFactor": 0.0
      }
    },
    {
      "doubleSided": true,
      "name": "LightSwitch",
      "pbrMetallicRoughness": {
        "baseColorFactor": [
          0.816276,
          0.816276,
          0.816276,
          1.0
        ],
        "metallicFactor": 0.0
      }
    },
    {
      "doubleSided": true,
      "name": "DoorHandle",
      "pbrMetallicRoughness": {
        "baseColorFactor": [
          0.349326,
          0.349326,
          0.349326,
          1.0
        ],
        "metallicFactor": 0.0
      }
    },
    {
      "doubleSided": true,
      "name": "Door",
      "pbrMetallicRoughness": {
        "baseColorFactor": [
          0.732478,
          0.732478,
          0.732478,
          1.0
        ],
        "metallicFactor": 0.0
      }
    },
    {
      "doubleSided": true,
      "name": "Planks",
      "pbrMetallicRoughness": {
        "baseColorFactor": [
          0.742664,
          0.512895,
          0.260886,
          1.0
        ],
        "metallicFactor": 0.0
      }
    },
    {
      "doubleSided": true,
      "name": "Hole",
      "pbrMetallicRoughness": {
        "baseColorFactor": [
          0.0703575,
          0.0703575,
          0.0703575,
          1.0
        ],
        "metallicFactor": 0.0
      }
    },
    {
      "alphaMode": "BLEND",
      "emissiveFactor": [
        0.00792565,
        0.00792565,
        0.00792565
      ],
      "name": "Glass",
      "pbrMetallicRoughness": {
        "baseColorFactor": [
          0.679545,
          0.733389,
          0.8,
          0.07450141128342036
        ],
        "metallicFactor": 0.0,
        "roughnessFactor": 0.0
      }
    },
    {
      "doubleSided": true,
      "name": "Pillow",
      "pbrMetallicRoughness": {
        "baseColorFactor": [
          0.673077,
          0.673077,
          0.673077,
          1.0
        ],
        "metallicFactor": 0.0
      }
    },
    {
      "doubleSided": true,
      "name": "Wood1",
      "pbrMetallicRoughness": {
        "baseColorFactor": [
          0.0575723,
          0.0603538,
          0.065295,
          1.0
        ],
        "metallicFactor": 0.0
      }
    },
    {
      "doubleSided": true,
      "name": "Bedsheets",
      "pbrMetallicRoughness": {
        "baseColorFactor": [
          0.598393,
          0.598393,
          0.598393,
          1.0
        ],
        "metallicFactor": 0.0
      }
    },
    {
      "doubleSided": true,
      "name": "Blanket",
      "pbrMetallicRoughness": {
        "baseColorFactor": [
          0.35054,
          0.718995,
          0.8,
          1.0
        ],
        "metallicFactor": 0.0
      }
    },
    {
      "doubleSided": true,
      "name": "InsideBlanket",
      "pbrMetallicRoughness": {
        "baseColorFactor": [
          0.212003,
          0.294996,
          0.362645,
          1.0
        ],
        "metallicFactor": 0.0
      }
    },
    {
      "doubleSided": true,
      "name": "BedHead",
      "pbrMetallicRoughness": {
        "baseColorFactor": [
          0.356609,
          0.562024,
          0.692552,
          1.0
        ],
        "metallicFactor": 0.0
      }
    },
    {
      "doubleSided": true,
      "name": "Wood2",
      "pbrMetallicRoughness": {
        "baseColorFactor": [
          0.702411,
          0.702411,
          0.702411,
          1.0
        ],
        "metallicFactor": 0.0
      }
    },
    {
      "doubleSided": true,
      "name": "Chair",
      "pbrMetallicRoughness": {
        "baseColorFactor": [
          0.0277183,
          0.0277183,
          0.0277183,
          1.0
        ],
        "metallicFactor": 0.0
      }
    },
    {
      "doubleSided": true,
      "name": "Plastic",
      "pbrMetallicRoughness": {
        "baseColorFactor": [
          0.122612,
          0.122612,
          0.122612,
          1.0
        ],
        "metallicFactor": 0.0
      }
    },
    {
      "doubleSided": true,
      "name": "Case",
      "pbrMetallicRoughness": {
        "baseColorFactor": [
          0.8,
          0.8,
          0.8,
          1.0
        ],
        "metallicFactor": 0.0
      }
    },
    {
      "doubleSided": true,
      "name": "Case2",
      "pbrMetallicRoughness": {
        "baseColorFactor": [
          0.0248083,
          0.0248083,
          0.0248083,
          1.0
        ],
        "metallicFactor": 0.0
      }
    },
    {
      "doubleSided": true,
      "name": "Fans",
      "pbrMetallicRoughness": {
        "baseColorFactor": [
          0.0839904,
          0.0839904,
          0.0839904,
          1.0
        ],
        "metallicFactor": 0.0
      }
    },
    {
      "doubleSided": true,
      "name": "material",
      "pbrMetallicRoughness": {
        "baseColorFactor": [
          0.712352,
          0.712352,
          0.712352,
          1.0
        ],
        "metallicFactor": 0.0
      }
    },
    {
      "doubleSided": true,
      "name": "Motherboard",
      "pbrMetallicRoughness": {
        "baseColorFactor": [
          0.0811506,
          0.0811506,
          0.0811506,
          1.0
        ],
        "metallicFactor": 0.0
      }
    },
    {
      "doubleSided": true,
      "emissiveFactor": [
        0.209545,
        0.538983,
        1.0
      ],
      "name": "BlueLight"
    },
    {
      "doubleSided": true,
      "emissiveFactor": [
        1.0,
        0.0543515,
        0.667188
      ],
      "name": "PurpleLight"
    },
    {
      "doubleSided": true,
      "name": "Nanoleaf",
      "pbrMetallicRoughness": {
        "baseColorFactor": [
          0.19712,
          0.19712,
          0.19712,
          1.0
        ],
        "metallicFactor": 0.0
      }
    },
    {
      "doubleSided": true,
      "name": "Plug",
      "pbrMetallicRoughness": {
        "baseColorFactor": [
          0.105484,
          0.105484,
          0.105484,
          1.0
        ],
        "metallicFactor": 0.0
      }
    },
    {
      "doubleSided": true,
      "name": "Metal",
      "pbrMetallicRoughness": {
        "baseColorFactor": [
          0.236989,
          0.236989,
          0.236989,
          1.0
        ],
        "metallicFactor": 0.0
      }
    },
    {
      "doubleSided": true,
      "name": "Monitor",
      "pbrMetallicRoughness": {
        "baseColorFactor": [
          0.0324406,
          0.0324406,
          0.0324406,
          1.0
        ],
        "metallicFactor": 0.0
      }
    },
    {
      "doubleSided": true,
      "name": "Cable",
      "pbrMetallicRoughness": {
        "baseColorFactor": [
          0.0703576,
          0.0703576,
          0.0703576,
          1.0
        ],
        "metallicFactor": 0.0
      }
    },
    {
      "doubleSided": true,
      "name": "Keyboard",
      "pbrMetallicRoughness": {
        "baseColorFactor": [
          0.562961,
          0.562961,
          0.562961,
          1.0
        ],
        "metallicFactor": 0.0
      }
    },
    {
      "doubleSided": true,
      "name": "Keycaps",
      "pbrMetallicRoughness": {
        "metallicFactor": 0.0,
        "roughnessFactor": 0.5
      }
    },
    {
      "doubleSided": true,
      "name": "Mousepad",
      "pbrMetallicRoughness": {
        "baseColorFactor": [
          0.0898413,
          0.0898413,
          0.0898413,
          1.0
        ],
        "metallicFactor": 0.0
      }
    },
    {
      "doubleSided": true,
      "name": "Mouse",
      "pbrMetallicRoughness": {
        "baseColorFactor": [
          0.692552,
          0.692552,
          0.692552,
          1.0
        ],
        "metallicFactor": 0.0
      }
    },
    {
      "doubleSided": true,
      "name": "LightBulbBase",
      "pbrMetallicRoughness": {
        "baseColorFactor": [
          0.545715,
          0.545715,
          0.545715,
          1.0
        ],
        "metallicFactor": 0.0
      }
    },
    {
      "doubleSided": true,
      "name": "BookCover",
      "pbrMetallicRoughness": {
        "baseColorFactor": [
          0.116161,
          0.19229,
          0.35595,
          1.0
        ],
        "metallicFactor": 0.0
      }
    },
    {
      "doubleSided": true,
      "name": "Pages",
      "pbrMetallicRoughness": {
        "baseColorFactor": [
          0.694038,
          0.8,
          0.707447,
          1.0
        ],
        "metallicFactor": 0.0
      }
    }
  ],
  "meshes": [
    {
      "name": "Object_0",
      "primitives": [
        {
          "attributes": {
            "NORMAL": 1,
            "POSITION": 0,
            "TEXCOORD_0": 2
          },
          "indices": 3,
          "material": 0,
          "mode": 4
        }
      ]
    },
    {
      "name": "Object_1",
      "primitives": [
        {
          "attributes": {
            "NORMAL": 5,
            "POSITION": 4,
            "TEXCOORD_0": 6
          },
          "indices": 7,
          "material": 1,
          "mode": 4
        }
      ]
    },
    {
      "name": "Object_2",
      "primitives": [
        {
          "attributes": {
            "NORMAL": 9,
            "POSITION": 8,
            "TEXCOORD_0": 10
          },
          "indices": 11,
          "material": 2,
          "mode": 4
        }
      ]
    },
    {
      "name": "Object_3",
      "primitives": [
        {
          "attributes": {
            "NORMAL": 13,
            "POSITION": 12,
            "TEXCOORD_0": 14
          },
          "indices": 15,
          "material": 3,
          "mode": 4
        }
      ]
    },
    {
      "name": "Object_4",
      "primitives": [
        {
          "attributes": {
            "NORMAL": 17,
            "POSITION": 16,
            "TEXCOORD_0": 18
          },
          "indices": 19,
          "material": 4,
          "mode": 4
        }
      ]
    },
    {
      "name": "Object_5",
      "primitives": [
        {
          "attributes": {
            "NORMAL": 21,
            "POSITION": 20,
            "TEXCOORD_0": 22
          },
          "indices": 23,
          "material": 5,
          "mode": 4
        }
      ]
    },
    {
      "name": "Object_6",
      "primitives": [
        {
          "attributes": {
            "NORMAL": 25,
            "POSITION": 24,
            "TEXCOORD_0": 26
          },
          "indices": 27,
          "material": 6,
          "mode": 4
        }
      ]
    },
    {
      "name": "Object_7",
      "primitives": [
        {
          "attributes": {
            "NORMAL": 29,
            "POSITION": 28,
            "TEXCOORD_0": 30
          },
          "indices": 31,
          "material": 7,
          "mode": 4
        }
      ]
    },
    {
      "name": "Object_8",
      "primitives": [
        {
          "attributes": {
            "NORMAL": 33,
            "POSITION": 32,
            "TEXCOORD_0": 34
          },
          "indices": 35,
          "material": 8,
          "mode": 4
        }
      ]
    },
    {
      "name": "Object_9",
      "primitives": [
        {
          "attributes": {
            "NORMAL": 37,
            "POSITION": 36,
            "TEXCOORD_0": 38
          },
          "indices": 39,
          "material": 9,
          "mode": 4
        }
      ]
    },
    {
      "name": "Object_10",
      "primitives": [
        {
          "attributes": {
            "NORMAL": 41,
            "POSITION": 40
          },
          "indices": 42,
          "material": 10,
          "mode": 4
        }
      ]
    },
    {
      "name": "Object_11",
      "primitives": [
        {
          "attributes": {
            "NORMAL": 44,
            "POSITION": 43
          },
          "indices": 45,
          "material": 11,
          "mode": 4
        }
      ]
    },
    {
      "name": "Object_12",
      "primitives": [
        {
          "attributes": {
            "NORMAL": 47,
            "POSITION": 46
          },
          "indices": 48,
          "material": 12,
          "mode": 4
        }
      ]
    },
    {
      "name": "Object_13",
      "primitives": [
        {
          "attributes": {
            "NORMAL": 50,
            "POSITION": 49,
            "TEXCOORD_0": 51
          },
          "indices": 52,
          "material": 13,
          "mode": 4
        }
      ]
    },
    {
      "name": "Object_14",
      "primitives": [
        {
          "attributes": {
            "NORMAL": 54,
            "POSITION": 53,
            "TEXCOORD_0": 55
          },
          "indices": 56,
          "material": 14,
          "mode": 4
        }
      ]
    },
    {
      "name": "Object_15",
      "primitives": [
        {
          "attributes": {
            "NORMAL": 58,
            "POSITION": 57
          },
          "indices": 59,
          "material": 15,
          "mode": 4
        }
      ]
    },
    {
      "name": "Object_16",
      "primitives": [
        {
          "attributes": {
            "NORMAL": 61,
            "POSITION": 60,
            "TEXCOORD_0": 62
          },
          "indices": 63,
          "material": 11,
          "mode": 4
        }
      ]
    },
    {
      "name": "Object_17",
      "primitives": [
        {
          "attributes": {
            "NORMAL": 65,
            "POSITION": 64,
            "TEXCOORD_0": 66
          },
          "indices": 67,
          "material": 16,
          "mode": 4
        }
      ]
    },
    {
      "name": "Object_18",
      "primitives": [
        {
          "attributes": {
            "NORMAL": 69,
            "POSITION": 68,
            "TEXCOORD_0": 70
          },
          "indices": 71,
          "material": 11,
          "mode": 4
        }
      ]
    },
    {
      "name": "Object_19",
      "primitives": [
        {
          "attributes": {
            "NORMAL": 73,
            "POSITION": 72,
            "TEXCOORD_0": 74
          },
          "indices": 75,
          "material": 17,
          "mode": 4
        }
      ]
    },
    {
      "name": "Object_20",
      "primitives": [
        {
          "attributes": {
            "NORMAL": 77,
            "POSITION": 76,
            "TEXCOORD_0": 78
          },
          "indices": 79,
          "material": 18,
          "mode": 4
        }
      ]
    },
    {
      "name": "Object_21",
      "primitives": [
        {
          "attributes": {
            "NORMAL": 81,
            "POSITION": 80,
            "TEXCOORD_0": 82
          },
          "indices": 83,
          "material": 19,
          "mode": 4
        }
      ]
    },
    {
      "name": "Object_22",
      "primitives": [
        {
          "attributes": {
            "NORMAL": 85,
            "POSITION": 84,
            "TEXCOORD_0": 86
          },
          "indices": 87,
          "material": 20,
          "mode": 4
        }
      ]
    },
    {
      "name": "Object_23",
      "primitives": [
        {
          "attributes": {
            "NORMAL": 89,
            "POSITION": 88,
            "TEXCOORD_0": 90
          },
          "indices": 91,
          "material": 9,
          "mode": 4
        }
      ]
    },
    {
      "name": "Object_24",
      "primitives": [
        {
          "attributes": {
            "NORMAL": 93,
            "POSITION": 92,
            "TEXCOORD_0": 94
          },
          "indices": 95,
          "material": 21,
          "mode": 4
        }
      ]
    },
    {
      "name": "Object_25",
      "primitives": [
        {
          "attributes": {
            "NORMAL": 97,
            "POSITION": 96,
            "TEXCOORD_0": 98
          },
          "indices": 99,
          "material": 22,
          "mode": 4
        }
      ]
    },
    {
      "name": "Object_26",
      "primitives": [
        {
          "attributes": {
            "NORMAL": 101,
            "POSITION": 100,
            "TEXCOORD_0": 102
          },
          "indices": 103,
          "material": 23,
          "mode": 4
        }
      ]
    },
    {
      "name": "Object_27",
      "primitives": [
        {
          "attributes": {
            "NORMAL": 105,
            "POSITION": 104,
            "TEXCOORD_0": 106
          },
          "indices": 107,
          "material": 24,
          "mode": 4
        }
      ]
    },
    {
      "name": "Object_28",
      "primitives": [
        {
          "attributes": {
            "NORMAL": 109,
            "POSITION": 108,
            "TEXCOORD_0": 110
          },
          "indices": 111,
          "material": 25,
          "mode": 4
        }
      ]
    },
    {
      "name": "Object_29",
      "primitives": [
        {
          "attributes": {
            "NORMAL": 113,
            "POSITION": 112,
            "TEXCOORD_0": 114
          },
          "indices": 115,
          "material": 26,
          "mode": 4
        }
      ]
    },
    {
      "name": "Object_30",
      "primitives": [
        {
          "attributes": {
            "NORMAL": 117,
            "POSITION": 116
          },
          "indices": 118,
          "material": 27,
          "mode": 4
        }
      ]
    },
    {
      "name": "Object_31",
      "primitives": [
        {
          "attributes": {
            "NORMAL": 120,
            "POSITION": 119,
            "TEXCOORD_0": 121
          },
          "indices": 122,
          "material": 28,
          "mode": 4
        }
      ]
    },
    {
      "name": "Object_32",
      "primitives": [
        {
          "attributes": {
            "NORMAL": 124,
            "POSITION": 123,
            "TEXCOORD_0": 125
          },
          "indices": 126,
          "material": 29,
          "mode": 4
        }
      ]
    },
    {
      "name": "Object_33",
      "primitives": [
        {
          "attributes": {
            "NORMAL": 128,
            "POSITION": 127,
            "TEXCOORD_0": 129
          },
          "indices": 130,
          "material": 24,
          "mode": 4
        }
      ]
    },
    {
      "name": "Object_34",
      "primitives": [
        {
          "attributes": {
            "NORMAL": 132,
            "POSITION": 131,
            "TEXCOORD_0": 133
          },
          "indices": 134,
          "material": 30,
          "mode": 4
        }
      ]
    },
    {
      "name": "Object_35",
      "primitives": [
        {
          "attributes": {
            "NORMAL": 136,
            "POSITION": 135,
            "TEXCOORD_0": 137
          },
          "indices": 138,
          "material": 31,
          "mode": 4
        }
      ]
    },
    {
      "name": "Object_36",
      "primitives": [
        {
          "attributes": {
            "NORMAL": 140,
            "POSITION": 139,
            "TEXCOORD_0": 141
          },
          "indices": 142,
          "material": 24,
          "mode": 4
        }
      ]
    },
    {
      "name": "Object_37",
      "primitives": [
        {
          "attributes": {
            "NORMAL": 144,
            "POSITION": 143,
            "TEXCOORD_0": 145
          },
          "indices": 146,
          "material": 32,
          "mode": 4
        }
      ]
    },
    {
      "name": "Object_38",
      "primitives": [
        {
          "attributes": {
            "NORMAL": 148,
            "POSITION": 147,
            "TEXCOORD_0": 149
          },
          "indices": 150,
          "material": 33,
          "mode": 4
        }
      ]
    },
    {
      "name": "Object_39",
      "primitives": [
        {
          "attributes": {
            "NORMAL": 152,
            "POSITION": 151,
            "TEXCOORD_0": 153
          },
          "indices": 154,
          "material": 25,
          "mode": 4
        }
      ]
    },
    {
      "name": "Object_40",
      "primitives": [
        {
          "attributes": {
            "NORMAL": 156,
            "POSITION": 155,
            "TEXCOORD_0": 157
          },
          "indices": 158,
          "material": 34,
          "mode": 4
        }
      ]
    },
    {
      "name": "Object_41",
      "primitives": [
        {
          "attributes": {
            "NORMAL": 160,
            "POSITION": 159,
            "TEXCOORD_0": 161
          },
          "indices": 162,
          "material": 24,
          "mode": 4
        }
      ]
    },
    {
      "name": "Object_42",
      "primitives": [
        {
          "attributes": {
            "NORMAL": 164,
            "POSITION": 163,
            "TEXCOORD_0": 165
          },
          "indices": 166,
          "material": 26,
          "mode": 4
        }
      ]
    },
    {
      "name": "Object_43",
      "primitives": [
        {
          "attributes": {
            "NORMAL": 168,
            "POSITION": 167,
            "TEXCOORD_0": 169
          },
          "indices": 170,
          "material": 24,
          "mode": 4
        }
      ]
    },
    {
      "name": "Object_44",
      "primitives": [
        {
          "attributes": {
            "NORMAL": 172,
            "POSITION": 171
          },
          "indices": 173,
          "material": 27,
          "mode": 4
        }
      ]
    },
    {
      "name": "Object_45",
      "primitives": [
        {
          "attributes": {
            "NORMAL": 175,
            "POSITION": 174,
            "TEXCOORD_0": 176
          },
          "indices": 177,
          "material": 28,
          "mode": 4
        }
      ]
    },
    {
      "name": "Object_46",
      "primitives": [
        {
          "attributes": {
            "NORMAL": 179,
            "POSITION": 178,
            "TEXCOORD_0": 180
          },
          "indices": 181,
          "material": 30,
          "mode": 4
        }
      ]
    },
    {
      "name": "Object_47",
      "primitives": [
        {
          "attributes": {
            "NORMAL": 183,
            "POSITION": 182,
            "TEXCOORD_0": 184
          },
          "indices": 185,
          "material": 25,
          "mode": 4
        }
      ]
    },
    {
      "name": "Object_48",
      "primitives": [
        {
          "attributes": {
            "NORMAL": 187,
            "POSITION": 186,
            "TEXCOORD_0": 188
          },
          "indices": 189,
          "material": 28,
          "mode": 4
        }
      ]
    },
    {
      "name": "Object_49",
      "primitives": [
        {
          "attributes": {
            "NORMAL": 191,
            "POSITION": 190,
            "TEXCOORD_0": 192
          },
          "indices": 193,
          "material": 25,
          "mode": 4
        }
      ]
    },
    {
      "name": "Object_50",
      "primitives": [
        {
          "attributes": {
            "NORMAL": 195,
            "POSITION": 194,
            "TEXCOORD_0": 196
          },
          "indices": 197,
          "material": 24,
          "mode": 4
        }
      ]
    },
    {
      "name": "Object_51",
      "primitives": [
        {
          "attributes": {
            "NORMAL": 199,
            "POSITION": 198,
            "TEXCOORD_0": 200
          },
          "indices": 201,
          "material": 35,
          "mode": 4
        }
      ]
    },
    {
      "name": "Object_52",
      "primitives": [
        {
          "attributes": {
            "NORMAL": 203,
            "POSITION": 202,
            "TEXCOORD_0": 204
          },
          "indices": 205,
          "material": 36,
          "mode": 4
        }
      ]
    },
    {
      "name": "Object_53",
      "primitives": [
        {
          "attributes": {
            "NORMAL": 207,
            "POSITION": 206,
            "TEXCOORD_0": 208
          },
          "indices": 209,
          "material": 37,
          "mode": 4
        }
      ]
    }
  ],
  "nodes": [
    {
      "children": [
        1
      ],
      "matrix": [
        0.913105309009552,
        0.0,
        0.0,
        0.0,
        0.0,
        2.027501075939746e-16,
        -0.913105309009552,
        0.0,
        0.0,
        0.913105309009552,
        2.027501075939746e-16,
        0.0,
        0.0,
        0.0,
        0.0,
        1.0
      ],
      "name": "Sketchfab_model"
    },
    {
      "children": [
        2
      ],
      "name": "root"
    },
    {
      "children": [
        3,
        14,
        21,
        24,
        26,
        29,
        41,
        45,
        49,
        52,
        55,
        62,
        67
      ],
      "matrix": [
        1.0,
        0.0,
        0.0,
        0.0,
        0.0,
        2.220446049250313e-16,
        1.0,
        0.0,
        0.0,
        -1.0,
        2.220446049250313e-16,
        0.0,
        0.0,
        0.0,
        0.0,
        1.0
      ],
      "name": "GLTF_SceneRootNode"
    },
    {
      "children": [
        4,
        5,
        6,
        7,
        8,
        9,
        10,
        11,
        12,
        13
      ],
      "matrix": [
        0.0,
        0.0,
        1.0,
        0.0,
        -0.0,
        1.0,
        0.0,
        0.0,
        -1.0,
        -0.0,
        0.0,
        0.0,
        0.0,
        0.0,
        0.0,
        1.0
      ],
      "name": "Bedroom_0"
    },
    {
      "mesh": 0,
      "name": "Object_4"
    },
    {
      "mesh": 1,
      "name": "Object_5"
    },
    {
      "mesh": 2,
      "name": "Object_6"
    },
    {
      "mesh": 3,
      "name": "Object_7"
    },
    {
      "mesh": 4,
      "name": "Object_8"
    },
    {
      "mesh": 5,
      "name": "Object_9"
    },
    {
      "mesh": 6,
      "name": "Object_10"
    },
    {
      "mesh": 7,
      "name": "Object_11"
    },
    {
      "mesh": 8,
      "name": "Object_12"
    },
    {
      "mesh": 9,
      "name": "Object_13"
    },
    {
      "children": [
        15,
        16,
        17,
        18,
        19,
        20
      ],
      "matrix": [
        5.485548430524684e-07,
        0.0,
        -1.0846102237700028,
        0.0,
        0.0,
        1.0846102237701416,
        0.0,
        0.0,
        1.0846102237700028,
        0.0,
        5.485548430524684e-07,
        0.0,
        2.5293993949890137,
        0.6225894689559937,
        1.2519598007202148,
        1.0
      ],
      "name": "Bed_1"
    },
    {
      "mesh": 10,
      "name": "Object_15"
    },
    {
      "mesh": 11,
      "name": "Object_16"
    },
    {
      "mesh": 12,
      "name": "Object_17"
    },
    {
      "mesh": 13,
      "name": "Object_18"
    },
    {
      "mesh": 14,
      "name": "Object_19"
    },
    {
      "mesh": 15,
      "name": "Object_20"
    },
    {
      "children": [
        22,
        23
      ],
      "matrix": [
        0.0,
        0.0,
        1.0,
        0.0,
        0.0,
        1.0,
        0.0,
        0.0,
        -1.0,
        0.0,
        0.0,
        0.0,
        2.4722952842712402,
        0.5106431245803833,
        -1.7714502811431885,
        1.0
      ],
      "name": "Dresser_2"
    },
    {
      "mesh": 16,
      "name": "Object_22"
    },
    {
      "mesh": 17,
      "name": "Object_23"
    },
    {
      "children": [
        25
      ],
      "matrix": [
        0.0,
        0.0,
        1.0,
        0.0,
        -0.0,
        1.0,
        0.0,
        0.0,
        -1.0,
        0.0,
        0.0,
        0.0,
        -2.47885799407959,
        0.6122623085975647,
        -1.7600069046020508,
        1.0
      ],
      "name": "Desk_3"
    },
    {
      "mesh": 18,
      "name": "Object_25"
    },
    {
      "children": [
        27,
        28
      ],
      "matrix": [
        -2.528810847390872e-07,
        0.0,
        -0.999999999999968,
        0.0,
        0.0,
        1.0,
        0.0,
        0.0,
        0.999999999999968,
        0.0,
        -2.528810847390872e-07,
        0.0,
        -2.5303726196289063,
        0.7561966776847839,
        -1.228036880493164,
        1.0
      ],
      "name": "DeskChair_4"
    },
    {
      "mesh": 19,
      "name": "Object_27"
    },
    {
      "mesh": 20,
      "name": "Object_28"
    },
    {
      "children": [
        30,
        31,
        32,
        33,
        34,
        35,
        36,
        37,
        38,
        39,
        40
      ],
      "matrix": [
        1.685873969314855e-07,
        0.0,
        0.9999999999999857,
        0.0,
        -0.0,
        1.0,
        0.0,
        0.0,
        -0.9999999999999857,
        0.0,
        1.685873969314855e-07,
        0.0,
        -1.52271568775177,
        0.447674036026001,
        -1.7586232423782349,
        1.0
      ],
      "name": "PC_5"
    },
    {
      "mesh": 21,
      "name": "Object_30"
    },
    {
      "mesh": 22,
      "name": "Object_31"
    },
    {
      "mesh": 23,
      "name": "Object_32"
    },
    {
      "mesh": 24,
      "name": "Object_33"
    },
    {
      "mesh": 25,
      "name": "Object_34"
    },
    {
      "mesh": 26,
      "name": "Object_35"
    },
    {
      "mesh": 27,
      "name": "Object_36"
    },
    {
      "mesh": 28,
      "name": "Object_37"
    },
    {
      "mesh": 29,
      "name": "Object_38"
    },
    {
      "mesh": 30,
      "name": "Object_39"
    },
    {
      "mesh": 31,
      "name": "Object_40"
    },
    {
      "children": [
        42,
        43,
        44
      ],
      "matrix": [
        1.0,
        0.0,
        0.0,
        0.0,
        0.0,
        1.0,
        0.0,
        0.0,
        0.0,
        0.0,
        1.0,
        0.0,
        -2.5298264026641846,
        1.4854581356048584,
        -2.0063836574554443,
        1.0
      ],
      "name": "Monitor_6"
    },
    {
      "mesh": 32,
      "name": "Object_42"
    },
    {
      "mesh": 33,
      "name": "Object_43"
    },
    {
      "mesh": 34,
      "name": "Object_44"
    },
    {
      "children": [
        46,
        47,
        48
      ],
      "matrix": [
        1.0,
        0.0,
        0.0,
        0.0,
        0.0,
        1.0,
        0.0,
        0.0,
        0.0,
        0.0,
        1.0,
        0.0,
        -2.7099907398223877,
        1.0355796813964844,
        -1.558905005455017,
        1.0
      ],
      "name": "Keyboard_7"
    },
    {
      "mesh": 35,
      "name": "Object_46"
    },
    {
      "mesh": 36,
      "name": "Object_47"
    },
    {
      "mesh": 37,
      "name": "Object_48"
    },
    {
      "children": [
        50,
        51
      ],
      "matrix": [
        1.0,
        0.0,
        0.0,
        0.0,
        0.0,
        1.0,
        0.0,
        0.0,
        0.0,
        0.0,
        1.0,
        0.0,
        -2.4446001052856445,
        1.000826358795166,
        -1.5641512870788574,
        1.0
      ],
      "name": "Mousepad_8"
    },
    {
      "mesh": 38,
      "name": "Object_50"
    },
    {
      "mesh": 39,
      "name": "Object_51"
    },
    {
      "children": [
        53,
        54
      ],
      "matrix": [
        1.0,
        0.0,
        0.0,
        0.0,
        0.0,
        1.0,
        0.0,
        0.0,
        0.0,
        0.0,
        1.0,
        0.0,
        -2.001427173614502,
        1.033823847770691,
        -1.5696161985397339,
        1.0
      ],
      "name": "Cube_9"
    },
    {
      "mesh": 40,
      "name": "Object_53"
    },
    {
      "mesh": 41,
      "name": "Object_54"
    },
    {
      "children": [
        56,
        57,
        58,
        59,
        60,
        61
      ],
      "matrix": [
        1.0,
        0.0,
        0.0,
        0.0,
        0.0,
        1.0,
        0.0,
        0.0,
        0.0,
        0.0,
        1.0,
        0.0,
        0.13256871700286865,
        1.2002218961715698,
        -2.2397239208221436,
        1.0
      ],
      "name": "NanoLights_13"
    },
    {
      "mesh": 42,
      "name": "Object_56"
    },
    {
      "mesh": 43,
      "name": "Object_57"
    },
    {
      "mesh": 44,
      "name": "Object_58"
    },
    {
      "mesh": 45,
      "name": "Object_59"
    },
    {
      "mesh": 46,
      "name": "Object_60"
    },
    {
      "mesh": 47,
      "name": "Object_61"
    },
    {
      "children": [
        63,
        64,
        65,
        66
      ],
      "matrix": [
        1.0,
        0.0,
        0.0,
        0.0,
        0.0,
        1.0,
        0.0,
        0.0,
        0.0,
        0.0,
        1.0,
        0.0,
        0.0,
        3.3740999698638916,
        0.0,
        1.0
      ],
      "name": "Cylinder_14"
    },
    {
      "mesh": 48,
      "name": "Object_63"
    },
    {
      "mesh": 49,
      "name": "Object_64"
    },
    {
      "mesh": 50,
      "name": "Object_65"
    },
    {
      "mesh": 51,
      "name": "Object_66"
    },
    {
      "children": [
        68,
        69
      ],
      "matrix": [
        -0.1819907171939621,
        0.0,
        0.9833002485788495,
        0.0,
        0.0,
        1.0,
        0.0,
        0.0,
        -0.9833002485788495,
        0.0,
        -0.1819907171939621,
        0.0,
        2.013593912124634,
        1.2269608974456787,
        -1.9085304737091064,
        1.0
      ],
      "name": "Book_15"
    },
    {
      "mesh": 52,
      "name": "Object_68"
    },
    {
      "mesh": 53,
      "name": "Object_69"
    }
  ],
  "scene": 0,
  "scenes": [
    {
      "name": "Sketchfab_Scene",
      "nodes": [
        0
      ]
    }
  ]
}
