g Frame 4
v -0.000925849658 -1.27434726E-06 0.0013772106
v -0.000925849658 -6.0387847E-05 0.0013772106
v -0.000925849658 -6.0387847E-05 -0.00153969787
v -0.000925849658 -1.27494332E-06 -0.00153969787
v 0.00108377216 -1.27494332E-06 -0.00153969822
v 0.00108377216 -6.0387847E-05 -0.00153969822
v 0.0010837717 -6.0387847E-05 0.00137721119
v 0.0010837717 -1.27434726E-06 0.00137721119
v 0.00100965693 4.29767351E-05 0.00128326355
v 0.000977811986 -1.27434726E-06 0.00124289806
v 0.000977811753 -1.27494332E-06 -0.00140538451
v 0.0010096574 4.29767351E-05 -0.00144575001
v 0.0010096574 4.29767351E-05 -0.00144575001
v 0.000977811753 -1.27494332E-06 -0.00140538451
v -0.000819889305 -1.27494332E-06 -0.00140538416
v -0.000851733668 4.29767351E-05 -0.00144575024
v -0.00085173425 4.29767351E-05 0.00128326297
v -0.000819889887 -1.27434726E-06 0.00124289747
v 0.000977811986 -1.27434726E-06 0.00124289806
v 0.00100965693 4.29767351E-05 0.00128326355
v -0.000925849658 -1.27434726E-06 0.0013772106
v -0.000894004072 4.29767351E-05 0.00133684394
v 0.00105192733 4.29767351E-05 0.00133684452
v 0.0010837717 -1.27434726E-06 0.00137721119
v -0.000851733668 4.29767351E-05 -0.00144575024
v -0.000819889305 -1.27494332E-06 -0.00140538416
v -0.000819889887 -1.27434726E-06 0.00124289747
v -0.00085173425 4.29767351E-05 0.00128326297
v -0.000925849658 -1.27494332E-06 -0.00153969787
v -0.000894004072 4.29767351E-05 -0.00149933191
v -0.000894004072 4.29767351E-05 0.00133684394
v -0.000925849658 -1.27434726E-06 0.0013772106
v 0.00108377216 -1.27494332E-06 -0.00153969822
v 0.0010519278 4.29767351E-05 -0.00149933156
v -0.000894004072 4.29767351E-05 -0.00149933191
v -0.000925849658 -1.27494332E-06 -0.00153969787
v 0.0010837717 -1.27434726E-06 0.00137721119
v 0.00105192733 4.29767351E-05 0.00133684452
v 0.0010519278 4.29767351E-05 -0.00149933156
v 0.00108377216 -1.27494332E-06 -0.00153969822
v 0.0010837717 -1.27434726E-06 0.00137721119
v 0.0010837717 -6.0387847E-05 0.00137721119
v -0.000925849658 -6.0387847E-05 0.0013772106
v -0.000925849658 -1.27434726E-06 0.0013772106
v -0.000925849658 -1.27494332E-06 -0.00153969787
v -0.000925849658 -6.0387847E-05 -0.00153969787
v 0.00108377216 -6.0387847E-05 -0.00153969822
v 0.00108377216 -1.27494332E-06 -0.00153969822
v 0.00100965693 4.29767351E-05 0.00128326355
v 0.00105192733 4.29767351E-05 0.00133684452
v -0.000894004072 4.29767351E-05 0.00133684394
v -0.00085173425 4.29767351E-05 0.00128326297
v 0.0010096574 4.29767351E-05 -0.00144575001
v -0.000894004072 4.29767351E-05 -0.00149933191
v 0.0010519278 4.29767351E-05 -0.00149933156
v -0.000851733668 4.29767351E-05 -0.00144575024
v 0.000977811753 -1.27494332E-06 -0.00140538451
v 0.000977811986 -1.27434726E-06 0.00124289806
v -0.000819889887 -1.27434726E-06 0.00124289747
v -0.000819889305 -1.27494332E-06 -0.00140538416
vt 0 0
vt 0 0
vt 0 0
vt 0 0
vt 0 0
vt 0 0
vt 0 0
vt 0 0
vt 0 0
vt 0 0
vt 0 0
vt 0 0
vt 0 0
vt 0 0
vt 0 0
vt 0 0
vt 0 0
vt 0 0
vt 0 0
vt 0 0
vt 0 0
vt 0 0
vt 0 0
vt 0 0
vt 0 0
vt 0 0
vt 0 0
vt 0 0
vt 0 0
vt 0 0
vt 0 0
vt 0 0
vt 0 0
vt 0 0
vt 0 0
vt 0 0
vt 0 0
vt 0 0
vt 0 0
vt 0 0
vt 0 0
vt 0 0
vt 0 0
vt 0 0
vt 0 0
vt 0 0
vt 0 0
vt 0 0
vt 0 0
vt 0 0
vt 0 0
vt 0 0
vt 0 0
vt 0 0
vt 0 0
vt 0 0
vt 0.0093460083 0.501464844
vt 0.0093460083 0.989257812
vt 0.340576172 0.989257812
vt 0.340576172 0.501464844
vn -1 0 0
vn -1 0 0
vn -1 0 0
vn -1 0 0
vn 1 0 1.78813934E-07
vn 1 0 1.78813934E-07
vn 1 0 1.78813934E-07
vn 1 0 1.78813934E-07
vn -0.811523438 0.583984375 -1.1920929E-07
vn -0.811523438 0.583984375 -1.1920929E-07
vn -0.811523438 0.583984375 -1.1920929E-07
vn -0.811523438 0.583984375 -1.1920929E-07
vn -0 0.673828125 0.738769531
vn -0 0.673828125 0.738769531
vn -0 0.673828125 0.738769531
vn -0 0.673828125 0.738769531
vn 2.38418579E-07 0.673828125 -0.738769531
vn 2.38418579E-07 0.673828125 -0.738769531
vn 2.38418579E-07 0.673828125 -0.738769531
vn 2.38418579E-07 0.673828125 -0.738769531
vn -2.38418579E-07 0.673828125 0.738769531
vn -2.38418579E-07 0.673828125 0.738769531
vn -2.38418579E-07 0.673828125 0.738769531
vn -2.38418579E-07 0.673828125 0.738769531
vn 0.811523438 0.583984375 1.1920929E-07
vn 0.811523438 0.583984375 1.1920929E-07
vn 0.811523438 0.583984375 1.1920929E-07
vn 0.811523438 0.583984375 1.1920929E-07
vn -0.811523438 0.583984375 0
vn -0.811523438 0.583984375 0
vn -0.811523438 0.583984375 0
vn -0.811523438 0.583984375 0
vn -0 0.673828125 -0.738769531
vn -0 0.673828125 -0.738769531
vn -0 0.673828125 -0.738769531
vn -0 0.673828125 -0.738769531
vn 0.811523438 0.583984375 0
vn 0.811523438 0.583984375 0
vn 0.811523438 0.583984375 0
vn 0.811523438 0.583984375 0
vn -2.98023224E-07 0 1
vn -2.98023224E-07 0 1
vn -2.98023224E-07 0 1
vn -2.98023224E-07 0 1
vn -1.1920929E-07 0 -1
vn -1.1920929E-07 0 -1
vn -1.1920929E-07 0 -1
vn -1.1920929E-07 0 -1
vn -0 1 0
vn -0 1 0
vn -0 1 0
vn -0 1 0
vn -0 1 0
vn -0 1 0
vn -0 1 0
vn -0 1 0
vn -0 1 -2.38418579E-07
vn -0 1 -2.38418579E-07
vn -0 1 -2.38418579E-07
vn -0 1 -2.38418579E-07
g Frame 4_0
f 3/3/3 2/2/2 1/1/1
f 4/4/4 3/3/3 1/1/1
f 7/7/7 6/6/6 5/5/5
f 8/8/8 7/7/7 5/5/5
f 11/11/11 10/10/10 9/9/9
f 12/12/12 11/11/11 9/9/9
f 15/15/15 14/14/14 13/13/13
f 16/16/16 15/15/15 13/13/13
f 19/19/19 18/18/18 17/17/17
f 20/20/20 19/19/19 17/17/17
f 23/23/23 22/22/22 21/21/21
f 24/24/24 23/23/23 21/21/21
f 27/27/27 26/26/26 25/25/25
f 28/28/28 27/27/27 25/25/25
f 31/31/31 30/30/30 29/29/29
f 32/32/32 31/31/31 29/29/29
f 35/35/35 34/34/34 33/33/33
f 36/36/36 35/35/35 33/33/33
f 39/39/39 38/38/38 37/37/37
f 40/40/40 39/39/39 37/37/37
f 43/43/43 42/42/42 41/41/41
f 44/44/44 43/43/43 41/41/41
f 47/47/47 46/46/46 45/45/45
f 48/48/48 47/47/47 45/45/45
f 51/51/51 50/50/50 49/49/49
f 52/52/52 51/51/51 49/49/49
f 49/49/49 50/50/50 53/53/53
f 54/54/54 51/51/51 52/52/52
f 50/50/50 55/55/55 53/53/53
f 56/56/56 54/54/54 52/52/52
f 53/53/53 55/55/55 56/56/56
f 55/55/55 54/54/54 56/56/56
g Frame 4_1
f 59/59/59 58/58/58 57/57/57
f 60/60/60 59/59/59 57/57/57
