g Frame 5
v -0.00202686549 -6.07967365E-08 0.00370714767
v -0.00202686549 -5.91742973E-05 0.00370714767
v -0.00202686549 -5.91737007E-05 -0.00392564712
v -0.00202686549 -6.07967365E-08 -0.00392564712
v 0.0021283254 -6.07967365E-08 -0.00392564712
v 0.0021283254 -5.91737007E-05 -0.00392564712
v 0.0021283254 -5.91742973E-05 0.00370714767
v 0.0021283254 -6.07967365E-08 0.00370714767
v 0.00205421052 4.41902848E-05 0.00361320004
v 0.00202236557 -6.07967365E-08 0.00357283466
v 0.00202236488 -6.07967365E-08 -0.00379133364
v 0.00205421052 4.41908815E-05 -0.00383169902
v 0.00205421052 4.41908815E-05 -0.00383169902
v 0.00202236488 -6.07967365E-08 -0.00379133364
v -0.00192090508 -6.07967365E-08 -0.00379133341
v -0.00195274944 4.41908815E-05 -0.00383169949
v -0.00195274944 4.41902848E-05 0.00361320004
v -0.00192090508 -6.07967365E-08 0.00357283466
v 0.00202236557 -6.07967365E-08 0.00357283466
v 0.00205421052 4.41902848E-05 0.00361320004
v -0.00202686549 -6.07967365E-08 0.00370714767
v -0.00199501985 4.41902848E-05 0.00366678112
v 0.00209648092 4.41902848E-05 0.00366678112
v 0.0021283254 -6.07967365E-08 0.00370714767
v -0.00195274944 4.41908815E-05 -0.00383169949
v -0.00192090508 -6.07967365E-08 -0.00379133341
v -0.00192090508 -6.07967365E-08 0.00357283466
v -0.00195274944 4.41902848E-05 0.00361320004
v -0.00202686549 -6.07967365E-08 -0.00392564712
v -0.00199501985 4.41908815E-05 -0.00388528104
v -0.00199501985 4.41902848E-05 0.00366678112
v -0.00202686549 -6.07967365E-08 0.00370714767
v 0.0021283254 -6.07967365E-08 -0.00392564712
v 0.00209648092 4.41908815E-05 -0.00388528081
v -0.00199501985 4.41908815E-05 -0.00388528104
v -0.00202686549 -6.07967365E-08 -0.00392564712
v 0.0021283254 -6.07967365E-08 0.00370714767
v 0.00209648092 4.41902848E-05 0.00366678112
v 0.00209648092 4.41908815E-05 -0.00388528081
v 0.0021283254 -6.07967365E-08 -0.00392564712
v 0.0021283254 -6.07967365E-08 0.00370714767
v 0.0021283254 -5.91742973E-05 0.00370714767
v -0.00202686549 -5.91742973E-05 0.00370714767
v -0.00202686549 -6.07967365E-08 0.00370714767
v -0.00202686549 -6.07967365E-08 -0.00392564712
v -0.00202686549 -5.91737007E-05 -0.00392564712
v 0.0021283254 -5.91737007E-05 -0.00392564712
v 0.0021283254 -6.07967365E-08 -0.00392564712
v 0.00205421052 4.41902848E-05 0.00361320004
v 0.00209648092 4.41902848E-05 0.00366678112
v -0.00199501985 4.41902848E-05 0.00366678112
v -0.00195274944 4.41902848E-05 0.00361320004
v 0.00205421052 4.41908815E-05 -0.00383169902
v -0.00199501985 4.41908815E-05 -0.00388528104
v 0.00209648092 4.41908815E-05 -0.00388528081
v -0.00195274944 4.41908815E-05 -0.00383169949
v 0.00202236488 -6.07967365E-08 -0.00379133364
v 0.00202236557 -6.07967365E-08 0.00357283466
v -0.00192090508 -6.07967365E-08 0.00357283466
v -0.00192090508 -6.07967365E-08 -0.00379133341
vt 0 0
vt 0 0
vt 0 0
vt 0 0
vt 0 0
vt 0 0
vt 0 0
vt 0 0
vt 0 0
vt 0 0
vt 0 0
vt 0 0
vt 0 0
vt 0 0
vt 0 0
vt 0 0
vt 0 0
vt 0 0
vt 0 0
vt 0 0
vt 0 0
vt 0 0
vt 0 0
vt 0 0
vt 0 0
vt 0 0
vt 0 0
vt 0 0
vt 0 0
vt 0 0
vt 0 0
vt 0 0
vt 0 0
vt 0 0
vt 0 0
vt 0 0
vt 0 0
vt 0 0
vt 0 0
vt 0 0
vt 0 0
vt 0 0
vt 0 0
vt 0 0
vt 0 0
vt 0 0
vt 0 0
vt 0 0
vt 0 0
vt 0 0
vt 0 0
vt 0 0
vt 0 0
vt 0 0
vt 0 0
vt 0 0
vt 0.353759766 0.39453125
vt 0.353759766 0.977050781
vt 0.666015625 0.977050781
vt 0.666015625 0.39453125
vn -1 0 0
vn -1 0 0
vn -1 0 0
vn -1 0 0
vn 1 0 0
vn 1 0 0
vn 1 0 0
vn 1 0 0
vn -0.811523438 0.583984375 0
vn -0.811523438 0.583984375 0
vn -0.811523438 0.583984375 0
vn -0.811523438 0.583984375 0
vn -0 0.673828125 0.738769531
vn -0 0.673828125 0.738769531
vn -0 0.673828125 0.738769531
vn -0 0.673828125 0.738769531
vn -0 0.673828125 -0.738769531
vn -0 0.673828125 -0.738769531
vn -0 0.673828125 -0.738769531
vn -0 0.673828125 -0.738769531
vn -0 0.673828125 0.738769531
vn -0 0.673828125 0.738769531
vn -0 0.673828125 0.738769531
vn -0 0.673828125 0.738769531
vn 0.811523438 0.583984375 0
vn 0.811523438 0.583984375 0
vn 0.811523438 0.583984375 0
vn 0.811523438 0.583984375 0
vn -0.811523438 0.583984375 0
vn -0.811523438 0.583984375 0
vn -0.811523438 0.583984375 0
vn -0.811523438 0.583984375 0
vn -0 0.673828125 -0.738769531
vn -0 0.673828125 -0.738769531
vn -0 0.673828125 -0.738769531
vn -0 0.673828125 -0.738769531
vn 0.811523438 0.583984375 0
vn 0.811523438 0.583984375 0
vn 0.811523438 0.583984375 0
vn 0.811523438 0.583984375 0
vn -0 0 1
vn -0 0 1
vn -0 0 1
vn -0 0 1
vn -0 0 -1
vn -0 0 -1
vn -0 0 -1
vn -0 0 -1
vn -0 1 0
vn -0 1 0
vn -0 1 0
vn -0 1 0
vn -0 1 0
vn -0 1 0
vn -0 1 0
vn -0 1 0
vn -0 1 0
vn -0 1 0
vn -0 1 0
vn -0 1 0
g Frame 5_0
f 3/3/3 2/2/2 1/1/1
f 4/4/4 3/3/3 1/1/1
f 7/7/7 6/6/6 5/5/5
f 8/8/8 7/7/7 5/5/5
f 11/11/11 10/10/10 9/9/9
f 12/12/12 11/11/11 9/9/9
f 15/15/15 14/14/14 13/13/13
f 16/16/16 15/15/15 13/13/13
f 19/19/19 18/18/18 17/17/17
f 20/20/20 19/19/19 17/17/17
f 23/23/23 22/22/22 21/21/21
f 24/24/24 23/23/23 21/21/21
f 27/27/27 26/26/26 25/25/25
f 28/28/28 27/27/27 25/25/25
f 31/31/31 30/30/30 29/29/29
f 32/32/32 31/31/31 29/29/29
f 35/35/35 34/34/34 33/33/33
f 36/36/36 35/35/35 33/33/33
f 39/39/39 38/38/38 37/37/37
f 40/40/40 39/39/39 37/37/37
f 43/43/43 42/42/42 41/41/41
f 44/44/44 43/43/43 41/41/41
f 47/47/47 46/46/46 45/45/45
f 48/48/48 47/47/47 45/45/45
f 51/51/51 50/50/50 49/49/49
f 52/52/52 51/51/51 49/49/49
f 49/49/49 50/50/50 53/53/53
f 54/54/54 51/51/51 52/52/52
f 50/50/50 55/55/55 53/53/53
f 56/56/56 54/54/54 52/52/52
f 53/53/53 55/55/55 56/56/56
f 55/55/55 54/54/54 56/56/56
g Frame 5_1
f 59/59/59 58/58/58 57/57/57
f 60/60/60 59/59/59 57/57/57
