g Light stand
v -0.00103412627 -0.0150966924 -0.000845832808
v -0.00463260617 -0.0124628637 5.07354707E-06
v -0.000854206039 -0.0132696144 5.07354707E-06
v -0.00521457661 -0.0142040914 -0.000845832808
v 0.00324012758 -0.0150366873 -0.000845832808
v -0.00813671108 -0.0108355423 5.07354707E-06
v 0.00300897588 -0.0132153798 5.07354707E-06
v -0.00909156818 -0.0124036213 -0.000845813716
v 0.00739383698 -0.0140270703 -0.000845832808
v -0.0111909099 -0.008469305 5.07354707E-06
v 0.00676322915 -0.012302856 5.07354707E-06
v -0.0124707408 -0.00978558511 -0.000845813716
v 0.0112187956 -0.0121184727 -0.000845813716
v -0.0136419674 -0.00548276911 5.07354707E-06
v 0.0102202799 -0.0105778212 5.07354707E-06
v -0.0151826097 -0.00648126565 -0.000845813716
v 0.0145230861 -0.00940659456 -0.000845813716
v -0.0153670115 -0.00202569948 5.07354707E-06
v 0.013206806 -0.00812676456 5.07354707E-06
v -0.0170912556 -0.00265632616 -0.000845813716
v 0.0171411503 -0.00602743123 -0.000845813716
v -0.0162794869 0.00172856322 5.07354707E-06
v 0.0155730816 -0.00507259369 5.07354707E-06
v -0.0181008149 0.00149741175 -0.000845813716
v 0.0189416111 -0.00215042103 -0.000845813716
v -0.01633377 0.00559173571 5.07354707E-06
v 0.0172003545 -0.00156845094 5.07354707E-06
v -0.0181608573 0.00577166537 -0.000845813716
v 0.0198342502 0.00203001965 -0.000845813716
v -0.0155269997 0.00937013607 5.07354707E-06
v 0.0180071443 0.00220994954 5.07354707E-06
v -0.0172682572 0.00995211583 -0.000845813716
v 0.0197742078 0.00630427338 -0.000845813716
v -0.0138996886 0.0128742643 5.07354707E-06
v 0.0179528799 0.00607312657 5.07354707E-06
v -0.0154677955 0.0138291121 -0.000845813716
v 0.0187646095 0.0104580112 -0.000845813716
v -0.0115334317 0.0159284491 5.07354707E-06
v 0.0170403849 0.00982738007 5.07354707E-06
v -0.0128497314 0.0172082856 -0.000845813716
v 0.0168560017 0.0142829418 -0.000845813716
v -0.00854694378 0.018379502 5.07354707E-06
v 0.0153153222 0.0132844448 5.07354707E-06
v -0.0095454026 0.0199201535 -0.000845813716
v 0.0141441338 0.0175872743 -0.000845813716
v -0.0050898362 0.0201045405 5.07354707E-06
v 0.0128643028 0.0162709858 5.07354707E-06
v -0.00572048174 0.0218287501 -0.000845813716
v 0.0107649416 0.0202053059 -0.000845813716
v -0.00133560179 0.0210170597 5.07354707E-06
v 0.00981010403 0.0186372269 5.07354707E-06
v -0.00156673428 0.0228383727 -0.000845813716
v 0.00688795093 0.0220057759 -0.000845813716
v 0.00252758013 0.0210712962 5.07354707E-06
v 0.0063059614 0.0202645399 5.07354707E-06
v 0.00270750048 0.0228983723 -0.000845813716
vt 0.144165039 0.144165039
vt 0.114929199 0.258056641
vt 0.178466797 0.178466797
vt 0.0739746094 0.232299805
vt 0.232299805 0.0739746094
vt 0.0707397461 0.349853516
vt 0.258056641 0.114929199
vt 0.0250701904 0.333740234
vt 0.333740234 0.0250701904
vt 0.0480957031 0.448974609
vt 0.349853516 0.0707397461
vt 1.78813934E-07 0.443603516
vt 0.443603516 0
vt 0.0480957031 0.55078125
vt 0.448974609 0.0480957031
vt 0 0.556152344
vt 0.556152344 8.34465027E-07
vt 0.0707397461 0.650390625
vt 0.55078125 0.0480957031
vt 0.0250701904 0.666015625
vt 0.666015625 0.0250701904
vt 0.114929199 0.7421875
vt 0.650390625 0.0707397461
vt 0.0739746094 0.767578125
vt 0.767578125 0.0739746094
vt 0.178466797 0.821777344
vt 0.7421875 0.114929199
vt 0.144165039 0.855957031
vt 0.855957031 0.144165039
vt 0.258056641 0.885253906
vt 0.821777344 0.178466797
vt 0.232299805 0.926269531
vt 0.926269531 0.232299805
vt 0.349853516 0.929199219
vt 0.885253906 0.258056641
vt 0.333740234 0.975097656
vt 0.975097656 0.333740234
vt 0.448974609 0.952148438
vt 0.929199219 0.349853516
vt 0.443603516 1
vt 1 0.443603516
vt 0.55078125 0.952148438
vt 0.952148438 0.448974609
vt 0.556152344 1
vt 1 0.556152344
vt 0.650390625 0.929199219
vt 0.952148438 0.55078125
vt 0.666015625 0.975097656
vt 0.975097656 0.666015625
vt 0.7421875 0.885253906
vt 0.929199219 0.650390625
vt 0.767578125 0.926269531
vt 0.926269531 0.767578125
vt 0.821777344 0.821777344
vt 0.885253906 0.7421875
vt 0.855957031 0.855957031
vn -0.0411987305 -0.418457031 0.907226562
vn -0.255371094 -0.129394531 0.958007812
vn -0.220092773 -0.182983398 0.958007812
vn -0.133300781 -0.398925781 0.907226562
vn 0.052947998 -0.417236328 0.907226562
vn -0.277587891 -0.0693359375 0.958007812
vn 0.0531311035 -0.418701172 0.906738281
vn -0.21875 -0.359130859 0.907226562
vn 0.14440918 -0.395019531 0.907226562
vn -0.286132812 -0.00584030151 0.958007812
vn -0.11895752 -0.260253906 0.958007812
vn -0.293212891 -0.301513672 0.907226562
vn 0.228637695 -0.352783203 0.907226562
vn -0.354003906 -0.229492188 0.906738281
vn -0.0579833984 -0.280273438 0.958007812
vn -0.352783203 -0.228637695 0.907226562
vn 0.301513672 -0.293212891 0.907226562
vn -0.260253906 0.118896484 0.958007812
vn 0.00584030151 -0.286132812 0.958007812
vn -0.395019531 -0.14440918 0.907226562
vn 0.359130859 -0.21875 0.907226562
vn -0.227294922 0.173828125 0.958007812
vn 0.0693359375 -0.277587891 0.958007812
vn -0.417236328 -0.052947998 0.907226562
vn 0.398925781 -0.133300781 0.907226562
vn -0.182983398 0.220092773 0.958007812
vn 0.129394531 -0.255371094 0.958007812
vn -0.418457031 0.0411987305 0.907226562
vn 0.418457031 -0.0411987305 0.907226562
vn -0.129394531 0.255371094 0.958007812
vn 0.182983398 -0.220092773 0.958007812
vn -0.398925781 0.133300781 0.907226562
vn 0.417236328 0.052947998 0.907226562
vn -0.0693359375 0.277587891 0.958007812
vn 0.227294922 -0.173828125 0.958007812
vn -0.359130859 0.21875 0.907226562
vn 0.395019531 0.14440918 0.907226562
vn -0.00584030151 0.286132812 0.958007812
vn 0.260253906 -0.118896484 0.958007812
vn -0.301513672 0.293212891 0.907226562
vn 0.352783203 0.228637695 0.907226562
vn 0.0579833984 0.280273438 0.958007812
vn 0.280273438 -0.0579833984 0.958007812
vn -0.228637695 0.352783203 0.907226562
vn 0.293212891 0.301513672 0.907226562
vn 0.118896484 0.260253906 0.958007812
vn 0.294189453 0.302490234 0.906738281
vn -0.14440918 0.395019531 0.907226562
vn 0.21875 0.359130859 0.907226562
vn 0.173828125 0.227294922 0.958007812
vn 0.277587891 0.0693359375 0.958007812
vn -0.052947998 0.417236328 0.907226562
vn 0.133300781 0.398925781 0.907226562
vn 0.220092773 0.182983398 0.958007812
vn 0.255371094 0.129394531 0.958007812
vn 0.0411987305 0.418457031 0.907226562
g Light stand_0
f 3/3/3 2/2/2 1/1/1
f 2/2/2 4/4/4 1/1/1
f 3/3/3 1/1/1 5/5/5
f 2/2/2 6/6/6 4/4/4
f 7/7/7 3/3/3 5/5/5
f 6/6/6 8/8/8 4/4/4
f 7/7/7 5/5/5 9/9/9
f 6/6/6 10/10/10 8/8/8
f 11/11/11 7/7/7 9/9/9
f 10/10/10 12/12/12 8/8/8
f 11/11/11 9/9/9 13/13/13
f 10/10/10 14/14/14 12/12/12
f 15/15/15 11/11/11 13/13/13
f 14/14/14 16/16/16 12/12/12
f 15/15/15 13/13/13 17/17/17
f 14/14/14 18/18/18 16/16/16
f 19/19/19 15/15/15 17/17/17
f 18/18/18 20/20/20 16/16/16
f 19/19/19 17/17/17 21/21/21
f 18/18/18 22/22/22 20/20/20
f 23/23/23 19/19/19 21/21/21
f 22/22/22 24/24/24 20/20/20
f 23/23/23 21/21/21 25/25/25
f 22/22/22 26/26/26 24/24/24
f 27/27/27 23/23/23 25/25/25
f 26/26/26 28/28/28 24/24/24
f 27/27/27 25/25/25 29/29/29
f 26/26/26 30/30/30 28/28/28
f 31/31/31 27/27/27 29/29/29
f 30/30/30 32/32/32 28/28/28
f 31/31/31 29/29/29 33/33/33
f 30/30/30 34/34/34 32/32/32
f 35/35/35 31/31/31 33/33/33
f 34/34/34 36/36/36 32/32/32
f 35/35/35 33/33/33 37/37/37
f 34/34/34 38/38/38 36/36/36
f 39/39/39 35/35/35 37/37/37
f 38/38/38 40/40/40 36/36/36
f 39/39/39 37/37/37 41/41/41
f 38/38/38 42/42/42 40/40/40
f 43/43/43 39/39/39 41/41/41
f 42/42/42 44/44/44 40/40/40
f 43/43/43 41/41/41 45/45/45
f 42/42/42 46/46/46 44/44/44
f 47/47/47 43/43/43 45/45/45
f 46/46/46 48/48/48 44/44/44
f 47/47/47 45/45/45 49/49/49
f 46/46/46 50/50/50 48/48/48
f 51/51/51 47/47/47 49/49/49
f 50/50/50 52/52/52 48/48/48
f 51/51/51 49/49/49 53/53/53
f 50/50/50 54/54/54 52/52/52
f 55/55/55 51/51/51 53/53/53
f 54/54/54 56/56/56 52/52/52
f 55/55/55 53/53/53 56/56/56
f 54/54/54 55/55/55 56/56/56
g Light stand_1
f 27/27/27 31/31/31 35/35/35
f 35/35/35 39/39/39 27/27/27
f 39/39/39 23/23/23 27/27/27
f 39/39/39 43/43/43 23/23/23
f 43/43/43 19/19/19 23/23/23
f 43/43/43 47/47/47 19/19/19
f 47/47/47 15/15/15 19/19/19
f 47/47/47 51/51/51 15/15/15
f 51/51/51 11/11/11 15/15/15
f 51/51/51 55/55/55 11/11/11
f 55/55/55 7/7/7 11/11/11
f 55/55/55 54/54/54 7/7/7
f 54/54/54 3/3/3 7/7/7
f 54/54/54 50/50/50 3/3/3
f 50/50/50 2/2/2 3/3/3
f 50/50/50 46/46/46 2/2/2
f 46/46/46 6/6/6 2/2/2
f 46/46/46 42/42/42 6/6/6
f 42/42/42 10/10/10 6/6/6
f 42/42/42 38/38/38 10/10/10
f 38/38/38 14/14/14 10/10/10
f 38/38/38 34/34/34 14/14/14
f 34/34/34 18/18/18 14/14/14
f 34/34/34 30/30/30 18/18/18
f 30/30/30 22/22/22 18/18/18
f 30/30/30 26/26/26 22/22/22
