g Poster
v -3.51178642E-05 -0.00172911817 0.00194057846
v -5.69081276E-05 -0.00213273941 0.00194641738
v -3.51178642E-05 -0.00213273941 0.00194057846
v -5.69081276E-05 -0.00172911817 0.00194641738
v -7.28607192E-05 -0.00213273941 0.00196237001
v -7.28607192E-05 -0.00172911817 0.00196237001
v -7.86995879E-05 -0.00172911817 0.00198416132
v -7.28607192E-05 -0.00172911817 0.00200595218
v -7.28607192E-05 -0.00213273941 0.00200595218
v -7.86995879E-05 -0.00213273941 0.00198416132
v -7.28607192E-05 -0.00172911817 0.00196237001
v -7.28607192E-05 -0.00213273941 0.00196237001
v 2.6261805E-06 -0.00172911817 0.00200595218
v 8.46505191E-06 -0.00213273941 0.00198416132
v 2.6261805E-06 -0.00213273941 0.00200595218
v 8.46505191E-06 -0.00172911817 0.00198416132
v 2.6261805E-06 -0.00213273941 0.00196237001
v 2.6261805E-06 -0.00172911817 0.00196237001
v -1.33252142E-05 -0.00213273941 0.00194641738
v -1.33252142E-05 -0.00172911817 0.00194641738
v -1.33252142E-05 -0.00172911817 0.00194641738
v -3.51178642E-05 -0.00172911817 0.00194057846
v -3.51178642E-05 -0.00213273941 0.00194057846
v -1.33252142E-05 -0.00213273941 0.00194641738
v -1.33252142E-05 -0.00172911817 0.00202190434
v 2.6261805E-06 -0.00172911817 0.00200595218
v 2.6261805E-06 -0.00213273941 0.00200595218
v -1.33252142E-05 -0.00213273941 0.00202190434
v -3.51178642E-05 -0.00172911817 0.00202774419
v -3.51178642E-05 -0.00213273941 0.00202774419
v -5.69081276E-05 -0.00172911817 0.00202190434
v -3.51178642E-05 -0.00172911817 0.00202774419
v -3.51178642E-05 -0.00213273941 0.00202774419
v -5.69081276E-05 -0.00213273941 0.00202190434
v -7.28607192E-05 -0.00172911817 0.00200595218
v -5.69081276E-05 -0.00172911817 0.00202190434
v -5.69081276E-05 -0.00213273941 0.00202190434
v -7.28607192E-05 -0.00213273941 0.00200595218
v -1.33252142E-05 -0.00213273941 0.00194641738
v -3.51178642E-05 -0.00213273941 0.00194057846
v -5.69081276E-05 -0.00213273941 0.00194641738
v 2.6261805E-06 -0.00213273941 0.00196237001
v -7.28607192E-05 -0.00213273941 0.00196237001
v 8.46505191E-06 -0.00213273941 0.00198416132
v -7.86995879E-05 -0.00213273941 0.00198416132
v 2.6261805E-06 -0.00213273941 0.00200595218
v -7.28607192E-05 -0.00213273941 0.00200595218
v -1.33252142E-05 -0.00213273941 0.00202190434
v -5.69081276E-05 -0.00213273941 0.00202190434
v -3.51178642E-05 -0.00213273941 0.00202774419
v -5.69081276E-05 0.00187053264 0.00194641738
v -3.51178642E-05 0.00187053264 0.00194057846
v -1.33252142E-05 0.00187053264 0.00194641738
v -7.28607192E-05 0.00187053264 0.00196237001
v 2.6261805E-06 0.00187053264 0.00196237001
v -7.86995879E-05 0.00187053264 0.00198416132
v 8.46505191E-06 0.00187053264 0.00198416132
v -7.28607192E-05 0.00187053264 0.00200595218
v 2.6261805E-06 0.00187053264 0.00200595218
v -5.69081276E-05 0.00187053264 0.00202190434
v -1.33252142E-05 0.00187053264 0.00202190434
v -3.51178642E-05 0.00187053264 0.00202774419
v -3.51178642E-05 0.00187053264 0.00194057846
v -5.69081276E-05 0.00149155315 0.00194641738
v -3.51178642E-05 0.00149155315 0.00194057846
v -5.69081276E-05 0.00187053264 0.00194641738
v -7.28607192E-05 0.00149155315 0.00196237001
v -7.28607192E-05 0.00187053264 0.00196237001
v -7.86995879E-05 0.00187053264 0.00198416132
v -7.28607192E-05 0.00187053264 0.00200595218
v -7.28607192E-05 0.00149155315 0.00200595218
v -7.86995879E-05 0.00149155315 0.00198416132
v -7.28607192E-05 0.00187053264 0.00196237001
v -7.28607192E-05 0.00149155315 0.00196237001
v 2.6261805E-06 0.00187053264 0.00200595218
v 8.46505191E-06 0.00149155315 0.00198416132
v 2.6261805E-06 0.00149155315 0.00200595218
v 8.46505191E-06 0.00187053264 0.00198416132
v 2.6261805E-06 0.00149155315 0.00196237001
v 2.6261805E-06 0.00187053264 0.00196237001
v -1.33252142E-05 0.00149155315 0.00194641738
v -1.33252142E-05 0.00187053264 0.00194641738
v -1.33252142E-05 0.00187053264 0.00194641738
v -3.51178642E-05 0.00187053264 0.00194057846
v -3.51178642E-05 0.00149155315 0.00194057846
v -1.33252142E-05 0.00149155315 0.00194641738
v -1.33252142E-05 0.00187053264 0.00202190434
v 2.6261805E-06 0.00187053264 0.00200595218
v 2.6261805E-06 0.00149155315 0.00200595218
v -1.33252142E-05 0.00149155315 0.00202190434
v -3.51178642E-05 0.00187053264 0.00202774419
v -3.51178642E-05 0.00149155315 0.00202774419
v -5.69081276E-05 0.00187053264 0.00202190434
v -3.51178642E-05 0.00187053264 0.00202774419
v -3.51178642E-05 0.00149155315 0.00202774419
v -5.69081276E-05 0.00149155315 0.00202190434
v -7.28607192E-05 0.00187053264 0.00200595218
v -5.69081276E-05 0.00187053264 0.00202190434
v -5.69081276E-05 0.00149155315 0.00202190434
v -7.28607192E-05 0.00149155315 0.00200595218
v -1.85978406E-05 -0.00219809241 0.00195554947
v -3.51166709E-05 -0.00219809241 0.00195112312
v -5.1635503E-05 -0.00219809241 0.00195554947
v -6.50644279E-06 -0.00219809241 0.00196764246
v -6.37292833E-05 -0.00219809241 0.00196764246
v -2.07901007E-06 -0.00219809241 0.00198416016
v -6.81543315E-05 -0.00219809241 0.00198416016
v -6.50644279E-06 -0.00219809241 0.00200067903
v -6.37292833E-05 -0.00219809241 0.00200067903
v -1.85978406E-05 -0.00219809241 0.00201277272
v -5.1635503E-05 -0.00219809241 0.00201277272
v -3.51166709E-05 -0.00219809241 0.0020171979
v -6.37292833E-05 -0.0021156508 0.00200067903
v -5.1635503E-05 -0.0021156508 0.00201277272
v -5.1635503E-05 -0.00219809241 0.00201277272
v -6.37292833E-05 -0.00219809241 0.00200067903
v -2.07901007E-06 -0.0021156508 0.00198416016
v -6.50644279E-06 -0.00219809241 0.00196764246
v -2.07901007E-06 -0.00219809241 0.00198416016
v -6.50644279E-06 -0.0021156508 0.00196764246
v -1.85978406E-05 -0.00219809241 0.00195554947
v -1.85978406E-05 -0.0021156508 0.00195554947
v -3.51166709E-05 -0.0021156508 0.00195112312
v -5.1635503E-05 -0.00219809241 0.00195554947
v -3.51166709E-05 -0.00219809241 0.00195112312
v -5.1635503E-05 -0.0021156508 0.00195554947
v -6.37292833E-05 -0.00219809241 0.00196764246
v -6.37292833E-05 -0.0021156508 0.00196764246
v -6.81543315E-05 -0.0021156508 0.00198416016
v -6.37292833E-05 -0.0021156508 0.00200067903
v -6.37292833E-05 -0.00219809241 0.00200067903
v -6.81543315E-05 -0.00219809241 0.00198416016
v -6.50644279E-06 -0.0021156508 0.00200067903
v -2.07901007E-06 -0.0021156508 0.00198416016
v -2.07901007E-06 -0.00219809241 0.00198416016
v -6.50644279E-06 -0.00219809241 0.00200067903
v -1.85978406E-05 -0.0021156508 0.00201277272
v -1.85978406E-05 -0.00219809241 0.00201277272
v -1.85978406E-05 -0.0021156508 0.00195554947
v -3.51166709E-05 -0.0021156508 0.00195112312
v -3.51166709E-05 -0.00219809241 0.00195112312
v -1.85978406E-05 -0.00219809241 0.00195554947
v -6.37292833E-05 -0.0021156508 0.00196764246
v -6.81543315E-05 -0.0021156508 0.00198416016
v -6.81543315E-05 -0.00219809241 0.00198416016
v -6.37292833E-05 -0.00219809241 0.00196764246
v -5.1635503E-05 -0.0021156508 0.00201277272
v -3.51166709E-05 -0.0021156508 0.0020171979
v -3.51166709E-05 -0.00219809241 0.0020171979
v -5.1635503E-05 -0.00219809241 0.00201277272
v -3.51166709E-05 -0.0021156508 0.0020171979
v -1.85978406E-05 -0.0021156508 0.00201277272
v -1.85978406E-05 -0.00219809241 0.00201277272
v -3.51166709E-05 -0.00219809241 0.0020171979
v -5.16343098E-05 0.00193246303 0.00195554947
v -3.51154813E-05 0.00193246303 0.00195112312
v -1.85978406E-05 0.00193246303 0.00195554947
v -6.37257108E-05 0.00193246303 0.00196764246
v -6.50405855E-06 0.00193246303 0.00196764246
v -6.81531383E-05 0.00193246303 0.00198416016
v -2.0784139E-06 0.00193246303 0.00198416016
v -6.37257108E-05 0.00193246303 0.00200067903
v -6.50405855E-06 0.00193246303 0.00200067903
v -5.16343098E-05 0.00193246303 0.00201277272
v -1.85978406E-05 0.00193246303 0.00201277272
v -3.51154813E-05 0.00193246303 0.00201719836
v -6.50405855E-06 0.00185002142 0.00200067903
v -1.85978406E-05 0.00185002142 0.00201277272
v -1.85978406E-05 0.00193246303 0.00201277272
v -6.50405855E-06 0.00193246303 0.00200067903
v -6.81531383E-05 0.00185002142 0.00198416016
v -6.37257108E-05 0.00193246303 0.00196764246
v -6.81531383E-05 0.00193246303 0.00198416016
v -6.37257108E-05 0.00185002142 0.00196764246
v -5.16343098E-05 0.00193246303 0.00195554947
v -5.16343098E-05 0.00185002142 0.00195554947
v -3.51154813E-05 0.00185002142 0.00195112312
v -1.85978406E-05 0.00193246303 0.00195554947
v -3.51154813E-05 0.00193246303 0.00195112312
v -1.85978406E-05 0.00185002142 0.00195554947
v -6.50405855E-06 0.00193246303 0.00196764246
v -6.50405855E-06 0.00185002142 0.00196764246
v -2.0784139E-06 0.00185002142 0.00198416016
v -6.50405855E-06 0.00185002142 0.00200067903
v -6.50405855E-06 0.00193246303 0.00200067903
v -2.0784139E-06 0.00193246303 0.00198416016
v -6.37257108E-05 0.00185002142 0.00200067903
v -6.81531383E-05 0.00185002142 0.00198416016
v -6.81531383E-05 0.00193246303 0.00198416016
v -6.37257108E-05 0.00193246303 0.00200067903
v -5.16343098E-05 0.00185002142 0.00201277272
v -5.16343098E-05 0.00193246303 0.00201277272
v -5.16343098E-05 0.00185002142 0.00195554947
v -3.51154813E-05 0.00185002142 0.00195112312
v -3.51154813E-05 0.00193246303 0.00195112312
v -5.16343098E-05 0.00193246303 0.00195554947
v -6.50405855E-06 0.00185002142 0.00196764246
v -2.0784139E-06 0.00185002142 0.00198416016
v -2.0784139E-06 0.00193246303 0.00198416016
v -6.50405855E-06 0.00193246303 0.00196764246
v -1.85978406E-05 0.00185002142 0.00201277272
v -3.51154813E-05 0.00185002142 0.00201719836
v -3.51154813E-05 0.00193246303 0.00201719836
v -1.85978406E-05 0.00193246303 0.00201277272
v -3.51154813E-05 0.00185002142 0.00201719836
v -5.16343098E-05 0.00185002142 0.00201277272
v -5.16343098E-05 0.00193246303 0.00201277272
v -3.51154813E-05 0.00193246303 0.00201719836
v 2.6261805E-06 -0.00173673918 0.00195452711
v 2.6261805E-06 -0.00173673918 -0.00263788016
v 2.6261805E-06 0.00147470646 -0.00263788016
v 2.6261805E-06 0.00147470646 0.00195452711
v -7.28607192E-05 0.00149155315 0.00200595218
v -5.69081276E-05 0.00149155315 0.00202190434
v -5.69081276E-05 -0.00172911817 0.00202190434
v -7.28607192E-05 -0.00172911817 0.00200595218
v -3.51178642E-05 0.00149155315 0.00202774419
v -1.33252142E-05 -0.00172911817 0.00202190434
v -3.51178642E-05 -0.00172911817 0.00202774419
v -1.33252142E-05 0.00149155315 0.00202190434
v 2.6261805E-06 -0.00172911817 0.00200595218
v 2.6261805E-06 0.00149155315 0.00200595218
v -5.69081276E-05 0.00149155315 0.00194641738
v -7.28607192E-05 0.00149155315 0.00196237001
v -7.28607192E-05 -0.00172911817 0.00196237001
v -5.69081276E-05 -0.00172911817 0.00194641738
v -3.51178642E-05 0.00149155315 0.00194057846
v -3.51178642E-05 -0.00172911817 0.00194057846
v 2.6261805E-06 0.00149155315 0.00196237001
v -1.33252142E-05 0.00149155315 0.00194641738
v -1.33252142E-05 -0.00172911817 0.00194641738
v 2.6261805E-06 -0.00172911817 0.00196237001
v 8.46505191E-06 0.00149155315 0.00198416132
v 8.46505191E-06 -0.00172911817 0.00198416132
v 2.6261805E-06 0.00149155315 0.00200595218
v 2.6261805E-06 -0.00172911817 0.00200595218
v -5.69081276E-05 0.00149155315 0.00202190434
v -3.51178642E-05 0.00149155315 0.00202774419
v -3.51178642E-05 -0.00172911817 0.00202774419
v -5.69081276E-05 -0.00172911817 0.00202190434
v -7.28607192E-05 0.00149155315 0.00196237001
v -7.86995879E-05 -0.00172911817 0.00198416132
v -7.28607192E-05 -0.00172911817 0.00196237001
v -7.86995879E-05 0.00149155315 0.00198416132
v -7.28607192E-05 -0.00172911817 0.00200595218
v -7.28607192E-05 0.00149155315 0.00200595218
v -1.33252142E-05 0.00149155315 0.00194641738
v -3.51178642E-05 0.00149155315 0.00194057846
v -3.51178642E-05 -0.00172911817 0.00194057846
v -1.33252142E-05 -0.00172911817 0.00194641738
vt 0.636230469 0.969726562
vt 0.720214844 0.971191406
vt 0.720214844 0.969726562
vt 0.636230469 0.971191406
vt 0.720214844 0.974121094
vt 0.636230469 0.974121094
vt 0.636230469 0.979003906
vt 0.636230469 0.983398438
vt 0.720214844 0.983398438
vt 0.720214844 0.979003906
vt 0.636230469 0.974121094
vt 0.720214844 0.974121094
vt 0.636230469 0.983398438
vt 0.720214844 0.979003906
vt 0.720214844 0.983398438
vt 0.636230469 0.979003906
vt 0.720214844 0.974121094
vt 0.636230469 0.974121094
vt 0.720214844 0.971191406
vt 0.636230469 0.971191406
vt 0.636230469 0.971191406
vt 0.636230469 0.969726562
vt 0.720214844 0.969726562
vt 0.720214844 0.971191406
vt 0.636230469 0.986816406
vt 0.636230469 0.983398438
vt 0.720214844 0.983398438
vt 0.720214844 0.986816406
vt 0.636230469 0.987792969
vt 0.720214844 0.987792969
vt 0.636230469 0.986816406
vt 0.636230469 0.987792969
vt 0.720214844 0.987792969
vt 0.720214844 0.986816406
vt 0.636230469 0.983398438
vt 0.636230469 0.986816406
vt 0.720214844 0.986816406
vt 0.720214844 0.983398438
vt 0.720214844 0.971191406
vt 0.720214844 0.969726562
vt 0.720214844 0.971191406
vt 0.720214844 0.974121094
vt 0.720214844 0.974121094
vt 0.720214844 0.979003906
vt 0.720214844 0.979003906
vt 0.720214844 0.983398438
vt 0.720214844 0.983398438
vt 0.720214844 0.986816406
vt 0.720214844 0.986816406
vt 0.720214844 0.987792969
vt -0.110839844 0.971191406
vt -0.110839844 0.969726562
vt -0.110839844 0.971191406
vt -0.110839844 0.974121094
vt -0.110839844 0.974121094
vt -0.110839844 0.979003906
vt -0.110839844 0.979003906
vt -0.110839844 0.983398438
vt -0.110839844 0.983398438
vt -0.110839844 0.986816406
vt -0.110839844 0.986816406
vt -0.110839844 0.987792969
vt -0.110839844 0.969726562
vt -0.0321960449 0.971191406
vt -0.0321960449 0.969726562
vt -0.110839844 0.971191406
vt -0.0321960449 0.974121094
vt -0.110839844 0.974121094
vt -0.110839844 0.979003906
vt -0.110839844 0.983398438
vt -0.0321960449 0.983398438
vt -0.0321960449 0.979003906
vt -0.110839844 0.974121094
vt -0.0321960449 0.974121094
vt -0.110839844 0.983398438
vt -0.0321960449 0.979003906
vt -0.0321960449 0.983398438
vt -0.110839844 0.979003906
vt -0.0321960449 0.974121094
vt -0.110839844 0.974121094
vt -0.0321960449 0.971191406
vt -0.110839844 0.971191406
vt -0.110839844 0.971191406
vt -0.110839844 0.969726562
vt -0.0321960449 0.969726562
vt -0.0321960449 0.971191406
vt -0.110839844 0.986816406
vt -0.110839844 0.983398438
vt -0.0321960449 0.983398438
vt -0.0321960449 0.986816406
vt -0.110839844 0.987792969
vt -0.0321960449 0.987792969
vt -0.110839844 0.986816406
vt -0.110839844 0.987792969
vt -0.0321960449 0.987792969
vt -0.0321960449 0.986816406
vt -0.110839844 0.983398438
vt -0.110839844 0.986816406
vt -0.0321960449 0.986816406
vt -0.0321960449 0.983398438
vt 0.733886719 0.97265625
vt 0.733886719 0.972167969
vt 0.733886719 0.97265625
vt 0.733886719 0.975585938
vt 0.733886719 0.975585938
vt 0.733886719 0.979003906
vt 0.733886719 0.979003906
vt 0.733886719 0.982421875
vt 0.733886719 0.982421875
vt 0.733886719 0.984863281
vt 0.733886719 0.984863281
vt 0.733886719 0.985839844
vt 0.716796875 0.982421875
vt 0.716796875 0.984863281
vt 0.733886719 0.984863281
vt 0.733886719 0.982421875
vt 0.716796875 0.979003906
vt 0.733886719 0.975585938
vt 0.733886719 0.979003906
vt 0.716796875 0.975585938
vt 0.733886719 0.97265625
vt 0.716796875 0.97265625
vt 0.716796875 0.972167969
vt 0.733886719 0.97265625
vt 0.733886719 0.972167969
vt 0.716796875 0.97265625
vt 0.733886719 0.975585938
vt 0.716796875 0.975585938
vt 0.716796875 0.979003906
vt 0.716796875 0.982421875
vt 0.733886719 0.982421875
vt 0.733886719 0.979003906
vt 0.716796875 0.982421875
vt 0.716796875 0.979003906
vt 0.733886719 0.979003906
vt 0.733886719 0.982421875
vt 0.716796875 0.984863281
vt 0.733886719 0.984863281
vt 0.716796875 0.97265625
vt 0.716796875 0.972167969
vt 0.733886719 0.972167969
vt 0.733886719 0.97265625
vt 0.716796875 0.975585938
vt 0.716796875 0.979003906
vt 0.733886719 0.979003906
vt 0.733886719 0.975585938
vt 0.716796875 0.984863281
vt 0.716796875 0.985839844
vt 0.733886719 0.985839844
vt 0.733886719 0.984863281
vt 0.716796875 0.985839844
vt 0.716796875 0.984863281
vt 0.733886719 0.984863281
vt 0.733886719 0.985839844
vt -0.123718262 0.97265625
vt -0.123718262 0.972167969
vt -0.123718262 0.97265625
vt -0.123718262 0.975585938
vt -0.123718262 0.975585938
vt -0.123718262 0.979003906
vt -0.123718262 0.979003906
vt -0.123718262 0.982421875
vt -0.123718262 0.982421875
vt -0.123718262 0.984863281
vt -0.123718262 0.984863281
vt -0.123718262 0.985839844
vt -0.106567383 0.982421875
vt -0.106567383 0.984863281
vt -0.123718262 0.984863281
vt -0.123718262 0.982421875
vt -0.106567383 0.979003906
vt -0.123718262 0.975585938
vt -0.123718262 0.979003906
vt -0.106567383 0.975585938
vt -0.123718262 0.97265625
vt -0.106567383 0.97265625
vt -0.106567383 0.972167969
vt -0.123718262 0.97265625
vt -0.123718262 0.972167969
vt -0.106567383 0.97265625
vt -0.123718262 0.975585938
vt -0.106567383 0.975585938
vt -0.106567383 0.979003906
vt -0.106567383 0.982421875
vt -0.123718262 0.982421875
vt -0.123718262 0.979003906
vt -0.106567383 0.982421875
vt -0.106567383 0.979003906
vt -0.123718262 0.979003906
vt -0.123718262 0.982421875
vt -0.106567383 0.984863281
vt -0.123718262 0.984863281
vt -0.106567383 0.97265625
vt -0.106567383 0.972167969
vt -0.123718262 0.972167969
vt -0.123718262 0.97265625
vt -0.106567383 0.975585938
vt -0.106567383 0.979003906
vt -0.123718262 0.979003906
vt -0.123718262 0.975585938
vt -0.106567383 0.984863281
vt -0.106567383 0.985839844
vt -0.123718262 0.985839844
vt -0.123718262 0.984863281
vt -0.106567383 0.985839844
vt -0.106567383 0.984863281
vt -0.123718262 0.984863281
vt -0.123718262 0.985839844
vt 0.661621094 0.952636719
vt 0.661621094 0.0320739746
vt 0.0179138184 0.0320739746
vt 0.0179138184 0.952636719
vt 0.0145339966 0.962890625
vt 0.0145339966 0.966308594
vt 0.66015625 0.966308594
vt 0.66015625 0.962890625
vt 0.0145339966 0.967285156
vt 0.66015625 0.966308594
vt 0.66015625 0.967285156
vt 0.0145339966 0.966308594
vt 0.66015625 0.962890625
vt 0.0145339966 0.962890625
vt 0.0145339966 0.951171875
vt 0.0145339966 0.954101562
vt 0.66015625 0.954101562
vt 0.66015625 0.951171875
vt 0.0145339966 0.949707031
vt 0.66015625 0.949707031
vt 0.0145339966 0.954101562
vt 0.0145339966 0.951171875
vt 0.66015625 0.951171875
vt 0.66015625 0.954101562
vt 0.0145339966 0.958496094
vt 0.66015625 0.958496094
vt 0.0145339966 0.962890625
vt 0.66015625 0.962890625
vt 0.0145339966 0.966308594
vt 0.0145339966 0.967285156
vt 0.66015625 0.967285156
vt 0.66015625 0.966308594
vt 0.0145339966 0.954101562
vt 0.66015625 0.958496094
vt 0.66015625 0.954101562
vt 0.0145339966 0.958496094
vt 0.66015625 0.962890625
vt 0.0145339966 0.962890625
vt 0.0145339966 0.951171875
vt 0.0145339966 0.949707031
vt 0.66015625 0.949707031
vt 0.66015625 0.951171875
vn -1.36494637E-05 0 -1
vn -0.5 0 -0.866210938
vn -1.37090683E-05 0 -1
vn -0.5 0 -0.866210938
vn -0.70703125 0 -0.70703125
vn -0.70703125 0 -0.70703125
vn -1 0 2.62260437E-06
vn -0.965820312 0 0.258789062
vn -0.965820312 0 0.258789062
vn -1 0 2.62260437E-06
vn -0.965820312 0 -0.258789062
vn -0.965820312 0 -0.258789062
vn 0.866210938 0 0.5
vn 1 0 2.62260437E-06
vn 0.866210938 0 0.5
vn 1 0 2.62260437E-06
vn 0.866210938 0 -0.5
vn 0.866210938 0 -0.5
vn 0.70703125 0 -0.70703125
vn 0.70703125 0 -0.70703125
vn 0.258789062 0 -0.965820312
vn -1.36494637E-05 0 -1
vn -1.37090683E-05 0 -1
vn 0.258789062 0 -0.965820312
vn 0.5 0 0.866210938
vn 0.866210938 0 0.5
vn 0.866210938 0 0.5
vn 0.5 0 0.866210938
vn 0.258789062 0 0.965820312
vn 0.258789062 0 0.965820312
vn -0.5 0 0.866210938
vn -0.258789062 0 0.965820312
vn -0.258789062 0 0.965820312
vn -0.5 0 0.866210938
vn -0.70703125 0 0.70703125
vn -0.5 0 0.866210938
vn -0.5 0 0.866210938
vn -0.70703125 0 0.70703125
vn -0 -1 5.36441803E-07
vn -0 -1 5.36441803E-07
vn -0 -1 5.36441803E-07
vn -0 -1 5.36441803E-07
vn -0 -1 5.36441803E-07
vn -0 -1 5.36441803E-07
vn -0 -1 5.36441803E-07
vn -0 -1 5.36441803E-07
vn -0 -1 5.36441803E-07
vn -0 -1 5.36441803E-07
vn -0 -1 5.36441803E-07
vn -0 -1 5.36441803E-07
vn -0 1 5.36441803E-07
vn -0 1 5.36441803E-07
vn -0 1 5.36441803E-07
vn -0 1 5.36441803E-07
vn -0 1 5.36441803E-07
vn -0 1 5.36441803E-07
vn -0 1 5.36441803E-07
vn -0 1 5.36441803E-07
vn -0 1 5.36441803E-07
vn -0 1 5.36441803E-07
vn -0 1 5.36441803E-07
vn -0 1 5.36441803E-07
vn -1.37090683E-05 0 -1
vn -0.5 0 -0.866210938
vn -1.36494637E-05 0 -1
vn -0.5 0 -0.866210938
vn -0.70703125 0 -0.70703125
vn -0.70703125 0 -0.70703125
vn -1 0 4.23192978E-06
vn -0.965820312 0 0.258789062
vn -0.965820312 0 0.258789062
vn -1 0 3.4570694E-06
vn -0.965820312 0 -0.258789062
vn -0.965820312 0 -0.258789062
vn 0.866210938 0 0.5
vn 1 0 3.4570694E-06
vn 0.866210938 0 0.5
vn 1 0 4.23192978E-06
vn 0.866210938 0 -0.5
vn 0.866210938 0 -0.5
vn 0.70703125 0 -0.70703125
vn 0.70703125 0 -0.70703125
vn 0.258789062 0 -0.965820312
vn -1.37090683E-05 0 -1
vn -1.36494637E-05 0 -1
vn 0.258789062 0 -0.965820312
vn 0.5 0 0.866210938
vn 0.866210938 0 0.5
vn 0.866210938 0 0.5
vn 0.5 0 0.866210938
vn 0.258789062 0 0.965820312
vn 0.258789062 0 0.965820312
vn -0.5 0 0.866210938
vn -0.258789062 0 0.965820312
vn -0.258789062 0 0.965820312
vn -0.5 0 0.866210938
vn -0.70703125 0 0.70703125
vn -0.5 0 0.866210938
vn -0.5 0 0.866210938
vn -0.70703125 0 0.70703125
vn -0 -1 -8.94069672E-07
vn -0 -1 -8.94069672E-07
vn -0 -1 -8.94069672E-07
vn -0 -1 -8.94069672E-07
vn -0 -1 -8.94069672E-07
vn -0 -1 -8.94069672E-07
vn -0 -1 -8.94069672E-07
vn -0 -1 -8.94069672E-07
vn -0 -1 -8.94069672E-07
vn -0 -1 -8.94069672E-07
vn -0 -1 -8.94069672E-07
vn -0 -1 -8.94069672E-07
vn -0.70703125 0 0.70703125
vn -0.70703125 0 0.70703125
vn -0.70703125 0 0.70703125
vn -0.70703125 0 0.70703125
vn 0.965820312 0 -0.258789062
vn 0.866210938 0 -0.5
vn 0.965820312 0 -0.258789062
vn 0.866210938 0 -0.5
vn 0.70703125 0 -0.70703125
vn 0.70703125 0 -0.70703125
vn -0.258789062 0 -0.965820312
vn -0.5 0 -0.866210938
vn -0.258789062 0 -0.965820312
vn -0.5 0 -0.866210938
vn -0.70703125 0 -0.70703125
vn -0.70703125 0 -0.70703125
vn -1 0 -8.5234642E-06
vn -0.965820312 0 0.258789062
vn -0.965820312 0 0.258789062
vn -1 0 -8.5234642E-06
vn 0.866210938 0 0.5
vn 0.965820312 0 0.258789062
vn 0.965820312 0 0.258789062
vn 0.866210938 0 0.5
vn 0.70703125 0 0.70703125
vn 0.70703125 0 0.70703125
vn 0.258789062 0 -0.965820312
vn 0.258789062 0 -0.965820312
vn 0.258789062 0 -0.965820312
vn 0.258789062 0 -0.965820312
vn -0.965820312 0 -0.258789062
vn -1 0 -8.5234642E-06
vn -1 0 -8.5234642E-06
vn -0.965820312 0 -0.258789062
vn -0.258789062 0 0.965820312
vn -0 0 1
vn -0 0 1
vn -0.258789062 0 0.965820312
vn -0 0 1
vn 0.258789062 0 0.965820312
vn 0.258789062 0 0.965820312
vn -0 0 1
vn -0 1 1.78813934E-06
vn -0 1 1.78813934E-06
vn -0 1 1.78813934E-06
vn -0 1 1.78813934E-06
vn -0 1 1.78813934E-06
vn -0 1 1.78813934E-06
vn -0 1 1.78813934E-06
vn -0 1 1.78813934E-06
vn -0 1 1.78813934E-06
vn -0 1 1.78813934E-06
vn -0 1 1.78813934E-06
vn -0 1 1.78813934E-06
vn 0.70703125 0 0.70703125
vn 0.70703125 0 0.70703125
vn 0.70703125 0 0.70703125
vn 0.70703125 0 0.70703125
vn -0.965820312 0 -0.258789062
vn -0.866210938 0 -0.5
vn -0.965820312 0 -0.258789062
vn -0.866210938 0 -0.5
vn -0.70703125 0 -0.70703125
vn -0.70703125 0 -0.70703125
vn 0.258789062 0 -0.965820312
vn 0.5 0 -0.866210938
vn 0.258789062 0 -0.965820312
vn 0.5 0 -0.866210938
vn 0.70703125 0 -0.70703125
vn 0.70703125 0 -0.70703125
vn 1 0 -8.5234642E-06
vn 0.965820312 0 0.258789062
vn 0.965820312 0 0.258789062
vn 1 0 -8.5234642E-06
vn -0.866210938 0 0.5
vn -0.965820312 0 0.258789062
vn -0.965820312 0 0.258789062
vn -0.866210938 0 0.5
vn -0.70703125 0 0.70703125
vn -0.70703125 0 0.70703125
vn -0.258789062 0 -0.965820312
vn -0.258789062 0 -0.965820312
vn -0.258789062 0 -0.965820312
vn -0.258789062 0 -0.965820312
vn 0.965820312 0 -0.258789062
vn 1 0 -8.5234642E-06
vn 1 0 -8.5234642E-06
vn 0.965820312 0 -0.258789062
vn 0.258789062 0 0.965820312
vn 8.82148743E-06 0 1
vn 8.82148743E-06 0 1
vn 0.258789062 0 0.965820312
vn 8.82148743E-06 0 1
vn -0.258789062 0 0.965820312
vn -0.258789062 0 0.965820312
vn 8.82148743E-06 0 1
vn -1 0 0
vn -1 0 0
vn -1 0 0
vn -1 0 0
vn -0.70703125 0 0.70703125
vn -0.5 0 0.866210938
vn -0.5 0 0.866210938
vn -0.70703125 0 0.70703125
vn 0.258789062 0 0.965820312
vn 0.5 0 0.866210938
vn 0.258789062 0 0.965820312
vn 0.5 0 0.866210938
vn 0.866210938 0 0.5
vn 0.866210938 0 0.5
vn -0.5 0 -0.866210938
vn -0.70703125 0 -0.70703125
vn -0.70703125 0 -0.70703125
vn -0.5 0 -0.866210938
vn -1.36494637E-05 0 -1
vn -1.36494637E-05 0 -1
vn 0.866210938 0 -0.5
vn 0.70703125 0 -0.70703125
vn 0.70703125 0 -0.70703125
vn 0.866210938 0 -0.5
vn 1 0 3.4570694E-06
vn 1 0 2.62260437E-06
vn 0.866210938 0 0.5
vn 0.866210938 0 0.5
vn -0.5 0 0.866210938
vn -0.258789062 0 0.965820312
vn -0.258789062 0 0.965820312
vn -0.5 0 0.866210938
vn -0.965820312 0 -0.258789062
vn -1 0 2.62260437E-06
vn -0.965820312 0 -0.258789062
vn -1 0 3.4570694E-06
vn -0.965820312 0 0.258789062
vn -0.965820312 0 0.258789062
vn 0.258789062 0 -0.965820312
vn -1.36494637E-05 0 -1
vn -1.36494637E-05 0 -1
vn 0.258789062 0 -0.965820312
g Poster_0
f 3/3/3 2/2/2 1/1/1
f 2/2/2 4/4/4 1/1/1
f 2/2/2 5/5/5 4/4/4
f 5/5/5 6/6/6 4/4/4
f 9/9/9 8/8/8 7/7/7
f 10/10/10 9/9/9 7/7/7
f 10/10/10 7/7/7 11/11/11
f 12/12/12 10/10/10 11/11/11
f 15/15/15 14/14/14 13/13/13
f 14/14/14 16/16/16 13/13/13
f 14/14/14 17/17/17 16/16/16
f 17/17/17 18/18/18 16/16/16
f 17/17/17 19/19/19 18/18/18
f 19/19/19 20/20/20 18/18/18
f 23/23/23 22/22/22 21/21/21
f 24/24/24 23/23/23 21/21/21
f 27/27/27 26/26/26 25/25/25
f 28/28/28 27/27/27 25/25/25
f 28/28/28 25/25/25 29/29/29
f 30/30/30 28/28/28 29/29/29
f 33/33/33 32/32/32 31/31/31
f 34/34/34 33/33/33 31/31/31
f 37/37/37 36/36/36 35/35/35
f 38/38/38 37/37/37 35/35/35
f 41/41/41 40/40/40 39/39/39
f 39/39/39 42/42/42 41/41/41
f 42/42/42 43/43/43 41/41/41
f 42/42/42 44/44/44 43/43/43
f 44/44/44 45/45/45 43/43/43
f 44/44/44 46/46/46 45/45/45
f 46/46/46 47/47/47 45/45/45
f 46/46/46 48/48/48 47/47/47
f 48/48/48 49/49/49 47/47/47
f 48/48/48 50/50/50 49/49/49
f 53/53/53 52/52/52 51/51/51
f 51/51/51 54/54/54 53/53/53
f 54/54/54 55/55/55 53/53/53
f 54/54/54 56/56/56 55/55/55
f 56/56/56 57/57/57 55/55/55
f 56/56/56 58/58/58 57/57/57
f 58/58/58 59/59/59 57/57/57
f 58/58/58 60/60/60 59/59/59
f 60/60/60 61/61/61 59/59/59
f 60/60/60 62/62/62 61/61/61
f 65/65/65 64/64/64 63/63/63
f 64/64/64 66/66/66 63/63/63
f 64/64/64 67/67/67 66/66/66
f 67/67/67 68/68/68 66/66/66
f 71/71/71 70/70/70 69/69/69
f 72/72/72 71/71/71 69/69/69
f 72/72/72 69/69/69 73/73/73
f 74/74/74 72/72/72 73/73/73
f 77/77/77 76/76/76 75/75/75
f 76/76/76 78/78/78 75/75/75
f 76/76/76 79/79/79 78/78/78
f 79/79/79 80/80/80 78/78/78
f 79/79/79 81/81/81 80/80/80
f 81/81/81 82/82/82 80/80/80
f 85/85/85 84/84/84 83/83/83
f 86/86/86 85/85/85 83/83/83
f 89/89/89 88/88/88 87/87/87
f 90/90/90 89/89/89 87/87/87
f 90/90/90 87/87/87 91/91/91
f 92/92/92 90/90/90 91/91/91
f 95/95/95 94/94/94 93/93/93
f 96/96/96 95/95/95 93/93/93
f 99/99/99 98/98/98 97/97/97
f 100/100/100 99/99/99 97/97/97
g Poster_1
f 103/103/103 102/102/102 101/101/101
f 101/101/101 104/104/104 103/103/103
f 104/104/104 105/105/105 103/103/103
f 104/104/104 106/106/106 105/105/105
f 106/106/106 107/107/107 105/105/105
f 106/106/106 108/108/108 107/107/107
f 108/108/108 109/109/109 107/107/107
f 108/108/108 110/110/110 109/109/109
f 110/110/110 111/111/111 109/109/109
f 110/110/110 112/112/112 111/111/111
f 115/115/115 114/114/114 113/113/113
f 116/116/116 115/115/115 113/113/113
f 119/119/119 118/118/118 117/117/117
f 118/118/118 120/120/120 117/117/117
f 118/118/118 121/121/121 120/120/120
f 121/121/121 122/122/122 120/120/120
f 125/125/125 124/124/124 123/123/123
f 124/124/124 126/126/126 123/123/123
f 124/124/124 127/127/127 126/126/126
f 127/127/127 128/128/128 126/126/126
f 131/131/131 130/130/130 129/129/129
f 132/132/132 131/131/131 129/129/129
f 135/135/135 134/134/134 133/133/133
f 136/136/136 135/135/135 133/133/133
f 136/136/136 133/133/133 137/137/137
f 138/138/138 136/136/136 137/137/137
f 141/141/141 140/140/140 139/139/139
f 142/142/142 141/141/141 139/139/139
f 145/145/145 144/144/144 143/143/143
f 146/146/146 145/145/145 143/143/143
f 149/149/149 148/148/148 147/147/147
f 150/150/150 149/149/149 147/147/147
f 153/153/153 152/152/152 151/151/151
f 154/154/154 153/153/153 151/151/151
f 157/157/157 156/156/156 155/155/155
f 155/155/155 158/158/158 157/157/157
f 158/158/158 159/159/159 157/157/157
f 158/158/158 160/160/160 159/159/159
f 160/160/160 161/161/161 159/159/159
f 160/160/160 162/162/162 161/161/161
f 162/162/162 163/163/163 161/161/161
f 162/162/162 164/164/164 163/163/163
f 164/164/164 165/165/165 163/163/163
f 164/164/164 166/166/166 165/165/165
f 169/169/169 168/168/168 167/167/167
f 170/170/170 169/169/169 167/167/167
f 173/173/173 172/172/172 171/171/171
f 172/172/172 174/174/174 171/171/171
f 172/172/172 175/175/175 174/174/174
f 175/175/175 176/176/176 174/174/174
f 179/179/179 178/178/178 177/177/177
f 178/178/178 180/180/180 177/177/177
f 178/178/178 181/181/181 180/180/180
f 181/181/181 182/182/182 180/180/180
f 185/185/185 184/184/184 183/183/183
f 186/186/186 185/185/185 183/183/183
f 189/189/189 188/188/188 187/187/187
f 190/190/190 189/189/189 187/187/187
f 190/190/190 187/187/187 191/191/191
f 192/192/192 190/190/190 191/191/191
f 195/195/195 194/194/194 193/193/193
f 196/196/196 195/195/195 193/193/193
f 199/199/199 198/198/198 197/197/197
f 200/200/200 199/199/199 197/197/197
f 203/203/203 202/202/202 201/201/201
f 204/204/204 203/203/203 201/201/201
f 207/207/207 206/206/206 205/205/205
f 208/208/208 207/207/207 205/205/205
g Poster_2
f 211/211/211 210/210/210 209/209/209
f 212/212/212 211/211/211 209/209/209
f 215/215/215 214/214/214 213/213/213
f 216/216/216 215/215/215 213/213/213
f 219/219/219 218/218/218 217/217/217
f 218/218/218 220/220/220 217/217/217
f 218/218/218 221/221/221 220/220/220
f 221/221/221 222/222/222 220/220/220
f 225/225/225 224/224/224 223/223/223
f 226/226/226 225/225/225 223/223/223
f 226/226/226 223/223/223 227/227/227
f 228/228/228 226/226/226 227/227/227
f 231/231/231 230/230/230 229/229/229
f 232/232/232 231/231/231 229/229/229
f 232/232/232 229/229/229 233/233/233
f 234/234/234 232/232/232 233/233/233
f 234/234/234 233/233/233 235/235/235
f 236/236/236 234/234/234 235/235/235
f 239/239/239 238/238/238 237/237/237
f 240/240/240 239/239/239 237/237/237
f 243/243/243 242/242/242 241/241/241
f 242/242/242 244/244/244 241/241/241
f 242/242/242 245/245/245 244/244/244
f 245/245/245 246/246/246 244/244/244
f 249/249/249 248/248/248 247/247/247
f 250/250/250 249/249/249 247/247/247
