g Right Shelf
v -0.00172485551 0.000629350543 -4.97102747E-07
v 0.00158987066 0.000629350543 -4.97102747E-07
v 0.00158987066 0.000629350543 5.61714151E-05
v -0.00172485551 0.000629350543 5.61714151E-05
v -0.00172485551 1.50310989E-05 -4.97102747E-07
v -0.00172485551 1.50310989E-05 5.61714151E-05
v 0.00158987066 1.50310989E-05 5.61714151E-05
v 0.00158987066 1.50310989E-05 -4.97102747E-07
v -0.00172485551 0.000629350543 5.61714151E-05
v 0.00158987066 0.000629350543 5.61714151E-05
v 0.00158987066 1.50310989E-05 5.61714151E-05
v -0.00172485551 1.50310989E-05 5.61714151E-05
v -0.00172485551 0.000629350543 -4.97102747E-07
v -0.00172485551 0.000629350543 5.61714151E-05
v -0.00172485551 1.50310989E-05 5.61714151E-05
v -0.00172485551 1.50310989E-05 -4.97102747E-07
v 0.00158987066 0.000629350543 5.61714151E-05
v 0.00158987066 0.000629350543 -4.97102747E-07
v 0.00158987066 1.50310989E-05 -4.97102747E-07
v 0.00158987066 1.50310989E-05 5.61714151E-05
v 0.00158987066 0.000629350543 -2.47836106E-05
v 0.00158987066 1.50310989E-05 -2.47836106E-05
v -0.00172485551 0.000629350543 -2.47836106E-05
v -0.00172485551 1.50310989E-05 -2.47836106E-05
v -0.00172485551 1.50310989E-05 -2.47836106E-05
v 0.00158987066 1.50310989E-05 -2.47836106E-05
v -0.00172485551 0.000629350543 -2.47836106E-05
v 0.00158987066 0.000629350543 -2.47836106E-05
v 0.00158987066 0.000629349961 -0.000144922727
v -0.00172485551 0.000576996768 -0.000144922727
v -0.00172485551 0.000629349961 -0.000144922727
v 0.00158987066 0.000576996768 -0.000144922727
v -0.00172485551 0.000553364167 -0.000147418978
v 0.00158987066 0.000553364167 -0.000147418978
v -0.00172485551 0.000532044156 -0.000154663314
v 0.00158987066 0.000532044156 -0.000154663314
v -0.00172485551 0.000515125401 -0.000165946476
v 0.00158987066 0.000515125401 -0.000165946476
v -0.00172485551 0.000629349961 -0.00027646721
v 0.00158987066 0.000629349961 -0.00027646721
v 0.00158987066 0.000629349961 -0.000144922727
v -0.00172485551 0.000629349961 -0.000144922727
v 0.00158987066 0.000515125401 -0.000165946476
v -0.00172485551 0.000504262454 -0.000180163974
v -0.00172485551 0.000515125401 -0.000165946476
v 0.00158987066 0.000504262454 -0.000180163974
v -0.00172485551 0.000500519236 -0.000195924033
v 0.00158987066 0.000500519236 -0.000195924033
v 0.00158987066 0.000500519236 -0.000219182373
v -0.00172485551 0.000500519236 -0.000219182373
v -0.00172485551 0.00050472375 -0.000236884356
v 0.00158987066 0.00050472375 -0.000236884356
v -0.00172485551 0.000516924832 -0.000252853613
v 0.00158987066 0.000516924832 -0.000252853613
v -0.00172485551 0.000535929168 -0.00026552676
v -0.00172485551 0.000516924832 -0.000252853613
v 0.00158987066 0.000516924832 -0.000252853613
v 0.00158987066 0.000535929168 -0.00026552676
v -0.00172485551 0.000559874752 -0.000273663405
v 0.00158987066 0.000559874752 -0.000273663405
v -0.00172485551 0.000586420298 -0.00027646721
v 0.00158987066 0.000586420298 -0.00027646721
v -0.00172485551 0.000629349961 -0.00027646721
v 0.00158987066 0.000629349961 -0.00027646721
v 0.00158987066 0.000629350543 -2.47836106E-05
v -0.00172485551 0.000629350543 -2.47836106E-05
v -0.00172485551 1.50310989E-05 -2.47836106E-05
v 0.00158987066 1.50310989E-05 -2.47836106E-05
v 0.00158987066 0.00050472375 -0.000236884356
v 0.00158987066 0.000500519236 -0.000219182373
v 0.00158987066 0.000500519236 -0.000195924033
v 0.00158987066 0.000504262454 -0.000180163974
v 0.00158987066 0.000515125401 -0.000165946476
v 0.00158987066 0.000516924832 -0.000252853613
v 0.00158987066 0.000532044156 -0.000154663314
v 0.00158987066 0.000535929168 -0.00026552676
v 0.00158987066 0.000553364167 -0.000147418978
v 0.00158987066 0.000559874752 -0.000273663405
v 0.00158987066 0.000576996768 -0.000144922727
v 0.00158987066 0.000586420298 -0.00027646721
v 0.00158987066 0.000629349961 -0.000144922727
v 0.00158987066 0.000629349961 -0.00027646721
v -0.00172485551 0.000504262454 -0.000180163974
v -0.00172485551 0.000500519236 -0.000195924033
v -0.00172485551 0.000500519236 -0.000219182373
v -0.00172485551 0.00050472375 -0.000236884356
v -0.00172485551 0.000515125401 -0.000165946476
v -0.00172485551 0.000516924832 -0.000252853613
v -0.00172485551 0.000532044156 -0.000154663314
v -0.00172485551 0.000535929168 -0.00026552676
v -0.00172485551 0.000553364167 -0.000147418978
v -0.00172485551 0.000559874752 -0.000273663405
v -0.00172485551 0.000576996768 -0.000144922727
v -0.00172485551 0.000586420298 -0.00027646721
v -0.00172485551 0.000629349961 -0.000144922727
v -0.00172485551 0.000629349961 -0.00027646721
vt 0.706542969 0.0122833252
vt 0.706542969 0.987792969
vt 0.723144531 0.987792969
vt 0.723144531 0.0122833252
vt 0.658203125 0.987792969
vt 0.674804688 0.987792969
vt 0.674804688 0.0122833252
vt 0.658203125 0.0122833252
vt 0.0122833252 0.0122833252
vt 0.0122833252 0.987792969
vt 0.192016602 0.987792969
vt 0.192016602 0.0122833252
vt 0.764648438 0.0122833252
vt 0.748046875 0.0122833252
vt 0.748046875 0.193115234
vt 0.764648438 0.193115234
vt 0.748046875 0.3984375
vt 0.764648438 0.3984375
vt 0.764648438 0.217651367
vt 0.748046875 0.217651367
vt 0.771972656 0.3984375
vt 0.771972656 0.217651367
vt 0.771972656 0.0122833252
vt 0.771972656 0.193115234
vt 0.651367188 0.987792969
vt 0.651367188 0.0122833252
vt 0.699707031 0.0122833252
vt 0.699707031 0.987792969
vt 0.518066406 0.0122833252
vt 0.502929688 0.987792969
vt 0.518066406 0.987792969
vt 0.502929688 0.0122833252
vt 0.495849609 0.987792969
vt 0.495849609 0.0122833252
vt 0.489501953 0.987792969
vt 0.489501953 0.0122833252
vt 0.484130859 0.987792969
vt 0.484130859 0.0122833252
vt 0.420898438 0.0122833252
vt 0.420898438 0.987792969
vt 0.459472656 0.987792969
vt 0.459472656 0.0122833252
vt 0.626464844 0.0122833252
vt 0.622558594 0.987792969
vt 0.626464844 0.987792969
vt 0.622558594 0.0122833252
vt 0.617675781 0.987792969
vt 0.617675781 0.0122833252
vt 0.610839844 0.0122833252
vt 0.610839844 0.987792969
vt 0.60546875 0.987792969
vt 0.60546875 0.0122833252
vt 0.601074219 0.987792969
vt 0.601074219 0.0122833252
vt 0.5703125 0.987792969
vt 0.576660156 0.987792969
vt 0.576660156 0.0122833252
vt 0.5703125 0.0122833252
vt 0.562988281 0.987792969
vt 0.562988281 0.0122833252
vt 0.555175781 0.987792969
vt 0.555175781 0.0122833252
vt 0.54296875 0.987792969
vt 0.54296875 0.0122833252
vt 0.396240234 0.987792969
vt 0.396240234 0.0122833252
vt 0.216552734 0.0122833252
vt 0.216552734 0.987792969
vt 0.784667969 0.513183594
vt 0.785644531 0.508300781
vt 0.785644531 0.501464844
vt 0.784667969 0.496582031
vt 0.781738281 0.492431641
vt 0.78125 0.518066406
vt 0.776367188 0.489013672
vt 0.775390625 0.521972656
vt 0.770507812 0.487060547
vt 0.768554688 0.523925781
vt 0.763183594 0.486328125
vt 0.760742188 0.524902344
vt 0.748046875 0.486328125
vt 0.748046875 0.524902344
vt 0.749023438 0.433349609
vt 0.748046875 0.437988281
vt 0.748046875 0.444824219
vt 0.749023438 0.449951172
vt 0.752441406 0.429199219
vt 0.752929688 0.454833984
vt 0.757324219 0.42578125
vt 0.758300781 0.458496094
vt 0.763671875 0.423828125
vt 0.765625 0.4609375
vt 0.770507812 0.422851562
vt 0.7734375 0.461669922
vt 0.785644531 0.422851562
vt 0.785644531 0.461669922
vn -0 1 0
vn -0 1 0
vn -0 1 0
vn -0 1 0
vn -0 -1 0
vn -0 -1 0
vn -0 -1 0
vn -0 -1 0
vn -0 0 1
vn -0 0 1
vn -0 0 1
vn -0 0 1
vn -1 0 0
vn -1 0 0
vn -1 0 0
vn -1 0 0
vn 1 0 0
vn 1 0 0
vn 1 0 0
vn 1 0 0
vn 1 0 0
vn 1 0 0
vn -1 0 0
vn -1 0 0
vn -0 -1 0
vn -0 -1 0
vn -0 1 0
vn -0 1 0
vn -0 0 1
vn -0 -0.0525817871 0.998535156
vn -0 0 1
vn -0 -0.0525817871 0.998535156
vn -0 -0.21472168 0.9765625
vn -0 -0.21472168 0.9765625
vn -0 -0.442138672 0.896972656
vn -0 -0.442138672 0.896972656
vn -0 -0.684082031 0.729492188
vn -0 -0.684082031 0.729492188
vn -0 1 0
vn -0 1 0
vn -0 1 0
vn -0 1 0
vn -0 -0.684082031 0.729492188
vn -0 -0.903320312 0.428466797
vn -0 -0.684082031 0.729492188
vn -0 -0.903320312 0.428466797
vn -0 -0.993164062 0.116333008
vn -0 -0.993164062 0.116333008
vn -0 -0.993164062 -0.116333008
vn -0 -0.993164062 -0.116333008
vn -0 -0.903320312 -0.428466797
vn -0 -0.903320312 -0.428466797
vn -0 -0.684082031 -0.729492188
vn -0 -0.684082031 -0.729492188
vn -0 -0.441894531 -0.896972656
vn -0 -0.684082031 -0.729492188
vn -0 -0.684082031 -0.729492188
vn -0 -0.441894531 -0.896972656
vn -0 -0.21472168 -0.9765625
vn -0 -0.21472168 -0.9765625
vn -0 -0.0525817871 -0.998535156
vn -0 -0.0525817871 -0.998535156
vn -0 0 -1
vn -0 0 -1
vn -0 0 -1
vn -0 0 -1
vn -0 0 -1
vn -0 0 -1
vn 1 2.38418579E-07 0
vn 1 2.38418579E-07 0
vn 1 2.38418579E-07 0
vn 1 2.38418579E-07 0
vn 1 2.38418579E-07 0
vn 1 2.38418579E-07 0
vn 1 2.38418579E-07 0
vn 1 2.38418579E-07 0
vn 1 2.38418579E-07 0
vn 1 2.38418579E-07 0
vn 1 2.38418579E-07 0
vn 1 2.38418579E-07 0
vn 1 2.38418579E-07 0
vn 1 2.38418579E-07 0
vn -1 1.54972076E-06 0
vn -1 1.54972076E-06 0
vn -1 1.54972076E-06 0
vn -1 1.54972076E-06 0
vn -1 1.54972076E-06 0
vn -1 1.54972076E-06 0
vn -1 1.54972076E-06 0
vn -1 1.54972076E-06 0
vn -1 1.54972076E-06 0
vn -1 1.54972076E-06 0
vn -1 1.54972076E-06 0
vn -1 1.54972076E-06 0
vn -1 1.54972076E-06 0
vn -1 1.54972076E-06 0
g Right Shelf_0
f 3/3/3 2/2/2 1/1/1
f 4/4/4 3/3/3 1/1/1
f 7/7/7 6/6/6 5/5/5
f 8/8/8 7/7/7 5/5/5
f 11/11/11 10/10/10 9/9/9
f 12/12/12 11/11/11 9/9/9
f 15/15/15 14/14/14 13/13/13
f 16/16/16 15/15/15 13/13/13
f 19/19/19 18/18/18 17/17/17
f 20/20/20 19/19/19 17/17/17
g Right Shelf_1
f 22/22/22 21/21/21 18/18/18
f 19/19/19 22/22/22 18/18/18
f 16/16/16 13/13/13 23/23/23
f 24/24/24 16/16/16 23/23/23
f 8/8/8 5/5/5 25/25/25
f 26/26/26 8/8/8 25/25/25
f 2/2/2 28/28/28 27/27/27
f 1/1/1 2/2/2 27/27/27
f 31/31/31 30/30/30 29/29/29
f 30/30/30 32/32/32 29/29/29
f 30/30/30 33/33/33 32/32/32
f 33/33/33 34/34/34 32/32/32
f 33/33/33 35/35/35 34/34/34
f 35/35/35 36/36/36 34/34/34
f 35/35/35 37/37/37 36/36/36
f 37/37/37 38/38/38 36/36/36
f 41/41/41 40/40/40 39/39/39
f 42/42/42 41/41/41 39/39/39
f 45/45/45 44/44/44 43/43/43
f 44/44/44 46/46/46 43/43/43
f 44/44/44 47/47/47 46/46/46
f 47/47/47 48/48/48 46/46/46
f 48/48/48 47/47/47 49/49/49
f 47/47/47 50/50/50 49/49/49
f 49/49/49 50/50/50 51/51/51
f 52/52/52 49/49/49 51/51/51
f 52/52/52 51/51/51 53/53/53
f 54/54/54 52/52/52 53/53/53
f 57/57/57 56/56/56 55/55/55
f 58/58/58 57/57/57 55/55/55
f 58/58/58 55/55/55 59/59/59
f 60/60/60 58/58/58 59/59/59
f 60/60/60 59/59/59 61/61/61
f 62/62/62 60/60/60 61/61/61
f 62/62/62 61/61/61 63/63/63
f 64/64/64 62/62/62 63/63/63
g Right Shelf_2
f 67/67/67 66/66/66 65/65/65
f 68/68/68 67/67/67 65/65/65
f 71/71/71 70/70/70 69/69/69
f 69/69/69 72/72/72 71/71/71
f 69/69/69 73/73/73 72/72/72
f 69/69/69 74/74/74 73/73/73
f 74/74/74 75/75/75 73/73/73
f 74/74/74 76/76/76 75/75/75
f 76/76/76 77/77/77 75/75/75
f 76/76/76 78/78/78 77/77/77
f 78/78/78 79/79/79 77/77/77
f 78/78/78 80/80/80 79/79/79
f 80/80/80 81/81/81 79/79/79
f 80/80/80 82/82/82 81/81/81
f 85/85/85 84/84/84 83/83/83
f 83/83/83 86/86/86 85/85/85
f 83/83/83 87/87/87 86/86/86
f 87/87/87 88/88/88 86/86/86
f 87/87/87 89/89/89 88/88/88
f 89/89/89 90/90/90 88/88/88
f 89/89/89 91/91/91 90/90/90
f 91/91/91 92/92/92 90/90/90
f 91/91/91 93/93/93 92/92/92
f 93/93/93 94/94/94 92/92/92
f 93/93/93 95/95/95 94/94/94
f 95/95/95 96/96/96 94/94/94
